<?xml version="1.0" encoding="UTF-8"?>
<svg width="83px" height="90px" viewBox="0 0 83 90" version="1.1" xmlns="http://www.w3.org/2000/svg" xmlns:xlink="http://www.w3.org/1999/xlink">
    <!-- Generator: Sketch 55.2 (78181) - https://sketchapp.com -->
    <title>Group 47</title>
    <desc>Created with Sketch.</desc>
    <defs>
        <polygon id="path-1" points="0.208440932 0.0809433962 3.28058758 0.0809433962 3.28058758 4.52332075 0.208440932 4.52332075"></polygon>
        <polygon id="path-3" points="0.302054902 0.0684500128 33.1779908 0.0684500128 33.1779908 46.2896038 0.302054902 46.2896038"></polygon>
    </defs>
    <g id="Page-1" stroke="none" stroke-width="1" fill="none" fill-rule="evenodd">
        <g id="Browse-charities-V2" transform="translate(-249.000000, -713.000000)">
            <g id="Group-47" transform="translate(249.000000, 713.000000)">
                <path d="M57.4186748,10.1962075 C56.9435023,10.1962075 56.4717158,10.3184717 56.0541057,10.5499811 C55.1528581,11.0497925 54.5924705,12.0013019 54.5924705,13.0331887 C54.5924705,13.3218679 54.6370532,13.6099811 54.7256543,13.8879057 C54.735248,13.9173396 54.7431487,13.9462075 54.7499208,13.9762075 C55.1376209,15.6465849 58.016873,18.0245094 60.0417175,19.353566 C62.0580969,18.0313019 64.9412993,15.6505472 65.3295638,13.9762075 C65.3369002,13.9462075 65.3453653,13.9162075 65.354959,13.8873396 C65.4429958,13.6094151 65.4881428,13.322434 65.4881428,13.0331887 C65.4881428,12.0013019 64.9283196,11.0497925 64.0259432,10.547717 C63.0033629,9.9839434 61.6596743,10.1333774 60.7894652,10.9071509 C60.3616971,11.2863962 59.7206092,11.2869623 59.2928411,10.907717 C58.7759075,10.4486604 58.1105531,10.1962075 57.4186748,10.1962075 M60.0428462,21.7252642 C59.730203,21.7252642 59.4237675,21.6380943 59.155707,21.4728113 C58.1782737,20.8563962 53.3272249,17.6628113 52.5619827,14.5343208 C52.4118688,14.0463962 52.3351188,13.5414906 52.3351188,13.0331887 C52.3351188,11.177717 53.3418977,9.46715094 54.9621118,8.56828302 C56.5326643,7.69884906 58.5315492,7.75149057 60.0400245,8.66111321 C61.5484997,7.75149057 63.549642,7.70054717 65.1162441,8.56488679 C65.1168084,8.56545283 65.1179371,8.56601887 65.1179371,8.56601887 C66.73928,9.46658491 67.7454945,11.177717 67.7454945,13.0331887 C67.7454945,13.5420566 67.6687445,14.0475283 67.517502,14.5348868 C66.7511311,17.6656415 61.904597,20.8569623 60.9367574,21.4671509 C60.6602319,21.6380943 60.3543607,21.7252642 60.0428462,21.7252642" id="Fill-1" fill="#3C76A6"></path>
                <path d="M59.238282,47.6856792 C59.2354479,47.0913396 58.752939,46.6119057 58.1603842,46.615284 C57.5678293,46.6181321 57.0898351,47.1020943 57.0932033,47.6958679 C57.0960428,48.2902075 57.5785518,48.7696415 58.1711066,48.7668238 C58.7630971,48.7639811 59.2410913,48.2800189 59.238282,47.6856792" id="Fill-3" fill="#3C76A6"></path>
                <g id="Group-7" transform="translate(62.077172, 0.485094)">
                    <mask id="mask-2" fill="white">
                        <use xlink:href="#path-1"></use>
                    </mask>
                    <g id="Clip-6"></g>
                    <path d="M1.33759374,4.52332075 C1.20610301,4.52332075 1.07179058,4.49954717 0.941428523,4.45086792 C0.357903111,4.23124528 0.0616257012,3.57860377 0.280588815,2.99332075 L1.0943641,0.814641509 C1.31332721,0.229358491 1.96457318,-0.0644150943 2.54753425,0.151811321 C3.131624,0.371433962 3.42733707,1.02407547 3.20837396,1.60992453 L2.39459867,3.78803774 C2.22473296,4.24256604 1.79470746,4.52332075 1.33759374,4.52332075" id="Fill-5" fill="#3C76A6" mask="url(#mask-2)"></path>
                </g>
                <path d="M55.4307945,5.27983019 C55.0018977,5.27983019 54.5921883,5.0324717 54.4031351,4.61530189 L53.4437607,2.49775472 C53.1852939,1.92888679 53.4364243,1.25756604 54.0041482,0.998320755 C54.5684861,0.741339623 55.2400483,0.991528302 55.4979507,1.5615283 L56.4573252,3.67907547 C56.7152276,4.2479434 56.4646616,4.91926415 55.8969376,5.17737736 C55.7462594,5.24643396 55.5871161,5.27983019 55.4307945,5.27983019" id="Fill-8" fill="#3C76A6"></path>
                <path d="M49.816648,11.1348113 C49.6851572,11.1348113 49.5508448,11.1110377 49.4204827,11.0623585 L47.2483461,10.245566 C46.6648207,10.0253774 46.3691076,9.37330189 46.5875064,8.78801887 C46.8070338,8.20216981 47.4582798,7.90726415 48.0412409,8.12518868 L50.2128132,8.94198113 C50.7963386,9.16216981 51.092616,9.81424528 50.8736529,10.3995283 C50.7032228,10.8540566 50.2737617,11.1348113 49.816648,11.1348113" id="Fill-10" fill="#3C76A6"></path>
                <path d="M47.9764549,20.105717 C47.547558,20.105717 47.1372844,19.8583585 46.9482312,19.4411887 C46.6908931,18.8717547 46.9414591,18.201 47.5091831,17.9423208 L49.6209356,16.9794906 C50.1869665,16.7225094 50.8568356,16.9726981 51.1153024,17.5426981 C51.3732048,18.111566 51.1220745,18.7828868 50.5543505,19.041566 L48.442598,20.0038302 C48.2913554,20.0723208 48.1327765,20.105717 47.9764549,20.105717" id="Fill-12" fill="#3C76A6"></path>
                <path d="M55.1105892,26.7920377 C54.9790984,26.7920377 54.844786,26.7682642 54.7144239,26.7195849 C54.1308985,26.4993962 53.8346211,25.8473208 54.0535842,25.2620377 L54.8679238,23.0833585 C55.0874513,22.4986415 55.7375686,22.2031698 56.321094,22.4205283 C56.9051837,22.640717 57.2008968,23.2927925 56.9819337,23.8780755 L56.1675941,26.0567547 C55.997164,26.511283 55.5677029,26.7920377 55.1105892,26.7920377" id="Fill-14" fill="#3C76A6"></path>
                <path d="M64.8696849,26.4598302 C64.440788,26.4598302 64.0310787,26.2124717 63.8420255,25.7958679 L62.8815224,23.6783208 C62.6236199,23.1088868 62.8747503,22.4381321 63.4419099,22.1794528 C64.0079408,21.9202075 64.67781,22.1720943 64.9362767,22.7409623 L65.8962155,24.8585094 C66.1546823,25.4279434 65.9035519,26.0986981 65.3363923,26.3573774 C65.1851498,26.426434 65.0260065,26.4598302 64.8696849,26.4598302" id="Fill-16" fill="#3C76A6"></path>
                <path d="M71.5348543,19.3042075 C71.4033636,19.3042075 71.2690512,19.280434 71.1386891,19.2317547 L68.9671168,18.4149623 C68.3835914,18.1947736 68.0878783,17.5426981 68.3062771,16.9574151 C68.5258045,16.371566 69.1764861,16.0772264 69.7594472,16.2945849 L71.9310195,17.1113774 C72.514545,17.331566 72.8108224,17.9836415 72.5918593,18.5689245 C72.4214292,19.0234528 71.991968,19.3042075 71.5348543,19.3042075" id="Fill-18" fill="#3C76A6"></path>
                <path d="M69.0928513,10.4786604 C68.6639544,10.4786604 68.2542451,10.2313019 68.0646276,9.81413208 C67.8072895,9.24526415 68.0578555,8.5739434 68.6255795,8.31583019 L70.7367676,7.35356604 C71.3011056,7.09432075 71.973232,7.34564151 72.2311345,7.91564151 C72.4890369,8.48450943 72.2379065,9.15583019 71.6701826,9.4139434 L69.5589944,10.3762075 C69.4083162,10.4452642 69.2491729,10.4786604 69.0928513,10.4786604" id="Fill-20" fill="#3C76A6"></path>
                <path d="M28.1585436,68.7589811 C28.0343893,68.7589811 27.9091062,68.7380377 27.7849519,68.6950189 L22.2860432,66.7608679 C21.6980031,66.5536981 21.3881815,65.9078491 21.5941649,65.3174717 C21.8007126,64.7276604 22.4423648,64.4174717 23.0332266,64.6235094 L28.5321353,66.5576604 C29.1201754,66.7648302 29.4299969,67.4106792 29.2240136,68.0010566 C29.0609199,68.4669057 28.6246867,68.7589811 28.1585436,68.7589811" id="Fill-22" fill="#0C1831"></path>
                <path d="M30.093489,89.7482264 C29.5404379,89.7482264 29.0568003,89.3395472 28.9772286,88.7735094 C28.9292599,88.4327547 28.1408798,87.9063396 27.4947129,87.6816226 C27.059044,87.5299245 26.7554302,87.1263396 26.733421,86.6638868 C26.3028312,77.5042642 26.5776638,77.0231321 26.7599449,76.7044528 C26.8513677,76.5442642 27.0071249,76.3161509 27.1961781,76.0444528 C27.5528397,75.5338868 28.4997987,74.1759623 28.4010396,73.632566 C28.3558926,73.3840755 28.2526187,73.0353962 28.1329791,72.6312453 C27.6865878,71.1216226 27.0116396,68.8399245 27.7847826,66.4365283 C28.3017161,64.8278491 29.4856971,63.7506792 31.1183267,63.4036981 C31.5190066,63.3187925 31.8655101,63.0403019 32.0432766,62.6593585 L32.1922618,62.3401132 L28.3276757,59.8852075 C28.1657107,59.7827547 28.0325269,59.6395472 27.9399755,59.4703019 L27.2029502,58.1118113 C26.8891783,58.706717 26.4721326,59.3152075 25.9207744,59.8331321 C24.6092531,61.0670943 24.4433378,62.1476604 24.2503342,63.3986038 C24.0782111,64.5227547 23.8818215,65.7963396 22.7514527,66.9295472 C22.0815835,67.602 21.0132919,68.4844528 19.7762631,69.5055849 C17.6932919,71.2252075 14.5454149,73.8244528 14.0002645,75.1003019 C13.1847962,77.0095472 12.8433717,82.2238868 12.6588332,85.0246415 C12.5544307,86.6203019 12.5171844,87.1387925 12.4319694,87.4359623 C12.0205671,88.8838868 10.7762019,89.7804906 9.29142886,89.7057736 C7.7874683,89.6361509 6.52335135,88.6648302 6.28632942,87.3963396 C6.25359782,87.2180377 6.233846,86.9486038 6.18813463,86.3010566 C5.30663879,73.7718113 2.64239946,71.9474717 1.13956757,71.9406792 L1.12884515,71.9406792 C0.510330784,71.9406792 0.00637701853,71.4408679 0.000112181962,70.8199245 C-0.00603841577,70.1944528 0.494529322,69.6827547 1.11755839,69.6765283 L1.16496277,69.6765283 C6.64750569,69.6765283 7.94209689,79.0676604 8.43984294,86.141434 C8.46580248,86.5116226 8.4928907,86.8948302 8.50699915,86.9893585 C8.53295869,87.1257736 8.90090702,87.4212453 9.39583138,87.4444528 C10.0583641,87.4540755 10.210171,86.9944528 10.2620901,86.8127547 C10.2897426,86.6559623 10.3495625,85.751434 10.4065606,84.8763396 C10.6125439,81.7336981 10.9579187,76.4740755 11.9263226,74.2082264 C12.6323094,72.5542642 15.0307455,70.4916226 18.3417161,67.7576604 C19.4839361,66.8140755 20.5623859,65.9231321 21.155505,65.3287925 C21.7638613,64.7186038 21.8710855,64.0206792 22.0195064,63.0538868 C22.2322618,61.6704906 22.4969363,59.9503019 24.3767459,58.181434 C25.5500044,57.0782264 25.8575686,55.1808679 25.8603903,55.1621887 C25.9314969,54.6799245 26.3011382,54.2978491 26.7791324,54.2129434 C27.2605127,54.1252075 27.7356852,54.3584151 27.9681924,54.7857736 L29.7831032,58.1299245 L34.2402441,60.9612453 C34.7199313,61.2663396 34.8993908,61.8816226 34.6584185,62.3978491 L34.0873085,63.6199245 C33.610443,64.6393585 32.6758994,65.3865283 31.5867272,65.6186038 C30.7436063,65.7974717 30.2024063,66.2927547 29.9332171,67.1316226 C29.3750869,68.8676604 29.9083862,70.6710566 30.297215,71.9876604 C30.4354778,72.4540755 30.5545531,72.8570943 30.6217093,73.227283 C30.8897698,74.6995472 29.7802815,76.2901132 29.0466422,77.3423774 C28.9507047,77.4793585 28.864361,77.6010566 28.7977692,77.7023774 C28.7057821,78.5712453 28.8000265,82.3178491 28.9557838,85.8516226 C29.7859249,86.2693585 31.0229536,87.1076604 31.2125711,88.4587925 C31.3000435,89.0780377 30.8694537,89.6497358 30.252068,89.7369057 C30.1990202,89.7448302 30.1459725,89.7482264 30.093489,89.7482264" id="Fill-24" fill="#0C1831"></path>
                <path d="M24.2401197,89.9190566 L14.5809118,89.9190566 C13.9573184,89.9190566 13.4522359,89.4124528 13.4522359,88.7869811 C13.4522359,88.1615094 13.9573184,87.6549057 14.5809118,87.6549057 L24.2401197,87.6549057 C24.8631487,87.6549057 25.3687955,88.1615094 25.3687955,88.7869811 C25.3687955,89.4124528 24.8631487,89.9190566 24.2401197,89.9190566" id="Fill-26" fill="#0C1831"></path>
                <path d="M42.0156356,51.7800566 C41.4315458,51.7800566 40.9371858,51.3289245 40.8914744,50.7345849 C40.8435057,50.1119434 41.3085201,49.5674151 41.9304205,49.5193019 C41.9772606,49.5153396 46.8740207,49.0800566 49.7160265,45.6425094 C50.1144491,45.1608113 50.8266435,45.0945849 51.3052021,45.4936415 C51.7854537,45.8926981 51.8514812,46.6064717 51.4541873,47.0876038 C47.9908455,51.276283 42.3423872,51.7585472 42.1031079,51.7766604 C42.0743267,51.7789245 42.0449811,51.7800566 42.0156356,51.7800566" id="Fill-28" fill="#0C1831"></path>
                <path d="M73.5832881,77.7204906 C73.0516818,77.7204906 72.5787666,77.3440755 72.4766215,76.8006792 C71.7537046,72.9448302 70.9348502,68.5812453 69.6261506,65.5201132 C68.649846,63.2350189 65.577026,58.7038868 60.74065,52.4169057 C60.3602862,51.9216226 60.4511447,51.2106792 60.9449403,50.8286038 C61.438736,50.4470943 62.1464158,50.5382264 62.5284725,51.0335094 C67.5499514,57.5621887 70.6351868,62.1357736 71.7006568,64.6280377 C73.1069869,67.9178491 73.9501078,72.4116226 74.6944695,76.3761509 C74.8095944,76.9908679 74.4066571,77.5852075 73.7943505,77.7012453 C73.7232439,77.7142642 73.6527017,77.7204906 73.5832881,77.7204906" id="Fill-30" fill="#3C76A6"></path>
                <g id="Group-34" transform="translate(49.097399, 42.937925)">
                    <mask id="mask-4" fill="white">
                        <use xlink:href="#path-3"></use>
                    </mask>
                    <g id="Clip-33"></g>
                    <path d="M26.8557131,46.2896038 C24.1305252,46.2896038 21.725317,44.9299811 20.3867075,42.6165849 C19.597763,41.2541321 19.0638994,38.4080943 18.3878225,34.8046981 C17.7140031,31.2103585 16.9493252,27.1371509 15.8612817,24.5899811 C14.3257182,20.9984717 5.52994731,9.83281132 2.56943056,6.20450943 C1.57393847,4.98413208 1.28894782,4.17696226 0.772014278,2.70979245 C0.656889342,2.38318868 0.527655958,2.01469811 0.371898691,1.59130189 C0.156321605,1.00432075 0.45654938,0.353943396 1.04176781,0.138283019 C1.62698623,-0.0773773585 2.2754105,0.223188679 2.49042325,0.809603774 C2.64956655,1.24318868 2.7827503,1.62016981 2.90069692,1.95526415 C3.38828489,3.33866038 3.57056604,3.85658491 4.31662077,4.77016981 C4.43287438,4.91281132 15.9521401,19.0580943 17.9352235,23.6979057 C19.1220262,26.4737547 19.9104063,30.6771509 20.6062349,34.3858302 C21.1660581,37.3688491 21.7445045,40.4531887 22.3387523,41.4794151 C23.7179942,43.863566 26.0825701,44.0520566 27.0430733,44.0226226 C28.610804,43.9733774 30.0730036,43.2879057 30.5193949,42.392434 C30.5651062,42.3007358 31.6198538,40.1373396 30.0995275,38.9928113 C29.6006527,38.6180943 29.5002006,37.908283 29.8743566,37.4084717 C30.2479483,36.9092264 30.9544994,36.8062075 31.4539385,37.1820566 C33.8574537,38.9899811 33.2665919,41.9446981 32.538596,43.4050755 C31.7174843,45.0516792 29.5374469,46.2097925 27.1136155,46.2856415 C27.0272718,46.2884717 26.9409281,46.2896038 26.8557131,46.2896038" id="Fill-32" fill="#0C1831" mask="url(#mask-4)"></path>
                </g>
                <path d="M42.7062159,34.2200377 L44.0239449,37.0015472 C44.0995662,37.1623019 44.1368125,37.3377736 44.1322978,37.5155094 C44.0719136,40.0632453 44.485009,43.2647547 45.1768873,43.7849434 C47.0730627,45.2102264 48.7593044,44.3243774 49.319692,43.9456981 C49.6859473,43.0966415 50.8371967,39.5690943 46.8569213,35.5230566 C46.078135,34.7323019 45.3365949,34.3581509 44.1215754,34.1447547 C43.7259745,34.0756981 43.2282285,34.1090943 42.7062159,34.2200377 L42.7062159,34.2200377 Z M45.0730491,89.6102264 L38.9031426,89.6102264 C38.2795492,89.6102264 37.7744668,89.1030566 37.7744668,88.4781509 C37.7744668,85.9417358 39.4821533,83.7211698 41.9279939,83.0775849 L42.315694,82.9756981 C42.4618576,77.9611698 42.481045,72.6115472 42.2615176,71.6583396 C40.8687316,69.2107925 39.2005487,65.8762642 39.0481775,63.7270189 C38.9618338,62.5264528 39.2818134,60.9806038 39.6514547,59.1902264 C40.2784341,56.1500377 41.0594778,52.3677736 39.7513425,49.9072075 C39.0425341,48.5741887 36.3675723,47.7058868 32.5955377,47.5841887 C31.2292755,47.5400377 29.9995832,46.8160755 29.3065762,45.6494717 C27.6632242,42.8849434 27.6383933,41.7811698 27.8009227,41.1285283 C28.0362516,40.1843774 29.0526242,39.818717 32.2309754,38.8038113 C33.0898977,38.5298491 33.9759082,38.2468302 34.488327,38.0356981 C34.6553711,37.8998491 35.1734333,37.4017358 36.736085,35.5751321 C37.3438769,34.8636226 38.217472,34.0360755 38.9635268,33.4643774 C40.2620683,32.469283 42.6497821,31.5885283 44.5104042,31.9151321 C46.1768941,32.2072075 47.359182,32.8106038 48.4635914,33.9324906 C54.1825919,39.7456981 51.3213986,45.024 51.1966799,45.2458868 C51.1300881,45.3653208 51.0420513,45.4711698 50.9365201,45.5589057 C49.7638259,46.5409811 46.7677559,47.8123019 43.8224763,45.5956981 C41.9703192,44.2032453 41.8467292,39.5289057 41.8709958,37.7323019 L40.6446894,35.1432453 C40.6328383,35.1183396 40.6221159,35.0928679 40.6119578,35.0673962 C40.5148917,35.1307925 40.421776,35.1964528 40.3343036,35.2632453 C39.7118389,35.7398491 38.9561904,36.4558868 38.452801,37.0451321 C36.2558334,39.6143774 35.8246792,39.9251321 35.4539092,40.0847547 C34.8568397,40.3417358 33.913831,40.6428679 32.9160816,40.9609811 C32.0464369,41.2389057 30.6965405,41.6696604 30.0436016,41.9594717 C30.139539,42.3302264 30.4205793,43.1028679 31.245077,44.4902264 C31.5430474,44.9917358 32.0746537,45.3013585 32.6683372,45.3211698 C36.0120394,45.428717 40.299879,46.1272075 41.742891,48.8413585 C43.4359048,52.0241887 42.562874,56.2519245 41.861402,59.648717 C41.5402937,61.2064528 41.2366799,62.6781509 41.2998858,63.5656981 C41.3935659,64.8896604 42.5024899,67.524 44.2660459,70.613434 C44.4325256,70.9060755 44.937608,71.7924906 44.5459575,83.8921132 C44.5295917,84.3930566 44.1870386,84.8238113 43.7045297,84.9506038 L42.5013612,85.2675849 C41.4274261,85.5500377 40.5933347,86.3430566 40.2299011,87.3460755 L45.0730491,87.3460755 C45.6966425,87.3460755 46.201725,87.8526792 46.201725,88.4781509 C46.201725,89.1030566 45.6966425,89.6102264 45.0730491,89.6102264 L45.0730491,89.6102264 Z" id="Fill-35" fill="#0C1831"></path>
                <path d="M67.9201006,89.5995849 L54.3940493,89.5995849 C53.7710202,89.5995849 53.2653734,89.0924151 53.2653734,88.4675094 C53.2653734,87.8426038 53.7710202,87.335434 54.3940493,87.335434 L67.9201006,87.335434 C68.5431297,87.335434 69.0487765,87.8426038 69.0487765,88.4675094 C69.0487765,89.0924151 68.5431297,89.5995849 67.9201006,89.5995849" id="Fill-37" fill="#0C1831"></path>
                <path d="M55.1486255,86.208283 C54.626613,86.208283 54.1582125,85.8431887 54.0459092,85.3111132 C52.7812279,79.3343208 56.224818,74.2863962 60.2355676,73.3207358 C60.8439238,73.173566 61.4511515,73.5499811 61.5961863,74.1573396 C61.7417855,74.7652642 61.3681938,75.3760189 60.7620948,75.5220566 C57.784648,76.2392264 55.2620575,80.1550755 56.2535992,84.8413019 C56.3833969,85.4526226 55.9940037,86.0543208 55.3839544,86.1833774 C55.3049471,86.2003585 55.2265042,86.208283 55.1486255,86.208283" id="Fill-39" fill="#0C1831"></path>
                <path d="M55.231301,89.5912642 L49.0608302,89.5912642 C48.4378011,89.5912642 47.9321543,89.0846604 47.9321543,88.4591887 C47.9321543,85.9233396 49.6404052,83.7027736 52.0862458,83.0586226 L53.2894142,82.7416415 C53.8921271,82.5808868 54.5089485,82.944283 54.6675275,83.5493774 C54.8255421,84.1544717 54.4654945,84.7731509 53.8622172,84.9322075 L52.6590488,85.2486226 C51.5856781,85.5310755 50.7510223,86.3246604 50.388153,87.3271132 L55.231301,87.3271132 C55.8543301,87.3271132 56.3599769,87.834283 56.3599769,88.4591887 C56.3599769,89.0846604 55.8543301,89.5912642 55.231301,89.5912642" id="Fill-41" fill="#0C1831"></path>
                <path d="M54.3732252,83.5267925 C54.0047126,83.5267925 53.642972,83.3462264 53.4262662,83.0128302 C51.7597763,80.4475472 51.7309951,78.1720755 51.7055999,76.1649057 C51.6914914,75.0396226 51.6785116,73.9771698 51.3850559,72.9226415 C50.6164277,70.1524528 48.3534326,68.5109434 48.3308591,68.4939623 C47.8235193,68.1316981 47.7050083,67.424717 48.0661846,66.915283 C48.4273609,66.4058491 49.1322189,66.2864151 49.6401231,66.6503774 C49.7597627,66.735283 52.5786306,68.7815094 53.5600143,72.314717 C53.931913,73.6539623 53.9477144,74.9156604 53.9629516,76.1360377 C53.9866537,78.000566 54.0092273,79.7620755 55.3179269,81.7766038 C55.6576583,82.3007547 55.5109305,83.0015094 54.9883536,83.3433962 C54.7981717,83.4673585 54.5842876,83.5267925 54.3732252,83.5267925" id="Fill-43" fill="#0C1831"></path>
                <path d="M24.2654584,89.6299811 C23.6847547,89.6299811 23.190959,89.1828113 23.1418616,88.5918679 C23.0092422,87.0007358 21.5368846,86.9180943 21.0921863,86.9299811 C20.4753649,86.9407358 19.9499663,86.4646981 19.9240068,85.8454528 C19.8054958,82.9948868 18.7693714,81.4575283 16.5639388,80.8626226 C15.9617902,80.6996038 15.6051287,80.0786604 15.7670937,79.4746981 C15.9301873,78.8713019 16.547573,78.513566 17.1514146,78.6754528 C20.0447751,79.457717 21.7067503,81.5022453 22.1000938,84.7603585 C23.5786592,85.0654528 25.2016951,86.1250755 25.3913126,88.4039434 C25.4432317,89.0265849 24.9816033,89.5739434 24.3602672,89.6260189 C24.3280999,89.6288491 24.2970614,89.6299811 24.2654584,89.6299811" id="Fill-45" fill="#0C1831"></path>
            </g>
        </g>
    </g>
</svg>