<?xml version="1.0" encoding="UTF-8"?>
<svg width="92px" height="80px" viewBox="0 0 92 80" version="1.1" xmlns="http://www.w3.org/2000/svg" xmlns:xlink="http://www.w3.org/1999/xlink">
    <!-- Generator: Sketch 55.2 (78181) - https://sketchapp.com -->
    <title>Group 38</title>
    <desc>Created with Sketch.</desc>
    <defs>
        <polygon id="path-1" points="0.0036129092 0.311141339 27.0302804 0.311141339 27.0302804 55.0328224 0.0036129092 55.0328224"></polygon>
        <polygon id="path-3" points="0.510521904 0.065046729 38.3182265 0.065046729 38.3182265 22.3816822 0.510521904 22.3816822"></polygon>
        <polygon id="path-5" points="0 79.9349533 91.3293458 79.9349533 91.3293458 0.747663551 0 0.747663551"></polygon>
    </defs>
    <g id="Page-1" stroke="none" stroke-width="1" fill="none" fill-rule="evenodd">
        <g id="Browse-charities-V2" transform="translate(-531.000000, -718.000000)">
            <g id="Group-38" transform="translate(531.000000, 718.000000)">
                <g id="Group-3" transform="translate(64.299065, 14.140561)">
                    <mask id="mask-2" fill="white">
                        <use xlink:href="#path-1"></use>
                    </mask>
                    <g id="Clip-2"></g>
                    <path d="M15.3994019,55.0328224 C15.1549159,55.0328224 14.9081869,55.0156262 14.6614579,54.978243 L0.940336449,52.6874019 C0.329495327,52.5857196 -0.0832149533,52.0077757 0.0192149533,51.3969346 C0.120149533,50.7853458 0.695102804,50.3771215 1.30968224,50.4750654 L15.0106168,52.7629159 C15.7037009,52.8645981 16.4184673,52.6881495 17.0001495,52.2567477 C17.5803364,51.8268411 17.9586542,51.1958131 18.0648224,50.4810467 L24.7579065,5.62048598 C24.8633271,4.90571963 24.6846355,4.19319626 24.2532336,3.61450467 C23.8180935,3.0313271 23.1765981,2.65076636 22.4468785,2.54235514 C21.8337944,2.45188785 21.4113645,1.8806729 21.5025794,1.26833645 C21.5930467,0.655252336 22.161271,0.230579439 22.7765981,0.324037383 C24.096972,0.519925234 25.2595888,1.21300935 26.0506168,2.27394393 C26.8423925,3.3348785 27.1706168,4.64104673 26.9754766,5.95170093 L20.2831402,50.811514 C20.0894953,52.1176822 19.3979065,53.2720748 18.3362243,54.0586168 C17.4734206,54.6978692 16.4521121,55.0328224 15.3994019,55.0328224" id="Fill-1" fill="#0C1831" mask="url(#mask-2)"></path>
                </g>
                <path d="M64.1150654,40.6570467 C64.060486,40.6570467 64.0044112,40.6533084 63.9490841,40.6443364 L62.3244112,40.4035888 C61.7120748,40.3131215 61.2888972,39.7426542 61.3801121,39.1303178 C61.4705794,38.5172336 62.0432897,38.0895701 62.6533832,38.185271 L64.2780561,38.4267664 C64.8903925,38.5172336 65.3143178,39.0869533 65.2223551,39.7000374 C65.1401121,40.2570467 64.6616075,40.6570467 64.1150654,40.6570467 M71.1550654,41.703028 C71.100486,41.703028 71.0451589,41.6992897 70.9883364,41.6910654 L69.3636636,41.4495701 C68.7513271,41.3576075 68.3288972,40.7878879 68.4201121,40.1748037 C68.5105794,39.5624673 69.0788037,39.1370467 69.6941308,39.2312523 L71.3188037,39.4727477 C71.9311402,39.5639626 72.3543178,40.1344299 72.2623551,40.7467664 C72.1801121,41.303028 71.7008598,41.703028 71.1550654,41.703028" id="Fill-4" fill="#484848"></path>
                <path d="M72.1882617,34.7480374 C72.1336822,34.7480374 72.0776075,34.7442991 72.0215327,34.7353271 L62.5374206,33.326729 C61.9243364,33.235514 61.5019065,32.6650467 61.5931215,32.0527103 C61.6843364,31.4403738 62.2518131,31.0127103 62.8671402,31.1084112 L72.352,32.517757 C72.9643364,32.6082243 73.387514,33.1786916 73.2955514,33.7917757 C73.2133084,34.3480374 72.7340561,34.7480374 72.1882617,34.7480374" id="Fill-6" fill="#0C1831"></path>
                <path d="M75.1386916,61.6427664 C75.0011215,61.6427664 74.8628037,61.6330467 74.7237383,61.6121121 L64.8942056,59.9223925 C64.2841121,59.8177196 63.8736449,59.2375327 63.9783178,58.6274393 C64.084486,58.0158505 64.6669159,57.6098692 65.2740187,57.7115514 L75.0781308,59.3975327 C75.2456075,59.4259439 75.3899065,59.3429533 75.4579439,59.2921121 C75.5259813,59.2420187 75.6441121,59.1283738 75.673271,58.9339813 L82.4964486,13.0154766 C82.5405607,12.7179065 82.3334579,12.439028 82.0358879,12.3949159 L55.2859813,8.41958879 C54.2811215,8.2715514 53.2770093,8.52276636 52.4605607,9.12762617 C51.6433645,9.73248598 51.1117757,10.6199626 50.962243,11.6255701 C50.8717757,12.2379065 50.2990654,12.6685607 49.688972,12.5698692 C49.0758879,12.4794019 48.6527103,11.9089346 48.7439252,11.2965981 C48.9809346,9.69809346 49.8265421,8.288 51.124486,7.32500935 C52.4224299,6.36351402 54.0179439,5.96127103 55.6157009,6.20201869 L82.3663551,10.1765981 C83.8863551,10.4031402 84.9398131,11.8244486 84.7147664,13.3444486 L77.8915888,59.2629533 C77.7824299,60.0001495 77.3928972,60.6498692 76.7940187,61.0939813 C76.3080374,61.4536075 75.7323364,61.6427664 75.1386916,61.6427664" id="Fill-8" fill="#0C1831"></path>
                <g id="Group-12" transform="translate(12.710280, 0.682617)">
                    <mask id="mask-4" fill="white">
                        <use xlink:href="#path-3"></use>
                    </mask>
                    <g id="Clip-11"></g>
                    <path d="M1.63334579,22.3816822 C1.57951402,22.3816822 1.52493458,22.3779439 1.47035514,22.3697196 C0.857271028,22.2807477 0.433345794,21.7117757 0.522317757,21.0986916 L3.23857944,2.4482243 C3.34848598,1.70803738 3.73801869,1.05757009 4.3368972,0.614205607 C4.93652336,0.170841121 5.67297196,-0.0153271028 6.4086729,0.0960747664 L33.1578318,4.07140187 C36.1297944,4.51327103 38.3002617,7.01121495 38.3182265,10.0123364 C38.3219439,10.6314019 37.8232523,11.1368224 37.2034393,11.1405607 C36.5739065,11.1652336 36.0782056,10.6456075 36.075215,10.0257944 C36.064,8.16934579 34.6681121,6.56336449 32.8281121,6.28971963 L6.07745794,2.31439252 C5.88605607,2.28598131 5.74100935,2.36598131 5.6722243,2.41607477 C5.60493458,2.46616822 5.48680374,2.57981308 5.45764486,2.77345794 L2.74138318,21.4216822 C2.66063551,21.9801869 2.18063551,22.3816822 1.63334579,22.3816822" id="Fill-10" fill="#0C1831" mask="url(#mask-4)"></path>
                </g>
                <path d="M31.4018692,64.2340187 C28.9278505,64.2340187 26.9158879,66.2459813 26.9158879,68.72 C26.9158879,71.1940187 28.9278505,73.2059813 31.4018692,73.2059813 C33.8758879,73.2059813 35.8878505,71.1940187 35.8878505,68.72 C35.8878505,66.2459813 33.8758879,64.2340187 31.4018692,64.2340187 M31.4018692,75.448972 C27.691215,75.448972 24.6728972,72.4306542 24.6728972,68.72 C24.6728972,65.0093458 27.691215,61.991028 31.4018692,61.991028 C35.1125234,61.991028 38.1308411,65.0093458 38.1308411,68.72 C38.1308411,72.4306542 35.1125234,75.448972 31.4018692,75.448972" id="Fill-13" fill="#0C1831"></path>
                <path d="M47.1028037,60.4957009 C44.628785,60.4957009 42.6168224,62.5076636 42.6168224,64.9816822 C42.6168224,67.4557009 44.628785,69.4676636 47.1028037,69.4676636 C49.5768224,69.4676636 51.588785,67.4557009 51.588785,64.9816822 C51.588785,62.5076636 49.5768224,60.4957009 47.1028037,60.4957009 M47.1028037,71.7106542 C43.3921495,71.7106542 40.3738318,68.6923364 40.3738318,64.9816822 C40.3738318,61.271028 43.3921495,58.2527103 47.1028037,58.2527103 C50.8134579,58.2527103 53.8317757,61.271028 53.8317757,64.9816822 C53.8317757,68.6923364 50.8134579,71.7106542 47.1028037,71.7106542" id="Fill-15" fill="#0C1831"></path>
                <path d="M34.7174579,79.868486 C34.0983925,79.868486 33.5959626,79.3660561 33.5959626,78.7469907 C33.5959626,78.1279252 34.0983925,77.6254953 34.7174579,77.6254953 C45.0038131,77.6254953 53.7626916,72.5593271 57.8793271,67.5387664 C59.8105421,65.1821308 60.7197009,62.8389533 60.3735327,61.1081121 C59.9368972,58.9264299 58.2838131,58.2221308 55.6116636,57.3204486 C53.7170841,56.6804486 51.7582056,56.019514 50.715215,54.2819439 C49.4210093,52.1241869 49.6101682,50.3066168 49.7768972,48.7028785 C49.9204486,47.3241869 50.0557757,46.0210093 49.3402617,44.350729 C48.1955888,41.6815701 46.1305421,40.3133458 41.9720374,39.472972 C41.3649346,39.3496075 40.9716636,38.7582056 41.0942804,38.1511028 C41.2176449,37.544 41.8157757,37.1559626 42.4161495,37.2733458 C47.3402617,38.2692336 49.9428785,40.0643738 51.4015701,43.4669907 C52.3473645,45.6733458 52.1671776,47.4064299 52.0079252,48.9354019 C51.8516636,50.430729 51.7290467,51.6120374 52.6389533,53.1282991 C53.2565234,54.1578318 54.7488598,54.661757 56.3286729,55.1948411 C58.788486,56.0247477 61.8509159,57.0580187 62.5731589,60.668486 C63.0583925,63.0954019 62.0071776,66.0404486 59.6131589,68.9600748 C55.1615701,74.3903551 45.737271,79.868486 34.7174579,79.868486" id="Fill-17" fill="#0C1831"></path>
                <path d="M41.4953271,46.2900935 C40.0523364,46.2900935 38.8785047,47.2964486 38.8785047,48.5330841 C38.8785047,49.7697196 40.0523364,50.7760748 41.4953271,50.7760748 C42.9383178,50.7760748 44.1121495,49.7697196 44.1121495,48.5330841 C44.1121495,47.2964486 42.9383178,46.2900935 41.4953271,46.2900935 M41.4953271,53.0190654 C38.8157009,53.0190654 36.635514,51.0071028 36.635514,48.5330841 C36.635514,46.0590654 38.8157009,44.0471028 41.4953271,44.0471028 C44.1749533,44.0471028 46.3551402,46.0590654 46.3551402,48.5330841 C46.3551402,51.0071028 44.1749533,53.0190654 41.4953271,53.0190654" id="Fill-19" fill="#0C1831"></path>
                <path d="M8.97196262,74.7013084 L8.97196262,76.4994393 C8.97196262,77.1566355 9.50728972,77.6919626 10.164486,77.6919626 L16.0037383,77.6919626 C16.6609346,77.6919626 17.1962617,77.1566355 17.1962617,76.4994393 L17.1962617,74.7013084 L8.97196262,74.7013084 Z M16.0037383,79.9349533 L10.164486,79.9349533 C8.26990654,79.9349533 6.72897196,78.3940187 6.72897196,76.4994393 L6.72897196,73.5798131 C6.72897196,72.9607477 7.23140187,72.4583178 7.85046729,72.4583178 L18.317757,72.4583178 C18.9368224,72.4583178 19.4392523,72.9607477 19.4392523,73.5798131 L19.4392523,76.4994393 C19.4392523,78.3940187 17.8983178,79.9349533 16.0037383,79.9349533 L16.0037383,79.9349533 Z" id="Fill-21" fill="#0C1831"></path>
                <path d="M17.5211963,69.4676636 L8.77353271,69.4676636 C6.9768972,69.4676636 5.45988785,68.1226168 5.24456075,66.3386916 L0.93128972,30.6026168 C0.857271028,29.9880374 1.29614953,29.4295327 1.91072897,29.355514 C2.52456075,29.2807477 3.08381308,29.7196262 3.15857944,30.3342056 L7.47185047,66.0702804 C7.5511028,66.7282243 8.11035514,67.2246729 8.77353271,67.2246729 L17.5211963,67.2246729 C18.1836262,67.2246729 18.7428785,66.7282243 18.8221308,66.0702804 L23.1354019,30.3342056 C23.2094206,29.7196262 23.7671776,29.28 24.3832523,29.355514 C24.9978318,29.4295327 25.4367103,29.9880374 25.3619439,30.6026168 L21.0494206,66.3386916 C20.8340935,68.1226168 19.3170841,69.4676636 17.5211963,69.4676636" id="Fill-23" fill="#0C1831"></path>
                <path d="M1.12149533,79.9349533 C0.502429907,79.9349533 0,79.4325234 0,78.8134579 C0,78.1943925 0.502429907,77.6919626 1.12149533,77.6919626 L86.3551402,77.6919626 C86.9742056,77.6919626 87.4766355,78.1943925 87.4766355,78.8134579 C87.4766355,79.4325234 86.9742056,79.9349533 86.3551402,79.9349533 L1.12149533,79.9349533 Z" id="Fill-25" fill="#0C1831"></path>
                <mask id="mask-6" fill="white">
                    <use xlink:href="#path-5"></use>
                </mask>
                <g id="Clip-28"></g>
                <path d="M2.24299065,29.0938318 L23.9252336,29.0938318 L23.9252336,26.1031776 L2.24299065,26.1031776 L2.24299065,29.0938318 Z M25.046729,31.3368224 L1.12149533,31.3368224 C0.502429907,31.3368224 0,30.8343925 0,30.2153271 L0,24.9816822 C0,24.3626168 0.502429907,23.8601869 1.12149533,23.8601869 L25.046729,23.8601869 C25.6657944,23.8601869 26.1682243,24.3626168 26.1682243,24.9816822 L26.1682243,30.2153271 C26.1682243,30.8343925 25.6657944,31.3368224 25.046729,31.3368224 L25.046729,31.3368224 Z" id="Fill-27" fill="#0C1831" mask="url(#mask-6)"></path>
                <path d="M10.0934579,73.9536449 C9.47439252,73.9536449 8.97196262,73.451215 8.97196262,72.8321495 L8.97196262,69.8414953 C8.97196262,69.2224299 9.47439252,68.72 10.0934579,68.72 C10.7125234,68.72 11.2149533,69.2224299 11.2149533,69.8414953 L11.2149533,72.8321495 C11.2149533,73.451215 10.7125234,73.9536449 10.0934579,73.9536449" id="Fill-29" fill="#0C1831" mask="url(#mask-6)"></path>
                <path d="M16.0747664,73.9536449 C15.4557009,73.9536449 14.953271,73.451215 14.953271,72.8321495 L14.953271,69.8414953 C14.953271,69.2224299 15.4557009,68.72 16.0747664,68.72 C16.6938318,68.72 17.1962617,69.2224299 17.1962617,69.8414953 L17.1962617,72.8321495 C17.1962617,73.451215 16.6938318,73.9536449 16.0747664,73.9536449" id="Fill-30" fill="#0C1831" mask="url(#mask-6)"></path>
                <path d="M26.3536449,56.4587664 C26.1450467,56.4587664 25.9342056,56.4011963 25.7457944,56.2793271 C25.2246729,55.9421308 25.0766355,55.2482991 25.4123364,54.7286729 L35.437757,39.2340935 L31.8257944,37.0830654 L28.6571963,42.8811963 C28.3603738,43.424 27.677757,43.6243738 27.1349533,43.3268037 C26.5914019,43.0299813 26.3917757,42.3488598 26.6885981,41.8045607 L30.4164486,34.9858692 C30.562243,34.7189533 30.811215,34.5223178 31.1042991,34.4423178 C31.3973832,34.3615701 31.7114019,34.4034393 31.9745794,34.5604486 L37.5842991,37.9025047 C37.846729,38.0587664 38.0336449,38.3137196 38.1031776,38.6105421 C38.1727103,38.9073645 38.1173832,39.2191402 37.9528972,39.4748411 L27.2964486,55.9458692 C27.0818692,56.2785794 26.7207477,56.4587664 26.3536449,56.4587664" id="Fill-31" fill="#3C76A6" mask="url(#mask-6)"></path>
                <path d="M32.9380935,35.1342804 L36.6210841,37.3279252 L39.4838879,32.5234393 L35.8001495,30.3290467 L32.9380935,35.1342804 Z M37.0098692,39.9873645 C36.814729,39.9873645 36.6165981,39.9365234 36.4371589,39.8296075 L30.8266916,36.4882991 C30.2943551,36.1712897 30.1194019,35.4826916 30.4364112,34.9503551 L34.4468785,28.2176449 C34.7646355,27.6860561 35.4532336,27.5133458 35.9840748,27.8273645 L41.5952897,31.1694206 C41.8509907,31.3219439 42.0356636,31.5694206 42.1089346,31.8580187 C42.1814579,32.1466168 42.1373458,32.4516636 41.9855701,32.7073645 L37.9743551,39.4400748 C37.7642617,39.7914766 37.3919252,39.9873645 37.0098692,39.9873645 L37.0098692,39.9873645 Z" id="Fill-32" fill="#3C76A6" mask="url(#mask-6)"></path>
                <path d="M40.8725234,32.8255701 C40.2975701,32.8255701 39.8085981,32.3859439 39.7570093,31.803514 C39.7024299,31.1866916 40.157757,30.6416449 40.7745794,30.5870654 C45.8168224,30.1399626 46.0194393,24.774729 45.8714019,22.4891215 C45.7899065,21.2113645 45.4056075,18.7889346 45.0863551,16.9182804 C44.3573832,17.7870654 43.3659813,18.850243 42.08,19.9896822 C41.602243,20.4136075 41.1020561,20.8218318 40.6048598,21.2278131 C37.5857944,23.6913645 35.9476636,25.2509907 37.3824299,28.6551028 C37.6231776,29.2263178 37.355514,29.883514 36.7850467,30.1242617 C36.2145794,30.3687477 35.5566355,30.0965981 35.3158879,29.5268785 C33.1596262,24.4091215 36.5009346,21.6816449 39.1865421,19.490243 C39.6605607,19.1029533 40.1375701,18.7149159 40.5921495,18.3119252 C43.4863551,15.7451963 44.7506542,13.6068785 44.7633645,13.5859439 C44.9981308,13.1822056 45.4542056,12.9623925 45.924486,13.0446355 C46.3857944,13.1246355 46.7491589,13.4820187 46.8358879,13.9425794 C46.8807477,14.1863178 47.9566355,19.9545421 48.1106542,22.3440748 C48.2579439,24.6408972 48.1801869,32.1825794 40.9734579,32.8210841 C40.9390654,32.8240748 40.9061682,32.8255701 40.8725234,32.8255701" id="Fill-33" fill="#3C76A6" mask="url(#mask-6)"></path>
                <path d="M21.3084112,53.766729 L5.60747664,53.766729 C4.98841121,53.766729 4.48598131,53.2642991 4.48598131,52.6452336 C4.48598131,52.0261682 4.98841121,51.5237383 5.60747664,51.5237383 L21.3084112,51.5237383 C21.9274766,51.5237383 22.4299065,52.0261682 22.4299065,52.6452336 C22.4299065,53.2642991 21.9274766,53.766729 21.3084112,53.766729" id="Fill-34" fill="#0C1831" mask="url(#mask-6)"></path>
                <path d="M21.3084112,43.2994393 L4.85981308,43.2994393 C4.24074766,43.2994393 3.73831776,42.7970093 3.73831776,42.1779439 C3.73831776,41.5588785 4.24074766,41.0564486 4.85981308,41.0564486 L21.3084112,41.0564486 C21.9274766,41.0564486 22.4299065,41.5588785 22.4299065,42.1779439 C22.4299065,42.7970093 21.9274766,43.2994393 21.3084112,43.2994393" id="Fill-35" fill="#0C1831" mask="url(#mask-6)"></path>
                <path d="M57.4678879,24.0580187 L72.4174206,26.1223178 L73.3804112,19.1451215 L58.4308785,17.0808224 L57.4678879,24.0580187 Z M74.3321869,28.6516636 L54.9385421,25.972785 L56.5153645,14.5514766 L75.909757,17.2303551 L74.3321869,28.6516636 Z" id="Fill-36" fill="#0C1831" mask="url(#mask-6)"></path>
                <path d="M7.55035514,21.7025794 C7.4957757,21.7025794 7.4404486,21.6988411 7.38437383,21.6898692 C6.77128972,21.5994019 6.34885981,21.0296822 6.44007477,20.4165981 L8.50885981,6.46818692 C8.78848598,4.57809346 10.1522243,3.00201869 11.9832523,2.45398131 C12.5761495,2.27753271 13.2019439,2.61248598 13.3791402,3.20613084 C13.5570841,3.79902804 13.2206355,4.42482243 12.6269907,4.60201869 C11.6258692,4.90183178 10.8804486,5.76388785 10.7271776,6.79641121 L8.65764486,20.7455701 C8.57540187,21.3025794 8.0968972,21.7025794 7.55035514,21.7025794" id="Fill-37" fill="#0C1831" mask="url(#mask-6)"></path>
            </g>
        </g>
    </g>
</svg>