<?xml version="1.0" encoding="UTF-8"?>
<svg width="68px" height="80px" viewBox="0 0 68 80" version="1.1" xmlns="http://www.w3.org/2000/svg" xmlns:xlink="http://www.w3.org/1999/xlink">
    <!-- Generator: Sketch 55.2 (78181) - https://sketchapp.com -->
    <title>Group 3</title>
    <desc>Created with Sketch.</desc>
    <defs>
        <polygon id="path-1" points="0 0.000261828924 67.6887692 0.000261828924 67.6887692 79.9414634 0 79.9414634"></polygon>
    </defs>
    <g id="Page-1" stroke="none" stroke-width="1" fill="none" fill-rule="evenodd">
        <g id="Browse-charities-V2" transform="translate(-831.000000, -719.000000)">
            <g id="Group-3" transform="translate(831.000000, 719.000000)">
                <mask id="mask-2" fill="white">
                    <use xlink:href="#path-1"></use>
                </mask>
                <g id="Clip-2"></g>
                <path d="M50.7780846,26.3586992 C47.4003154,31.0845528 45.0347,34.5941463 44.7914692,35.4169106 C44.6659308,36.1134959 44.7895077,36.3482927 45.1210077,36.9765854 C45.5460077,37.7830894 46.1272769,38.8874797 46.1992,41.1866667 C46.2672,43.3798374 44.6705077,48.2253659 42.3245077,50.4256911 C41.0704308,51.6029268 39.8987385,51.7713821 39.1363538,51.6998374 C37.9868923,51.5964228 37.2310462,51.1723577 36.8897385,50.4380488 C36.3320077,49.2354472 37.1878923,48.0302439 38.0163154,46.8647154 C38.3491231,46.3964228 38.8519308,45.6881301 38.9068538,45.3889431 C38.9369308,45.2269919 38.9395462,45.0539837 38.9225462,44.8770732 C32.3605462,53.8494309 30.9626231,53.9157724 30.4160077,53.9417886 C30.3898538,53.9430894 30.3630462,53.9437398 30.3355846,53.9437398 C28.5702,53.9443902 25.0701615,51.3382114 23.1217,49.7674797 C23.1027385,49.7525203 23.0850846,49.737561 23.0674308,49.7213008 C23.0406231,49.6972358 23.0183923,49.6712195 22.9922385,49.6465041 C22.9896231,49.6439024 22.9870077,49.6419512 22.9843923,49.6393496 C19.6066231,46.4256911 23.6624308,40.9687805 26.3562769,37.3466667 C26.8623538,36.6669919 27.2984692,36.0803252 27.6090462,35.6107317 C29.2691615,33.1021138 31.3987385,32.1622764 32.3703538,31.8468293 L38.6629692,23.1964228 C38.6080462,23.0682927 38.5707769,22.9304065 38.5622769,22.7827642 C38.1673538,15.7954472 37.2755077,7.56845528 36.5255462,6.4601626 C35.9305462,5.7902439 34.7176615,5.75252033 33.9291231,5.83317073 C33.9598538,6.26764228 33.9788154,6.73268293 33.9788154,7.25886179 L33.9788154,24.2058537 C33.9788154,24.8881301 33.4230462,25.441626 32.7365077,25.441626 C32.0499692,25.441626 31.4942,24.8881301 31.4942,24.2058537 L31.4942,7.25886179 C31.4942,4.96422764 31.1777385,4.31772358 30.9887769,4.13691057 C30.8468923,4.00162602 30.4970846,3.94699187 29.9275846,3.96780488 C28.9644692,4.00422764 28.3969308,4.61170732 28.1622,4.93430894 C28.0530077,8.55056911 27.0258154,23.7362602 26.7100077,28.3619512 L28.7192769,28.3619512 C29.4058154,28.3619512 29.9622385,28.9154472 29.9622385,29.5977236 C29.9622385,30.2806504 29.4058154,30.8334959 28.7192769,30.8334959 L15.0702385,30.8334959 C14.3843538,30.8334959 13.8279308,30.2806504 13.8279308,29.5977236 C13.8279308,28.9154472 14.3843538,28.3619512 15.0702385,28.3619512 L16.4557385,28.3619512 C16.7473538,24.1668293 17.4103538,15.678374 18.3806615,9.24390244 L17.6810462,9.43382114 C16.6989692,9.7004878 15.9888923,10.5226016 15.8731615,11.5281301 C15.2690077,16.7795122 14.2137,25.9834146 13.9345077,28.6201626 C13.8227,29.6738211 13.4218923,31.7186992 12.9138538,34.3079675 C11.7787769,40.0933333 9.66685385,50.8621138 10.6652769,53.4715447 C11.3884308,55.3590244 13.6370077,57.740813 16.5361615,58.641626 C17.8824308,59.0598374 19.8825462,59.2868293 21.7728154,57.9957724 C22.3403538,57.6094309 23.1125462,57.7525203 23.5002769,58.315122 C23.8886615,58.8777236 23.7448154,59.6471545 23.1792385,60.0334959 C22.1644692,60.7255285 21.0594692,61.163252 19.8930077,61.3473171 L21.0320077,68.6598374 L34.8092,68.6598374 L34.6150077,63.6926829 C34.5162769,63.6933333 34.4168923,63.6939837 34.3175077,63.6939837 C31.0535077,63.6939837 27.9000077,63.497561 26.8427385,63.4247154 C26.1581615,63.3778862 25.6416231,62.7873171 25.6893538,62.1069919 C25.7370846,61.4260163 26.3464692,60.9213008 27.0140462,60.9590244 C32.0852769,61.3082927 39.9000462,61.4104065 41.4091231,60.544065 C42.3997,59.9749593 43.5315077,57.4943089 44.5292769,55.3056911 C45.6127,52.9304065 46.7327385,50.4738211 48.1882,48.9265041 L48.7845077,48.2949593 C51.0415846,45.9099187 52.8246231,44.0263415 52.4342769,42.3450407 C51.9863923,40.4139837 51.3619692,33.2933333 50.8120846,26.7710569 C50.8003154,26.6273171 50.7892,26.4972358 50.7780846,26.3586992 L50.7780846,26.3586992 Z M14.6674692,77.4702439 L42.6259308,77.4702439 L42.6259308,71.1313821 L14.6674692,71.1313821 L14.6674692,77.4702439 Z M22.3475462,2.8497561 C21.2262,4.27414634 19.7602769,16.7508943 18.9462385,28.3619512 L24.2195077,28.3619512 C24.5281231,23.8422764 25.6448923,7.3401626 25.6867385,4.55121951 C25.7037385,3.34731707 24.8988538,2.84585366 24.4169692,2.65463415 C23.6545846,2.35219512 22.7274308,2.43934959 22.3475462,2.8497561 L22.3475462,2.8497561 Z M64.0263154,8.43609756 C60.2255077,13.4494309 56.2749692,18.7606504 52.9475462,23.3473171 C52.9952769,23.4604878 53.0312385,23.5801626 53.0436615,23.7082927 C53.1005462,24.3411382 53.1855462,25.3434146 53.2888538,26.564878 C53.6805077,31.2146341 54.4095462,39.8689431 54.8554692,41.7895935 C55.5446231,44.7580488 53.2502769,47.1821138 50.5930462,49.9892683 L50.0026231,50.6149593 C48.8263538,51.8656911 47.7919692,54.1330081 46.7922385,56.3268293 C45.4721231,59.2204878 44.3331231,61.7186992 42.6501231,62.6845528 C41.6445077,63.2621138 39.5038154,63.5320325 37.0989692,63.6373984 L37.2951231,68.6598374 L43.8682385,68.6598374 C44.5547769,68.6598374 45.1112,69.2126829 45.1112,69.8956098 L45.1112,77.4702439 L52.5807385,77.4702439 C53.2666231,77.4702439 53.8230462,78.0230894 53.8230462,78.7060163 C53.8230462,79.3882927 53.2666231,79.9417886 52.5807385,79.9417886 L43.8682385,79.9417886 L13.4251615,79.9417886 L6.48000769,79.9417886 C5.79346923,79.9417886 5.23704615,79.3882927 5.23704615,78.7060163 C5.23704615,78.0230894 5.79346923,77.4702439 6.48000769,77.4702439 L12.1822,77.4702439 L12.1822,69.8956098 C12.1822,69.2126829 12.7386231,68.6598374 13.4251615,68.6598374 L18.5173154,68.6598374 L17.3802769,61.355122 C16.8585077,61.281626 16.3302,61.1665041 15.7960077,61.0006504 C12.5176231,59.9827642 9.4537,57.2478049 8.34346923,54.3508943 C7.18746923,51.3317073 8.69196923,42.923252 10.4750077,33.835122 C10.9523154,31.4052033 11.3629308,29.3069919 11.4636231,28.3613008 C11.7297385,25.8474797 12.6660462,17.6666667 13.4042385,11.2471545 C13.6363538,9.23154472 15.0584692,7.58406504 17.0272,7.04943089 L18.8272385,6.5603252 C19.3287385,3.86894309 19.8956231,1.84682927 20.5226615,1.17235772 C21.6126231,-0.000975609756 23.5931231,-0.334634146 25.3388923,0.359349593 C26.3118154,0.746341463 27.0578538,1.39089431 27.5436615,2.20065041 C28.1602385,1.81886179 28.9187,1.53268293 29.8340846,1.49821138 C30.7167769,1.46243902 31.8505462,1.53203252 32.7123154,2.35674797 C33.0052385,2.63707317 33.2360462,2.98569106 33.4217385,3.40585366 C34.5221615,3.26471545 36.9322385,3.18471545 38.4112385,4.85235772 C39.7457385,6.35674797 40.5205462,14.7411382 40.8873538,20.1388618 L54.5318154,1.38243902 C54.9332769,0.829593496 55.7100462,0.705365854 56.2664692,1.10601626 C56.8222385,1.50601626 56.9464692,2.27869919 56.5443538,2.83154472 L34.1298538,33.6445528 C33.9441615,33.9001626 33.6662769,34.0757724 33.3537385,34.1343089 C33.2798538,34.1499187 31.2555462,34.5947967 29.6843538,36.9700813 C29.3365077,37.4956098 28.8807769,38.1082927 28.3537769,38.8165854 C26.8865462,40.7892683 24.4620846,44.0556098 24.2378154,46.2455285 L29.6137385,38.8744715 C30.0171615,38.3222764 30.7919692,38.1993496 31.3490462,38.6 C31.9035077,39.0006504 32.0277385,39.7733333 31.6249692,40.3255285 L25.6108923,48.5713821 C26.0542,48.9076423 26.4962,49.2308943 26.9257769,49.5320325 L32.9705846,41.243252 C33.3740077,40.6917073 34.1501231,40.5687805 34.7065462,40.9687805 C35.2610077,41.3694309 35.3852385,42.1421138 34.9818154,42.6943089 L29.0102385,50.8829268 C29.5195846,51.1769106 29.9321615,51.3772358 30.1917385,51.4468293 C31.3850077,50.6552846 35.2178538,45.8221138 38.2347,41.5931707 C38.4700846,41.2621138 38.8558538,41.0552846 39.2632,41.0721951 C39.6718538,41.0773984 40.0510846,41.281626 40.2792769,41.6185366 C40.4283538,41.838374 41.7223154,43.8279675 41.3509308,45.8357724 C41.1966231,46.6702439 40.6114308,47.4943089 40.0458538,48.2910569 C39.8575462,48.5564228 39.5881615,48.9336585 39.4044308,49.2406504 C39.7588154,49.257561 40.1707385,49.0481301 40.6205846,48.6279675 C42.4866615,46.8770732 43.7616615,42.7469919 43.7152385,41.2634146 C43.6616231,39.5320325 43.2850077,38.815935 42.9201615,38.1239024 C42.5213154,37.3661789 42.0688538,36.5076423 42.3558923,34.937561 C42.8083538,32.4582114 57.5388538,12.8868293 62.0432,6.94796748 C62.4570846,6.40292683 63.2364692,6.29495935 63.7830846,6.70536585 C64.3303538,7.11642276 64.4395462,7.89170732 64.0263154,8.43609756 L64.0263154,8.43609756 Z" id="Fill-1" fill="#0C1831" mask="url(#mask-2)"></path>
                <path d="M2.50527692,53.2803252 C1.94100769,53.6692683 1.80043077,54.4393496 2.19143077,55 L3.06300769,56.2520325 C3.30362308,56.5980488 3.69135385,56.784065 4.08562308,56.784065 C4.32950769,56.784065 4.57600769,56.7125203 4.79177692,56.5642276 C5.35539231,56.1752846 5.49596923,55.4052033 5.10496923,54.8445528 L4.23339231,53.5925203 C3.84304615,53.0318699 3.06954615,52.8913821 2.50527692,53.2803252 L2.50527692,53.2803252 Z" id="Path" fill="#3C76A6" mask="url(#mask-2)"></path>
                <path d="M0.420161538,49.1619512 C0.581661538,49.6978862 1.07531538,50.0439024 1.60950769,50.0439024 C1.72785385,50.0439024 1.84816154,50.0269919 1.96650769,49.9918699 C2.62362308,49.7954472 2.99696923,49.1073171 2.80081538,48.4530081 C0.939969231,42.2715447 7.23781538,19.0708943 9.82181538,10.6526829 C10.0225462,9.9996748 9.65246923,9.30894309 8.99600769,9.1099187 C8.34281538,8.91284553 7.64581538,9.27707317 7.44508462,9.93073171 C7.0567,11.1957724 -2.03568462,41.0019512 0.420161538,49.1619512 L0.420161538,49.1619512 Z" id="Path" fill="#3C76A6" mask="url(#mask-2)"></path>
                <path d="M49.6116231,59.6373984 C49.0473538,59.2478049 48.2738538,59.3863415 47.8822,59.9456911 L46.6235462,61.744065 C46.2318923,62.304065 46.3705077,63.0741463 46.9334692,63.4643902 C47.1498923,63.6139837 47.3977,63.6861789 47.6422385,63.6861789 C48.0345462,63.6861789 48.4216231,63.500813 48.6628923,63.1560976 L49.9215462,61.3577236 C50.3138538,60.7970732 50.1745846,60.0269919 49.6116231,59.6373984 L49.6116231,59.6373984 Z" id="Path" fill="#3C76A6" mask="url(#mask-2)"></path>
                <path d="M50.8866231,56.6422764 C50.4256615,57.1476423 50.4622769,57.9294309 50.9703154,58.3879675 C51.2083154,58.603252 51.5071231,58.7092683 51.8052769,58.7092683 C52.1433154,58.7092683 52.4800462,58.5733333 52.7252385,58.3053659 C55.7793538,54.9635772 59.8953154,48.7079675 61.5077,43.695935 C63.1625846,38.5499187 59.8966231,28.975935 59.7567,28.5707317 C59.5337385,27.9255285 58.8275846,27.5814634 58.1789692,27.803252 C57.5297,28.0250407 57.1844692,28.7274797 57.4067769,29.3733333 C58.2842385,31.9190244 60.3065846,39.3193496 59.1414308,42.9427642 C57.6905462,47.4520325 53.8053923,53.4500813 50.8866231,56.6422764 L50.8866231,56.6422764 Z" id="Path" fill="#3C76A6" mask="url(#mask-2)"></path>
                <path d="M67.1974692,1.74341463 C66.6528154,1.3304065 65.8727769,1.43642276 65.4569308,1.9801626 L64.2950462,3.50211382 C63.8811615,4.04585366 63.9877385,4.82113821 64.5343538,5.23349593 C64.7586231,5.40325203 65.0227769,5.48520325 65.2843154,5.48520325 C65.6589692,5.48520325 66.0303538,5.31674797 66.2748923,4.99674797 L67.4361231,3.47479675 C67.8506615,2.93105691 67.7440846,2.15577236 67.1974692,1.74341463 L67.1974692,1.74341463 Z" id="Path" fill="#3C76A6" mask="url(#mask-2)"></path>
                <path d="M60.7387769,77.4702439 L58.2430462,77.4702439 C57.5565077,77.4702439 57.0000846,78.0230894 57.0000846,78.7060163 C57.0000846,79.3882927 57.5565077,79.9417886 58.2430462,79.9417886 L60.7387769,79.9417886 C61.4253154,79.9417886 61.9810846,79.3882927 61.9810846,78.7060163 C61.9810846,78.0230894 61.4253154,77.4702439 60.7387769,77.4702439 L60.7387769,77.4702439 Z" id="Path" fill="#3C76A6" mask="url(#mask-2)"></path>
            </g>
        </g>
    </g>
</svg>