<?xml version="1.0" encoding="UTF-8"?>
<svg width="75px" height="80px" viewBox="0 0 75 80" version="1.1" xmlns="http://www.w3.org/2000/svg" xmlns:xlink="http://www.w3.org/1999/xlink">
    <!-- Generator: Sketch 55.2 (78181) - https://sketchapp.com -->
    <title>Group 69</title>
    <desc>Created with Sketch.</desc>
    <g id="Page-1" stroke="none" stroke-width="1" fill="none" fill-rule="evenodd">
        <g id="Browse-charities-V2" transform="translate(-254.000000, -1565.000000)">
            <g id="Group-69" transform="translate(254.000000, 1565.000000)">
                <path d="M5.00203922,28.0239477 C4.51210458,28.0239477 4.02687582,28.1494379 3.5970719,28.3863007 C2.66844444,28.9008105 2.09171242,29.8775425 2.09171242,30.936366 C2.09171242,31.2328366 2.13772549,31.5287843 2.22922876,31.8158431 C2.23759477,31.8425098 2.24491503,31.8691765 2.25118954,31.8958431 C2.64752941,33.5983268 5.58661438,36.0119216 7.62583007,37.3384575 C9.18452288,36.3183268 12.5581176,33.7802876 12.9968105,31.8958431 C13.0036078,31.8686536 13.0104052,31.8414641 13.0192941,31.8147974 C13.1107974,31.5293072 13.1568105,31.2338824 13.1568105,30.936366 C13.1568105,29.8770196 12.5795556,28.8997647 11.6504052,28.384732 C10.6004706,27.8048627 9.2143268,27.9601569 8.3191634,28.7538824 C7.92334641,29.1042092 7.32779085,29.1052549 6.93197386,28.7549281 C6.39968627,28.2832941 5.71419608,28.0239477 5.00203922,28.0239477 M7.62687582,39.5219869 C7.32726797,39.5219869 7.03498039,39.4383268 6.77929412,39.2793725 C5.81040523,38.6707451 0.980078431,35.5021176 0.224,32.4113987 C0.075503268,31.9308758 0.000209150327,31.4346667 0.000209150327,30.936366 C0.000209150327,29.117281 0.990535948,27.4388497 2.58478431,26.5562353 C4.14138562,25.6961046 6.13354248,25.7562353 7.62478431,26.6738824 C9.11393464,25.7562353 11.1087059,25.6971503 12.6621699,26.5541438 L12.6632157,26.5546667 C14.2574641,27.4378039 15.2483137,29.1167582 15.2483137,30.936366 C15.2483137,31.4362353 15.1724967,31.9329673 15.024,32.4119216 C14.2475294,35.5810719 9.06635294,38.907085 8.47602614,39.2778039 C8.21667974,39.4383268 7.92491503,39.5219869 7.62687582,39.5219869" id="Fill-1" fill="#3C76A6"></path>
                <path d="M25.8261961,9.23769935 C24.9979608,9.23769935 24.1770458,9.44946405 23.4512941,9.85103268 C21.8826667,10.7184837 20.9080261,12.3692026 20.9080261,14.1584837 C20.9080261,14.6609673 20.9859346,15.1608366 21.140183,15.6450196 C21.1490719,15.6716863 21.1558693,15.6988758 21.1626667,15.7255425 C21.8627974,18.7346928 27.0397908,22.6965229 29.7812288,24.4403137 C32.5148235,22.7027974 37.6928627,18.7399216 38.3945621,15.7255425 C38.4013595,15.6978301 38.4081569,15.6711634 38.4170458,15.6439739 C38.5712941,15.1618824 38.6492026,14.6625359 38.6492026,14.1584837 C38.6492026,12.3686797 37.6745621,10.716915 36.1054118,9.84789542 C35.380183,9.4484183 34.5597908,9.23769935 33.7315556,9.23769935 C32.5284183,9.23769935 31.3712941,9.67586928 30.4735163,10.4716863 C30.0782222,10.8220131 29.4821438,10.8225359 29.0868497,10.4722092 C28.1869804,9.67639216 27.0293333,9.23769935 25.8261961,9.23769935 M29.7822745,26.5705098 C29.4298562,26.5705098 29.0837124,26.4716863 28.7841046,26.2844967 C27.906719,25.7328627 20.2340392,20.7937778 19.1349542,16.241098 C18.9237124,15.5639739 18.8165229,14.8633203 18.8165229,14.1584837 C18.8165229,11.6084183 20.2047582,9.25652288 22.4390065,8.02096732 C23.4737778,7.4484183 24.6444967,7.14619608 25.8261961,7.14619608 C27.245281,7.14619608 28.6204444,7.57443137 29.7791373,8.36606536 C30.9373072,7.57443137 32.3119477,7.14619608 33.7315556,7.14619608 C34.912732,7.14619608 36.0829281,7.44737255 37.1166536,8.01678431 C37.1171765,8.01730719 37.1176993,8.01783007 37.1176993,8.01783007 C39.3524706,9.25547712 40.7407059,11.6084183 40.7407059,14.1584837 C40.7407059,14.8648889 40.6335163,15.5655425 40.4217516,16.2416209 C39.321098,20.7974379 31.6546928,25.7333856 30.7825359,26.2824052 C30.4771765,26.4722092 30.1331242,26.5705098 29.7822745,26.5705098" id="Fill-3" fill="#3C76A6"></path>
                <path d="M56.1187451,5.50044444 C55.8013595,5.50044444 55.4860654,5.58201307 55.2073725,5.73573856 C54.6044967,6.06985621 54.2295948,6.70410458 54.2295948,7.3911634 C54.2295948,7.58305882 54.2593987,7.77547712 54.3190065,7.96162092 C54.3273725,7.98828758 54.3346928,8.01547712 54.3414902,8.04214379 C54.6050196,9.17573856 56.6379608,10.8630588 58.0659346,11.8178301 C59.4865882,10.8677647 61.5231895,9.17835294 61.7872418,8.04214379 C61.7940392,8.01495425 61.8013595,7.98724183 61.8102484,7.96005229 C61.8688105,7.776 61.8991373,7.58410458 61.8991373,7.3911634 C61.8991373,6.70410458 61.5247582,6.06933333 60.9218824,5.73469281 C60.2374379,5.3587451 59.3396601,5.45913725 58.7582222,5.97416993 C58.3629281,6.32449673 57.7668497,6.32501961 57.3715556,5.97469281 C57.0259346,5.66881046 56.5814902,5.50044444 56.1187451,5.50044444 M58.0664575,14.0311634 C57.795085,14.0311634 57.5289412,13.9558693 57.2973072,13.8120784 C56.5595294,13.3482876 52.9051503,10.9446275 52.3143007,8.55822222 C52.1971765,8.1780915 52.1380915,7.78593464 52.1380915,7.3911634 C52.1380915,5.94384314 52.9265882,4.60789542 54.1945621,3.9056732 C55.3861961,3.24737255 56.8983529,3.2635817 58.0648889,3.91613072 C59.2293333,3.26305882 60.7425359,3.24789542 61.9315556,3.90305882 C61.9320784,3.9035817 61.9331242,3.90410458 61.9341699,3.90462745 C63.2026667,4.60737255 63.9906405,5.94384314 63.9906405,7.3911634 C63.9906405,7.78750327 63.9310327,8.18018301 63.8144314,8.55926797 C63.2220131,10.946719 59.5707712,13.3482876 58.8408366,13.8078954 C58.6018824,13.9558693 58.3362614,14.0311634 58.0664575,14.0311634" id="Fill-5" fill="#3C76A6"></path>
                <path d="M18.0116601,21.0269281 C17.8218562,21.0269281 17.6294379,20.9751634 17.456366,20.8664052 C16.4979346,20.2645752 8.08433987,14.8538562 6.8859085,9.87660131 C6.65584314,9.13986928 6.53924183,8.37856209 6.53924183,7.6130719 C6.53924183,4.84496732 8.04564706,2.29176471 10.471268,0.949542484 C11.5959739,0.328366013 12.8665621,0 14.1476078,0 C15.7125752,0 17.2283922,0.48 18.4995033,1.36470588 C19.768,0.479477124 21.283817,0 22.8487843,0 C24.1298301,0 25.4004183,0.326797386 26.5230327,0.945359477 C28.3128366,1.9372549 29.6048627,3.56392157 30.163817,5.52627451 C30.3217255,6.0820915 30.0001569,6.66039216 29.4443399,6.81882353 C28.8895686,6.97620915 28.3102222,6.6551634 28.1523137,6.09934641 C27.7465621,4.67503268 26.8090458,3.49490196 25.5117908,2.77594771 C24.6997647,2.32836601 23.7779346,2.09150327 22.8487843,2.09150327 C21.498719,2.09150327 20.2009412,2.58352941 19.1933595,3.47660131 C18.7980654,3.82640523 18.2030327,3.8269281 17.8066928,3.47712418 C16.7970196,2.58352941 15.4971503,2.09150327 14.1476078,2.09150327 C13.2195033,2.09150327 12.2981961,2.32941176 11.4835556,2.77960784 C9.72355556,3.75320261 8.6307451,5.60575163 8.6307451,7.6130719 C8.6307451,8.17620915 8.71858824,8.73777778 8.89166013,9.28104575 C8.89950327,9.30771242 8.90682353,9.33437908 8.91362092,9.36104575 C9.70368627,12.7581699 15.5750588,17.2141176 18.5690458,19.0959477 C19.0579346,19.4033987 19.2053856,20.0486275 18.8979346,20.5375163 C18.6992418,20.8538562 18.3593725,21.0269281 18.0116601,21.0269281" id="Fill-7" fill="#3C76A6"></path>
                <path d="M66.7538416,56.645281 C66.7512157,56.0962614 66.3041569,55.6533856 65.7551373,55.6559885 C65.2061176,55.6591373 64.7632418,56.1061961 64.7663625,56.6546928 C64.7689935,57.2037124 65.2160523,57.6465882 65.7650719,57.6439854 C66.3135686,57.6413595 66.7564444,57.1943007 66.7538416,56.645281" id="Fill-9" fill="#3C76A6"></path>
                <path d="M25.4585621,56.8092026 C24.8813072,56.8092026 24.4128105,56.3412288 24.4128105,55.763451 L24.4128105,44.6533856 C24.4128105,44.2486797 24.0828758,43.9187451 23.6776471,43.9187451 C23.2724183,43.9187451 22.9424837,44.2486797 22.9424837,44.6533856 L22.9424837,55.763451 C22.9424837,56.3412288 22.4745098,56.8092026 21.896732,56.8092026 C21.3194771,56.8092026 20.8509804,56.3412288 20.8509804,55.763451 L20.8509804,44.6533856 C20.8509804,43.0946928 22.1189542,41.8272418 23.6776471,41.8272418 C25.2363399,41.8272418 26.5043137,43.0946928 26.5043137,44.6533856 L26.5043137,55.763451 C26.5043137,56.3412288 26.035817,56.8092026 25.4585621,56.8092026" id="Fill-11" fill="#0C1831"></path>
                <path d="M21.8969412,56.8092026 C21.3196863,56.8092026 20.8511895,56.3412288 20.8511895,55.763451 L20.8511895,41.8858039 C20.8511895,41.481098 20.5212549,41.1511634 20.116549,41.1511634 C19.7113203,41.1511634 19.3813856,41.481098 19.3813856,41.8858039 L19.3813856,55.763451 C19.3813856,56.3412288 18.9134118,56.8092026 18.335634,56.8092026 C17.7583791,56.8092026 17.2898824,56.3412288 17.2898824,55.763451 L17.2898824,41.8858039 C17.2898824,40.327634 18.5578562,39.0596601 20.116549,39.0596601 C21.674719,39.0596601 22.9426928,40.327634 22.9426928,41.8858039 L22.9426928,55.763451 C22.9426928,56.3412288 22.474719,56.8092026 21.8969412,56.8092026" id="Fill-13" fill="#0C1831"></path>
                <path d="M14.7743268,58.3160261 C14.196549,58.3160261 13.7285752,57.8475294 13.7285752,57.2702745 L13.7285752,44.653281 C13.7285752,43.0951111 14.996549,41.8271373 16.5552418,41.8271373 C18.1139346,41.8271373 19.3813856,43.0951111 19.3813856,44.653281 L19.3813856,55.7633464 C19.3813856,56.3411242 18.9134118,56.809098 18.335634,56.809098 C17.7583791,56.809098 17.2898824,56.3411242 17.2898824,55.7633464 L17.2898824,44.653281 C17.2898824,44.2485752 16.9604706,43.9186405 16.5552418,43.9186405 C16.1500131,43.9186405 15.8200784,44.2485752 15.8200784,44.653281 L15.8200784,57.2702745 C15.8200784,57.8475294 15.3515817,58.3160261 14.7743268,58.3160261" id="Fill-15" fill="#0C1831"></path>
                <path d="M18.0478954,70.4417255 L17.0816209,70.4417255 C17.0507712,70.4417255 17.0193987,70.4401569 16.988549,70.4375425 C15.0858039,70.2665621 13.2531242,69.4717908 11.8277647,68.1991111 L11.0288105,67.4859085 C10.5514248,67.0592418 10.0405752,66.4265621 9.6029281,65.8639477 C9.57469281,65.8278693 9.5490719,65.7902222 9.52606536,65.7504837 L7.536,62.3533595 L4.4463268,56.6791111 C4.23351634,56.2885229 4.29155556,55.8053856 4.5911634,55.4759739 C5.67403922,54.2853856 7.42410458,53.976366 8.84894118,54.7246013 L9.14227451,54.8778039 C9.69233987,55.1664314 10.1571765,55.5957124 10.4881569,56.1201569 L11.3582222,57.3886536 C11.7263268,57.9256471 12.1608366,58.4155817 12.6492026,58.8432941 L12.668549,58.860549 C12.9712941,59.0310065 13.245281,58.9222484 13.3524706,58.8636863 C13.4654118,58.8025098 13.7284183,58.6200261 13.7284183,58.2341438 L13.7284183,56.7413333 C13.7284183,56.1635556 14.196915,55.6955817 14.7741699,55.6955817 C15.3519477,55.6955817 15.8199216,56.1635556 15.8199216,56.7413333 L15.8199216,58.2341438 C15.8199216,59.2683922 15.2546928,60.2147974 14.344366,60.7052549 C13.4345621,61.1957124 12.3323399,61.1465621 11.4690719,60.5771503 C11.4298562,60.5510065 11.3916863,60.5222484 11.3566536,60.4913987 L11.2719477,60.4171503 C10.6512941,59.8728366 10.100183,59.2527059 9.6332549,58.5713987 L8.74122876,57.2699608 C8.58436601,57.0226405 8.39456209,56.8474771 8.17077124,56.7298301 L7.87743791,56.5761046 C7.51194771,56.3842092 7.09469281,56.3627712 6.72658824,56.4924444 L9.35717647,61.3248627 L11.296,64.6346667 C11.5312941,64.936366 12.0468497,65.5899608 12.4217516,65.9256471 L13.2212288,66.6388497 C14.3020131,67.6035556 15.6886797,68.2106144 17.1302484,68.3502222 L18.0478954,68.3502222 C18.6256732,68.3502222 19.0936471,68.818719 19.0936471,69.3959739 C19.0936471,69.9737516 18.6256732,70.4417255 18.0478954,70.4417255" id="Fill-17" fill="#0C1831"></path>
                <path d="M26.6288627,79.4567843 C26.0923922,79.4567843 25.6359216,79.0468497 25.5883399,78.5025359 C25.512,77.6356078 25.4398431,76.9093333 25.3739608,76.2484183 C25.1784052,74.2897255 25.0367059,72.8743007 25.0367059,70.1239739 C25.0367059,69.546719 25.5052026,69.0782222 26.0824575,69.0782222 C26.6602353,69.0782222 27.1282092,69.546719 27.1282092,70.1239739 C27.1282092,72.7702484 27.2652026,74.1422745 27.4550065,76.0408366 C27.5214118,76.7090719 27.5951373,77.4431895 27.6714771,78.3195294 C27.7221961,78.8952157 27.2960523,79.4024052 26.7214118,79.4526013 C26.6900392,79.4557386 26.6591895,79.4567843 26.6288627,79.4567843" id="Fill-19" fill="#0C1831"></path>
                <path d="M16.1422745,79.4633725 C16.1114248,79.4633725 16.081098,79.4623268 16.0497255,79.4591895 C15.475085,79.4089935 15.0489412,78.9018039 15.0996601,78.3261176 C15.176,77.4513464 15.2492026,76.7177516 15.3161307,76.0505621 C15.5059346,74.1483399 15.643451,72.7736993 15.643451,70.1242876 C15.643451,69.5465098 16.1114248,69.0785359 16.6892026,69.0785359 C17.2664575,69.0785359 17.7349542,69.5465098 17.7349542,70.1242876 C17.7349542,72.8782745 17.5932549,74.2957908 17.3971765,76.2581438 C17.3312941,76.9180131 17.2591373,77.6437647 17.1827974,78.5091242 C17.1352157,79.0534379 16.6787451,79.4633725 16.1422745,79.4633725" id="Fill-21" fill="#0C1831"></path>
                <path d="M25.538719,70.4739346 C24.9609412,70.4739346 24.4929673,70.0059608 24.4929673,69.428183 C24.4929673,68.8509281 24.9609412,68.3824314 25.538719,68.3824314 C26.8814641,68.3824314 27.9737516,67.2901438 27.9737516,65.9473987 L27.9737516,47.7785098 C27.9737516,47.373281 27.643817,47.0433464 27.2391111,47.0433464 C26.8338824,47.0433464 26.5044706,47.373281 26.5044706,47.7785098 L26.5044706,56.0645229 C26.5044706,56.6423007 26.0359739,57.1102745 25.458719,57.1102745 C24.8809412,57.1102745 24.4129673,56.6423007 24.4129673,56.0645229 L24.4129673,47.7785098 C24.4129673,46.219817 25.6804183,44.9518431 27.2391111,44.9518431 C28.797281,44.9518431 30.0652549,46.219817 30.0652549,47.7785098 L30.0652549,65.9473987 C30.0652549,68.443085 28.0344052,70.4739346 25.538719,70.4739346" id="Fill-23" fill="#0C1831"></path>
                <path d="M20.4375948,65.9344837 L20.4203399,65.9344837 C19.8425621,65.9250719 19.3824314,65.448732 19.3913203,64.872 C19.3970719,64.5289935 19.3515817,64.1859869 19.2553725,63.8518693 C18.8558954,62.4589281 17.615634,61.4508235 16.1693595,61.3441569 C15.5931503,61.3018039 15.160732,60.800366 15.2036078,60.2241569 C15.2459608,59.6495163 15.7327582,59.2082092 16.3236078,59.2584052 C18.638902,59.4293856 20.6247843,61.0435033 21.2658301,63.2751373 C21.4190327,63.8089935 21.4917124,64.3569673 21.4828235,64.9054641 C21.4728889,65.4774902 21.0070065,65.9344837 20.4375948,65.9344837" id="Fill-25" fill="#0C1831"></path>
                <path d="M25.9579085,58.0173072 C25.7654902,58.0173072 25.5704575,57.9639739 25.395817,57.8531242 C23.9981699,56.9595294 19.7341176,56.6975686 17.9019608,57.656 C17.3879739,57.9221438 16.7579085,57.7250196 16.490719,57.2136471 C16.2230065,56.7012288 16.4211765,56.0695948 16.932549,55.8024052 C19.2807843,54.5752157 24.3898039,54.7284183 26.5220915,56.0899869 C27.0088889,56.401098 27.1511111,57.0478954 26.84,57.5346928 C26.6407843,57.8468497 26.3030065,58.0173072 25.9579085,58.0173072" id="Fill-27" fill="#0C1831"></path>
                <path d="M46.2714248,26.4558431 C45.6936471,26.4558431 45.2256732,25.9873464 45.2256732,25.4100915 L45.2256732,10.448 C45.2256732,9.70237908 44.6191373,9.09584314 43.8735163,9.09584314 C43.1278954,9.09584314 42.5213595,9.70237908 42.5213595,10.448 L42.5213595,25.4100915 C42.5213595,25.9873464 42.0533856,26.4558431 41.4756078,26.4558431 C40.8983529,26.4558431 40.4298562,25.9873464 40.4298562,25.4100915 L40.4298562,10.448 C40.4298562,8.54891503 41.9744314,7.00433987 43.8735163,7.00433987 C45.7726013,7.00433987 47.3171765,8.54891503 47.3171765,10.448 L47.3171765,25.4100915 C47.3171765,25.9873464 46.8486797,26.4558431 46.2714248,26.4558431" id="Fill-29" fill="#0C1831"></path>
                <path d="M36.6794248,26.4558431 C36.1021699,26.4558431 35.6336732,25.9873464 35.6336732,25.4100915 L35.6336732,22.2660392 C35.6336732,21.6887843 36.1021699,21.2202876 36.6794248,21.2202876 C37.2572026,21.2202876 37.7251765,21.6887843 37.7251765,22.2660392 L37.7251765,25.4100915 C37.7251765,25.9873464 37.2572026,26.4558431 36.6794248,26.4558431" id="Fill-31" fill="#0C1831"></path>
                <path d="M41.4757124,26.4558431 C40.8979346,26.4558431 40.4299608,25.9873464 40.4299608,25.4100915 L40.4299608,6.72094118 C40.4299608,5.97532026 39.8234248,5.36878431 39.077281,5.36878431 C38.3316601,5.36878431 37.7251242,5.97532026 37.7251242,6.72094118 L37.7251242,7.49479739 C37.7251242,8.07257516 37.2571503,8.54054902 36.6793725,8.54054902 C36.1021176,8.54054902 35.6336209,8.07257516 35.6336209,7.49479739 L35.6336209,6.72094118 C35.6336209,4.82185621 37.1781961,3.27728105 39.077281,3.27728105 C40.976366,3.27728105 42.5214641,4.82185621 42.5214641,6.72094118 L42.5214641,25.4100915 C42.5214641,25.9873464 42.0529673,26.4558431 41.4757124,26.4558431" id="Fill-33" fill="#0C1831"></path>
                <path d="M36.2918693,44.8152157 L34.9904314,44.8152157 C34.9590588,44.8152157 34.9282092,44.8136471 34.8963137,44.8110327 C32.4116078,44.5872418 30.0184052,43.5488105 28.1564444,41.8865882 L27.0808889,40.9265882 C26.4544837,40.3665882 25.7496471,39.4907712 25.2048105,38.7901176 C25.1765752,38.7540392 25.1509542,38.7163922 25.1279477,38.6771765 L22.4482092,34.1020131 L18.2923922,26.4695948 C18.0795817,26.0784837 18.1376209,25.5958693 18.4377516,25.2659346 C19.783634,23.7851503 21.9614118,23.4008366 23.7339608,24.3310327 L24.1308235,24.5396601 C24.8131765,24.8978301 25.3914771,25.4316863 25.8035033,26.0831895 L26.983634,27.8039739 C27.4965752,28.5516863 28.1015425,29.2340392 28.7823268,29.8306405 L28.8351373,29.8771765 C29.2398431,30.119268 29.7229804,30.1302484 30.1402353,29.9048889 C30.5768366,29.6695948 30.8372288,29.2335163 30.8372288,28.7378301 L30.8372288,26.7268497 C30.8372288,26.1495948 31.3057255,25.681098 31.8829804,25.681098 C32.4607582,25.681098 32.928732,26.1495948 32.928732,26.7268497 L32.928732,28.7378301 C32.928732,29.996915 32.2401046,31.1493333 31.1316078,31.7464575 C30.0231111,32.3425359 28.6814118,32.2818824 27.6309542,31.5901176 C27.5906928,31.563451 27.5525229,31.5341699 27.5164444,31.5022745 L27.4024575,31.4024052 C26.5914771,30.691817 25.8699085,29.8787451 25.2581438,28.9861961 L24.057098,27.2335163 C23.8197124,26.8591373 23.5159216,26.5788758 23.1582745,26.3911634 L22.7619346,26.1825359 C22.0492549,25.8081569 21.2105621,25.8405752 20.541281,26.2254118 L24.2693856,33.0735163 L26.8978824,37.5603137 C27.3820654,38.1814902 27.9875556,38.931817 28.4743529,39.3663268 L29.5493856,40.3263268 C31.0667712,41.6816209 33.0144837,42.531817 35.0380131,42.7237124 L36.2918693,42.7237124 C36.8696471,42.7237124 37.3376209,43.1916863 37.3376209,43.7694641 C37.3376209,44.346719 36.8696471,44.8152157 36.2918693,44.8152157" id="Fill-35" fill="#0C1831"></path>
                <path d="M49.2330458,79.2407843 C48.6557908,79.2407843 48.1872941,78.7722876 48.1872941,78.1950327 C48.1872941,71.911634 47.6461176,66.5500654 47.1221961,61.3652288 C46.6029804,56.2243137 46.0659869,50.9082353 46.0659869,44.7498039 C46.0659869,44.172549 46.5344837,43.7040523 47.1117386,43.7040523 C47.6895163,43.7040523 48.1574902,44.172549 48.1574902,44.7498039 C48.1574902,50.8031373 48.6892549,56.0658824 49.202719,61.1550327 C49.7318693,66.391634 50.2787974,71.8060131 50.2787974,78.1950327 C50.2787974,78.7722876 49.8108235,79.2407843 49.2330458,79.2407843" id="Fill-37" fill="#0C1831"></path>
                <path d="M32.3407059,79.2407843 C31.7629281,79.2407843 31.2949542,78.7722876 31.2949542,78.1950327 C31.2949542,71.8060131 31.8418824,66.391634 32.3710327,61.1550327 C32.8844967,56.0658824 33.4162614,50.8031373 33.4162614,44.7498039 C33.4162614,44.172549 33.8842353,43.7040523 34.4620131,43.7040523 C35.039268,43.7040523 35.5077647,44.172549 35.5077647,44.7498039 C35.5077647,50.9082353 34.9707712,56.2243137 34.4515556,61.3652288 C33.927634,66.5500654 33.3864575,71.911634 33.3864575,78.1950327 C33.3864575,78.7722876 32.9179608,79.2407843 32.3407059,79.2407843" id="Fill-39" fill="#0C1831"></path>
                <path d="M46.3797124,44.8580915 C45.8024575,44.8580915 45.3339608,44.3895948 45.3339608,43.8123399 C45.3339608,43.2345621 45.8024575,42.7665882 46.3797124,42.7665882 C48.3880784,42.7665882 50.0220654,41.1331242 50.0220654,39.1247582 L50.0220654,14.6562614 C50.0220654,13.9106405 49.4155294,13.3041046 48.6693856,13.3041046 C47.9237647,13.3041046 47.3172288,13.9106405 47.3172288,14.6562614 L47.3172288,25.816 C47.3172288,26.3937778 46.848732,26.8617516 46.2714771,26.8617516 C45.6936993,26.8617516 45.2257255,26.3937778 45.2257255,25.816 L45.2257255,14.6562614 C45.2257255,12.7571765 46.7703007,11.2126013 48.6693856,11.2126013 C50.5684706,11.2126013 52.1135686,12.7571765 52.1135686,14.6562614 L52.1135686,39.1247582 C52.1135686,42.2860654 49.5415425,44.8580915 46.3797124,44.8580915" id="Fill-41" fill="#0C1831"></path>
                <path d="M39.509281,38.7454641 L39.4904575,38.7454641 C38.9132026,38.7355294 38.4530719,38.2586667 38.4630065,37.6814118 C38.4718954,37.1846797 38.4060131,36.6879477 38.2669281,36.2042876 C37.6860131,34.181281 35.8862745,32.7193203 33.7890196,32.564549 C33.2128105,32.522719 32.7803922,32.021281 32.8227451,31.4450719 C32.8645752,30.8693856 33.3618301,30.4286013 33.9422222,30.4787974 C36.9095425,30.6968366 39.454902,32.7658562 40.2768627,35.6265098 C40.4734641,36.3099085 40.5665359,37.0131765 40.5545098,37.7180131 C40.5440523,38.2889935 40.0781699,38.7454641 39.509281,38.7454641" id="Fill-43" fill="#0C1831"></path>
                <path d="M46.9444706,28.0831895 C46.7520523,28.0831895 46.5570196,28.0298562 46.3823791,27.9190065 C44.3844706,26.6421438 38.5340131,26.2745621 35.9269542,27.6371765 C35.4134902,27.9038431 34.7823791,27.7061961 34.5151895,27.1953464 C34.248,26.6829281 34.4461699,26.0512941 34.9575425,25.7835817 C38.0341438,24.1762614 44.719634,24.3749542 47.5086536,26.1558693 C47.995451,26.4669804 48.1376732,27.1132549 47.8265621,27.6005752 C47.6273464,27.912732 47.2895686,28.0831895 46.9444706,28.0831895" id="Fill-45" fill="#0C1831"></path>
                <path d="M55.2920784,37.3566013 C54.7143007,37.3566013 54.2463268,36.8881046 54.2463268,36.3108497 L54.2463268,23.9877124 C54.2463268,23.4747712 53.8295948,23.0580392 53.3171765,23.0580392 C52.8042353,23.0580392 52.3875033,23.4747712 52.3875033,23.9877124 C52.3875033,24.5649673 51.9195294,25.0334641 51.3417516,25.0334641 C50.7644967,25.0334641 50.296,24.5649673 50.296,23.9877124 C50.296,22.3218301 51.6512941,20.9665359 53.3171765,20.9665359 C54.9825359,20.9665359 56.3378301,22.3218301 56.3378301,23.9877124 L56.3378301,36.3108497 C56.3378301,36.8881046 55.8693333,37.3566013 55.2920784,37.3566013" id="Fill-47" fill="#0C1831"></path>
                <path d="M59.2422484,37.3566013 C58.6649935,37.3566013 58.1964967,36.8881046 58.1964967,36.3108497 L58.1964967,20.9179085 C58.1964967,20.4054902 57.7797647,19.9882353 57.2673464,19.9882353 C56.7544052,19.9882353 56.3376732,20.4054902 56.3376732,20.9179085 L56.3376732,36.3108497 C56.3376732,36.8881046 55.8696993,37.3566013 55.2919216,37.3566013 C54.7146667,37.3566013 54.2461699,36.8881046 54.2461699,36.3108497 L54.2461699,20.9179085 C54.2461699,19.2520261 55.6014641,17.896732 57.2673464,17.896732 C58.9327059,17.896732 60.288,19.2520261 60.288,20.9179085 L60.288,36.3108497 C60.288,36.8881046 59.8200261,37.3566013 59.2422484,37.3566013" id="Fill-49" fill="#0C1831"></path>
                <path d="M63.1924183,39.0283399 C62.6151634,39.0283399 62.1466667,38.560366 62.1466667,37.9825882 L62.1466667,23.9872941 C62.1466667,23.4748758 61.7299346,23.0581438 61.2175163,23.0581438 C60.7045752,23.0581438 60.2878431,23.4748758 60.2878431,23.9872941 L60.2878431,36.3109542 C60.2878431,36.8882092 59.8198693,37.3567059 59.2420915,37.3567059 C58.6648366,37.3567059 58.1963399,36.8882092 58.1963399,36.3109542 L58.1963399,23.9872941 C58.1963399,22.3219346 59.551634,20.9666405 61.2175163,20.9666405 C62.8828758,20.9666405 64.2381699,22.3219346 64.2381699,23.9872941 L64.2381699,37.9825882 C64.2381699,38.560366 63.7701961,39.0283399 63.1924183,39.0283399" id="Fill-51" fill="#0C1831"></path>
                <path d="M60.6336732,52.4781176 L59.5612549,52.4781176 C58.984,52.4781176 58.5155033,52.0101438 58.5155033,51.432366 C58.5155033,50.8551111 58.984,50.3866144 59.5612549,50.3866144 L60.5850458,50.3866144 C62.2101438,50.2302745 63.7735425,49.5468758 64.9918431,48.4592941 L65.8775948,47.668183 C66.3037386,47.2875294 66.8689673,46.5696209 67.1455686,46.2145882 L69.3175948,42.5058301 L72.2812549,37.0611242 C71.813281,36.8535425 71.2653072,36.8619085 70.7910588,37.1102745 L70.4642614,37.2823007 C70.1981176,37.4219085 69.9722353,37.6305359 69.8117124,37.8841307 L68.8015163,39.3602092 C68.2885752,40.1084444 67.6836078,40.7897516 67.0038693,41.3858301 L66.9092288,41.4684444 C66.8736732,41.499817 66.8355033,41.5285752 66.7962876,41.554719 C65.8734118,42.1628235 64.6969412,42.2161569 63.7238693,41.6917124 C62.7513203,41.1683137 62.1468758,40.1570719 62.1468758,39.0517124 L62.1468758,37.3952418 C62.1468758,36.8179869 62.6148497,36.3494902 63.1926275,36.3494902 C63.7698824,36.3494902 64.2383791,36.8179869 64.2383791,37.3952418 L64.2383791,39.0517124 C64.2383791,39.5406013 64.571451,39.7727582 64.7152418,39.8506667 C64.8522353,39.9238693 65.2046536,40.0660915 65.5941961,39.8396863 L65.6255686,39.8124967 C66.1740654,39.3319739 66.6619085,38.7819085 67.0760261,38.1779869 L68.0647843,36.7348497 C68.4004706,36.2025621 68.9013856,35.7403399 69.4917124,35.4302745 L69.8185098,35.2587712 C71.3536732,34.4530196 73.2386405,34.7860915 74.4036078,36.0687059 C74.7026928,36.3981176 74.7612549,36.8812549 74.5479216,37.2718431 L71.1387712,43.5343268 L68.9155033,47.3309281 C68.8924967,47.3701438 68.8668758,47.4088366 68.8381176,47.444915 C68.3555033,48.0660915 67.7913203,48.7636078 67.2700131,49.2279216 L66.3847843,50.0190327 C64.8219085,51.4145882 62.8130196,52.2862222 60.7277908,52.4739346 C60.6964183,52.476549 60.6650458,52.4781176 60.6336732,52.4781176" id="Fill-53" fill="#0C1831"></path>
                <path d="M50.9814379,63.9655425 C50.9511111,63.9655425 50.9202614,63.9644967 50.8894118,63.9613595 C50.3142484,63.9111634 49.8881046,63.4039739 49.9388235,62.8288105 C50.2588235,59.1692026 50.2833987,55.9200523 50.2833987,51.7302484 C50.2833987,51.1524706 50.7518954,50.6844967 51.3291503,50.6844967 C51.9069281,50.6844967 52.374902,51.1524706 52.374902,51.7302484 C52.374902,55.9739085 52.349281,59.2675033 52.0219608,63.0107712 C51.9743791,63.555085 51.5179085,63.9655425 50.9814379,63.9655425" id="Fill-55" fill="#0C1831"></path>
                <path d="M67.5173856,79.5011765 C66.9443137,79.5011765 66.4773856,79.0394771 66.471634,78.4658824 C66.4230065,73.3992157 65.9895425,69.2198693 65.5701961,65.1775163 L65.5613072,65.0886275 C65.4253595,63.7793464 65.2920261,62.4915033 65.1738562,61.1921569 C65.1215686,60.6169935 65.5456209,60.1082353 66.1202614,60.0559477 C66.7001307,60.0120261 67.204183,60.4277124 67.2569935,61.0023529 C67.3746405,62.2933333 67.5064052,63.5722876 67.6413072,64.8726797 L67.650719,64.9620915 C68.0747712,69.0520261 68.5134641,73.2810458 68.5631373,78.4449673 C68.5688889,79.0227451 68.105098,79.4954248 67.5278431,79.5011765 L67.5173856,79.5011765 Z" id="Fill-57" fill="#3C76A6"></path>
                <path d="M62.8115033,79.5461438 C62.2384314,79.5461438 61.7715033,79.0844444 61.7657516,78.5108497 C61.7192157,73.6653595 61.2972549,69.5973856 60.8894118,65.663268 C60.4637908,61.5545098 60.0230065,57.3061438 60.0230065,52.2394771 C60.0230065,51.6622222 60.4915033,51.1937255 61.0687582,51.1937255 C61.6460131,51.1937255 62.1145098,51.6622222 62.1145098,52.2394771 C62.1145098,57.1979085 62.5301961,61.2052288 62.9699346,65.4473203 C63.3830065,69.4290196 63.8096732,73.5466667 63.8572549,78.4899346 C63.8630065,79.0677124 63.3992157,79.5403922 62.8219608,79.5461438 L62.8115033,79.5461438 Z" id="Fill-59" fill="#0C1831"></path>
                <path d="M51.252549,52.5133595 C48.4598693,52.5133595 46.1001307,50.2555817 46.1001307,47.5821176 C46.1001307,47.0048627 46.5686275,46.536366 47.1458824,46.536366 C47.7236601,46.536366 48.191634,47.0048627 48.191634,47.5821176 C48.191634,49.0681307 49.6504575,50.4218562 51.252549,50.4218562 C51.8298039,50.4218562 52.2983007,50.8898301 52.2983007,51.4676078 C52.2983007,52.0448627 51.8298039,52.5133595 51.252549,52.5133595" id="Fill-61" fill="#0C1831"></path>
                <path d="M56.911268,47.4786405 C56.3418562,47.4786405 55.8759739,47.0221699 55.8660392,46.4501438 C55.8561046,45.8524967 55.9355817,45.2543268 56.1023791,44.6744575 C56.8004183,42.2441307 58.9630327,40.4867451 61.4832941,40.3016471 C62.0615948,40.2483137 62.5604183,40.6917124 62.6027712,41.2679216 C62.6451242,41.8441307 62.2127059,42.3455686 61.6364967,42.3873987 C59.9857778,42.5087059 58.5698301,43.6595556 58.1123137,45.2511895 C58.0030327,45.6328889 57.9507451,46.0245229 57.9575425,46.415634 C57.9674771,46.992366 57.5068235,47.4687059 56.9290458,47.4786405 L56.911268,47.4786405 Z" id="Fill-63" fill="#0C1831"></path>
                <path d="M60.2603922,38.4278693 C60.0977778,38.4278693 59.9315033,38.3896993 59.776732,38.3086536 C57.7197386,37.2336209 53.4713725,37.5745359 51.9362092,38.1115294 C51.3903268,38.302902 50.7942484,38.0147974 50.6033987,37.4704837 C50.412549,36.9251242 50.7001307,36.3285229 51.2449673,36.1376732 C53.103268,35.4877386 58.0052288,35.022902 60.7461438,36.4550588 C61.2575163,36.7227712 61.4556863,37.3544052 61.1884967,37.8668235 C61.0013072,38.2234248 60.6373856,38.4278693 60.2603922,38.4278693" id="Fill-65" fill="#0C1831"></path>
                <path d="M40.7843137,56.1224052 C40.2070588,56.1224052 39.7385621,55.6539085 39.7385621,55.0766536 L39.7385621,53.5080261 C39.7385621,52.9302484 40.2070588,52.4622745 40.7843137,52.4622745 C41.3620915,52.4622745 41.8300654,52.9302484 41.8300654,53.5080261 L41.8300654,55.0766536 C41.8300654,55.6539085 41.3620915,56.1224052 40.7843137,56.1224052 M40.7843137,62.9197908 C40.2070588,62.9197908 39.7385621,62.4512941 39.7385621,61.8740392 L39.7385621,60.3054118 C39.7385621,59.727634 40.2070588,59.2596601 40.7843137,59.2596601 C41.3620915,59.2596601 41.8300654,59.727634 41.8300654,60.3054118 L41.8300654,61.8740392 C41.8300654,62.4512941 41.3620915,62.9197908 40.7843137,62.9197908 M40.7843137,69.7171765 C40.2070588,69.7171765 39.7385621,69.2486797 39.7385621,68.6714248 L39.7385621,67.1027974 C39.7385621,66.5250196 40.2070588,66.0570458 40.7843137,66.0570458 C41.3620915,66.0570458 41.8300654,66.5250196 41.8300654,67.1027974 L41.8300654,68.6714248 C41.8300654,69.2486797 41.3620915,69.7171765 40.7843137,69.7171765 M40.7843137,76.5145621 C40.2070588,76.5145621 39.7385621,76.0460654 39.7385621,75.4688105 L39.7385621,73.900183 C39.7385621,73.3224052 40.2070588,72.8544314 40.7843137,72.8544314 C41.3620915,72.8544314 41.8300654,73.3224052 41.8300654,73.900183 L41.8300654,75.4688105 C41.8300654,76.0460654 41.3620915,76.5145621 40.7843137,76.5145621" id="Fill-67" fill="#0C1831"></path>
            </g>
        </g>
    </g>
</svg>