<?xml version="1.0" encoding="UTF-8"?>
<svg width="88px" height="80px" viewBox="0 0 88 80" version="1.1" xmlns="http://www.w3.org/2000/svg" xmlns:xlink="http://www.w3.org/1999/xlink">
    <!-- Generator: Sketch 55.2 (78181) - https://sketchapp.com -->
    <title>Group 3</title>
    <desc>Created with Sketch.</desc>
    <defs>
        <polygon id="path-1" points="0 0.000125278491 87.5152806 0.000125278491 87.5152806 79.5096403 0 79.5096403"></polygon>
    </defs>
    <g id="Page-1" stroke="none" stroke-width="1" fill="none" fill-rule="evenodd">
        <g id="Browse-charities-V2" transform="translate(-1108.000000, -718.000000)">
            <g id="Group-3" transform="translate(1108.000000, 718.000000)">
                <mask id="mask-2" fill="white">
                    <use xlink:href="#path-1"></use>
                </mask>
                <g id="Clip-2"></g>
                <path d="M61.5538417,52.3569496 C61.5538417,49.6168058 67.397295,49.7163741 68.7555683,51.9621295 L71.1267914,50.864 C70.1385899,48.8444317 68.4263597,48.1416978 66.5598849,47.8562302 L66.5598849,45.9460144 L63.7719712,45.9460144 L63.7719712,47.8562302 C61.2246331,48.1635683 58.6778705,49.4809784 58.6778705,52.3569496 C58.6778705,58.9255827 68.7555683,55.2760863 68.7555683,59.118964 C68.7555683,62.3333525 61.877295,62.2642878 60.5880863,59.206446 L57.9970072,60.3045755 C59.0289496,62.7195396 61.3126906,63.8395396 63.7719712,64.0588201 L63.7719712,66.1445755 L66.5598849,66.1445755 L66.5598849,63.9494676 C69.2821871,63.751482 71.7627626,62.0829928 71.7627626,59.118964 C71.7627626,52.3632806 61.5538417,55.8688921 61.5538417,52.3569496 L61.5538417,52.3569496 Z M84.6375827,56.7137842 C84.6375827,45.6726331 73.4571511,39.1143597 71.9693813,35.0550791 L56.678446,35.0550791 C55.0882302,39.5068777 47.0237698,44.7621295 45.1739856,53.8522014 C45.1302446,54.0674532 45.0364317,54.2579568 44.9132662,54.4225612 C53.7783022,57.9857266 59.8444892,66.5192518 59.9066475,76.5946475 L64.7567194,76.5946475 C75.7190216,76.5946475 84.6375827,67.6760863 84.6375827,56.7137842 L84.6375827,56.7137842 Z M2.87873381,76.6320576 L11.0962878,76.6320576 L11.0974388,71.4671655 C11.0985899,69.5632806 13.9762878,69.5684604 13.9751367,71.4694676 L13.9739856,76.6320576 L44.8528345,76.6320576 C44.8925468,74.5422734 44.7302446,71.5811223 44.728518,71.5483165 C44.6842014,70.7546475 45.2913957,70.0755108 46.0850647,70.0317698 C46.8706763,69.9828489 47.557295,70.595223 47.6016115,71.3883165 C47.6090935,71.526446 47.768518,74.4392518 47.7305324,76.6320576 C57.3702446,76.6320576 57.0312518,76.5946475 57.0312518,76.5946475 C56.9437698,64.1330647 46.5345612,55.5805468 36.8280863,55.5805468 C32.4401727,57.5011223 26.7734101,57.118964 22.2836259,55.591482 C11.9170072,56.0432806 3.01110791,63.9103309 2.87873381,76.6320576 L2.87873381,76.6320576 Z M23.936,50.6838561 L23.936,53.089036 C25.9486619,53.6668777 30.8557122,54.7557986 35.0968633,53.1811223 L35.0968633,50.9388201 C32.139741,51.8222734 27.0116835,51.7998273 23.936,50.6838561 L23.936,50.6838561 Z M28.830964,48.660259 L30.9725468,48.660259 C36.9293813,48.660259 41.6793094,44.1796835 43.1849209,37.7025612 L16.6174388,37.7025612 C18.1236259,44.1796835 22.8741295,48.660259 28.830964,48.660259 L28.830964,48.660259 Z M13.7126906,22.6383885 C13.7587338,22.5457266 13.8139856,22.4599712 13.8778705,22.3799712 C14.1587338,19.9183885 14.4580144,17.6720576 14.6807482,15.7037122 C15.1101007,11.9419856 37.4191655,10.2660144 44.1875108,14.9560863 C44.4545612,15.1408345 44.6513957,15.4107626 44.7452086,15.7221295 C45.0721151,16.8024173 45.4214676,18.3978129 45.7328345,20.2481727 C46.4436259,13.2386763 46.5949928,9.58342446 43.594705,5.49133813 L39.1883741,6.18774101 C38.3682302,6.31838849 38.2991655,6.07666187 34.5696691,3.11493525 L30.4827626,4.92270504 C29.7230504,5.25939568 29.594705,5.04241727 25.1480863,3.12011511 L21.5699568,5.93910791 C21.2603165,6.18371223 20.8620432,6.28788489 20.4741295,6.23263309 L15.972259,5.58284892 C13.5774388,8.85248921 11.797295,11.6381007 13.7126906,22.6383885 L13.7126906,22.6383885 Z M43.070964,21.8349353 C42.7843453,19.9362302 42.4516835,18.245295 42.1345612,17.0608345 C37.1630504,14.2101871 22.4194532,14.4334964 17.4536978,16.7742158 C17.2758561,18.2821295 17.0888058,19.7204029 16.838446,21.8349353 L43.070964,21.8349353 Z M16.1754245,34.8248633 L43.6269353,34.8248633 C43.8726906,31.6496115 43.9429065,29.2047194 43.4462158,24.7126331 L16.5195971,24.7126331 C16.2513957,27.3232806 16.0505324,30.0317698 16.0223309,32.7396835 C16.1311079,33.0378129 16.0983022,33.8320576 16.1754245,34.8248633 L16.1754245,34.8248633 Z M53.2355683,17.5287482 C53.936,19.5178129 55.6925468,24.0760863 57.0254964,27.4665899 L59.6407482,27.4665899 C59.5998849,27.2985324 59.0542734,24.5808345 59.0203165,24.4110504 C58.6427626,22.5376691 61.4669353,21.9874532 61.8416115,23.8424173 C62.4355683,26.7886043 62.5506763,26.9779568 62.4338417,27.4665899 L66.7342734,27.4665899 C66.328518,26.8887482 66.473554,26.5238561 66.6801727,24.6665899 C66.7676547,23.8769496 67.4767194,23.2991079 68.2692374,23.3957986 C69.0588777,23.4832806 69.6280863,24.1946475 69.5400288,24.9842878 L69.3380144,26.8035683 C69.3103885,27.0516259 69.2171511,27.2755108 69.0830504,27.4665899 L71.5728345,27.4665899 C72.0453525,26.8651511 75.2206043,18.7316259 75.4968633,18.0191079 C71.8939856,14.2429928 72.2289496,17.9362302 68.6105324,17.9362302 C66.0298129,17.9362302 65.6965755,16.3195396 64.3452086,16.3195396 C62.9949928,16.3195396 62.6548489,17.9362302 60.074705,17.9362302 C58.5783022,17.9362302 57.6436259,17.2029928 57.0260719,16.7178129 C56.4108201,16.2349353 56.321036,16.2004029 55.9549928,16.2993957 C54.9719712,16.5658705 53.9895252,17.0804029 53.2355683,17.5287482 L53.2355683,17.5287482 Z M73.7656403,32.1773813 C74.270964,32.1773813 74.6818993,31.766446 74.6818993,31.2611223 C74.6818993,30.7557986 74.270964,30.3442878 73.7656403,30.3442878 L54.9224748,30.3442878 C53.7103885,30.3442878 53.710964,32.1773813 54.9224748,32.1773813 L73.7656403,32.1773813 Z M87.5152806,56.7137842 C87.5152806,69.2628489 77.3057842,79.4723453 64.7567194,79.4723453 L58.7866475,79.4723453 C58.6853525,79.4953669 58.5806043,79.5097554 58.4718273,79.5097554 L1.46060432,79.5097554 C0.687654676,79.5097554 0.0528345324,78.8985324 0.0229064748,78.1261583 C-0.50428777,64.5526331 8.11441727,54.2309065 21.0583022,52.8024173 L21.0583022,49.2513381 C16.4677986,46.2850072 13.4427626,40.6775252 13.2499568,33.9166619 C13.0105324,33.3411223 11.8180144,28.4547914 10.8073669,22.7368058 C9.51988489,15.4665899 9.43873381,9.62831655 13.0542734,4.69651799 C15.0467914,1.97766906 13.9716835,2.38630216 20.2744173,3.29623022 C24.2053525,0.199827338 24.4839137,-0.302618705 25.5026187,0.138244604 L29.8939856,2.0363741 C34.3739856,0.055942446 34.7975827,-0.379165468 35.6781583,0.320690647 L39.3627626,3.24673381 C45.4295252,2.28788489 44.6416115,2.05594245 46.0436259,3.96443165 C48.0027626,6.63148201 49.0629065,9.93507914 49.0283741,13.2674532 C48.9380144,22.1054388 46.8488058,32.4375252 46.5633381,33.3756547 C46.5190216,40.755223 43.1193094,46.8317698 37.9699568,49.7209784 C37.9774388,49.9304748 37.9745612,52.536518 37.9745612,52.7483165 C39.4744173,52.8875971 40.9276547,53.1598273 42.3267914,53.5471655 C42.3348489,52.9106187 43.412259,46.8991079 50.0344173,39.3814101 C51.7524029,37.4320576 52.9898129,35.9316259 53.6211799,34.820259 C50.1224748,33.5379568 50.3831942,28.5117698 53.9814676,27.5891799 C52.7187338,24.3644317 50.3244892,18.1900432 50.1190216,17.1909065 C49.9998849,16.6107626 50.2490935,16.0162302 50.7452086,15.6945036 C55.6568633,12.5060144 57.1331223,13.1425612 58.8027626,14.4547914 C59.5831942,15.0671655 60.1696691,15.4297554 61.3420432,14.5416978 C63.2631942,13.0855827 65.3426187,13.0216978 67.3477986,14.5428489 C67.8145612,14.8968058 68.0280863,15.0585324 68.6105324,15.0585324 C69.194705,15.0585324 69.4082302,14.8968058 69.8761439,14.5422734 C72.9391655,12.2234245 75.6539856,13.809036 78.1667914,16.6769496 C78.619741,17.1932086 78.6934101,17.7261583 78.5011799,18.2257266 C77.4358561,20.9963741 75.7754245,25.2346475 74.7043453,27.5891799 C78.2801727,28.5042878 78.5702446,33.4844317 75.1124029,34.8035683 C77.6090935,38.2401151 87.5152806,45.6150791 87.5152806,56.7137842 L87.5152806,56.7137842 Z M38.3354245,28.3909065 L34.736,28.3909065 C32.8349928,28.3909065 32.8321151,31.2686043 34.736,31.2686043 L38.3354245,31.2686043 C39.1302446,31.2686043 39.7742734,30.6245755 39.7742734,29.8297554 C39.7742734,29.0355108 39.1302446,28.3909065 38.3354245,28.3909065 L38.3354245,28.3909065 Z M25.5440576,31.2686043 L21.9446331,31.2686043 C20.0436259,31.2686043 20.0407482,28.3909065 21.9446331,28.3909065 L25.5440576,28.3909065 C27.4450647,28.3909065 27.4479424,31.2686043 25.5440576,31.2686043 L25.5440576,31.2686043 Z" id="Fill-1" fill="#0C1831" mask="url(#mask-2)"></path>
                <path d="M74.3561439,42.8081727 C72.8977266,41.5909065 71.0519712,43.8009784 72.5149928,45.0193957 C73.0387338,45.4562302 73.3006043,45.8366619 73.9849209,45.8366619 C75.2879424,45.8366619 75.9221871,44.2291799 74.9621871,43.3411223 C74.764777,43.1586763 74.5639137,42.9808345 74.3561439,42.8081727 Z" id="Path" fill="#3C76A6" mask="url(#mask-2)"></path>
                <path d="M76.6611799,47.1143597 C76.008518,47.5678849 75.8467914,48.464 76.299741,49.1166619 C80.3452086,54.9422734 79.3075108,62.696518 74.6352806,67.4378129 C73.3006043,68.791482 75.347223,70.8133525 76.6842014,69.4579568 C78.692259,67.4205468 80.1806043,64.8732086 80.9898129,62.0910504 C82.4557122,57.0429928 81.6079424,51.7157986 78.6640576,47.4757986 C78.2105324,46.8231367 77.3144173,46.6625612 76.6611799,47.1143597 Z" id="Path" fill="#3C76A6" mask="url(#mask-2)"></path>
            </g>
        </g>
    </g>
</svg>