<?xml version="1.0" encoding="UTF-8"?>
<svg width="85px" height="81px" viewBox="0 0 85 81" version="1.1" xmlns="http://www.w3.org/2000/svg" xmlns:xlink="http://www.w3.org/1999/xlink">
    <!-- Generator: Sketch 55.2 (78181) - https://sketchapp.com -->
    <title>Group 3</title>
    <desc>Created with Sketch.</desc>
    <defs>
        <polygon id="path-1" points="0 0 84.1317377 0 84.1317377 79.5847869 0 79.5847869"></polygon>
    </defs>
    <g id="Page-1" stroke="none" stroke-width="1" fill="none" fill-rule="evenodd">
        <g id="Browse-charities-V2" transform="translate(-249.000000, -928.000000)">
            <g id="Group-3" transform="translate(249.000000, 928.750000)">
                <mask id="mask-2" fill="white">
                    <use xlink:href="#path-1"></use>
                </mask>
                <g id="Clip-2"></g>
                <path d="M63.580918,38.2228197 L34.4241967,46.179541 C33.7599344,46.3605246 33.3691148,47.0457705 33.5500984,47.709377 C33.731082,48.3729836 34.4156721,48.7657705 35.0799344,48.5834754 L63.2753443,40.8897049 L73.8287869,60.7651148 C74.0523934,61.1874098 74.4838689,61.4274098 74.9304262,61.4274098 C75.1264918,61.4274098 75.3271475,61.3808525 75.5127213,61.2811803 C76.1205902,60.9592131 76.3520656,60.2051148 76.0287869,59.5972459 L65.0091148,38.8405246 C64.7363279,38.3251148 64.140918,38.0713443 63.580918,38.2228197 L63.580918,38.2228197 Z M6.93763934,18.5316721 L48.2215738,18.5316721 C46.0858361,16.2811803 44.1356721,18.2818361 43.6996066,16.3900328 C42.6307541,11.7657705 38.0897705,9.3624918 34.1815738,11.1775738 C33.4602623,11.5152787 32.5992787,11.0910164 32.436,10.299541 C31.4891148,5.70216393 28.5212459,2.49232787 25.2196066,2.49232787 C21.9992787,2.49232787 19.1337049,5.46872131 18.0891148,9.90019672 C17.9271475,10.5841311 17.2307541,11.0005246 16.5520656,10.816918 C11.8379672,9.54609836 7.53829508,13.3913443 6.93763934,18.5316721 L6.93763934,18.5316721 Z M48.9402623,15.8824918 C50.3343607,16.8221639 52.2432131,19.3297049 51.4169836,20.4975738 C50.9048525,21.2221639 51.2963279,21.0234754 39.5671475,21.0234754 C37.0989508,22.8765902 35.7028852,26.2418361 36.051082,29.6510164 L72.5396066,29.6510164 C72.5441967,29.5552787 72.5461639,29.4608525 72.5461639,29.3651148 C72.5461639,25.4916721 69.0930492,22.407082 65.1068197,22.9100328 C64.4937049,22.9860984 63.9068197,22.5952787 63.7481311,21.9913443 C61.9323934,15.1074098 54.5173115,11.9205246 48.9402623,15.8824918 L48.9402623,15.8824918 Z M15.9828852,8.16314754 C17.5291148,3.23396721 21.1337049,-0.000131147541 25.2196066,-0.000131147541 C29.3455082,-0.000131147541 33.0281311,3.39003279 34.5258361,8.40314754 C35.2989508,8.18806557 36.0950164,8.07986885 36.9055082,8.07986885 C40.9553443,8.07986885 44.5061639,10.8103607 45.8478033,14.8359344 C45.9861639,14.8438033 46.1232131,14.8582295 46.2596066,14.8752787 C52.8622295,8.7677377 62.9028852,11.8011803 65.8550164,20.3611803 C71.8169836,20.3611803 75.9651803,25.6687213 74.8589508,31.1447869 C74.7415738,31.7257705 74.2300984,32.1434754 73.6379672,32.1434754 L34.9796066,32.1434754 C34.3848525,32.1434754 33.8727213,31.7224918 33.7573115,31.1382295 C33.0248525,27.434623 33.9343607,23.7152787 36.0432131,21.0234754 L5.61960656,21.0234754 C4.9317377,21.0234754 4.37370492,20.4660984 4.37370492,19.7775738 C4.37370492,12.749377 9.86485246,7.33495082 15.9828852,8.16314754 L15.9828852,8.16314754 Z M37.4996066,64.0326557 C37.6858361,65.5579016 39.6989508,66.8064262 42.0655082,66.8064262 C42.4091148,66.8064262 42.743541,66.7775738 43.0668197,66.7283934 L46.7514098,58.0824918 C47.0143607,57.4654426 47.7219016,57.1683934 48.3455082,57.4083934 L56.300918,60.4726557 C56.943541,60.7205246 57.263541,61.4411803 57.0163279,62.0831475 C56.768459,62.7257705 56.048459,63.044459 55.4058361,62.7985574 L48.5723934,60.1664262 L47.5278033,62.6182295 C47.6451803,62.5815082 47.7678033,62.5559344 47.8976393,62.5559344 C48.5861639,62.5559344 49.143541,63.1139672 49.143541,63.8024918 C49.143541,65.4306885 51.2438689,66.8064262 53.7291148,66.8064262 C56.2143607,66.8064262 58.3140328,65.4306885 58.3140328,63.8024918 C58.3140328,63.1139672 58.8714098,62.5559344 59.5599344,62.5559344 C60.248459,62.5559344 60.8064918,63.1139672 60.8064918,63.8024918 C60.8064918,65.2490492 62.4648525,66.4936393 64.5769836,66.7539672 L67.5127213,59.5841311 L43.8425574,50.1362623 L37.4996066,64.0326557 Z M34.9881311,63.8024918 C34.9881311,63.7965902 34.9900984,63.7913443 34.9900984,63.7854426 C34.9907541,63.7408525 34.998623,63.696918 35.0038689,63.6523279 C35.008459,63.6136393 35.0104262,63.5742951 35.0182951,63.5362623 C35.0248525,63.5067541 35.0373115,63.4772459 35.0458361,63.4477377 C35.060918,63.3972459 35.0753443,63.3460984 35.0963279,63.2982295 C35.0982951,63.2942951 35.0989508,63.2897049 35.100918,63.2851148 L37.611082,57.7874098 C37.0766557,57.4523279 36.6071475,57.0667541 36.2261639,56.6333115 C34.9474754,58.0687213 32.8156721,59.0123279 30.4032131,59.0123279 C27.9861639,59.0123279 25.8491148,58.0647869 24.5717377,56.6241311 C23.2943607,58.0647869 21.1579672,59.0123279 18.7402623,59.0123279 C16.3232131,59.0123279 14.1868197,58.0647869 12.9094426,56.6241311 C11.6320656,58.0647869 9.49567213,59.0123279 7.07796721,59.0123279 C3.17567213,59.0123279 -6.55737705e-05,56.5460984 -6.55737705e-05,53.5159344 C-6.55737705e-05,52.8280656 0.557967213,52.2700328 1.24583607,52.2700328 C1.93436066,52.2700328 2.49239344,52.8280656 2.49239344,53.5159344 C2.49239344,55.1447869 4.59206557,56.5198689 7.07796721,56.5198689 C9.56321311,56.5198689 11.6628852,55.1447869 11.6628852,53.5159344 C11.6628852,52.8280656 12.220918,52.2700328 12.9094426,52.2700328 C13.5973115,52.2700328 14.1553443,52.8280656 14.1553443,53.5159344 C14.1553443,55.1447869 16.2550164,56.5198689 18.7402623,56.5198689 C21.2255082,56.5198689 23.3251803,55.1447869 23.3251803,53.5159344 C23.3251803,52.8280656 23.8832131,52.2700328 24.5717377,52.2700328 C25.2602623,52.2700328 25.8176393,52.8280656 25.8176393,53.5159344 C25.8176393,55.1447869 27.9173115,56.5198689 30.4032131,56.5198689 C32.888459,56.5198689 34.9881311,55.1447869 34.9881311,53.5159344 C34.9881311,52.8280656 35.5461639,52.2700328 36.2346885,52.2700328 C36.9232131,52.2700328 37.4805902,52.8280656 37.4805902,53.5159344 C37.4805902,54.234623 37.9140328,54.9421639 38.6582951,55.4936393 L42.0687869,48.0215082 C42.3441967,47.4175738 43.0471475,47.136918 43.6641967,47.3821639 L69.6038689,57.7362623 C69.9120656,57.8588852 70.158623,58.1008525 70.288459,58.4064262 C70.4189508,58.7126557 70.420918,59.0582295 70.2943607,59.3651148 L67.3750164,66.4962623 C68.8982951,66.0011803 69.9769836,64.9683934 69.9769836,63.8024918 C69.9769836,63.1139672 70.5343607,62.5559344 71.2228852,62.5559344 C71.9114098,62.5559344 72.4694426,63.1139672 72.4694426,63.8024918 C72.4694426,65.4306885 74.5691148,66.8064262 77.0543607,66.8064262 C79.5396066,66.8064262 81.6392787,65.4306885 81.6392787,63.8024918 C81.6392787,63.1139672 82.1973115,62.5559344 82.8851803,62.5559344 C83.5737049,62.5559344 84.1317377,63.1139672 84.1317377,63.8024918 C84.1317377,66.8326557 80.9566557,69.2988852 77.0543607,69.2988852 C74.6366557,69.2988852 72.5002623,68.3506885 71.2228852,66.9100328 C69.9455082,68.3506885 67.8091148,69.2988852 65.3914098,69.2988852 L65.3907541,69.2988852 L65.3907541,69.2988852 L65.3900984,69.2988852 C62.9730492,69.2982295 60.8373115,68.3506885 59.5599344,66.9100328 C58.2825574,68.3506885 56.1468197,69.2988852 53.7291148,69.2988852 C51.3114098,69.2988852 49.1750164,68.3506885 47.8976393,66.9100328 C46.6202623,68.3506885 44.4832131,69.2988852 42.0655082,69.2988852 C39.648459,69.2988852 37.5120656,68.3506885 36.2346885,66.9100328 C34.9573115,68.3506885 32.820918,69.2988852 30.4032131,69.2988852 C27.9861639,69.2988852 25.8491148,68.3506885 24.5717377,66.9100328 C23.2943607,68.3506885 21.1579672,69.2988852 18.7402623,69.2988852 C16.3232131,69.2988852 14.1868197,68.3506885 12.9094426,66.9100328 C11.6320656,68.3506885 9.49567213,69.2988852 7.07796721,69.2988852 C3.17567213,69.2988852 -6.55737705e-05,66.8326557 -6.55737705e-05,63.8024918 C-6.55737705e-05,63.1139672 0.557967213,62.5559344 1.24583607,62.5559344 C1.93436066,62.5559344 2.49239344,63.1139672 2.49239344,63.8024918 C2.49239344,65.4306885 4.59206557,66.8064262 7.07796721,66.8064262 C9.56321311,66.8064262 11.6628852,65.4306885 11.6628852,63.8024918 C11.6628852,63.1139672 12.220918,62.5559344 12.9094426,62.5559344 C13.5973115,62.5559344 14.1553443,63.1139672 14.1553443,63.8024918 C14.1553443,65.4306885 16.2550164,66.8064262 18.7402623,66.8064262 C21.2255082,66.8064262 23.3251803,65.4306885 23.3251803,63.8024918 C23.3251803,63.1139672 23.8832131,62.5559344 24.5717377,62.5559344 C25.2602623,62.5559344 25.8176393,63.1139672 25.8176393,63.8024918 C25.8176393,65.4306885 27.9173115,66.8064262 30.4032131,66.8064262 C32.888459,66.8064262 34.9881311,65.4306885 34.9881311,63.8024918 L34.9881311,63.8024918 Z M82.8851803,72.8424918 C82.1973115,72.8424918 81.6392787,73.4005246 81.6392787,74.0883934 C81.6392787,75.7172459 79.5396066,77.0923279 77.0543607,77.0923279 C74.5691148,77.0923279 72.4694426,75.7172459 72.4694426,74.0883934 C72.4694426,73.4005246 71.9114098,72.8424918 71.2228852,72.8424918 C70.5343607,72.8424918 69.9769836,73.4005246 69.9769836,74.0883934 C69.9769836,75.7172459 67.8773115,77.0923279 65.3914098,77.0923279 C62.9061639,77.0923279 60.8064918,75.7172459 60.8064918,74.0883934 C60.8064918,73.4005246 60.248459,72.8424918 59.5599344,72.8424918 C58.8714098,72.8424918 58.3140328,73.4005246 58.3140328,74.0883934 C58.3140328,75.7172459 56.2143607,77.0923279 53.7291148,77.0923279 C51.2438689,77.0923279 49.143541,75.7172459 49.143541,74.0883934 C49.143541,73.4005246 48.5861639,72.8424918 47.8976393,72.8424918 C47.2091148,72.8424918 46.6517377,73.4005246 46.6517377,74.0883934 C46.6517377,75.7172459 44.5514098,77.0923279 42.0655082,77.0923279 C39.5802623,77.0923279 37.4805902,75.7172459 37.4805902,74.0883934 C37.4805902,73.4005246 36.9232131,72.8424918 36.2346885,72.8424918 C35.5461639,72.8424918 34.9881311,73.4005246 34.9881311,74.0883934 C34.9881311,75.7172459 32.888459,77.0923279 30.4032131,77.0923279 C27.9173115,77.0923279 25.8176393,75.7172459 25.8176393,74.0883934 C25.8176393,73.4005246 25.2602623,72.8424918 24.5717377,72.8424918 C23.8832131,72.8424918 23.3251803,73.4005246 23.3251803,74.0883934 C23.3251803,75.7172459 21.2255082,77.0923279 18.7402623,77.0923279 C16.2550164,77.0923279 14.1553443,75.7172459 14.1553443,74.0883934 C14.1553443,73.4005246 13.5973115,72.8424918 12.9094426,72.8424918 C12.220918,72.8424918 11.6628852,73.4005246 11.6628852,74.0883934 C11.6628852,75.7172459 9.56321311,77.0923279 7.07796721,77.0923279 C4.59206557,77.0923279 2.49239344,75.7172459 2.49239344,74.0883934 C2.49239344,73.4005246 1.93436066,72.8424918 1.24583607,72.8424918 C0.557967213,72.8424918 -6.55737705e-05,73.4005246 -6.55737705e-05,74.0883934 C-6.55737705e-05,77.1710164 3.10878689,79.5847869 7.07796721,79.5847869 C9.49567213,79.5847869 11.6320656,78.6372459 12.9094426,77.1965902 C14.1868197,78.6372459 16.3232131,79.5847869 18.7402623,79.5847869 C21.1461639,79.5847869 23.2727213,78.6457705 24.5520656,77.216918 C25.8156721,78.6562623 27.943541,79.5847869 30.4032131,79.5847869 C32.820918,79.5847869 34.9573115,78.6372459 36.2346885,77.1965902 C37.5120656,78.6372459 39.648459,79.5847869 42.0655082,79.5847869 C44.5258361,79.5847869 46.6537049,78.6562623 47.9173115,77.216918 C49.1966557,78.6457705 51.3232131,79.5847869 53.7291148,79.5847869 C56.1468197,79.5847869 58.2825574,78.6372459 59.5599344,77.1965902 C60.8373115,78.6372459 62.9737049,79.5847869 65.3914098,79.5847869 C67.8517377,79.5847869 69.9789508,78.6562623 71.2432131,77.216918 C72.5225574,78.6457705 74.648459,79.5847869 77.0543607,79.5847869 C80.9566557,79.5847869 84.1317377,77.1192131 84.1317377,74.0883934 C84.1317377,73.4005246 83.5737049,72.8424918 82.8851803,72.8424918 L82.8851803,72.8424918 Z" id="Fill-1" fill="#0C1831" mask="url(#mask-2)"></path>
                <path d="M12.2976393,49.8103607 C12.491082,49.9192131 12.700918,49.9710164 12.9081311,49.9710164 C13.343541,49.9710164 13.7658361,49.7421639 13.9946885,49.3362623 L14.4891148,48.4588852 C14.8268197,47.859541 14.6143607,47.1001967 14.0150164,46.7624918 C13.4137049,46.4234754 12.6550164,46.6365902 12.3179672,47.2359344 L11.823541,48.1133115 C11.4858361,48.7126557 11.6982951,49.472 12.2976393,49.8103607 L12.2976393,49.8103607 Z" id="Path" fill="#3C76A6" mask="url(#mask-2)"></path>
                <path d="M34.2130492,42.616918 L37.4740328,36.6864262 C38.2700984,35.2392131 36.0825574,34.0464262 35.2904262,35.4851148 L32.0294426,41.4156066 C31.6976393,42.0188852 31.9179672,42.7762623 32.5205902,43.1080656 C32.7114098,43.2123279 32.9166557,43.2628197 33.1199344,43.2628197 C33.5599344,43.2628197 33.9861639,43.029377 34.2130492,42.616918 L34.2130492,42.616918 Z" id="Path" fill="#3C76A6" mask="url(#mask-2)"></path>
                <path d="M23.4438689,46.4765902 C23.6300984,46.5756066 23.8300984,46.6228197 24.0274754,46.6228197 C24.473377,46.6228197 24.9048525,46.3821639 25.128459,45.9611803 L30.9599344,34.9900328 C31.7317377,33.536918 29.5343607,32.3651148 28.7592787,33.8208525 L22.928459,44.792 C22.6058361,45.3992131 22.836,46.1539672 23.4438689,46.4765902 L23.4438689,46.4765902 Z" id="Path" fill="#3C76A6" mask="url(#mask-2)"></path>
                <path d="M16.3238689,45.6313443 L26.303541,27.4949508 C26.6353443,26.8923279 26.4150164,26.1336393 25.8123934,25.8024918 C25.208459,25.472 24.4530492,25.6910164 24.1199344,26.2936393 L14.1396066,44.4300328 C13.808459,45.0326557 14.0287869,45.7906885 14.6314098,46.1224918 C14.8222295,46.2267541 15.0274754,46.2765902 15.2307541,46.2765902 C15.6700984,46.2765902 16.0963279,46.0438033 16.3238689,45.6313443 L16.3238689,45.6313443 Z" id="Path" fill="#3C76A6" mask="url(#mask-2)"></path>
                <path d="M17.4176393,25.6562623 C16.8156721,25.324459 16.0576393,25.5408525 15.7238689,26.1421639 L8.90354098,38.447082 C8.56977049,39.0490492 8.78747541,39.807082 9.38944262,40.1408525 C9.58091803,40.2464262 9.78813115,40.296918 9.99206557,40.296918 C10.4307541,40.296918 10.8556721,40.0654426 11.0832131,39.6549508 L17.903541,27.3500328 C18.2373115,26.7480656 18.0196066,25.9900328 17.4176393,25.6562623 L17.4176393,25.6562623 Z" id="Path" fill="#3C76A6" mask="url(#mask-2)"></path>
                <path d="M69.076,15.6136393 L69.7179672,16.5041311 C70.6825574,17.8405246 72.7022295,16.3821639 71.7389508,15.0464262 L71.0969836,14.1565902 C70.6937049,13.5979016 69.9153443,13.472 69.3579672,13.874623 C68.7992787,14.2772459 68.6740328,15.0562623 69.076,15.6136393 L69.076,15.6136393 Z" id="Path" fill="#3C76A6" mask="url(#mask-2)"></path>
                <path d="M50.1389508,7.70806557 C50.5520656,7.59331148 60.3120656,4.95921311 66.660918,12.5238033 C67.7166557,13.7788852 69.6392787,12.1959344 68.5691148,10.9211803 C61.168459,2.10413115 49.9337049,5.17691803 49.4589508,5.31134426 C47.8753443,5.7624918 48.5612459,8.15921311 50.1389508,7.70806557 L50.1389508,7.70806557 Z" id="Path" fill="#3C76A6" mask="url(#mask-2)"></path>
            </g>
        </g>
    </g>
</svg>