<?xml version="1.0" encoding="UTF-8"?>
<svg width="73px" height="70px" viewBox="0 0 73 70" version="1.1" xmlns="http://www.w3.org/2000/svg" xmlns:xlink="http://www.w3.org/1999/xlink">
    <!-- Generator: Sketch 55.2 (78181) - https://sketchapp.com -->
    <title>Group 24</title>
    <desc>Created with Sketch.</desc>
    <defs>
        <polygon id="path-1" points="0.908572632 0.681473684 74.9085726 0.681473684 74.9085726 29.6814737 0.908572632 29.6814737"></polygon>
        <polygon id="path-3" points="0.00017419355 0.392458065 73.1614645 0.392458065 73.1614645 23.0376194 0.00017419355 23.0376194"></polygon>
        <polygon id="path-5" points="1.74193548 27.0003484 70.983871 27.0003484 70.983871 2.61325161 1.74193548 2.61325161"></polygon>
    </defs>
    <g id="Page-1" stroke="none" stroke-width="1" fill="none" fill-rule="evenodd">
        <g id="Browse-charities-V2" transform="translate(-828.000000, -1356.000000)">
            <g id="Group-24" transform="translate(827.000000, 1355.000000)">
                <g id="Group-22">
                    <path d="M38.0288163,27.8232422 L38.0288163,37 C37.9077042,36.9936056 37.8168701,36.9842423 37.7563141,36.9719101 C34.9574048,36.3909295 31.9795389,35.354345 28.6525719,33.8018662 C23.4587617,31.3786015 21.5092187,29.2191075 21.4583787,25.8353065 L21.3851692,21.4008789" id="Fill-3" stroke="#0C1831" stroke-width="2.2" stroke-linejoin="round"></path>
                    <path d="M55.0282625,27.8232422 L55.0282625,37 C54.9071504,36.9936056 54.8163163,36.9842423 54.7557603,36.9719101 C51.956851,36.3909295 48.9789851,35.354345 45.6520182,33.8018662 C40.4582079,31.3786015 38.5086649,29.2191075 38.4578249,25.8353065 L38.3846154,21.4008789" id="Fill-3-Copy" stroke="#0C1831" stroke-width="2.2" stroke-linejoin="round" transform="translate(46.706439, 29.200439) scale(-1, 1) translate(-46.706439, -29.200439) "></path>
                    <g id="Group-13" transform="translate(0.384615, 0.000000)">
                        <mask id="mask-2" fill="white">
                            <use xlink:href="#path-1"></use>
                        </mask>
                        <g id="Clip-12"></g>
                        <polygon id="Fill-11" stroke="#0C1831" stroke-width="2.2" stroke-linejoin="round" mask="url(#mask-2)" points="38.0760042 27.7330211 5.00027789 15.5212316 37.8307621 2.68133684 70.9085726 14.8958632"></polygon>
                    </g>
                    <polyline id="Path" stroke="#0C1831" stroke-width="2.2" points="41.7044396 13.0375977 60.361696 18.3552535 60.4347134 30.9839268"></polyline>
                    <path d="M38.3554706,15 C36.6462335,15 35.3965276,14.1708502 35.3846863,13.0293811 C35.3737559,11.8703297 36.6271054,11.0175824 38.3650347,11.0004627 L38.4155877,11 C40.1257356,11 41.3740753,11.8282244 41.3845502,12.9696935 C41.3950252,14.1282822 40.1412203,14.9824176 38.403291,14.9995373 L38.3554706,15 Z" id="Fill-18" stroke="#0C1831" stroke-width="2.2"></path>
                    <path d="M63.3846154,36.4285714 L63.3846154,32.0646708 C63.3846154,30.6881267 62.0410018,29.5714286 60.3849063,29.5714286 C58.7288109,29.5714286 57.3846154,30.6881267 57.3846154,32.0646708 L57.3846154,36.4285714 L63.3846154,36.4285714 Z" id="Fill-20" stroke="#0C1831" stroke-width="2.2" fill="#A5D6FE"></path>
                </g>
                <g id="Group-9" transform="translate(1.000000, 44.000000)">
                    <g id="Group-5" transform="translate(0.000000, 0.096155)">
                        <mask id="mask-4" fill="white">
                            <use xlink:href="#path-3"></use>
                        </mask>
                        <g id="Clip-4"></g>
                        <path d="M70.9840452,21.2956839 L11.1320129,21.2956839 C5.95410968,21.2956839 1.74210968,17.0845548 1.74210968,11.9066516 C1.74210968,6.72961935 5.95410968,2.51674839 11.1320129,2.51674839 L70.9840452,2.51674839 L70.9840452,5.91090968 L69.7943032,6.30894194 C67.3799806,7.11545806 65.7582387,9.36516774 65.7582387,11.9066516 C65.7582387,14.4481355 67.3799806,16.6978452 69.7943032,17.5043613 L70.9840452,17.9015226 L70.9840452,21.2956839 Z" id="Fill-3" stroke="#0C1831" stroke-width="2.2" mask="url(#mask-4)"></path>
                    </g>
                    <mask id="mask-6" fill="white">
                        <use xlink:href="#path-5"></use>
                    </mask>
                    <g id="Clip-7"></g>
                    <polyline id="Path" stroke="#0C1831" stroke-width="2.2" mask="url(#mask-6)" points="11.0064194 12.0397355 11.0064194 12.0397355 65.0064194 12.0397355"></polyline>
                    <polygon id="Fill-8" stroke="#0C1831" stroke-width="2.2" fill="#A5D6FE" stroke-linejoin="round" mask="url(#mask-6)" points="25.029871 25.3207742 19.4818065 21.8020645 13.9354839 25.3207742 13.9354839 12.1935484 19.4818065 12.1935484 25.029871 12.1935484"></polygon>
                </g>
            </g>
        </g>
    </g>
</svg>