<?xml version="1.0" encoding="UTF-8"?>
<svg width="81px" height="81px" viewBox="0 0 81 81" version="1.1" xmlns="http://www.w3.org/2000/svg" xmlns:xlink="http://www.w3.org/1999/xlink">
    <!-- Generator: Sketch 55.2 (78181) - https://sketchapp.com -->
    <title>Group 3</title>
    <desc>Created with Sketch.</desc>
    <defs>
        <polygon id="path-1" points="0 0 80.0757556 0 80.0757556 79.5707692 0 79.5707692"></polygon>
    </defs>
    <g id="Page-1" stroke="none" stroke-width="1" fill="none" fill-rule="evenodd">
        <g id="Browse-charities-V2" transform="translate(-538.000000, -928.000000)">
            <g id="Group-3" transform="translate(538.000000, 928.750000)">
                <mask id="mask-2" fill="white">
                    <use xlink:href="#path-1"></use>
                </mask>
                <g id="Clip-2"></g>
                <path d="M57.1317436,20.5874359 C57.6091795,20.6746154 57.6707179,20.6853846 58.3066154,20.71 C59.9881538,20.7746154 59.9158462,23.3223077 58.207641,23.2720513 C57.4558462,23.2433333 57.2732821,23.2197436 56.6732821,23.1105128 C55.0066154,22.8074359 55.4625128,20.2848718 57.1317436,20.5874359 L57.1317436,20.5874359 Z M43.5378974,17.7520513 C42.2696923,16.63 43.9686667,14.7064103 45.2378974,15.8330769 C47.0866154,17.47 49.7907179,18.7623077 53.5045641,19.7838462 C55.1209744,20.2269231 54.4784103,22.7146154 52.8245641,22.255641 C48.7245641,21.1284615 45.6871282,19.655641 43.5378974,17.7520513 L43.5378974,17.7520513 Z M71.9507179,71.3474359 C68.9968718,74.4161538 64.7368718,76.4120513 63.062,76.8976923 C62.9814872,76.8576923 62.8896923,76.8125641 62.7845641,76.7607692 C61.2543077,76.0094872 57.1896923,74.0130769 54.6240513,71.3474359 C47.3322564,63.7741026 49.4291795,54.3720513 50.7235385,50.5679487 C56.3414872,52.2607692 62.1445641,49.0576923 63.5168718,48.2223077 C64.8891795,49.0397436 70.5973846,52.1315385 76.1758462,50.6951282 C76.5117436,50.6110256 76.6758462,51.0617949 76.6886667,51.0982051 C77.6573846,54.7002564 79.1343077,63.8853846 71.9507179,71.3474359 L71.9507179,71.3474359 Z M45.8958462,64.355641 C45.7558462,62.0787179 45.2481538,59.895641 44.4209744,57.8710256 C45.2471282,58.0997436 46.0799487,58.2582051 46.8496923,58.3674359 C46.8527692,60.2571795 47.0804615,62.2858974 47.6691795,64.355641 L45.8958462,64.355641 Z M37.6450769,64.355641 L37.6450769,60.3294872 C37.6450769,59.6212821 37.0712308,59.0474359 36.3630256,59.0474359 C35.6548205,59.0474359 35.0809744,59.6212821 35.0809744,60.3294872 L35.0809744,64.355641 L10.8178974,64.355641 C10.7271282,61.815641 10.8589231,60.2397436 10.8604615,60.2217949 C11.0061026,58.5376923 8.45533333,58.3058974 8.30610256,59.9987179 C8.2994359,60.075641 8.16097436,61.7033333 8.25174359,64.355641 L2.61123077,64.355641 C3.07841026,57.9761538 7.002,52.3725641 12.5937949,49.6284615 C23.9825128,58.3725641 23.2491795,57.9464103 23.8630256,57.9464103 C24.447641,57.9464103 23.7471282,58.3433333 34.6378974,50.3038462 C39.7081538,53.2817949 42.9240513,58.5766667 43.3302051,64.355641 L37.6450769,64.355641 Z M17.4902051,48.0684615 C17.8414872,49.5392308 20.0158462,49.2797436 20.0158462,47.7705128 L20.0158462,44.8264103 C22.2902051,45.5012821 25.8086667,45.4412821 27.7250769,44.9689744 L27.7250769,47.7705128 C27.7250769,48.4787179 28.2989231,49.0525641 29.0071282,49.0525641 C29.4732821,49.0525641 29.8773846,48.8012821 30.1014872,48.4289744 C30.7599487,48.6012821 31.4025128,48.8053846 32.0250769,49.0453846 L23.8784103,55.0597436 L15.3896923,48.5423077 C16.0732821,48.3423077 16.7743077,48.1848718 17.4902051,48.0684615 L17.4902051,48.0684615 Z M12.9522564,30.8751282 C12.9522564,28.0238462 13.2055897,22.4941026 15.4127692,20.7069231 C16.9696923,21.8207692 20.7825128,24.3997436 23.5096923,25.0028205 C23.9778974,25.1084615 24.4640513,24.9407692 24.7707179,24.5725641 C25.602,23.5787179 24.436359,23.4120513 24.8881538,21.0941026 C28.8481538,23.4853846 33.8840513,27.3582051 35.3537949,30.5884615 C35.3327692,30.6807692 35.3189231,30.7761538 35.3189231,30.8751282 C35.3189231,37.4217949 30.6553333,42.7484615 24.9230256,42.7484615 L23.3481538,42.7484615 C17.6158462,42.7484615 12.9522564,37.4217949 12.9522564,30.8751282 L12.9522564,30.8751282 Z M9.96302564,16.3576923 C10.9502051,17.3048718 12.1507179,18.2817949 13.3230256,19.17 C11.2358462,21.3587179 10.5804615,25.4166667 10.4009744,28.4807692 C9.10302564,25.5628205 8.722,20.0941026 9.96302564,16.3576923 L9.96302564,16.3576923 Z M23.5004615,7.34538462 C31.0512308,7.34538462 37.6748205,14.0202564 37.6748205,21.6305128 C37.6748205,22.1433333 37.9173846,24.9884615 37.0871282,28.4141026 C33.9409744,23.244359 25.8702051,18.6705128 24.7548205,18.0546154 C24.4399487,17.8812821 24.0666154,17.8469231 23.7266154,17.9628205 C23.3861026,18.0771795 23.1091795,18.3294872 22.9635385,18.6576923 C22.8681538,18.8730769 22.2902051,20.2376923 22.2194359,21.8325641 C18.8589231,20.2782051 13.107641,16.0382051 11.0999487,13.8607692 C13.7373846,9.42435897 18.7435385,7.34538462 23.5004615,7.34538462 L23.5004615,7.34538462 Z M55.0225128,42.2566667 C53.5271282,43.2669231 51.9696923,43.8417949 50.1384103,43.8417949 L48.8409744,43.8417949 C43.7194359,43.8417949 39.5527692,39.0751282 39.5527692,33.215641 L39.5527692,29.4920513 C39.5527692,29.4028205 39.5430256,29.315641 39.5261026,29.2310256 C40.2809744,26.2541026 40.3235385,23.8033333 40.2235385,21.0664103 C45.1327692,25.7366667 50.9143077,27.7710256 59.5332821,28.0084615 C60.2896923,30.5176923 60.467641,38.6746154 55.0225128,42.2566667 L55.0225128,42.2566667 Z M34.6599487,47.395641 C34.6994359,47.2033333 34.7107179,40.6474359 34.6548205,40.3941026 C35.7594359,38.9941026 36.6245641,37.3561538 37.1794359,35.5576923 C37.8425128,39.655641 40.2102051,43.1002564 43.4358462,44.9479487 C43.3502051,45.2448718 43.3809744,45.224359 43.3809744,47.7023077 C42.5594359,47.5141026 38.6712308,48.7679487 37.7466154,49.2797436 C36.7840513,48.5664103 35.7517436,47.9351282 34.6599487,47.395641 L34.6599487,47.395641 Z M30.2871282,44.0125641 C30.9281538,43.6864103 31.5425128,43.3064103 32.1230256,42.8730769 L32.1230256,46.3474359 C31.5250769,46.1458974 30.9137949,45.9694872 30.2891795,45.8212821 C30.2891795,43.9258974 30.2871282,44.0125641 30.2871282,44.0125641 L30.2871282,44.0125641 Z M48.3368718,49.6223077 C47.8461026,51.0417949 47.2399487,53.2089744 46.9778974,55.7905128 C44.8973846,55.4679487 43.2317436,54.8541026 42.3845641,54.0946154 C41.6599487,53.0361538 40.8373846,52.0484615 39.9250769,51.1453846 C41.8348205,50.4489744 42.8896923,50.3176923 43.4025128,50.1894872 C43.6661026,51.7325641 45.9450769,51.5294872 45.9450769,49.9735897 L45.9450769,46.0058974 C47.9732821,46.5751282 51.3368718,46.6079487 53.6548205,45.8084615 L53.6548205,48.4725641 C52.8522564,48.4351282 52.0491795,48.3084615 51.2691795,48.0520513 C50.2548205,47.7202564 48.802,48.2817949 48.3368718,49.6223077 L48.3368718,49.6223077 Z M65.3548205,25.6038462 L65.3548205,46.33 C65.0507179,46.1638462 64.8050769,46.0166667 64.6450769,45.9079487 C64.5778974,45.8628205 64.5066154,45.8238462 64.4327692,45.7915385 C64.0968718,45.6474359 63.7927692,45.5828205 63.5143077,45.5905128 C63.2312308,45.5838462 62.9307179,45.6474359 62.5953333,45.7915385 C62.5209744,45.8238462 62.4496923,45.8628205 62.3830256,45.9079487 C61.3717436,46.5920513 58.962,47.8371795 56.2189231,48.3038462 C56.2189231,48.0910256 56.2343077,44.7576923 56.1948205,44.5484615 C64.002,39.3776923 62.962,28.0910256 61.3743077,25.9741026 C61.1358462,25.6566667 60.7640513,25.4674359 60.367641,25.4612821 C47.3199487,25.2694872 43.6009744,20.8566667 39.2937949,16.2741026 C39.0450769,15.5792308 38.7522564,14.9023077 38.416359,14.2469231 C48.447641,4.47666667 65.3548205,11.6151282 65.3548205,25.6038462 L65.3548205,25.6038462 Z M79.1645641,50.4310256 C78.8337949,49.2074359 77.4850769,47.7089744 75.536359,48.2120513 L75.5358462,48.2120513 C72.8907179,48.8946154 70.0004615,48.2489744 67.8266154,47.4428205 C67.8850769,47.2961538 67.9189231,47.1371795 67.9189231,46.9694872 L67.9189231,25.6038462 C67.9189231,9.62128205 48.8517436,1.22948718 37.0512308,12.0166667 C27.6414872,-1.07769231 6.65225641,4.59461538 6.65225641,21.2325641 C6.65225641,24.8110256 7.07123077,29.8623077 10.5281538,32.9864103 C11.147641,37.6761538 13.7999487,41.6371795 17.4517436,43.7253846 L17.4517436,45.4935897 C11.1737949,45.6074359 -5.12820513e-05,53.1023077 -5.12820513e-05,65.6376923 C-5.12820513e-05,66.3458974 0.573794872,66.9197436 1.282,66.9197436 C1.56815385,66.9197436 44.7061026,66.9458974 44.9830256,66.8725641 C45.2696923,66.9479487 48.2835385,66.9197436 48.5896923,66.9197436 C49.5096923,69.0253846 50.8537949,71.1284615 52.7768718,73.1264103 C55.6548205,76.115641 60.0132821,78.2566667 61.6543077,79.0623077 C61.8127692,79.1402564 61.9445641,79.204359 62.0435385,79.2541026 C62.0835385,79.2884615 62.1255897,79.3202564 62.1691795,79.35 C62.3830256,79.4951282 62.6337949,79.5710256 62.8881538,79.5710256 C62.9978974,79.5710256 63.1086667,79.5566667 63.216359,79.5279487 C63.2902051,79.5084615 63.3609744,79.4828205 63.4286667,79.4510256 C65.5881538,78.93 70.4845641,76.5669231 73.7973846,73.1258974 C81.8886667,64.7212821 80.2461026,54.455641 79.1645641,50.4310256 L79.1645641,50.4310256 Z" id="Fill-1" fill="#0C1831" mask="url(#mask-2)"></path>
                <path d="M38.3773846,72.5730769 L8.68148718,72.5730769 C6.98764103,72.5730769 6.98507692,70.0089744 8.68148718,70.0089744 L38.3773846,70.0089744 C40.0712308,70.0089744 40.0737949,72.5730769 38.3773846,72.5730769 L38.3773846,72.5730769 Z" id="Path" fill="#3C76A6" mask="url(#mask-2)"></path>
                <path d="M44.6630256,72.5730769 L43.0937949,72.5730769 C41.3999487,72.5730769 41.3973846,70.0089744 43.0937949,70.0089744 L44.6630256,70.0089744 C46.3568718,70.0089744 46.3594359,72.5730769 44.6630256,72.5730769 L44.6630256,72.5730769 Z" id="Path" fill="#3C76A6" mask="url(#mask-2)"></path>
                <path d="M16.0425128,1.08333333 C16.5450769,0.938205128 17.056359,0.808461538 17.5630256,0.699230769 C19.2230256,0.346410256 19.7573846,2.84948718 18.1030256,3.20589744 C17.6548205,3.30230769 17.202,3.41717949 16.7578974,3.54641026 C16.6378974,3.58076923 16.5178974,3.59717949 16.3999487,3.59717949 C14.9296923,3.59717949 14.622,1.49666667 16.0425128,1.08333333 L16.0425128,1.08333333 Z" id="Path" fill="#3C76A6" mask="url(#mask-2)"></path>
                <path d="M21.4353333,0.128461538 C27.8148205,-0.542820513 33.4178974,1.45102564 37.7425128,5.25461538 C39.0173846,6.37461538 37.3127692,8.29205128 36.0496923,7.17923077 C32.2425128,3.83205128 27.3394359,2.08282051 21.7035385,2.67871795 C20.0240513,2.86076923 19.7455897,0.306410256 21.4353333,0.128461538 L21.4353333,0.128461538 Z" id="Path" fill="#3C76A6" mask="url(#mask-2)"></path>
                <path d="M63.4543077,66.3017949 C63.4296923,66.3033333 63.4050769,66.3033333 63.3804615,66.3033333 C63.0055897,66.3033333 62.6486667,66.1397436 62.4045641,65.8530769 L58.7450769,61.5576923 C58.2855897,61.0187179 58.3507179,60.2094872 58.8896923,59.75 C59.4286667,59.2915385 60.2368718,59.3551282 60.6968718,59.8946154 L63.2578974,62.9007692 L66.5050769,58.0510256 C66.8989231,57.4617949 67.6958462,57.3053846 68.2830256,57.6987179 C68.8717436,58.0925641 69.0291795,58.8884615 68.6353333,59.4771795 L64.4455897,65.7346154 C64.222,66.0684615 63.8553333,66.2782051 63.4543077,66.3017949 L63.4543077,66.3017949 Z" id="Path" fill="#3C76A6" mask="url(#mask-2)"></path>
                <path d="M65.6209744,71.1105128 L66.9902051,73.2776923 C66.2825128,73.7248718 65.6122564,74.0664103 64.9984103,74.2920513 L64.1132821,71.8858974 C64.5578974,71.7223077 65.0650769,71.4607692 65.6209744,71.1105128 L65.6209744,71.1105128 Z" id="Path" fill="#3C76A6" mask="url(#mask-2)"></path>
                <path d="M60.6891795,70.9171795 C61.2348205,71.2807692 61.7461026,71.5658974 62.2081538,71.7658974 L61.1881538,74.1187179 C60.5881538,73.8582051 59.9425128,73.4997436 59.2696923,73.0530769 L60.6891795,70.9171795 Z" id="Path" fill="#3C76A6" mask="url(#mask-2)"></path>
                <path d="M57.6189231,68.3382051 C57.9143077,68.6387179 58.2189231,68.9330769 58.5245641,69.2110256 L56.7989231,71.1074359 C56.4578974,70.7966667 56.1173846,70.4684615 55.7871282,70.1320513 C55.6235385,69.9648718 55.4666154,69.7987179 55.3158462,69.6325641 L57.2158462,67.9105128 C57.3455897,68.0535897 57.4804615,68.1961538 57.6189231,68.3382051 L57.6189231,68.3382051 Z" id="Path" fill="#3C76A6" mask="url(#mask-2)"></path>
                <path d="M69.1461026,68.1592308 L71.002,69.9279487 L70.807641,70.1294872 C70.3850769,70.5612821 69.9466154,70.9782051 69.5030256,71.3689744 L67.8066154,69.4469231 C68.2035385,69.0966667 68.596359,68.7233333 68.9743077,68.3371795 L69.1461026,68.1592308 Z" id="Path" fill="#3C76A6" mask="url(#mask-2)"></path>
                <path d="M74.9481538,53.5930769 C75.0409744,53.8546154 77.1891795,60.0623077 73.5609744,66.4889744 C73.3794359,66.8120513 73.1845641,67.1315385 72.9825128,67.4387179 L72.9814872,67.4376923 C72.7389231,67.8310256 72.3189231,68.0484615 71.8886667,68.0484615 C71.6599487,68.0484615 71.4291795,67.9879487 71.2204615,67.8602564 C70.616359,67.49 70.4261026,66.7012821 70.7958462,66.0971795 L71.3512308,65.19 C73.5650769,61.2664103 73.1732821,57.3397436 72.802,55.5115385 C69.1491795,55.9582051 65.1614872,54.2946154 63.3214872,53.3925641 C61.3014872,54.3858974 57.5035385,55.8997436 54.0291795,55.3089744 C53.6122564,57.1458974 53.1245641,61.0366667 55.1317436,64.9279487 L55.1327692,64.9294872 L55.1332821,64.9294872 C55.2712308,65.1987179 55.4250769,65.4725641 55.5896923,65.7433333 L55.5850769,65.7458974 C55.8999487,66.3576923 55.6794359,67.1130769 55.0743077,67.4515385 C54.4984103,67.7735897 53.7825128,67.5976923 53.4086667,67.0710256 L53.3994359,67.0761538 C53.3804615,67.0453846 53.3655897,67.0141026 53.3466154,66.9828205 C53.3414872,66.9735897 53.3343077,66.9669231 53.3291795,66.9576923 C53.3122564,66.9269231 52.8681538,66.1335897 52.8527692,66.1023077 L52.8537949,66.1017949 C49.5753333,59.704359 51.8378974,53.5664103 51.9358462,53.3084615 C52.1825128,52.6587179 52.902,52.3217949 53.556359,52.5525641 C56.8522564,53.6992308 61.4035385,51.5166667 62.7209744,50.8202564 C63.0953333,50.6217949 63.5450769,50.6217949 63.9199487,50.8202564 C64.5040513,51.13 69.7389231,53.8125641 73.3958462,52.7894872 C74.0435385,52.6074359 74.7214872,52.9592308 74.9481538,53.5930769 L74.9481538,53.5930769 Z" id="Path" fill="#3C76A6" mask="url(#mask-2)"></path>
            </g>
        </g>
    </g>
</svg>