<?xml version="1.0" encoding="UTF-8"?>
<svg width="89px" height="81px" viewBox="0 0 89 81" version="1.1" xmlns="http://www.w3.org/2000/svg" xmlns:xlink="http://www.w3.org/1999/xlink">
    <!-- Generator: Sketch 55.2 (78181) - https://sketchapp.com -->
    <title>Group 21</title>
    <desc>Created with Sketch.</desc>
    <defs>
        <polygon id="path-1" points="0 7.01754386e-05 88.7394174 7.01754386e-05 88.7394174 79.4350877 0 79.4350877"></polygon>
    </defs>
    <g id="Page-1" stroke="none" stroke-width="1" fill="none" fill-rule="evenodd">
        <g id="Browse-charities-V2" transform="translate(-821.000000, -936.000000)">
            <g id="Group-21" transform="translate(821.000000, 936.750000)">
                <g id="Group-3" transform="translate(0.000058, 0.000000)">
                    <mask id="mask-2" fill="white">
                        <use xlink:href="#path-1"></use>
                    </mask>
                    <g id="Clip-2"></g>
                    <path d="M26.8214147,20.9523509 L27.7692647,21.3158596 C27.9259516,21.3762105 28.0882595,21.4049825 28.2470542,21.4049825 C28.7838647,21.4049825 29.2897595,21.0793684 29.4935226,20.5488421 C29.7577121,19.8611228 29.4141253,19.0905965 28.7255463,18.8267368 L27.7776963,18.4632281 C27.0891174,18.1993684 26.3176279,18.5425263 26.0534384,19.2302456 C25.7892489,19.9172632 26.1328358,20.6884912 26.8214147,20.9523509 L26.8214147,20.9523509 Z M51.8575832,17.9755088 C52.0170805,16.2077895 49.9590726,15.0912982 48.5643489,16.2527018 C46.4796411,17.9895439 46.6679463,18.1523509 44.3865016,16.2527018 C42.3439516,14.5516491 39.7645911,17.6344561 41.8085463,19.337614 L46.4754253,23.2274386 C51.4655147,19.0688421 51.7585121,19.0667368 51.8575832,17.9755088 L51.8575832,17.9755088 Z M23.2499384,11.3909474 C26.0274411,5.15024561 33.5048463,0.0316491228 43.9487621,2.66533333 C52.6649068,4.86252632 53.2951674,12.2765614 53.2712779,14.6070877 C54.0912489,15.4842807 54.4966674,16.5502456 54.5296911,17.6435789 C57.5559253,18.4344561 64.9750121,21.252 65.4907437,29.9474386 C65.5343068,30.6828772 64.9729042,31.3144561 64.2372489,31.3572632 C64.2105489,31.3593684 64.1838489,31.3600702 64.1571489,31.3600702 C63.4559226,31.3600702 62.86782,30.8141053 62.8256621,30.1053333 C62.4026779,22.969193 56.2848647,20.7881404 53.8635963,20.2028772 C53.5972989,20.6442807 53.2607384,21.0456842 52.8532121,21.3853333 C47.5181305,25.8316491 46.7691253,26.9446316 45.6203226,25.9881404 L40.0976384,21.3853333 C38.1155147,19.7334035 37.8485147,16.7790175 39.5018068,14.7993684 C40.9920884,13.0155088 43.7808332,12.2765614 46.4754253,14.5200702 C47.7043279,13.4962105 48.8201068,12.9193684 50.5471753,13.1762105 C50.2703384,10.7628772 48.9465805,6.67515789 43.2960174,5.25059649 C33.0811595,2.67796491 27.4228674,8.57901754 25.6901779,12.4737544 C25.3901542,13.1467368 24.6003963,13.4498947 23.9279779,13.1509474 C23.2541542,12.8512982 22.9506174,12.0639298 23.2499384,11.3909474 L23.2499384,11.3909474 Z M15.51537,76.7677895 L21.8587279,76.7677895 C20.4822726,76.1523509 19.1444621,75.9004211 17.8607542,76.0428772 C16.9698174,76.1425263 16.1856805,76.4225263 15.51537,76.7677895 L15.51537,76.7677895 Z M56.5687279,76.7677895 L65.4542068,76.7677895 C61.9628305,75.2218246 58.8283911,75.8000702 56.5687279,76.7677895 L56.5687279,76.7677895 Z M18.0012805,59.2723509 C22.99137,55.1137544 23.2843674,55.1123509 23.3834384,54.0204211 C23.5450437,52.2295439 21.4673621,51.1502456 20.0902042,52.2969123 C19.0538226,53.1614737 18.1825595,54.1888421 17.1461779,53.3256842 C15.8912779,52.2793684 15.5315305,51.8316491 14.6251358,51.8316491 C12.7484068,51.8316491 11.8933042,54.1825263 13.3344016,55.3825263 L18.0012805,59.2723509 Z M75.1772226,78.1018246 C75.1772226,78.8379649 74.5799858,79.4351579 73.8422226,79.4351579 L4.40746737,79.4351579 C3.67040684,79.4351579 3.07246737,78.8379649 3.07246737,78.1018246 C3.07246737,77.3649825 3.67040684,76.7677895 4.40746737,76.7677895 L11.2117516,76.7677895 C12.1047963,75.7762105 14.2752253,73.774807 17.5213832,73.3972632 C20.5391858,73.0456842 23.6462226,74.1909474 26.7588805,76.7677895 L32.7010358,76.7677895 L33.2982726,64.9467368 C31.5831489,65.9130526 29.8525674,66.3130526 28.1880332,66.3130526 C24.2926437,66.3130526 20.7562989,64.1642807 18.5950042,62.1825263 C17.4848463,62.7418246 17.2951358,62.1572632 11.6234937,57.4302456 C9.64137,55.7783158 9.37437,52.8239298 11.0276621,50.8449825 C12.2600779,49.3698947 14.2147989,48.846386 15.9517042,49.3572632 C16.4983516,47.8302456 17.1918489,46.6134035 17.7602779,45.7649825 C12.9753568,43.1951579 9.86691474,39.9341053 8.51013316,36.0541053 C7.24890947,32.446386 7.62270947,28.409193 9.59288842,24.3790175 C14.0953516,15.1705965 23.1185463,17.3755088 23.2077805,17.3986667 C23.9223568,17.5818246 24.3516647,18.3095439 24.1675753,19.0225263 C23.9834858,19.7341053 23.25837,20.1621754 22.5466042,19.9818246 C14.3897542,17.9095439 8.55861474,28.1060351 11.0304726,35.174807 C12.2769411,38.7397193 15.4191095,41.7411228 20.3691489,44.0962105 C21.1842016,44.4828772 21.38937,45.5551579 20.7661358,46.2155088 C20.7527858,46.2295439 19.4107595,47.6962105 18.5064726,50.1544561 C21.7301463,47.6470877 26.4096726,50.2035789 26.0428989,54.2604211 C25.8278937,56.6330526 24.5315384,57.3032281 20.7190595,60.4807719 C22.8747332,62.3221754 28.06437,65.7846316 33.1542332,61.854807 C33.2504937,61.7804211 33.3558884,61.726386 33.4633911,61.6821754 L33.8498384,54.0351579 C33.8870779,53.2997193 34.5166358,52.7284912 35.2508858,52.7705965 C35.9865411,52.8077895 36.5542674,53.4337544 36.5163253,54.169193 L35.3745489,76.7677895 L42.8048779,76.7677895 L39.8510147,57.1011228 C39.7421068,56.3727018 40.2444884,55.6934035 40.97382,55.5846316 C41.7003411,55.4723509 42.3825963,55.9769123 42.4915042,56.7046316 L43.4407595,63.0239298 C43.4730805,63.0309474 43.5054016,63.0323509 43.5377226,63.0421754 C43.6318753,63.0688421 52.4484963,65.5018246 56.7310358,59.417614 C57.7442305,57.9762105 59.93082,59.5081404 58.9148147,60.9509474 C55.8766358,65.2681404 51.2758042,66.2358596 47.7640516,66.2358596 C46.1451884,66.2358596 44.7624095,66.0309474 43.8658516,65.8534035 L45.5050911,76.7677895 L51.5315621,76.7677895 C53.4602858,75.2049825 61.6115147,69.5277895 70.4246226,76.7677895 L73.8422226,76.7677895 C74.5799858,76.7677895 75.1772226,77.3649825 75.1772226,78.1018246 L75.1772226,78.1018246 Z M62.3064174,44.4316491 C61.2735489,44.3404211 60.8217568,44.9018246 59.6019884,45.9179649 C58.5656068,46.7818246 57.6922358,45.7516491 56.6579621,44.8898947 C54.6210332,43.1916491 52.04097,46.2758596 54.0793042,47.9762105 L58.7468858,51.8653333 L63.4144674,47.9762105 C64.7916253,46.8281404 64.0770489,44.5902456 62.3064174,44.4316491 L62.3064174,44.4316491 Z M65.1246726,50.0239298 L59.6019884,54.6253333 C59.1087411,55.0365614 58.3892463,55.0400702 57.8917832,54.6253333 L52.3690989,50.0239298 C47.7563226,46.1783158 53.3021937,38.6211228 58.7468858,43.1579649 C64.1950911,38.6281404 69.7388542,46.1783158 65.1246726,50.0239298 L65.1246726,50.0239298 Z M44.5066516,40.817614 C44.5551332,40.2828772 44.3921226,39.7621754 44.0485358,39.3502456 L44.0478332,39.3495439 C43.3374726,38.4983158 42.0650068,38.3853333 41.2134174,39.0941053 L39.9810016,40.1221754 C38.4478595,41.3986667 37.4950911,38.6281404 35.7490516,38.6281404 C34.5728463,38.6281404 33.6362384,39.6316491 33.7430384,40.817614 C33.8407042,41.9060351 34.1133253,41.8927018 39.1251963,46.0695439 L43.7920753,42.1797193 C44.2052226,41.8358596 44.4588726,41.3516491 44.5066516,40.817614 L44.5066516,40.817614 Z M47.1661121,41.0569123 C47.0536911,42.3011228 46.4634805,43.4267368 45.5029832,44.2274386 C39.6732489,49.0856842 39.8278279,49.1397193 39.1251963,49.1397193 C38.4225647,49.1397193 38.5834674,49.0912982 32.7474095,44.2274386 C28.1669542,40.409193 33.6594253,32.8035789 39.1251963,37.3621754 C43.0915516,34.0477895 47.5125095,37.2323509 47.1661121,41.0569123 L47.1661121,41.0569123 Z M20.7851068,29.0716491 C18.7474753,27.3712982 16.1681147,30.4583158 18.2078542,32.1579649 L22.8747332,36.0477895 C27.8402305,31.9088421 28.1585226,31.889193 28.2561884,30.7951579 C28.3376937,29.8969123 27.79737,29.3277895 27.79737,29.3277895 C27.0849016,28.4751579 25.8180568,28.3600702 24.9636568,29.0716491 C22.8782463,30.8098947 23.0658489,30.9734035 20.7851068,29.0716491 L20.7851068,29.0716491 Z M29.8476489,27.6197193 C30.6486489,28.5783158 31.02807,29.7916491 30.9156489,31.0351579 C30.8032279,32.2793684 30.2130174,33.4049825 29.25252,34.2056842 C23.9181411,38.6512982 23.1684332,39.7649825 22.0196305,38.8077895 L16.4969463,34.2056842 C11.8961147,30.3705965 17.43777,22.8000702 22.8747332,27.3404211 C25.5384095,25.1179649 28.3461253,25.8211228 29.8476489,27.6197193 L29.8476489,27.6197193 Z" id="Fill-1" fill="#0C1831" mask="url(#mask-2)"></path>
                </g>
                <g id="Group-20" transform="translate(0.000000, 0.000070)">
                    <path d="M63.5234331,37.1614035 C63.6161805,37.1803509 63.7089278,37.1901754 63.8002699,37.1901754 C64.4178831,37.1901754 64.9722594,36.7585965 65.1050568,36.1312281 L65.4648041,34.4273684 C65.6165726,33.7073684 65.1549436,33 64.4340436,32.8477193 C63.7117384,32.6982456 63.004891,33.1578947 62.8517173,33.8778947 L62.4926726,35.5817544 C62.3402015,36.3017544 62.8018305,37.0091228 63.5234331,37.1614035 L63.5234331,37.1614035 Z" id="Path" fill="#0C1831"></path>
                    <path d="M58.6408462,56.0238596 L58.0344752,57.2849123 C57.6079778,58.1712281 58.2593173,59.1957895 59.2366778,59.1957895 C59.734141,59.1957895 60.2112278,58.917193 60.441691,58.4392982 L61.048062,57.1775439 C61.3670568,56.514386 61.0874094,55.717193 60.4220173,55.3985965 C59.7580305,55.0807018 58.959841,55.3592982 58.6408462,56.0238596 L58.6408462,56.0238596 Z" id="Path" fill="#0C1831"></path>
                    <path d="M3.85174362,12.9635088 L18.0013384,12.9635088 C18.7391015,12.9635088 19.3363384,12.3670175 19.3363384,11.6301754 C19.3363384,10.8933333 18.7391015,10.2961404 18.0013384,10.2961404 L3.85174362,10.2961404 C3.11398046,10.2961404 2.51674362,10.8933333 2.51674362,11.6301754 C2.51674362,12.3670175 3.11398046,12.9635088 3.85174362,12.9635088 L3.85174362,12.9635088 Z" id="Path" fill="#3C76A6"></path>
                    <path d="M6.68194362,7.92350877 L13.655562,7.92350877 C14.3926226,7.92350877 14.990562,7.32631579 14.990562,6.58947368 C14.990562,5.85263158 14.3926226,5.25614035 13.655562,5.25614035 L6.68194362,5.25614035 C5.94418046,5.25614035 5.34694362,5.85263158 5.34694362,6.58947368 C5.34694362,7.32631579 5.94418046,7.92350877 6.68194362,7.92350877 L6.68194362,7.92350877 Z" id="Path" fill="#3C76A6"></path>
                    <path d="M83.0861015,18.3515789 C82.5647489,17.8308772 81.7187805,17.8308772 81.1981305,18.3515789 C80.6767778,18.8722807 80.6767778,19.7164912 81.1981305,20.237193 L83.056591,22.0933333 C83.3165647,22.3536842 83.6587462,22.4842105 84.0002252,22.4842105 C84.3417041,22.4842105 84.6838857,22.3536842 84.9438594,22.0933333 C85.465212,21.5726316 85.465212,20.7284211 84.9438594,20.2070175 L83.0861015,18.3515789 Z" id="Path" fill="#3C76A6"></path>
                    <path d="M68.4769857,7.53263158 C68.737662,7.79298246 69.079141,7.92350877 69.4206199,7.92350877 C69.7628015,7.92350877 70.1042805,7.79298246 70.3649568,7.53263158 C70.8863094,7.01192982 70.8863094,6.1677193 70.3649568,5.64631579 L68.5064962,3.79087719 C67.9858462,3.27017544 67.1398778,3.27017544 66.6192278,3.79087719 C66.0971726,4.31157895 66.0971726,5.15578947 66.6192278,5.67649123 L68.4769857,7.53263158 Z" id="Path" fill="#3C76A6"></path>
                    <path d="M68.5064962,22.0933333 L70.3649568,20.237193 C70.8863094,19.7164912 70.8863094,18.8722807 70.3649568,18.3515789 C69.8436041,17.8308772 68.9976357,17.8308772 68.4769857,18.3515789 L66.6192278,20.2070175 C66.0971726,20.7284211 66.0971726,21.5726316 66.6192278,22.0933333 C66.8792015,22.3536842 67.2213831,22.4842105 67.562862,22.4842105 C67.904341,22.4842105 68.2465226,22.3536842 68.5064962,22.0933333 L68.5064962,22.0933333 Z" id="Path" fill="#3C76A6"></path>
                    <path d="M82.1417647,7.92350877 C82.4839462,7.92350877 82.8254252,7.79298246 83.0861015,7.53263158 L84.9438594,5.67649123 C85.465212,5.15578947 85.465212,4.31157895 84.9438594,3.79087719 C84.4232094,3.27017544 83.577241,3.27017544 83.056591,3.79087719 L81.1981305,5.64631579 C80.6767778,6.1677193 80.6767778,7.01192982 81.1981305,7.53263158 C81.4588068,7.79298246 81.8002857,7.92350877 82.1417647,7.92350877 L82.1417647,7.92350877 Z" id="Path" fill="#3C76A6"></path>
                    <path d="M87.4044752,11.6084211 L84.7766331,11.6084211 C84.0395726,11.6084211 83.4416331,12.2049123 83.4416331,12.9417544 C83.4416331,13.6785965 84.0395726,14.2750877 84.7766331,14.2750877 L87.4044752,14.2750877 C88.1415357,14.2750877 88.7394752,13.6785965 88.7394752,12.9417544 C88.7394752,12.2049123 88.1415357,11.6084211 87.4044752,11.6084211 L87.4044752,11.6084211 Z" id="Path" fill="#3C76A6"></path>
                    <path d="M64.158612,14.2750877 L66.7857515,14.2750877 C67.5235147,14.2750877 68.1207515,13.6785965 68.1207515,12.9417544 C68.1207515,12.2049123 67.5235147,11.6084211 66.7857515,11.6084211 L64.158612,11.6084211 C63.4208489,11.6084211 62.823612,12.2049123 62.823612,12.9417544 C62.823612,13.6785965 63.4208489,14.2750877 64.158612,14.2750877 L64.158612,14.2750877 Z" id="Path" fill="#3C76A6"></path>
                    <path d="M77.1165436,24.5508772 L77.1165436,21.9263158 C77.1165436,21.1894737 76.5186041,20.5922807 75.7815436,20.5922807 C75.0437805,20.5922807 74.4465436,21.1894737 74.4465436,21.9263158 L74.4465436,24.5508772 C74.4465436,25.2877193 75.0437805,25.8842105 75.7815436,25.8842105 C76.5186041,25.8842105 77.1165436,25.2877193 77.1165436,24.5508772 L77.1165436,24.5508772 Z" id="Path" fill="#3C76A6"></path>
                    <path d="M75.7815436,5.29192982 C76.5186041,5.29192982 77.1165436,4.69473684 77.1165436,3.95789474 L77.1165436,1.33333333 C77.1165436,0.596491228 76.5186041,6.70574707e-14 75.7815436,6.70574707e-14 C75.0437805,6.70574707e-14 74.4465436,0.596491228 74.4465436,1.33333333 L74.4465436,3.95789474 C74.4465436,4.69473684 75.0437805,5.29192982 75.7815436,5.29192982 L75.7815436,5.29192982 Z" id="Path" fill="#3C76A6"></path>
                    <path d="M75.7815436,18.2126316 C72.8719462,18.2126316 70.5047805,15.8484211 70.5047805,12.9417544 C70.5047805,10.0357895 72.8719462,7.67157895 75.7815436,7.67157895 C78.691141,7.67157895 81.0583068,10.0357895 81.0583068,12.9417544 C81.0583068,15.8484211 78.691141,18.2126316 75.7815436,18.2126316 Z M75.7815436,10.3389474 C74.3439594,10.3389474 73.1747805,11.5066667 73.1747805,12.9417544 C73.1747805,14.3775439 74.3439594,15.5452632 75.7815436,15.5452632 C77.2191278,15.5452632 78.3883068,14.3775439 78.3883068,12.9417544 C78.3883068,11.5066667 77.2191278,10.3389474 75.7815436,10.3389474 Z" id="Combined-Shape" fill="#3C76A6"></path>
                    <path d="M4.34147783,43.8764912 C4.6056673,44.1929825 4.98579098,44.357193 5.36802256,44.357193 C5.66945151,44.357193 5.97228572,44.2554386 6.22242256,44.0477193 C6.78874362,43.5761404 6.86533046,42.7354386 6.39316204,42.1698246 L5.38277783,40.9585965 C4.91060941,40.3922807 4.06955941,40.3164912 3.50253572,40.7873684 C2.93551204,41.2589474 2.8589252,42.0996491 3.33109362,42.6645614 L4.34147783,43.8764912 Z" id="Path" fill="#3C76A6"></path>
                    <path d="M3.96838046,37.6561404 C1.07494362,31.2364912 3.95784098,23.6414035 3.99437783,23.5459649 C4.26278309,22.8610526 3.92341204,22.0877193 3.23764362,21.8196491 C2.55117256,21.5529825 1.77616993,21.8898246 1.50776467,22.5754386 C1.36934625,22.9277193 -1.83114059,31.2849123 1.53376204,38.7508772 C1.75579362,39.2442105 2.2427173,39.5368421 2.75142256,39.5368421 C2.93480941,39.5368421 3.12100677,39.4996491 3.29877256,39.4189474 C3.97119098,39.117193 4.27051204,38.3277193 3.96838046,37.6561404 L3.96838046,37.6561404 Z" id="Path" fill="#3C76A6"></path>
                </g>
            </g>
        </g>
    </g>
</svg>