<?xml version="1.0" encoding="UTF-8"?>
<svg width="71px" height="80px" viewBox="0 0 71 80" version="1.1" xmlns="http://www.w3.org/2000/svg" xmlns:xlink="http://www.w3.org/1999/xlink">
    <!-- Generator: Sketch 55.2 (78181) - https://sketchapp.com -->
    <title>Group 52</title>
    <desc>Created with Sketch.</desc>
    <defs>
        <polygon id="path-1" points="0 0.42976 13.98752 0.42976 13.98752 24.8046933 0 24.8046933"></polygon>
    </defs>
    <g id="Page-1" stroke="none" stroke-width="1" fill="none" fill-rule="evenodd">
        <g id="Browse-charities-V2" transform="translate(-255.000000, -1350.000000)">
            <g id="Group-52" transform="translate(255.000000, 1350.250000)">
                <path d="M60.1594133,36.3978133 C60.11248,36.3978133 60.0650133,36.3983467 60.0175467,36.3994133 C57.9066133,36.4362133 55.93648,37.2938133 54.4703467,38.8127467 C53.0042133,40.33168 52.2170133,42.3311467 52.25488,44.44208 C52.29168,46.5530133 53.1487467,48.5231467 54.6682133,49.98928 C56.15248,51.42288 58.0959467,52.2074133 60.15408,52.2074133 C60.2015467,52.2074133 60.2495467,52.20688 60.2975467,52.2058133 C62.40848,52.16848 64.3786133,51.3114133 65.8447467,49.7919467 C67.31088,48.2730133 68.09808,46.27408 68.0602133,44.1626133 C67.98448,39.8522133 64.4538133,36.3978133 60.1594133,36.3978133 M60.1530133,54.3407467 C57.53968,54.3407467 55.0719467,53.34448 53.1866133,51.5247467 C51.2575467,49.6623467 50.1690133,47.16048 50.1215467,44.4794133 C50.07408,41.79888 51.0735467,39.2602133 52.9354133,37.3311467 C54.79728,35.40208 57.29968,34.3135467 59.9802133,34.26608 C62.6543467,34.2159467 65.1994133,35.21808 67.12848,37.0799467 C69.0575467,38.9423467 70.1466133,41.4442133 70.1935467,44.1247467 C70.2410133,46.8058133 69.2415467,49.34448 67.37968,51.27408 C65.5178133,53.2031467 63.0154133,54.29168 60.33488,54.3391467 C60.2746133,54.3402133 60.2138133,54.3407467 60.1530133,54.3407467" id="Fill-1" fill="#3C76A6"></path>
                <path d="M20.3573333,10.0191467 C19.1072,10.0191467 17.8378667,10.2682133 16.6192,10.79408 C14.2981333,11.7962133 12.5056,13.64208 11.5728,15.9919467 C10.64,18.3418133 10.6784,20.9151467 11.68,23.23568 C13.7488,28.0282133 19.3301333,30.24368 24.1226667,28.17488 C28.9141333,26.10608 31.1296,20.5247467 29.0613333,15.73328 C27.5189333,12.16048 24.0224,10.0191467 20.3573333,10.0191467 M20.3728,31.0895467 C18.9253333,31.0895467 17.4773333,30.81488 16.0917333,30.2650133 C13.2122667,29.12208 10.9498667,26.9258133 9.72213333,24.0815467 C8.49386667,21.23728 8.44746667,18.0847467 9.5904,15.20528 C10.7333333,12.32528 12.9290667,10.0634133 15.7733333,8.83568 C21.6464,6.29968 28.4853333,9.01594667 31.0197333,14.8874133 C33.5546667,20.7594133 30.8394667,27.59888 24.9685333,30.13328 C23.4922667,30.7706133 21.9333333,31.0895467 20.3728,31.0895467" id="Fill-3" fill="#0C1831"></path>
                <path d="M35.2359467,10.98528 C35.4466133,12.3207467 36.0754133,14.8455467 37.8919467,16.09568 C39.7330133,17.3623467 42.4311467,17.0850133 43.79968,16.83008 C43.5890133,15.49408 42.95968,12.9698133 41.14368,11.71968 C39.3031467,10.45408 36.60448,10.7298133 35.2359467,10.98528 M41.5719467,19.1783467 C39.99808,19.1783467 38.18368,18.8855467 36.6823467,17.8530133 C33.2743467,15.5074133 33.01248,10.4199467 33.0034133,10.20448 C32.9815467,9.71541333 33.29568,9.27488 33.7650133,9.13514667 C33.97568,9.07274667 38.96128,7.63008 42.35328,9.96234667 C45.7607467,12.30688 46.0231467,17.3954133 46.0322133,17.61088 C46.0535467,18.0999467 45.7394133,18.54048 45.27008,18.6802133 C45.15328,18.71488 43.5527467,19.1783467 41.5719467,19.1783467" id="Fill-5" fill="#0C1831"></path>
                <path d="M56.76512,2.27802667 C55.1277867,2.66202667 51.3384533,3.82522667 49.9640533,6.59109333 C48.5773867,9.37989333 49.92192,13.16976 50.5944533,14.72816 C52.23072,14.3446933 56.02112,13.18096 57.3965867,10.41456 C58.7773867,7.63749333 57.4360533,3.84016 56.76512,2.27802667 M49.98272,17.00656 C49.5917867,17.00656 49.2264533,16.7910933 49.04032,16.4380267 C48.9064533,16.1846933 45.7944533,10.1852267 48.0536533,5.64122667 C50.31712,1.08816 56.93952,0.05296 57.2205867,0.0108266667 C57.6669867,-0.05264 58.1096533,0.16816 58.3208533,0.56816 C58.45472,0.821493333 61.5661867,6.82042667 59.3069867,11.3644267 C57.0429867,15.9174933 50.42112,16.9532267 50.1405867,16.99536 C50.0877867,17.0028267 50.03552,17.00656 49.98272,17.00656" id="Fill-7" fill="#0C1831"></path>
                <path d="M47.6417067,22.1170667 C47.2865067,22.1170667 46.9393067,21.94 46.73664,21.6168 C45.59104,19.7869333 43.1227733,16.3565333 39.4593067,13.9362667 C38.9675733,13.6114667 38.83264,12.9501333 39.15744,12.4584 C39.48224,11.9666667 40.14304,11.8328 40.6353067,12.156 C44.6347733,14.7986667 47.30784,18.508 48.54464,20.4845333 C48.8571733,20.9837333 48.7057067,21.6418667 48.20704,21.9544 C48.03104,22.0642667 47.8347733,22.1170667 47.6417067,22.1170667" id="Fill-9" fill="#0C1831"></path>
                <path d="M47.95104,26.7457067 C47.38784,26.7457067 46.91744,26.30464 46.88704,25.7361067 C46.6129067,20.58944 47.5905067,13.0715733 53.8033067,6.47957333 C54.2065067,6.05077333 54.8817067,6.03104 55.31104,6.43530667 C55.73984,6.83904 55.7595733,7.51370667 55.3553067,7.94304 C49.6609067,13.9851733 48.76544,20.89184 49.0171733,25.6225067 C49.04864,26.2107733 48.5969067,26.7131733 48.00864,26.7441067 C47.98944,26.7451733 47.97024,26.7457067 47.95104,26.7457067" id="Fill-11" fill="#0C1831"></path>
                <path d="M5.54096,67.11248 C5.54096,68.1295467 6.36549333,68.9535467 7.38202667,68.9535467 C8.39909333,68.9535467 9.22309333,68.1295467 9.22309333,67.11248 C9.22309333,66.0954133 8.39909333,65.2714133 7.38202667,65.2714133 C6.36549333,65.2714133 5.54096,66.0954133 5.54096,67.11248" id="Fill-13" fill="#0C1831"></path>
                <path d="M37.8328533,79.7509333 C36.6685867,79.7509333 35.5096533,79.5845333 34.3853867,79.2565333 L34.1917867,79.1968 L25.3720533,76.2522667 C24.8136533,76.0656 24.5112533,75.4613333 24.69792,74.9024 C24.88512,74.344 25.48832,74.0442667 26.0477867,74.2282667 L35.0008533,77.2138667 C35.91232,77.48 36.8712533,77.6176 37.8328533,77.6176 C39.33952,77.6176 40.7992533,77.288 42.1704533,76.6378667 C42.19872,76.6250667 42.22752,76.6122667 42.2573867,76.6016 L57.1112533,71.1093333 C57.6653867,70.9066667 58.2776533,71.1872 58.48192,71.7397333 C58.6861867,72.2928 58.40352,72.9061333 57.8509867,73.1104 L43.04032,78.5861333 C41.3944533,79.3594667 39.6424533,79.7509333 37.8328533,79.7509333" id="Fill-15" fill="#3C76A6"></path>
                <path d="M37.83024,74.9498667 C37.1267733,74.9498667 36.4201067,74.8501333 35.7299733,74.6490667 L26.8921067,71.6992 C23.77424,70.6576 20.62864,70.2266667 17.5443733,70.4261333 C15.0489067,70.584 14.11504,71.0346667 13.8297067,71.2213333 C13.3369067,71.5434667 12.6761067,71.4048 12.35344,70.9109333 C12.03184,70.4176 12.17104,69.7568 12.66384,69.4346667 C13.60624,68.8197333 15.2025067,68.4368 17.4089067,68.2965333 C20.76784,68.0810667 24.1875733,68.5461333 27.5683733,69.6752 L36.3667733,72.6128 C37.6403733,72.9850667 39.03344,72.8528 40.2515733,72.2330667 C40.2883733,72.2144 40.3267733,72.1978667 40.3657067,72.1834667 L64.3587733,63.3114667 C65.5299733,62.6842667 66.05904,61.2890667 65.5907733,60.04 C65.4265067,59.6026667 64.9305067,58.2682667 61.9081067,58.5568 L45.8803733,59.712 C45.7027733,59.7221333 45.5273067,59.6933333 45.3657067,59.6202667 L29.4937067,52.4698667 C26.2953067,51.0282667 22.7235733,50.9152 19.43984,52.1504 L13.3193067,54.3845333 C12.76784,54.5850667 12.1529067,54.3013333 11.9513067,53.7482667 C11.7497067,53.1952 12.0345067,52.5824 12.5881067,52.3808 L18.6985067,50.1498667 C22.5049067,48.7178667 26.6531733,48.8496 30.3699733,50.5248 L45.9961067,57.5642667 L61.73104,56.4304 C65.7465067,56.0544 67.1267733,58.0586667 67.58864,59.2912 C68.44464,61.576 67.4505067,64.1328 65.2755733,65.2389333 C65.2393067,65.2576 65.2009067,65.2741333 65.1619733,65.2890667 L41.16144,74.1632 C40.1139733,74.6853333 38.97584,74.9498667 37.83024,74.9498667" id="Fill-17" fill="#0C1831"></path>
                <path d="M42.1359467,65.9311467 C41.4623467,65.9311467 40.7919467,65.78768 40.16208,65.5018133 L29.2015467,60.5343467 C28.66448,60.2911467 28.4271467,59.6591467 28.6703467,59.1226133 C28.91248,58.5855467 29.5455467,58.3466133 30.0815467,58.5914133 L41.0426133,63.5594133 C41.6895467,63.8511467 42.4154133,63.87408 43.0858133,63.6223467 C43.75728,63.3695467 44.2879467,62.8751467 44.58128,62.2282133 C44.87408,61.5818133 44.89648,60.8559467 44.64368,60.1850133 C44.3919467,59.51408 43.89648,58.9834133 43.25008,58.69008 L34.80368,54.8618133 C34.2666133,54.6186133 34.02928,53.9866133 34.27248,53.4506133 C34.5151467,52.9135467 35.1482133,52.6735467 35.68368,52.91888 L44.13008,56.7471467 C46.54448,57.8410133 47.61808,60.69488 46.5242133,63.1087467 C45.99568,64.27408 45.0415467,65.16528 43.8378133,65.6186133 C43.28368,65.8271467 42.7087467,65.9311467 42.1359467,65.9311467" id="Fill-19" fill="#0C1831"></path>
                <g id="Group-23" transform="translate(0.000000, 49.350933)">
                    <mask id="mask-2" fill="white">
                        <use xlink:href="#path-1"></use>
                    </mask>
                    <g id="Clip-22"></g>
                    <path d="M12.9208533,24.8046933 L1.16992,24.8046933 C0.580586667,24.8046933 0.103253333,24.3268267 0.103253333,23.7380267 C0.103253333,23.1486933 0.580586667,22.67136 1.16992,22.67136 L11.8541867,22.67136 L11.8541867,2.56309333 L1.06645333,2.56309333 C0.477653333,2.56309333 -0.000213333333,2.08522667 -0.000213333333,1.49642667 C-0.000213333333,0.907093333 0.477653333,0.42976 1.06645333,0.42976 L12.9208533,0.42976 C13.5096533,0.42976 13.98752,0.907093333 13.98752,1.49642667 L13.98752,23.7380267 C13.98752,24.3268267 13.5096533,24.8046933 12.9208533,24.8046933" id="Fill-21" fill="#0C1831" mask="url(#mask-2)"></path>
                </g>
                <path d="M62.6376644,70.3189333 C62.6349867,69.7232 62.1496533,69.2432 61.5544533,69.2458556 C60.95872,69.2490667 60.4781867,69.7338667 60.4813708,70.3296 C60.4840533,70.9248 60.9693867,71.4053333 61.5645867,71.4021492 C62.16032,71.3994667 62.64032,70.9146667 62.6376644,70.3189333" id="Fill-24" fill="#3C76A6"></path>
                <path d="M47.7031467,42.1410133 L23.6274133,42.1410133 C23.0386133,42.1410133 22.5607467,41.6631467 22.5607467,41.0743467 L22.5607467,35.1879467 C22.5607467,34.5986133 23.0386133,34.12128 23.6274133,34.12128 L50.5474133,34.12128 C51.1362133,34.12128 51.61408,34.5986133 51.61408,35.1879467 C51.61408,35.7767467 51.1362133,36.2546133 50.5474133,36.2546133 L24.69408,36.2546133 L24.69408,40.00768 L47.7031467,40.00768 C48.2919467,40.00768 48.7698133,40.4850133 48.7698133,41.0743467 C48.7698133,41.6631467 48.2919467,42.1410133 47.7031467,42.1410133" id="Fill-26" fill="#0C1831"></path>
                <path d="M26.3442667,48.0269333 C25.7554667,48.0269333 25.2776,47.5490667 25.2776,46.9602667 L25.2776,41.0744 C25.2776,40.4850667 25.7554667,40.0077333 26.3442667,40.0077333 C26.9330667,40.0077333 27.4109333,40.4850667 27.4109333,41.0744 L27.4109333,46.9602667 C27.4109333,47.5490667 26.9330667,48.0269333 26.3442667,48.0269333" id="Fill-28" fill="#0C1831"></path>
                <path d="M47.1698133,48.0269333 L26.3442133,48.0269333 C25.7554133,48.0269333 25.2775467,47.5490667 25.2775467,46.9602667 C25.2775467,46.3714667 25.7554133,45.8936 26.3442133,45.8936 L47.1698133,45.8936 C47.7586133,45.8936 48.23648,46.3714667 48.23648,46.9602667 C48.23648,47.5490667 47.7586133,48.0269333 47.1698133,48.0269333" id="Fill-30" fill="#0C1831"></path>
                <path d="M60.7818133,51.3801067 C60.2015467,51.3801067 59.7263467,50.91504 59.71568,50.3321067 L59.70448,49.6745067 C59.6943467,49.0851733 60.1631467,48.5993067 60.7519467,48.5891733 C61.3610133,48.5641067 61.8266133,49.0483733 61.8378133,49.63664 L61.8490133,50.2947733 C61.8591467,50.8835733 61.3903467,51.36944 60.8010133,51.3801067 L60.7818133,51.3801067 Z" id="Fill-32" fill="#3C76A6"></path>
                <path d="M59.98752,40.4384 C59.4072533,40.4384 58.93152,39.9733333 58.9213867,39.3909333 L58.9085867,38.6901333 C58.8984533,38.1008 59.3677867,37.6144 59.9560533,37.6042667 C60.5309867,37.5813333 61.0317867,38.0624 61.04192,38.6512 L61.05472,39.3525333 C61.0648533,39.9413333 60.5960533,40.4277333 60.0072533,40.4384 L59.98752,40.4384 Z" id="Fill-34" fill="#3C76A6"></path>
                <path d="M60.2792,50.04624 C58.4541333,50.04624 57.204,48.8953067 56.8466667,48.5219733 C56.4402667,48.09584 56.4552,47.42064 56.8813333,47.0137067 C57.3069333,46.6067733 57.9816,46.6211733 58.3896,47.04784 C58.5426667,47.2083733 59.3666667,48.0105067 60.4802667,47.9033067 C61.0290667,47.85424 61.9688,47.5587733 62.1517333,46.9763733 C62.2658667,46.61104 62.1250667,46.0889067 61.8162667,45.73424 C61.4610667,45.32624 60.9368,45.24944 60.1117333,45.1577067 C59.1613333,45.0515733 57.9794667,44.9203733 57.1581333,43.8435733 C56.4802667,42.9539733 56.3010667,41.7193067 56.7026667,40.6979733 C57.2968,39.18544 58.9976,38.5689067 60.3437333,38.62544 C61.9352,38.7001067 62.9453333,39.7113067 63.3058667,40.1433067 C63.6834667,40.59504 63.6232,41.2681067 63.1709333,41.6457067 C62.7186667,42.0227733 62.0461333,41.96304 61.6685333,41.5107733 C61.5282667,41.3433067 61.0109333,40.79184 60.2450667,40.75664 C59.6418667,40.7241067 58.8776,40.9961067 58.6882667,41.47824 C58.5805333,41.7507733 58.6024,42.21904 58.8546667,42.5497067 C59.1101333,42.8841067 59.5650667,42.9497067 60.348,43.0371733 C61.3090667,43.1449067 62.5053333,43.2777067 63.4242667,44.3331733 C64.2242667,45.2515733 64.524,46.53904 64.1869333,47.6137067 C63.6882667,49.20784 61.9810667,49.9107733 60.6706667,50.02864 C60.5373333,50.0403733 60.4066667,50.04624 60.2792,50.04624" id="Fill-36" fill="#3C76A6"></path>
                <path d="M11.7645867,32.0884267 C11.54272,32.0884267 11.3192533,32.0196267 11.1277867,31.8772267 C8.96352,30.26176 7.25258667,28.0958933 6.17952,25.6110933 C2.80138667,17.78656 6.42005333,8.67189333 14.2440533,5.29376 C16.1949867,4.45216 18.2541867,4.02549333 20.3661867,4.02549333 C21.6509867,4.02549333 22.9325867,4.18496 24.1736533,4.49962667 C24.7448533,4.64469333 25.08992,5.22496 24.9453867,5.79562667 C24.80032,6.36682667 24.21952,6.71296 23.6493867,6.56736 C22.5789867,6.29642667 21.4744533,6.15882667 20.3661867,6.15882667 C18.5469867,6.15882667 16.77152,6.52629333 15.0893867,7.25216 C8.34538667,10.1646933 5.22645333,18.0206933 8.13792,24.76576 C9.06325333,26.9070933 10.53792,28.7748267 12.40352,30.1662933 C12.87552,30.51936 12.97312,31.1876267 12.62112,31.6596267 C12.4109867,31.9406933 12.08992,32.0884267 11.7645867,32.0884267" id="Fill-38" fill="#3C76A6"></path>
                <path d="M23.7317867,26.8009067 C23.3189867,26.8009067 22.9253867,26.5593067 22.75152,26.1561067 L22.44592,25.4467733 C22.2128533,24.90544 22.4624533,24.27824 23.0032533,24.04464 C23.5456533,23.8105067 24.1717867,24.0611733 24.4053867,24.6019733 L24.7109867,25.3113067 C24.9440533,25.85264 24.6944533,26.4803733 24.1536533,26.71344 C24.01552,26.77264 23.8725867,26.8009067 23.7317867,26.8009067" id="Fill-40" fill="#0C1831"></path>
                <path d="M17.9869867,15.2728 C17.5741867,15.2728 17.18112,15.0317333 17.0072533,14.6285333 L16.6813867,13.8733333 C16.4472533,13.332 16.6968533,12.7048 17.2376533,12.4712 C17.7789867,12.2376 18.4056533,12.4861333 18.6397867,13.0274667 L18.9656533,13.7826667 C19.1992533,14.324 18.9501867,14.9512 18.4093867,15.1848 C18.2712533,15.244 18.12832,15.2728 17.9869867,15.2728" id="Fill-42" fill="#0C1831"></path>
                <path d="M21.0792,25.86704 C19.9736,25.86704 19.084,25.52944 18.7346667,25.37424 C18.196,25.13584 17.9528,24.50544 18.1917333,23.9667733 C18.4306667,23.42864 19.0594667,23.18544 19.5992,23.4243733 C19.8514667,23.5363733 21.172,24.06064 22.4141333,23.41584 C23.0552,23.0825067 23.9837333,22.2921067 23.9138667,21.4825067 C23.8701333,20.9747733 23.4413333,20.40784 22.8936,20.1337067 C22.2637333,19.8185067 21.6306667,19.9747733 20.6509333,20.25584 C19.6066667,20.5545067 18.3069333,20.92784 17.0029333,20.1641067 C15.9245333,19.5331733 15.2157333,18.3337067 15.1965333,17.1091733 C15.1677333,15.2931733 16.6824,13.91984 18.1021333,13.4115733 C19.7938667,12.80784 21.2850667,13.43184 21.8466667,13.7273067 C22.3682667,14.0019733 22.5682667,14.6473067 22.2936,15.16784 C22.0194667,15.6889067 21.3736,15.8889067 20.8530667,15.6147733 C20.6088,15.48624 19.7389333,15.09104 18.8205333,15.42064 C18.0792,15.6857067 17.3186667,16.37744 17.3298667,17.0761067 C17.3357333,17.4809067 17.596,18.0393067 18.0808,18.3225067 C18.572,18.6105067 19.1261333,18.47344 20.0637333,18.20464 C21.1245333,17.9001067 22.4450667,17.52304 23.8488,18.2265067 C25.0712,18.83824 25.9314667,20.0441067 26.0392,21.29904 C26.2008,23.1609067 24.7170667,24.6227733 23.3981333,25.30864 C22.5928,25.7267733 21.7912,25.86704 21.0792,25.86704" id="Fill-44" fill="#0C1831"></path>
                <path d="M49.7739733,53.4816533 L42.6363733,53.4816533 C42.0475733,53.4816533 41.5697067,53.0037867 41.5697067,52.4149867 C41.5697067,51.8256533 42.0475733,51.34832 42.6363733,51.34832 L49.7739733,51.34832 C50.3633067,51.34832 50.84064,51.8256533 50.84064,52.4149867 C50.84064,53.0037867 50.3633067,53.4816533 49.7739733,53.4816533" id="Fill-46" fill="#0C1831"></path>
                <path d="M34.32448,33.1597867 C33.96128,33.1597867 33.60768,32.9741867 33.40768,32.64032 C33.1058133,32.13472 33.27008,31.4797867 33.7762133,31.1773867 L41.3943467,26.62432 C44.9890133,24.4760533 49.5858133,24.2056533 53.3895467,25.91712 C53.42208,25.93152 53.4530133,25.94752 53.4834133,25.96512 L62.5202133,31.1581867 C63.0311467,31.4520533 63.2071467,32.1037867 62.9138133,32.6141867 C62.62048,33.1256533 61.9682133,33.30272 61.4578133,33.00832 L52.4679467,27.8413867 C49.2967467,26.43552 45.4791467,26.6680533 42.48928,28.4557867 L34.8711467,33.0088533 C34.6994133,33.1112533 34.5106133,33.1597867 34.32448,33.1597867" id="Fill-48" fill="#0C1831"></path>
                <path d="M29.0783044,6.91792 C29.0756267,6.32218667 28.5902933,5.84218667 27.9950933,5.84484228 C27.39936,5.84805333 26.9188267,6.33285333 26.9220108,6.92858667 C26.9246933,7.52378667 27.4100267,8.00432 28.0052267,8.00166438 C28.60096,7.99845333 29.08096,7.51365333 29.0783044,6.91792" id="Fill-50" fill="#3C76A6"></path>
            </g>
        </g>
    </g>
</svg>