<?xml version="1.0" encoding="UTF-8"?>
<svg width="83px" height="81px" viewBox="0 0 83 81" version="1.1" xmlns="http://www.w3.org/2000/svg" xmlns:xlink="http://www.w3.org/1999/xlink">
    <!-- Generator: Sketch 55.2 (78181) - https://sketchapp.com -->
    <title>Group 13</title>
    <desc>Created with Sketch.</desc>
    <defs>
        <polygon id="path-1" points="0.000130708661 0.000130081301 82.5346772 0.000130081301 82.5346772 79.7099187 0.000130708661 79.7099187"></polygon>
    </defs>
    <g id="Page-1" stroke="none" stroke-width="1" fill="none" fill-rule="evenodd">
        <g id="Browse-charities-V2" transform="translate(-1111.000000, -927.000000)">
            <g id="Group-13" transform="translate(1111.000000, 927.750000)">
                <g id="Group-3">
                    <mask id="mask-2" fill="white">
                        <use xlink:href="#path-1"></use>
                    </mask>
                    <g id="Clip-2"></g>
                    <path d="M81.2930756,77.2378537 L78.7259575,77.2378537 C78.0403906,77.2378537 77.4842252,77.7913496 77.4842252,78.473626 C77.4842252,79.1565528 78.0403906,79.7100488 78.7259575,79.7100488 L81.2930756,79.7100488 C81.9786425,79.7100488 82.5348079,79.1565528 82.5348079,78.473626 C82.5348079,77.7913496 81.9786425,77.2378537 81.2930756,77.2378537 M24.1256819,59.3146016 L24.1256819,64.4398049 L33.2184299,64.4398049 C33.2184299,56.9802927 32.0884535,58.0788293 39.3166425,58.0788293 C44.085548,58.0788293 47.9656346,54.2180163 47.9656346,49.4726504 L47.9656346,23.847935 L9.37847717,23.847935 L9.37847717,49.4726504 C9.37847717,54.2180163 13.2585638,58.0788293 18.0268157,58.0788293 L22.8839496,58.0788293 C23.5701701,58.0788293 24.1256819,58.6323252 24.1256819,59.3146016 M9.37847717,18.8924878 L9.37847717,21.3757398 L47.9656346,21.3757398 L47.9656346,18.8924878 C47.9656346,14.1464715 44.085548,10.2863089 39.3166425,10.2863089 L18.0268157,10.2863089 C13.2585638,10.2863089 9.37847717,14.1464715 9.37847717,18.8924878 M73.0976425,78.473626 C73.0976425,79.1565528 72.5414772,79.7100488 71.8559102,79.7100488 L59.1098551,79.7100488 C55.2683276,79.7100488 52.1424299,76.5998049 52.1424299,72.7767154 L52.1424299,67.955252 C52.1424299,65.4329756 50.0805008,63.3802927 47.5460598,63.3802927 C45.0116189,63.3802927 42.9496898,65.4329756 42.9496898,67.955252 L42.9496898,72.7767154 C42.9496898,76.5998049 39.8237921,79.7100488 35.9822646,79.7100488 L33.5040283,79.7100488 C30.1546189,79.7100488 27.4299969,76.9978537 27.4299969,73.6651707 L27.4299969,66.912 L22.8839496,66.912 C22.1983827,66.912 21.6428709,66.3585041 21.6428709,65.6762276 L21.6428709,60.5510244 L18.0268157,60.5510244 C11.888737,60.5510244 6.89566614,55.5806179 6.89566614,49.4726504 L6.89566614,18.8924878 C6.89566614,12.7838699 11.888737,7.81411382 18.0268157,7.81411382 L39.3166425,7.81411382 C45.4547213,7.81411382 50.4490992,12.7838699 50.4490992,18.8924878 L50.4490992,49.4726504 C50.4490992,55.5806179 45.4547213,60.5510244 39.3166425,60.5510244 L35.7018945,60.5510244 L35.7018945,65.6762276 C35.7018945,66.3585041 35.1457291,66.912 34.4601622,66.912 L29.9134614,66.912 L29.9134614,73.6651707 C29.9134614,75.635252 31.5244457,77.2378537 33.5040283,77.2378537 L35.9822646,77.2378537 C38.4546189,77.2378537 40.4662252,75.2365528 40.4662252,72.7767154 L40.4662252,67.955252 C40.4662252,64.0697236 43.6424457,60.908748 47.5460598,60.908748 C51.4503276,60.908748 54.6258945,64.0697236 54.6258945,67.955252 L54.6258945,72.7767154 C54.6258945,75.2365528 56.6375008,77.2378537 59.1098551,77.2378537 L71.8559102,77.2378537 C72.5414772,77.2378537 73.0976425,77.7913496 73.0976425,78.473626 M14.9695402,62.3116748 L13.6101701,62.3116748 C12.9246031,62.3116748 12.3690913,62.8645203 12.3690913,63.5474472 C12.3690913,64.230374 12.9246031,64.7838699 13.6101701,64.7838699 L14.9695402,64.7838699 C15.6551071,64.7838699 16.2112724,64.230374 16.2112724,63.5474472 C16.2112724,62.8645203 15.6551071,62.3116748 14.9695402,62.3116748 M9.64708346,62.3116748 C5.69706772,62.3116748 2.48359528,59.113626 2.48359528,55.1825691 L2.48359528,37.0999675 C2.48359528,36.4170407 1.92742992,35.8641951 1.24186299,35.8641951 C0.55564252,35.8641951 0.000130708661,36.4170407 0.000130708661,37.0999675 L0.000130708661,55.1825691 C0.000130708661,60.4762276 4.32724094,64.7838699 9.64708346,64.7838699 C10.3326504,64.7838699 10.8888157,64.230374 10.8888157,63.5474472 C10.8888157,62.8645203 10.3326504,62.3116748 9.64708346,62.3116748 M72.3088157,40.7981789 C71.6232488,40.7981789 71.067737,41.3510244 71.067737,42.0339512 L71.067737,43.836878 C71.067737,44.5198049 71.6232488,45.0733008 72.3088157,45.0733008 C72.9950362,45.0733008 73.550548,44.5198049 73.550548,43.836878 L73.550548,42.0339512 C73.550548,41.3510244 72.9950362,40.7981789 72.3088157,40.7981789 M72.3088157,32.6082602 C71.6232488,32.6082602 71.067737,33.1611057 71.067737,33.8440325 L71.067737,35.6476098 C71.067737,36.3298862 71.6232488,36.8833821 72.3088157,36.8833821 C72.9950362,36.8833821 73.550548,36.3298862 73.550548,35.6476098 L73.550548,33.8440325 C73.550548,33.1611057 72.9950362,32.6082602 72.3088157,32.6082602 M72.3088157,24.4189919 C71.6232488,24.4189919 71.067737,24.9724878 71.067737,25.6547642 L71.067737,27.4583415 C71.067737,28.1412683 71.6232488,28.6941138 72.3088157,28.6941138 C72.9950362,28.6941138 73.550548,28.1412683 73.550548,27.4583415 L73.550548,25.6547642 C73.550548,24.9724878 72.9950362,24.4189919 72.3088157,24.4189919 M61.8148709,0.000130081301 L9.64708346,0.000130081301 C8.96151654,0.000130081301 8.40535118,0.553626016 8.40535118,1.23590244 C8.40535118,1.91882927 8.96151654,2.4723252 9.64708346,2.4723252 L61.8148709,2.4723252 C66.9164299,2.4723252 71.067737,6.6024065 71.067737,11.6794797 L71.067737,16.8645203 C71.067737,17.5474472 71.6232488,18.1002927 72.3088157,18.1002927 C72.9950362,18.1002927 73.550548,17.5474472 73.550548,16.8645203 L73.550548,11.6794797 C73.550548,5.23980488 68.2862567,0.000130081301 61.8148709,0.000130081301" id="Fill-1" fill="#0C1831" mask="url(#mask-2)"></path>
                </g>
                <path d="M54.988611,38.1672846 C56.1159732,36.2973659 57.5812173,32.0359024 57.5962488,31.9929756 C57.7674772,31.4921626 58.239989,31.1559024 58.7713197,31.155252 C59.3026504,31.155252 59.7751622,31.4921626 59.9463906,31.9929756 C59.961422,32.035252 61.4286268,36.2999675 62.5540283,38.1672846 C63.4611465,39.6716748 63.5578709,41.5214309 62.8062961,42.9946016 C62.0847843,44.4098862 60.6914299,45.2794797 58.8837291,45.4433821 C58.8464772,45.4466341 58.8092252,45.4485854 58.7713197,45.4485854 C58.7334142,45.4485854 58.6961622,45.4466341 58.6589102,45.4433821 C56.8512094,45.2794797 55.4585087,44.4092358 54.7363433,42.9946016 C53.9847685,41.5214309 54.0814929,39.6716748 54.988611,38.1672846" id="Path" fill="#3C76A6"></path>
                <path d="M56.950548,41.8759024 C57.2681701,42.4976911 57.8798866,42.8651707 58.7713197,42.9698862 C59.6627528,42.8651707 60.2751228,42.4976911 60.5920913,41.8759024 C60.948926,41.1767154 60.881611,40.1972033 60.4241307,39.4388293 C59.8731937,38.5237073 59.2752016,37.172813 58.7713197,35.9266341 C58.2680913,37.172813 57.6700992,38.5237073 57.1185087,39.4388293 C56.6610283,40.1972033 56.5937134,41.176065 56.950548,41.8759024" id="Path" fill="#FFFFFF"></path>
                <path d="M63.5088551,20.4359024 C64.4159732,21.9402927 64.5126976,23.7906992 63.7611228,25.2645203 C63.0389575,26.6798049 61.6462567,27.548748 59.8385559,27.712 C59.8013039,27.715252 59.7633984,27.7172033 59.7261465,27.7172033 C59.6882409,27.7172033 59.650989,27.715252 59.613737,27.712 C57.8060362,27.548748 56.4133354,26.6791545 55.6911701,25.2638699 C54.9395953,23.7906992 55.0363197,21.9402927 55.9434378,20.4359024 C57.0708,18.5659837 58.5360441,14.3045203 58.5510756,14.2615935 C58.7223039,13.7607805 59.1948157,13.4251707 59.7261465,13.4245203 C60.2574772,13.4245203 60.729989,13.7607805 60.9012173,14.2615935 C60.9162488,14.3038699 62.3834535,18.5685854 63.5088551,20.4359024" id="Path" fill="#3C76A6"></path>
                <path d="M61.3789575,21.7074472 C60.8280205,20.7923252 60.2300283,19.4420813 59.7261465,18.1959024 C59.2229181,19.4420813 58.624926,20.7923252 58.0733354,21.7074472 C57.6158551,22.4658211 57.5485402,23.4453333 57.9053748,24.1451707 C58.2229969,24.7663089 58.8353669,25.134439 59.7261465,25.2391545 C60.6175795,25.134439 61.2292961,24.7669593 61.5469181,24.1451707 C61.9037528,23.4453333 61.8364378,22.4658211 61.3789575,21.7074472" id="Path" fill="#FFFFFF"></path>
                <path d="M27.8763669,51.2729756 L18.0477291,43.1110244 C15.0002567,40.5802927 14.5898315,36.0534634 17.132115,33.0212683 C18.3640441,31.5513496 20.0972409,30.6472846 22.0121228,30.4755772 C23.9315795,30.3051707 25.7961386,30.8833821 27.2718394,32.1093984 L28.6717291,33.2723252 L30.0722724,32.1093984 C31.5486268,30.8833821 33.4151465,30.3045203 35.331989,30.4755772 C37.2468709,30.6472846 38.9800677,31.5513496 40.2119969,33.0212683 C42.7549339,36.0534634 42.3438551,40.5802927 39.2963827,43.1110244 L29.4677449,51.2729756 C29.2370441,51.4641951 28.9540598,51.5604553 28.6717291,51.5604553 C28.3893984,51.5604553 28.1070677,51.4641951 27.8763669,51.2729756" id="Path" fill="#3C76A6"></path>
                <path d="M19.6391071,41.2131382 L28.6717291,48.7149268 L37.7056583,41.2131382 C39.7015795,39.555252 39.9701858,36.5906992 38.3049575,34.6037073 C37.498485,33.6417561 36.3626268,33.0498862 35.1084772,32.9367154 C33.8556346,32.8254959 32.6308945,33.2040325 31.6636504,34.0072846 L29.4677449,35.8310244 C29.0063433,36.2134634 28.3364614,36.212813 27.8763669,35.8310244 L25.6804614,34.0072846 C24.8249732,33.2963902 23.7688472,32.9172033 22.6682803,32.9172033 C22.5245008,32.9172033 22.3800677,32.9237073 22.2356346,32.9367154 C20.981485,33.0498862 19.8462803,33.6417561 19.0391543,34.6037073 C17.373926,36.5906992 17.6425323,39.555252 19.6391071,41.2131382" id="Path" fill="#F3F9FF"></path>
            </g>
        </g>
    </g>
</svg>