<?xml version="1.0" encoding="UTF-8"?>
<svg width="79px" height="81px" viewBox="0 0 79 81" version="1.1" xmlns="http://www.w3.org/2000/svg" xmlns:xlink="http://www.w3.org/1999/xlink">
    <!-- Generator: Sketch 55.2 (78181) - https://sketchapp.com -->
    <title>Group 19</title>
    <desc>Created with Sketch.</desc>
    <defs>
        <polygon id="path-1" points="0 0 77.0194456 0 77.0194456 79.701377 0 79.701377"></polygon>
    </defs>
    <g id="Page-1" stroke="none" stroke-width="1" fill="none" fill-rule="evenodd">
        <g id="Browse-charities-V2" transform="translate(-252.000000, -1143.000000)">
            <g id="Group-19" transform="translate(252.000000, 1143.500000)">
                <g id="Group-9">
                    <g id="Group-3" transform="translate(1.316667, 0.000124)">
                        <mask id="mask-2" fill="white">
                            <use xlink:href="#path-1"></use>
                        </mask>
                        <g id="Clip-2"></g>
                        <path d="M76.5333567,32.091541 C76.2864817,32.3944918 75.925715,32.5518689 75.5616567,32.5518689 C75.2844983,32.5518689 75.005365,32.4600656 74.7736317,32.2725246 L38.40664,2.85154098 L2.03964833,32.2725246 C1.50310667,32.7059672 0.715081667,32.624 0.279923333,32.091541 C-0.155893333,31.5571148 -0.07426,30.7721967 0.462281667,30.3387541 L37.6172983,0.279081967 C38.0781317,-0.0920655738 38.7351483,-0.0920655738 39.1953233,0.279081967 L76.3509983,30.3387541 C76.88754,30.7721967 76.9691733,31.5571148 76.5333567,32.091541 L76.5333567,32.091541 Z M30.860165,39.799082 C30.860165,40.4876066 30.2999233,41.0449836 29.6086733,41.0449836 L22.4769483,41.0449836 C21.7856983,41.0449836 21.226115,40.4876066 21.226115,39.799082 C21.226115,39.1105574 21.7856983,38.5525246 22.4769483,38.5525246 L29.6086733,38.5525246 C30.2999233,38.5525246 30.860165,39.1105574 30.860165,39.799082 L30.860165,39.799082 Z M70.0092733,63.7767869 L58.9598067,72.9610492 L47.9090233,63.7767869 C41.7852067,58.6862951 49.57329,49.759082 55.51014,54.7033443 C57.811015,56.6167869 58.6984483,57.7879344 59.7616567,56.9046557 C62.080965,54.9761311 63.704415,53.0876066 66.7432817,53.3558033 C68.3213067,53.4974426 69.7492317,54.2430164 70.7643817,55.4548197 L70.7643817,55.4554754 C72.8651233,57.9630164 72.5280567,61.6843279 70.0092733,63.7767869 L70.0092733,63.7767869 Z M55.539765,51.7512131 C52.482465,50.1872787 48.78724,50.6410492 46.178265,52.8980984 L41.2855317,52.8980984 L41.2855317,43.5158033 L55.539765,43.5158033 L55.539765,51.7512131 Z M50.7530233,69.3853115 L33.3789483,69.3853115 L33.3789483,46.516459 C33.3789483,45.8279344 32.8187067,45.2705574 32.1274567,45.2705574 L19.958165,45.2705574 C19.266915,45.2705574 18.7073317,45.8279344 18.7073317,46.516459 L18.7073317,69.3853115 L12.915315,69.3853115 L12.915315,30.116459 L63.897965,30.116459 L63.897965,51.1676066 C63.8953317,51.1682623 63.8926983,51.1695738 63.8907233,51.1702295 C61.8248733,51.7558033 60.903865,52.7099016 58.9598067,54.3249836 L58.04209,53.5623607 L58.04209,42.2692459 C58.04209,41.581377 57.4818483,41.0233443 56.7905983,41.0233443 L40.03404,41.0233443 C39.34279,41.0233443 38.7832067,41.581377 38.7832067,42.2692459 L38.7832067,54.1446557 C38.7832067,54.8331803 39.34279,55.3905574 40.03404,55.3905574 L44.2184067,55.3905574 C42.4066733,58.8718689 43.263165,63.1617049 46.3072983,65.6902295 L50.7530233,69.3853115 Z M21.2096567,69.3853115 L30.8766233,69.3853115 L30.8766233,47.7623607 L21.2096567,47.7623607 L21.2096567,69.3853115 Z M72.6853983,53.8574426 C71.06524,51.9243279 68.7492233,50.9085902 66.40029,50.8541639 L66.40029,28.8705574 C66.40029,28.1820328 65.8400483,27.624 65.1494567,27.624 L11.6638233,27.624 C10.9732317,27.624 10.41299,28.1820328 10.41299,28.8705574 L10.41299,69.3853115 L2.31022333,69.3853115 C1.61963167,69.3853115 1.05939,69.9433443 1.05939,70.6312131 C1.05939,71.3197377 1.61963167,71.8777705 2.31022333,71.8777705 L11.6638233,71.8777705 L32.1274567,71.8777705 L53.7517317,71.8777705 C57.8748733,75.3046557 58.67804,76.4410492 59.7616567,75.5407213 L71.612315,65.6902295 C75.191015,62.7171148 75.6722567,57.424 72.6853983,53.8580984 L72.6853983,53.8574426 Z" id="Fill-1" fill="#0C1831" mask="url(#mask-2)"></path>
                    </g>
                    <path d="M23.793615,4.80510793 C23.33344,4.29232105 23.37689,3.50478006 23.892365,3.04576367 L25.3650567,1.73297679 C25.8805317,1.27330465 26.67119,1.31789482 27.131365,1.83133744 C27.59154,2.34346859 27.5474317,3.13100957 27.032615,3.59002597 L25.5599233,4.90281285 C25.3216067,5.11527187 25.0227233,5.2201899 24.7264733,5.2201899 C24.3828233,5.2201899 24.04049,5.08051777 23.793615,4.80510793 L23.793615,4.80510793 Z" id="Path" fill="#3C76A6"></path>
                    <path d="M0.88559,23.2359276 C0.451748333,22.7008456 0.536015,21.9159276 1.073215,21.4831407 L21.032565,5.42412433 C21.569765,4.99330465 22.35779,5.07461613 22.79229,5.61035383 C23.2261317,6.14609154 23.141865,6.93035383 22.6053233,7.36314072 L2.645315,23.4221571 C2.41424,23.6077309 2.135765,23.6988784 1.85992333,23.6988784 C1.49520667,23.6988784 1.13312333,23.5408456 0.88559,23.2359276 L0.88559,23.2359276 Z" id="Path" fill="#3C76A6"></path>
                    <path d="M75.6051067,21.1847801 C76.0369733,20.6477309 76.82434,20.562485 77.3628567,20.9906817 L78.5254733,21.9172391 C79.0646483,22.347403 79.1515483,23.1316653 78.72034,23.6687145 C78.473465,23.9762555 78.1094067,24.1362555 77.7433733,24.1362555 C77.4688483,24.1362555 77.1930067,24.0464194 76.9619317,23.8628129 L75.799315,22.9362555 C75.26014,22.5067473 75.17324,21.722485 75.6051067,21.1847801 L75.6051067,21.1847801 Z" id="Path" fill="#3C76A6"></path>
                    <path d="M50.0308317,0.461501375 C50.4653317,-0.0742363294 51.254015,-0.154892067 51.7898983,0.279206294 L74.7334733,18.8352719 C75.2706733,19.2687145 75.3523067,20.0536325 74.91649,20.587403 C74.669615,20.8910096 74.3088483,21.0483866 73.94479,21.0483866 C73.6676317,21.0483866 73.3884983,20.9565833 73.1574233,20.7690424 L50.21319,2.21297679 C49.6766483,1.77953416 49.595015,0.995271867 50.0308317,0.461501375 L50.0308317,0.461501375 Z" id="Path" fill="#3C76A6"></path>
                </g>
                <path d="M31.1695817,23.6988784 L48.2770317,23.6988784 C48.666765,23.6988784 49.034115,23.5178948 49.271115,23.2090424 C49.5074567,22.9001899 49.5864567,22.4995342 49.4837567,22.1251079 C48.2849317,17.7506817 44.2717317,14.6955997 39.7233067,14.6955997 C35.1742233,14.6955997 31.1616817,17.7506817 29.9628567,22.1251079 C29.8601567,22.4995342 29.9391567,22.9001899 30.1761567,23.2090424 C30.4124983,23.5178948 30.7805067,23.6988784 31.1695817,23.6988784 L31.1695817,23.6988784 Z" id="Path" fill="#3C76A6"></path>
                <path d="M39.7233067,17.187403 C42.56994,17.187403 45.1380983,18.7775669 46.4422567,21.2064194 L33.005015,21.2064194 C34.3078567,18.7775669 36.876015,17.187403 39.7233067,17.187403 L39.7233067,17.187403 Z" id="Path" fill="#F3F9FF"></path>
                <path d="M52.76884,78.4555997 C52.76884,79.1441243 52.2085983,79.7015014 51.5180067,79.7015014 L13.1733817,79.7015014 C12.48279,79.7015014 11.9225483,79.1441243 11.9225483,78.4555997 C11.9225483,77.7670751 12.48279,77.2096981 13.1733817,77.2096981 L51.5180067,77.2096981 C52.2085983,77.2096981 52.76884,77.7670751 52.76884,78.4555997 L52.76884,78.4555997 Z" id="Path" fill="#3C76A6"></path>
            </g>
        </g>
    </g>
</svg>