<?xml version="1.0" encoding="UTF-8"?>
<svg width="106px" height="79px" viewBox="0 0 106 79" version="1.1" xmlns="http://www.w3.org/2000/svg" xmlns:xlink="http://www.w3.org/1999/xlink">
    <!-- Generator: Sketch 55.2 (78181) - https://sketchapp.com -->
    <title>Group 69</title>
    <desc>Created with Sketch.</desc>
    <defs>
        <polygon id="path-1" points="0 0.189426332 38.9602005 0.189426332 38.9602005 25.0313702 0 25.0313702"></polygon>
    </defs>
    <g id="Page-1" stroke="none" stroke-width="1" fill="none" fill-rule="evenodd">
        <g id="Browse-charities-V2" transform="translate(-525.000000, -1140.000000)">
            <g id="Group-69" transform="translate(525.000000, 1144.500000)">
                <g id="Group-3" transform="translate(0.000000, 35.420787)">
                    <mask id="mask-2" fill="white">
                        <use xlink:href="#path-1"></use>
                    </mask>
                    <g id="Clip-2"></g>
                    <path d="M21.6586457,25.0313702 C13.9635276,25.032 6.45045669,22.3938898 0.470614173,17.5901102 C0.150614173,17.3324724 -0.0238740157,16.935622 0.00258267717,16.5255433 C0.526677165,8.51420472 6.34651969,1.86979528 14.1550236,0.369322835 C14.5228976,0.29688189 14.9002205,0.394519685 15.1899843,0.630740157 C15.4791181,0.867590551 15.6491969,1.21971654 15.6529764,1.59325984 L15.6970709,5.99703937 L21.127622,3.25751181 C21.4753386,3.08113386 21.8866772,3.07672441 22.2406929,3.24680315 L27.7134488,5.87546457 L27.6693543,1.46223622 C27.664315,0.956409449 27.9616378,0.49719685 28.4246299,0.294362205 C28.6999055,0.175307087 29.0016378,0.158299213 29.2794331,0.239559055 C33.2460472,0.919244094 36.7817953,3.1327874 38.7578583,6.18097638 C39.135811,6.76491339 38.9688819,7.54475591 38.3855748,7.9239685 C37.8016378,8.30129134 37.0217953,8.13562205 36.6425827,7.55168504 C35.5553386,5.87483465 33.3455748,3.92585827 30.2047874,3.02948031 L30.2539213,7.87483465 C30.2577008,8.31011024 30.0372283,8.71703937 29.6699843,8.95074016 C29.3021102,9.18381102 28.8410079,9.21152756 28.447937,9.0231811 L21.7084094,5.78664567 L15.0249449,9.15861417 C14.6375433,9.35325984 14.1739213,9.33625197 13.8022677,9.10948031 C13.4306142,8.88333858 13.2019528,8.48144882 13.1975433,8.04617323 L13.1490394,3.20333858 C6.61045669,5.13593701 3.15092913,10.936252 2.5751811,16.0392441 C8.07943307,20.2679055 14.8819528,22.5507402 21.880378,22.5110551 C23.2441575,22.4946772 24.7572283,22.3982992 26.3710866,22.2257008 C27.0608504,22.1551496 27.6838425,22.6515276 27.7581732,23.343811 C27.8325039,24.0360945 27.3317165,24.6565669 26.6394331,24.7302677 C24.9468346,24.912315 23.3537638,25.0131024 21.9055748,25.0307402 C21.823685,25.0313702 21.7405354,25.0313702 21.6586457,25.0313702" id="Fill-1" fill="#0C1831" mask="url(#mask-2)"></path>
                </g>
                <path d="M83.8362835,61.3342992 C83.7537638,61.3342992 83.671874,61.3342992 83.5893543,61.3336693 C81.7033701,61.3103622 79.6038425,61.1491024 77.343685,60.8542992 C76.6545512,60.7642205 76.167622,60.1324094 76.2577008,59.4420157 C76.3477795,58.751622 76.9833701,58.2653228 77.6699843,58.3554016 C79.8331339,58.6382362 81.8325039,58.791937 83.6139213,58.8139843 C83.6901417,58.8146142 83.7663622,58.8152441 83.8419528,58.8152441 C90.728252,58.8152441 97.4684094,56.5248504 102.914079,52.3421732 C102.337701,47.2385512 98.8781732,41.4382362 92.3395906,39.5062677 L92.2910866,44.3491024 C92.2866772,44.784378 92.0580157,45.1862677 91.6863622,45.4124094 C91.3140787,45.6391811 90.8517165,45.656189 90.463685,45.4615433 L83.7802205,42.0895748 L77.040063,45.3254803 C76.647622,45.5131969 76.1858898,45.4861102 75.8192756,45.2530394 C75.4514016,45.0193386 75.2309291,44.6124094 75.2353386,44.1771339 L75.2844724,39.3298898 C71.9351811,40.2754016 70.0284094,42.2993386 69.3115591,43.207685 C68.8794331,43.7544567 68.087622,43.8457953 67.5421102,43.416189 C66.9959685,42.9846929 66.9027402,42.192252 67.3336063,41.6461102 C69.4299843,38.9903622 72.6873071,37.128315 76.279748,36.5305197 C76.5367559,36.4725669 76.8107717,36.4946142 77.0589606,36.6029606 C77.5225827,36.8057953 77.8249449,37.2593386 77.8199055,37.7651654 L77.7751811,42.1777638 L83.2485669,39.5497323 C83.6006929,39.3802835 84.0126614,39.384063 84.3610079,39.5604409 L89.7915591,42.2999685 L89.8356535,37.896189 C89.8394331,37.5226457 90.0088819,37.1705197 90.2986457,36.9342992 C90.5877795,36.6974488 90.9663622,36.6010709 91.3336063,36.672252 C99.1414803,38.1720945 104.961323,44.8165039 105.486677,52.8284724 C105.513134,53.2385512 105.338646,53.6354016 105.018016,53.8930394 C99.0375433,58.6968189 91.5232126,61.3342992 83.8362835,61.3342992" id="Fill-4" fill="#0C1831"></path>
                <path d="M25.1225827,21.7630866 C24.432189,21.7630866 23.8696693,21.2074961 23.8627402,20.5158425 C23.855811,19.8197795 24.4145512,19.2503307 25.1099843,19.2434016 L27.8904567,19.215685 L27.9024252,19.215685 C28.5928189,19.215685 29.1553386,19.7712756 29.1622677,20.4635591 C29.1691969,21.1589921 28.6104567,21.7284409 27.9150236,21.7353701 L25.1351811,21.7630866 L25.1225827,21.7630866 Z" id="Fill-6" fill="#3C76A6"></path>
                <path d="M15.0998425,21.863937 C14.4094488,21.863937 13.8475591,21.3083465 13.84,20.6166929 C13.8330709,19.9212598 14.3911811,19.351811 15.0866142,19.344252 L17.8670866,19.3159055 C18.5650394,19.3385827 19.1319685,19.8670866 19.1395276,20.5631496 C19.1464567,21.2585827 18.5883465,21.8280315 17.8929134,21.8355906 L15.1130709,21.863937 L15.0998425,21.863937 Z" id="Fill-8" fill="#3C76A6"></path>
                <path d="M21.3344252,31.8547402 C20.0204094,31.8547402 18.6874961,31.3804094 17.4761575,30.4808819 C16.9174173,30.0663937 16.8008819,29.2771024 17.216,28.7183622 C17.6311181,28.1608819 18.4197795,28.0424567 18.9785197,28.4582047 C19.7722205,29.0484409 20.559622,29.3344252 21.3640315,29.3350551 C22.1526929,29.3268661 22.9489134,29.015685 23.7325354,28.4103307 C24.2824567,27.9857638 25.0736378,28.0852913 25.4994646,28.6364724 C25.9252913,29.1870236 25.8245039,29.9775748 25.2739528,30.4034016 C24.063874,31.3394646 22.7208819,31.8415118 21.3898583,31.8547402 L21.3344252,31.8547402 Z" id="Fill-10" fill="#3C76A6"></path>
                <path d="M8.92730709,57.4951181 C8.23817323,57.4951181 7.67565354,56.9407874 7.66746457,56.2497638 L7.60510236,50.9464567 C7.59754331,50.2510236 8.1543937,49.680315 8.85045669,49.672126 L8.86494488,49.672126 C9.55407874,49.672126 10.1172283,50.2264567 10.1247874,50.9174803 L10.1871496,56.2207874 C10.1953386,56.9162205 9.63785827,57.4869291 8.94179528,57.4951181 L8.92730709,57.4951181 Z" id="Fill-12" fill="#0C1831"></path>
                <path d="M8.28138583,40.8446614 C7.83162205,40.8446614 7.39634646,40.6034016 7.16894488,40.1788346 C4.95099213,36.0345827 3.64012598,31.6629291 3.27288189,27.1854488 C3.13492913,25.5029291 2.20264567,10.5385197 11.8209134,3.34985827 C15.7339843,0.427023622 19.9594961,0.166866142 20.1371339,0.156787402 C20.888,0.0887559055 21.6968189,0.0811968504 22.4987087,0.136 C22.6335118,0.139779528 26.8634331,0.315527559 30.8344567,3.15962205 C33.7207559,5.22828346 35.968315,8.18954331 37.5147717,11.9627717 C37.7787087,12.6071811 37.4706772,13.3429291 36.8268976,13.6068661 C36.1805984,13.8714331 35.4473701,13.5621417 35.1834331,12.9189921 C33.8196535,9.59048819 31.8624882,6.99647244 29.3667402,5.20812598 C26.0382362,2.82387402 22.4029606,2.65316535 22.3664252,2.65190551 C21.6571339,2.60277165 20.9818583,2.61033071 20.3172913,2.66954331 C20.2410709,2.67458268 16.6102047,2.9183622 13.3295748,5.36938583 C4.79666142,11.7460787 5.65776378,25.4393071 5.78374803,26.9800945 C6.12264567,31.1111181 7.33650394,35.1514331 9.39130709,38.9908031 C9.71886614,39.6037165 9.48831496,40.3671811 8.87414173,40.696 C8.68579528,40.7967874 8.48170079,40.8446614 8.28138583,40.8446614" id="Fill-14" fill="#0C1831"></path>
                <path d="M35.1016693,40.5745512 C34.9082835,40.5745512 34.712378,40.5304567 34.5284409,40.4359685 C33.9085984,40.1184882 33.6648189,39.3588031 33.9816693,38.7402205 C34.7337953,37.2725039 36.1341102,34.5411654 36.3350551,30.1065197 C36.3671811,29.4110866 36.9605669,28.8926614 37.6509606,28.9052598 C38.3457638,28.9367559 38.8837165,29.5257323 38.8522205,30.2211654 C38.6260787,35.2032126 37.0632441,38.2514016 36.224189,39.8891969 C36.0011969,40.3251024 35.559622,40.5745512 35.1016693,40.5745512" id="Fill-16" fill="#0C1831"></path>
                <path d="M13.2611024,15.4023307 C12.4737008,17.0376063 11.7272441,19.3324094 11.8059843,22.0744567 C11.8349606,23.1302047 11.911811,25.9302047 13.7335433,28.7295748 C15.3675591,31.239811 18.5322835,33.9805984 21.6377953,34.0971339 C24.7407874,33.9182362 27.8494488,31.1138268 29.4324409,28.5714646 C31.1968504,25.736189 31.2176378,22.9349291 31.2258268,21.8804409 C31.2491339,19.1314646 30.4548031,16.8486299 29.6327559,15.2297323 C28.1492913,17.0464252 25.8929134,18.1481575 23.4544882,18.1809134 L19.5640945,18.2325669 C17.1262992,18.2842205 14.783622,17.1925669 13.2611024,15.4023307 M21.6503937,36.6180787 C21.6384252,36.6180787 21.6264567,36.6180787 21.6144882,36.6174488 C17.5647244,36.5015433 13.6774803,33.2631181 11.6214173,30.104063 C9.41354331,26.7087874 9.3184252,23.2738268 9.28755906,22.1450079 C9.15338583,17.4892598 11.0362205,13.9383937 12.1707087,12.2363465 C12.4390551,11.8306772 12.9146457,11.6171339 13.3990551,11.6870551 C13.879685,11.7569764 14.2777953,12.0965039 14.4220472,12.5607559 C14.4384252,12.6142992 14.4686614,12.6766614 14.503937,12.7465827 C15.4173228,14.5771339 17.376378,15.7569764 19.5307087,15.7128819 L23.4211024,15.6612283 C25.4588976,15.6341417 27.3077165,14.5342992 28.2456693,12.7906772 C28.384252,12.5349291 28.416378,12.4309921 28.4195276,12.4202835 C28.5543307,11.9528819 28.9455118,11.6057953 29.4248819,11.5264252 C29.904252,11.4464252 30.3861417,11.6517795 30.663937,12.0498898 C31.8324409,13.728 33.7851969,17.239811 33.7455118,21.9005984 C33.7366929,23.0281575 33.7108661,26.4650079 31.5716535,29.9024882 C29.5798425,33.1024882 25.7587402,36.4190236 21.712126,36.6168189 C21.6919685,36.6174488 21.6711811,36.6180787 21.6503937,36.6180787" id="Fill-18" fill="#0C1831"></path>
                <path d="M52.9172283,2.52944882 C47.9736063,2.52944882 42.2696693,5.24377953 40.6702992,11.3067717 L40.6702992,11.3074016 C40.4668346,12.0765354 40.0038425,15.1159055 40.8586457,17.6973228 C40.960063,17.1675591 41.0822677,16.6428346 41.2265197,16.1250394 C41.5106142,15.0925984 41.8854173,14.0765354 42.3736063,13.0251969 C42.6199055,12.4929134 43.2025827,12.2 43.7751811,12.3228346 C44.8939213,12.5571654 45.8854173,13.0113386 46.9348661,13.4907087 C48.5846299,14.2459843 50.2904567,15.0264567 52.7377008,15.0264567 C55.1849449,15.0264567 56.8907717,14.2459843 58.5405354,13.4907087 C59.5899843,13.0113386 60.5814803,12.5571654 61.6995906,12.3228346 C62.2734488,12.2 62.8542362,12.4929134 63.1017953,13.0251969 C63.5893543,14.0765354 63.9647874,15.0925984 64.2495118,16.1307087 C64.3937638,16.6459843 64.5159685,17.168189 64.616126,17.6966929 C65.4690394,15.1177953 65.0073071,12.0765354 64.8044724,11.3061417 C63.0980157,4.83559055 57.5452598,2.53007874 52.9172283,2.52944882 L52.9172283,2.52944882 Z M41.7732913,22.7833071 C41.4073071,22.7833071 41.0501417,22.623937 40.8057323,22.3316535 C40.7490394,22.2762205 40.696126,22.2207874 40.6463622,22.1622047 C40.631874,22.1445669 40.6180157,22.1262992 40.6041575,22.1080315 C40.0057323,21.4503937 39.4948661,20.7259843 39.0860472,19.9511811 C36.9430551,15.8970079 38.2205354,10.7152756 38.2337638,10.663622 C40.1751811,3.30488189 47.0073071,0.00976377953 52.9172283,0.00976377953 C59.911874,0.0103937008 65.5339213,4.19244094 67.2410079,10.664252 C67.2554961,10.7159055 68.5291969,15.9033071 66.3899843,19.9511811 C65.9799055,20.7259843 65.4690394,21.4510236 64.8706142,22.1092913 C64.8567559,22.1269291 64.8428976,22.1451969 64.8284094,22.1622047 C64.7792756,22.2207874 64.7263622,22.2762205 64.6728189,22.3303937 C64.3320315,22.7379528 63.7707717,22.8891339 63.2706142,22.7058268 C62.7710866,22.5225197 62.4384882,22.0469291 62.4422677,21.5146457 C62.4542362,19.9058268 62.2457323,18.3209449 61.8217953,16.8028346 C61.6624252,16.2233071 61.4709291,15.6519685 61.2422677,15.0743307 C60.7175433,15.2658268 60.1770709,15.5127559 59.5887244,15.7823622 C57.8709291,16.567874 55.7336063,17.5461417 52.7377008,17.5461417 C49.7417953,17.5461417 47.6038425,16.567874 45.8866772,15.7823622 C45.2977008,15.5127559 44.7578583,15.2658268 44.2331339,15.0743307 C44.0044724,15.6513386 43.8136063,16.2220472 43.6554961,16.7977953 C43.2296693,18.3209449 43.0211654,19.9058268 43.0331339,21.5146457 C43.0369134,22.0469291 42.7062047,22.5231496 42.2066772,22.7064567 C42.0655748,22.7581102 41.9181732,22.7833071 41.7732913,22.7833071 L41.7732913,22.7833071 Z" id="Fill-20" fill="#0C1831"></path>
                <path d="M84.2502677,38.032126 C78.3743622,38.032126 73.2921575,32.600315 72.1652283,25.1162205 C72.0619213,24.4302362 72.5343622,23.7908661 73.2203465,23.6875591 C73.9019213,23.5785827 74.5463307,24.056063 74.6496378,24.7420472 C75.5894803,30.9870866 79.6272756,35.52 84.2502677,35.52 C88.8732598,35.52 92.9104252,30.9870866 93.8502677,24.7420472 C93.9529449,24.056063 94.5986142,23.5785827 95.2795591,23.6875591 C95.9655433,23.7908661 96.4379843,24.4302362 96.3346772,25.1162205 C95.208378,32.600315 90.1261732,38.032126 84.2502677,38.032126" id="Fill-22" fill="#0C1831"></path>
                <path d="M81.4839055,25.0615433 C81.1897323,25.0615433 80.8949291,24.9588661 80.6568189,24.7503622 C80.6253228,24.7226457 80.447685,24.592252 80.2133543,24.5865827 C79.9834331,24.5897323 79.8228031,24.7213858 79.7925669,24.7478425 C79.2735118,25.2064252 78.4791811,25.1566614 78.0199685,24.6357165 C77.5613858,24.1160315 77.6117795,23.3217008 78.1320945,22.8631181 C78.3947717,22.6313071 79.1204409,22.0895748 80.1768189,22.0744567 L80.2234331,22.0744567 C81.2974488,22.0744567 82.0407559,22.6224882 82.312252,22.8605984 C82.8344567,23.3179213 82.8867402,24.111622 82.4294173,24.6331969 C82.1812283,24.9166614 81.8335118,25.0615433 81.4839055,25.0615433" id="Fill-24" fill="#3C76A6"></path>
                <path d="M89.8525354,25.0615433 C89.5350551,25.0615433 89.2175748,24.9418583 88.9737953,24.7024882 C88.9668661,24.696189 88.816315,24.5506772 88.5983622,24.5481575 L88.592063,24.5481575 C88.3690709,24.5481575 88.2153701,24.6968189 88.2090709,24.7031181 C87.7133228,25.1881575 86.9177323,25.1793386 86.4326929,24.6835906 C85.9476535,24.1884724 85.9558425,23.3928819 86.4522205,22.9078425 C86.7237165,22.6407559 87.4909606,22.0102047 88.6298583,22.0360315 C89.7378898,22.0498898 90.4692283,22.6508346 90.7312756,22.9084724 C91.2276535,23.3935118 91.2352126,24.1891024 90.7495433,24.6842205 C90.5032441,24.9355591 90.1782047,25.0615433 89.8525354,25.0615433" id="Fill-26" fill="#3C76A6"></path>
                <path d="M84.2496378,33.7081575 C83.0168819,33.7081575 81.7702677,33.2571339 80.6445984,32.4042205 C80.0921575,31.9853228 79.9831811,31.1972913 80.4027087,30.6448504 C80.8203465,30.0924094 81.608378,29.9821732 82.1620787,30.4023307 C83.552315,31.456189 84.9475906,31.4549291 86.3384567,30.4023307 C86.8915276,29.9821732 87.6795591,30.0924094 88.0971969,30.6448504 C88.5173543,31.1972913 88.408378,31.9853228 87.8553071,32.4042205 C86.7302677,33.2571339 85.4830236,33.7081575 84.2496378,33.7081575" id="Fill-28" fill="#3C76A6"></path>
                <path d="M73.4204094,26.1854488 C72.8755276,26.1854488 72.3854488,25.8301732 72.2222992,25.3016693 C72.1845039,25.2745827 72.144189,25.248126 72.1026142,25.2191496 C71.4336378,24.7485984 70.6859213,24.1092283 70.2928504,22.4758425 C69.640252,19.7615118 70.4301732,18.560252 71.208126,18.0304882 C72.0106457,17.4837165 73.0771024,17.5145827 73.9249764,18.1079685 C74.4931654,18.5060787 74.631748,19.2890709 74.2336378,19.8572598 C73.863874,20.3863937 73.1583622,20.5426142 72.6040315,20.240252 C72.5511181,20.4714331 72.5139528,20.9652913 72.7350551,21.8887559 C72.9391496,22.736 73.1948976,22.9155276 73.5470236,23.1637165 C73.8978898,23.4100157 74.4843465,23.8226142 74.6544252,24.6874961 C74.7879685,25.3684409 74.343874,26.0285984 73.6635591,26.1621417 C73.5816693,26.1778898 73.5004094,26.1854488 73.4204094,26.1854488" id="Fill-30" fill="#0C1831"></path>
                <path d="M95.1348661,26.1854488 C95.0548661,26.1854488 94.9736063,26.1778898 94.8917165,26.1621417 C94.2114016,26.0285984 93.7673071,25.3684409 93.9008504,24.6874961 C94.0709291,23.8226142 94.6573858,23.4100157 95.008252,23.1637165 C95.360378,22.9155276 95.616126,22.736 95.8202205,21.888126 C96.0413228,20.9652913 96.0041575,20.4714331 95.9512441,20.240252 C95.3988031,20.5249764 94.6995906,20.3700157 94.3348661,19.8497008 C93.9380157,19.2815118 94.0621102,18.5060787 94.6302992,18.1079685 C95.4788031,17.5145827 96.5446299,17.4837165 97.3471496,18.0304882 C98.1251024,18.560252 98.9150236,19.7615118 98.2624252,22.4752126 C97.8693543,24.1092283 97.1216378,24.7485984 96.4526614,25.2191496 C96.4110866,25.248126 96.3707717,25.2745827 96.3329764,25.3016693 C96.1704567,25.8301732 95.679748,26.1854488 95.1348661,26.1854488" id="Fill-32" fill="#0C1831"></path>
                <path d="M73.4868661,33.6915906 C71.9404094,33.656315 70.5753701,32.8166299 69.8490709,31.5353701 C69.0774173,31.304189 68.2043465,30.7397795 67.8352126,29.5700157 C67.6260787,28.9079685 67.9933228,28.2024567 68.6547402,27.9939528 C69.3161575,27.7835591 70.0216693,28.1514331 70.2308031,28.8134803 C70.320252,29.0950551 70.5898583,29.1498583 70.7435591,29.1580472 C71.280252,29.1580472 71.7300157,29.4988346 71.903874,30.0065512 C72.1382047,30.6919055 72.7744252,31.1630866 73.4868661,31.1807244 C73.9536378,31.1674961 74.439937,30.919937 74.7611969,30.4991496 C75.1813543,29.9467087 75.9706457,29.8427717 76.5218268,30.264189 C77.0730079,30.6849764 77.1782047,31.4736378 76.7567874,32.0248189 C75.9706457,33.0534803 74.7788346,33.6613543 73.4868661,33.6915906" id="Fill-34" fill="#0C1831"></path>
                <g id="Group-38" transform="translate(65.141732, 33.105827)" fill="#0C1831">
                    <path d="M30.1174173,0.58576378 C28.9463937,0.559937008 27.9045039,0.106393701 27.1265512,-0.689826772 C26.6408819,-1.18620472 26.6503307,-1.98116535 27.1467087,-2.46620472 C27.6418268,-2.95187402 28.4374173,-2.94368504 28.9230866,-2.44541732 C29.239937,-2.12100787 29.6645039,-1.93644094 30.1174173,-1.92510236 C30.7706457,-1.94274016 31.4068661,-2.41392126 31.6411969,-3.09927559 C31.7955276,-3.54966929 32.1911181,-3.87470866 32.6635591,-3.93770079 C33.520252,-4.05171654 34.1665512,-4.78305512 34.1665512,-5.63911811 C34.1665512,-5.88604724 34.1054488,-6.13738583 33.9863937,-6.38431496 C33.8049764,-6.76100787 33.8219843,-7.20258268 34.032378,-7.56415748 C34.2434016,-7.92510236 34.6194646,-8.15754331 35.0364724,-8.18462992 C35.9429291,-8.2432126 36.6534803,-8.99722835 36.6534803,-9.90116535 C36.6534803,-10.4762835 36.3656063,-11.0123465 35.8824567,-11.3367559 C35.4415118,-11.6334488 35.2348976,-12.1745512 35.3659213,-12.6891969 C35.4975748,-13.2044724 35.9378898,-13.5805354 36.4670236,-13.6296693 C37.3627717,-13.7128189 38.0374173,-14.447937 38.0374173,-15.3392756 C38.0374173,-15.9748661 37.6815118,-16.5581732 37.1076535,-16.8611654 C36.7328504,-17.0589606 36.4834016,-17.4325039 36.4437165,-17.8539213 C36.4040315,-18.2747087 36.5791496,-18.687937 36.9092283,-18.9525039 C37.3268661,-19.2869921 37.5668661,-19.775811 37.5668661,-20.2948661 C37.5668661,-21.2069921 36.8411969,-21.9704567 35.9366299,-22.0221102 L35.7652913,-21.9969134 C35.2544252,-21.9383307 34.744189,-22.200378 34.5029291,-22.6633701 C34.2610394,-23.1263622 34.3309606,-23.6901417 34.6786772,-24.080063 C34.8821417,-24.3080945 35.1240315,-24.6917165 35.1240315,-25.224 C35.1240315,-26.1556535 34.3668661,-26.9317165 33.4364724,-26.9543937 C33.2235591,-26.9474646 32.9508031,-26.8668346 32.6868661,-26.7150236 C32.1885984,-26.4277795 31.5586772,-26.5165984 31.1586772,-26.9291969 C30.7586772,-27.3411654 30.6887559,-27.9736063 30.9911181,-28.4624252 C31.1643465,-28.7446299 31.2525354,-29.048252 31.2525354,-29.3644724 C31.2525354,-30.296126 30.496,-31.072189 29.5649764,-31.0948661 C29.103874,-31.0822677 28.7290709,-30.8365984 28.5067087,-30.6325039 C28.1344252,-30.2917165 27.5945827,-30.2054173 27.1366299,-30.4151811 C26.6774173,-30.624315 26.3882835,-31.0873071 26.4021417,-31.591874 C26.4027717,-31.615811 26.4040315,-31.6466772 26.4071811,-31.6775433 C26.3788346,-32.5852598 25.6330079,-33.3323465 24.720252,-33.3543937 C24.1848189,-33.3399055 23.6462362,-33.0173858 23.3382047,-32.4907717 C23.0497008,-31.9975433 22.4626142,-31.7594331 21.9158425,-31.9156535 C21.3652913,-32.0693543 20.9885984,-32.5751811 20.9974173,-33.1458898 C20.9980472,-33.1799055 21.0024567,-33.2353386 21.0074961,-33.2851024 C20.9804094,-34.1940787 20.2345827,-34.9424252 19.319937,-34.9651024 L19.2953701,-34.9606929 C19.2330079,-34.9556535 19.1700157,-34.9556535 19.1076535,-34.9606929 L19.0219843,-34.9651024 C18.1690709,-34.9424252 17.4245039,-34.1959685 17.3961575,-33.287622 C17.4011969,-33.2466772 17.4037165,-33.2069921 17.4049764,-33.1666772 C17.4245039,-32.592189 17.0509606,-32.0781732 16.4985197,-31.9181732 C15.9448189,-31.760063 15.3558425,-31.9950236 15.0654488,-32.4907717 C14.7574173,-33.0173858 14.2182047,-33.3399055 13.6229291,-33.3543937 C12.7693858,-33.3323465 12.0248189,-32.5852598 11.9958425,-31.6788031 C11.999622,-31.6384882 12.0015118,-31.5988031 12.0015118,-31.5578583 C12.0015118,-31.0595906 11.7067087,-30.6085669 11.2506457,-30.407622 C10.7945827,-30.2091969 10.2629291,-30.2948661 9.89568504,-30.6331339 C9.67395276,-30.8365984 9.29977953,-31.0822677 8.77820472,-31.0948661 C7.90765354,-31.072189 7.15048819,-30.296126 7.15048819,-29.3644724 C7.15048819,-29.0488819 7.23867717,-28.7452598 7.41253543,-28.4624252 C7.71489764,-27.9736063 7.64497638,-27.3417953 7.24497638,-26.9291969 C6.8456063,-26.5172283 6.21505512,-26.4284094 5.71741732,-26.7150236 C5.45285039,-26.8668346 5.18009449,-26.9474646 4.90670866,-26.9543937 C4.38954331,-26.9399055 3.85977953,-26.6406929 3.54859843,-26.151874 C3.17631496,-25.567937 2.40151181,-25.3947087 1.81379528,-25.768252 C1.22922835,-26.1411654 1.05725984,-26.9178583 1.43017323,-27.5030551 C2.14387402,-28.6217953 3.32938583,-29.3367559 4.63899213,-29.4507717 C4.68497638,-31.6964409 6.52434646,-33.552189 8.77820472,-33.6057323 C9.16497638,-33.5975433 9.53977953,-33.5402205 9.89631496,-33.4381732 C10.567811,-34.8365984 11.9857638,-35.8268346 13.6222992,-35.8652598 C14.2950551,-35.8507717 14.928126,-35.6901417 15.4900157,-35.4066772 C16.2188346,-36.6136063 17.5297008,-37.440063 19.0226142,-37.4759685 C19.0975748,-37.4753386 19.1530079,-37.4734488 19.1989921,-37.4715591 C19.2386772,-37.4734488 19.2789921,-37.4753386 19.3193071,-37.4759685 C20.8512756,-37.440063 22.1753701,-36.6154961 22.9092283,-35.4104567 C23.4610394,-35.6914016 24.0771024,-35.8507717 24.7208819,-35.8652598 C26.3989921,-35.8268346 27.8282835,-34.8384882 28.504189,-33.4419528 C28.8474961,-33.5414803 29.2040315,-33.5975433 29.5649764,-33.6057323 C31.879937,-33.5515591 33.7205669,-31.6932913 33.7640315,-29.4457323 C35.9498583,-29.2309291 37.6367874,-27.400378 37.6367874,-25.224 C37.6367874,-24.8699843 37.5914331,-24.519748 37.5045039,-24.1814803 C39.023874,-23.5219528 40.0789921,-22.0164409 40.0789921,-20.2948661 C40.0789921,-19.5251024 39.8698583,-18.784315 39.4843465,-18.1399055 C40.1608819,-17.3783307 40.5501732,-16.3887244 40.5501732,-15.3392756 C40.5501732,-13.8847874 39.823874,-12.599748 38.696315,-11.8381732 C39.0011969,-11.2473071 39.1656063,-10.5858898 39.1656063,-9.90116535 C39.1656063,-8.19470866 38.1400945,-6.7055748 36.6591496,-6.03974803 C36.671748,-5.90683465 36.6786772,-5.77329134 36.6786772,-5.63911811 C36.6786772,-3.77959055 35.447811,-2.15880315 33.7180472,-1.60888189 C32.9980472,-0.305574803 31.6285984,0.549858268 30.1174173,0.58576378" id="Fill-36"></path>
                </g>
                <path d="M39.9773858,27.2594646 C39.4136063,27.2594646 38.9052598,26.8752126 38.759748,26.3139528 C38.7068346,26.2711181 38.616126,26.2074961 38.5462047,26.1577323 C37.9584882,25.7445039 36.9745512,25.0522205 36.4901417,23.0352126 C35.7449449,19.9410394 36.6167559,18.5898583 37.479748,18.0027717 C38.352189,17.4087559 39.5137638,17.4452913 40.439748,18.0928504 C41.0085669,18.4909606 41.1471496,19.2739528 40.7490394,19.8427717 C40.3515591,20.4103307 39.5698268,20.5489134 38.9991181,20.1514331 C38.9273071,20.1004094 38.863685,20.104189 38.8567559,20.0934803 C38.8051024,20.1589921 38.5373858,20.8059213 38.9323465,22.4474961 C39.1956535,23.5435591 39.5647874,23.8030866 39.9906142,24.1029291 C40.4038425,24.3926929 41.0274646,24.831748 41.2107717,25.7665512 C41.343685,26.4456063 40.9021102,27.0994646 40.223685,27.2355276 C40.1411654,27.2519055 40.0586457,27.2594646 39.9773858,27.2594646" id="Fill-39" fill="#0C1831"></path>
                <path d="M65.7887874,27.2594646 C65.7075276,27.2594646 65.6250079,27.2519055 65.5424882,27.2355276 C64.864063,27.0994646 64.4224882,26.4456063 64.5554016,25.7665512 C64.7387087,24.831748 65.3623307,24.3926929 65.7755591,24.1022992 C66.2020157,23.8024567 66.5705197,23.5435591 66.8344567,22.4474961 C67.2187087,20.8512756 66.9755591,20.1955276 66.8760315,20.0834016 C66.8779213,20.0966299 66.8268976,20.1085984 66.7670551,20.1514331 C66.1988661,20.5482835 65.4146142,20.4097008 65.0171339,19.8427717 C64.6196535,19.2739528 64.7576063,18.4909606 65.3264252,18.0928504 C66.2524094,17.4440315 67.4146142,17.408126 68.2864252,18.0027717 C69.1494173,18.5898583 70.0212283,19.9404094 69.2766614,23.0352126 C68.791622,25.0528504 67.808315,25.7445039 67.2205984,26.1577323 C67.1500472,26.2074961 67.0593386,26.2711181 67.0064252,26.3145827 C66.8609134,26.8752126 66.3531969,27.2594646 65.7887874,27.2594646" id="Fill-41" fill="#0C1831"></path>
                <path d="M52.8845984,41.3632126 C46.0102677,41.3632126 40.0612913,34.984 38.7384567,26.1953386 C38.6351496,25.5093543 39.1075906,24.8693543 39.7935748,24.7660472 C40.4833386,24.6627402 41.1195591,25.1351811 41.2222362,25.8211654 C42.3586142,33.3707717 47.2631811,38.8510866 52.8845984,38.8510866 C58.5060157,38.8510866 63.4099528,33.3707717 64.5463307,25.8211654 C64.6496378,25.1339213 65.2965669,24.6608504 65.9749921,24.7660472 C66.6609764,24.8693543 67.1334173,25.5093543 67.0301102,26.1953386 C65.7079055,34.984 59.7582992,41.3632126 52.8845984,41.3632126" id="Fill-43" fill="#0C1831"></path>
                <path d="M50.1176693,25.9258583 L47.1154646,25.9258583 C46.4219213,25.9258583 45.8594016,25.3633386 45.8594016,24.6697953 C45.8594016,23.975622 46.4219213,23.4137323 47.1154646,23.4137323 L50.1176693,23.4137323 C50.8118425,23.4137323 51.3737323,23.975622 51.3737323,24.6697953 C51.3737323,25.3633386 50.8118425,25.9258583 50.1176693,25.9258583" id="Fill-45" fill="#3C76A6"></path>
                <path d="M59.552315,25.9258583 L56.5507402,25.9258583 C55.8571969,25.9258583 55.2946772,25.3633386 55.2946772,24.6697953 C55.2946772,23.975622 55.8571969,23.4137323 56.5507402,23.4137323 L59.552315,23.4137323 C60.2464882,23.4137323 60.808378,23.975622 60.808378,24.6697953 C60.808378,25.3633386 60.2464882,25.9258583 59.552315,25.9258583" id="Fill-47" fill="#3C76A6"></path>
                <path d="M52.8840315,36.2173858 C51.4685984,36.2173858 50.0348976,35.6977008 48.7372598,34.7131339 C48.1848189,34.2942362 48.0764724,33.5062047 48.4953701,32.9531339 C48.9142677,32.4013228 49.7016693,32.2910866 50.2553701,32.711874 C51.9939528,34.0302992 53.7747402,34.0290394 55.5133228,32.711874 C56.0676535,32.2910866 56.8544252,32.4013228 57.2733228,32.9531339 C57.6922205,33.5062047 57.583874,34.2942362 57.0314331,34.7131339 C55.7337953,35.6977008 54.2994646,36.2173858 52.8840315,36.2173858" id="Fill-49" fill="#3C76A6"></path>
                <path d="M37.2590236,66.1552756 C36.5648504,66.1552756 36.0029606,65.5927559 36.0029606,64.8992126 L36.0029606,55.8548031 C36.0029606,55.1612598 36.5648504,54.5987402 37.2590236,54.5987402 C37.9531969,54.5987402 38.5150866,55.1612598 38.5150866,55.8548031 L38.5150866,64.8992126 C38.5150866,65.5927559 37.9531969,66.1552756 37.2590236,66.1552756" id="Fill-51" fill="#0C1831"></path>
                <path d="M68.9869606,65.6932913 C68.2927874,65.6932913 67.7308976,65.1307717 67.7308976,64.4372283 L67.7308976,55.8551811 C67.7308976,55.1610079 68.2927874,54.5991181 68.9869606,54.5991181 C69.6811339,54.5991181 70.2430236,55.1610079 70.2430236,55.8551811 L70.2430236,64.4372283 C70.2430236,65.1307717 69.6811339,65.6932913 68.9869606,65.6932913" id="Fill-53" fill="#0C1831"></path>
                <path d="M61.4107087,49.568189 C61.2148031,49.568189 61.0182677,49.5222047 60.8387402,49.4302362 L52.1193701,44.9666142 C51.5020472,44.6503937 51.2570079,43.8932283 51.5732283,43.2765354 C51.8900787,42.6585827 52.6472441,42.4141732 53.2633071,42.7303937 L60.3266142,46.3461417 L60.8740157,40.2856693 C60.9370079,39.5959055 61.5423622,39.0894488 62.2384252,39.1474016 C62.9294488,39.2103937 63.4390551,39.8207874 63.3766929,40.511811 L62.6617323,48.4255118 C62.6245669,48.8406299 62.3826772,49.2110236 62.0173228,49.4119685 C61.8283465,49.5159055 61.6198425,49.568189 61.4107087,49.568189" id="Fill-55" fill="#0C1831"></path>
                <path d="M44.1346142,49.568189 C43.9254803,49.568189 43.7169764,49.5159055 43.528,49.4119685 C43.1626457,49.2110236 42.9207559,48.8406299 42.8835906,48.4255118 L42.1692598,40.511811 C42.1068976,39.8201575 42.6165039,39.2103937 43.3068976,39.1474016 C44.008,39.088189 44.6095748,39.5959055 44.671937,40.2856693 L45.2187087,46.3461417 L52.2826457,42.7303937 C52.8987087,42.4154331 53.655874,42.6592126 53.9727244,43.2765354 C54.2889449,43.8932283 54.0439055,44.6503937 53.4265827,44.9666142 L44.7065827,49.4302362 C44.5270551,49.5222047 44.3305197,49.568189 44.1346142,49.568189" id="Fill-57" fill="#0C1831"></path>
                <path d="M52.2842205,74.4759055 C43.0898898,74.4759055 34.2029606,71.7722835 26.5821732,66.6573228 C26.0064252,66.2711811 25.8527244,65.4900787 26.2394961,64.9143307 C26.6262677,64.3385827 27.4067402,64.183622 27.9824882,64.5716535 C35.1868976,69.4075591 43.5906772,71.9637795 52.2842205,71.9637795 C60.4032756,71.9637795 68.3339843,69.7124409 75.2202835,65.4516535 C75.8092598,65.0875591 76.584063,65.2683465 76.9494173,65.8592126 C77.3141417,66.4494488 77.1314646,67.2229921 76.5418583,67.5883465 C69.2587087,72.0941732 60.8706772,74.4759055 52.2842205,74.4759055" id="Fill-59" fill="#3C76A6"></path>
                <path d="M79.8889449,64.3991181 C79.8889449,65.0706142 79.3446929,65.6148661 78.6731969,65.6148661 C78.0017008,65.6148661 77.4574488,65.0706142 77.4574488,64.3991181 C77.4574488,63.727622 78.0017008,63.1833701 78.6731969,63.1833701 C79.3446929,63.1833701 79.8889449,63.727622 79.8889449,64.3991181" id="Fill-61" fill="#3C76A6"></path>
                <path d="M95.1084094,20.407874 C94.8539213,20.407874 94.5969134,20.3303937 94.3739213,20.1697638 C93.7880945,19.7464567 93.3206929,19.2255118 92.9855748,18.6207874 C92.3405354,17.4592126 92.3241575,16.2592126 92.496126,15.2985827 C92.064,15.2204724 91.6047874,15.0749606 91.1399055,14.8292913 C90.4331339,14.4538583 89.920378,13.9530709 89.5468346,13.4302362 C89.0523465,13.8195276 88.4652598,14.096063 87.824,14.2188976 C86.5112441,14.4683465 85.1852598,14.0412598 84.2536063,13.1392126 C83.464315,13.5411024 82.3323465,13.8844094 81.0006929,13.6066142 C80.5786457,13.5190551 80.2013228,13.3823622 79.8680945,13.2185827 C79.5581732,13.8888189 79.0693543,14.5470866 78.3228976,15.0365354 C77.7988031,15.3792126 77.2633701,15.5650394 76.7751811,15.6582677 C76.7858898,16.3467717 76.6674646,17.1631496 76.2542362,17.9984252 C75.6740787,19.1719685 74.7890394,19.847874 74.1484094,20.2088189 C73.5449449,20.5483465 72.7777008,20.3348031 72.4375433,19.7294488 C72.0973858,19.1247244 72.312189,18.3587402 72.9162835,18.0185827 C73.1884094,17.8661417 73.6910866,17.5152756 74.0016378,16.8853543 C74.4337638,16.0116535 74.2309291,15.1581102 74.1238425,14.831811 C73.9877795,14.4129134 74.0791181,13.9537008 74.3669921,13.6204724 C74.6542362,13.2866142 75.0945512,13.1303937 75.5304567,13.2028346 C75.7691969,13.2444094 76.3890394,13.2992126 76.9471496,12.9338583 C77.8611654,12.336063 77.824,11.0579528 77.824,11.0453543 C77.8032126,10.4992126 78.1389606,9.99464567 78.6536063,9.80944882 C79.167622,9.62299213 79.7427402,9.78614173 80.0759685,10.2207874 C80.2473071,10.4450394 80.7317165,10.984252 81.5134488,11.1474016 C82.6863622,11.3949606 83.6060472,10.5987402 83.7074646,10.5074016 C84.000378,10.2440945 84.4041575,10.1332283 84.7871496,10.2069291 C85.1745512,10.2818898 85.5046299,10.5338583 85.6778583,10.8885039 C85.9884094,11.5247244 86.6775433,11.88 87.352189,11.7508661 C87.9808504,11.6305512 88.4728189,11.1108661 88.576126,10.4582677 C88.6762835,9.82771654 89.2463622,9.38866142 89.8712441,9.4 C90.5087244,9.42771654 91.0252598,9.92913386 91.0699843,10.5666142 C91.0712441,10.5798425 91.1940787,12.0135433 92.3172283,12.6094488 C92.9887244,12.9659843 93.6847874,12.8614173 93.9543937,12.7990551 C94.4337638,12.688189 94.9326614,12.8677165 95.231874,13.2576378 C95.5317165,13.6475591 95.5764409,14.1754331 95.3465197,14.6107087 C95.3125039,14.6749606 94.5181732,16.2050394 95.1821102,17.4025197 C95.3377008,17.6822047 95.5606929,17.9285039 95.8454173,18.1338583 C96.407937,18.5395276 96.5345512,19.3244094 96.127622,19.8875591 C95.8825827,20.2270866 95.4983307,20.407874 95.1084094,20.407874" id="Fill-63" fill="#0C1831"></path>
                <path d="M27.0609134,59.7853228 C27.0331969,59.7853228 27.0054803,59.7846929 26.9777638,59.7828031 C26.2861102,59.7374488 25.7613858,59.1396535 25.8061102,58.4473701 C26.4372913,48.776189 33.5415433,40.8473701 43.0829606,39.1673701 L43.2215433,39.144063 C43.2839055,39.1314646 43.343748,39.120126 43.3991811,39.1125669 C44.0788661,39.0168189 44.7226457,39.488 44.8228031,40.1752441 C44.9223307,40.8618583 44.4467402,41.4993386 43.760126,41.5988661 C43.6209134,41.6253228 43.5396535,41.639811 43.4577638,41.6505197 C35.1207559,43.120126 28.8681575,50.0983937 28.3131969,58.6111496 C28.2697323,59.2750866 27.7172913,59.7853228 27.0609134,59.7853228" id="Fill-65" fill="#0C1831"></path>
                <path d="M52.7000945,69.279685 L52.6119055,69.279685 C42.9230866,69.279685 33.5567874,65.7993701 26.2383622,59.4793701 C25.7136378,59.0264567 25.6550551,58.2333858 26.1092283,57.7080315 C26.5627717,57.183937 27.3564724,57.1247244 27.8811969,57.5788976 C34.7429291,63.503937 43.5259213,66.7675591 52.6119055,66.7675591 L52.6969449,66.7675591 C61.6619843,66.7448819 70.2982047,63.5631496 77.0849764,57.7949606 C76.1898583,49.6815748 70.0783622,43.0982677 62.0141102,41.6532283 C61.9492283,41.6469291 61.8830866,41.6368504 61.8295433,41.623622 C61.7822992,41.6116535 61.7407244,41.607874 61.6934803,41.6015748 C61.0056063,41.5146457 60.5180472,40.8859843 60.6049764,40.1981102 C60.6925354,39.5089764 61.3256063,39.0270866 62.0084409,39.1089764 C62.1136378,39.1228346 62.2093858,39.1366929 62.3089134,39.1574803 C62.336,39.1593701 62.3624567,39.1625197 62.3845039,39.1669291 C71.8169449,40.824252 78.9155276,48.6611024 79.648126,58.2264567 C79.6783622,58.6201575 79.5215118,59.0050394 79.2254488,59.2651969 C71.9108031,65.6985827 62.4909606,69.2551181 52.7000945,69.279685" id="Fill-67" fill="#0C1831"></path>
            </g>
        </g>
    </g>
</svg>