<?xml version="1.0" encoding="UTF-8"?>
<svg width="66px" height="54px" viewBox="0 0 66 54" version="1.1" xmlns="http://www.w3.org/2000/svg" xmlns:xlink="http://www.w3.org/1999/xlink">
    <!-- Generator: Sketch 55.2 (78181) - https://sketchapp.com -->
    <title>Group 18</title>
    <desc>Created with Sketch.</desc>
    <defs>
        <polygon id="path-1" points="0.00011 -0.000110416667 65.8651666 -0.000110416667 65.8651666 52.7513969 0.00011 52.7513969"></polygon>
    </defs>
    <g id="Page-1" stroke="none" stroke-width="1" fill="none" fill-rule="evenodd">
        <g id="Browse-charities-V2" transform="translate(-832.000000, -1156.000000)">
            <g id="Group-18" transform="translate(832.000000, 1156.500000)">
                <g id="Group-3">
                    <mask id="mask-2" fill="white">
                        <use xlink:href="#path-1"></use>
                    </mask>
                    <g id="Clip-2"></g>
                    <path d="M41.58891,32.672126 C41.01196,32.672126 40.54391,33.141949 40.54391,33.7210844 C40.54391,34.3007719 41.01196,34.7705948 41.58891,34.7705948 L42.32756,34.7705948 C42.90451,34.7705948 43.37256,34.3007719 43.37256,33.7210844 C43.37256,33.141949 42.90451,32.672126 42.32756,32.672126 L41.58891,32.672126 Z M50.13096,28.8047823 C50.03856,29.100699 49.93956,29.3944073 49.83396,29.6848031 C49.63706,30.2291573 49.91756,30.8309281 50.45986,31.028574 C51.00766,31.227324 51.60331,30.9407927 51.79856,30.4008552 C51.91406,30.081199 52.02351,29.7587823 52.12526,29.432501 C52.53886,28.1086052 50.54401,27.4825427 50.13096,28.8047823 L50.13096,28.8047823 Z M57.78421,4.18462604 C54.50456,3.88539688 52.89801,5.75530313 50.15846,8.04976146 C49.77071,8.37438646 49.20751,8.37438646 48.81921,8.04976146 L46.00596,5.69346979 C43.21361,3.35374063 39.06056,3.72805313 36.72801,6.53374063 C34.40151,9.33390729 34.77716,13.5115219 37.56566,15.8468344 L49.48911,25.8334698 L61.41201,15.8468344 C65.91761,12.0733448 63.58946,4.71186563 57.78421,4.18462604 L57.78421,4.18462604 Z M28.11941,11.074626 L28.11941,3.29190729 C26.44081,4.81013646 23.78981,7.50651146 21.60301,11.074626 L28.11941,11.074626 Z M28.11941,13.1730948 L20.43096,13.1730948 C19.05706,15.8926573 18.04396,19.0119281 17.88171,22.4265635 L28.11941,22.4265635 L28.11941,13.1730948 Z M28.11941,24.5250323 L17.89986,24.5250323 C18.05221,27.258949 18.75401,29.9779594 20.00251,32.672126 L28.11941,32.672126 L28.11941,24.5250323 Z M28.11941,34.7705948 L21.08601,34.7705948 C22.77451,37.7247927 25.11586,40.6464177 28.11941,43.5222198 L28.11941,34.7705948 Z M26.29066,44.6534385 C22.98516,41.423751 20.44141,38.1250531 18.69186,34.7705948 L11.09416,34.7705948 C14.37766,40.0446469 19.88536,43.782251 26.29066,44.6534385 L26.29066,44.6534385 Z M15.79006,22.3879177 C15.94131,18.998126 16.83671,15.9059073 18.08466,13.1730948 L10.51116,13.1730948 C8.98656,15.9423448 8.05541,19.084251 7.89371,22.4265635 L15.79006,22.4265635 C15.79006,22.4138656 15.78951,22.4011677 15.79006,22.3879177 L15.79006,22.3879177 Z M9.94191,32.672126 L17.71506,32.672126 C16.58206,29.9862406 15.94461,27.2677823 15.80821,24.5250323 L7.89371,24.5250323 C8.03451,27.4295427 8.75501,30.1827823 9.94191,32.672126 L9.94191,32.672126 Z M11.83336,11.074626 L19.14726,11.074626 C21.31426,7.18023021 24.07581,4.18241771 26.04866,2.32962604 C20.20326,3.19308437 15.12621,6.45148021 11.83336,11.074626 L11.83336,11.074626 Z M62.75126,17.4578135 C49.14701,28.8528135 50.03911,28.2488344 49.48911,28.2488344 C49.25096,28.2488344 49.01336,28.1676781 48.81921,28.0053656 L36.22641,17.4578135 C31.84786,13.790324 32.09866,6.85118854 36.91886,3.56132396 C34.77441,2.71774063 32.52656,2.23687604 30.20941,2.12590729 L30.20941,11.074626 L31.35121,11.074626 C32.73226,11.074626 32.73336,13.1730948 31.35121,13.1730948 L30.20941,13.1730948 L30.20941,22.4265635 L34.15346,22.4265635 C34.73041,22.4265635 35.19846,22.8963865 35.19846,23.476074 C35.19846,24.0557615 34.73041,24.5250323 34.15346,24.5250323 L30.20941,24.5250323 L30.20941,32.672126 L38.98356,32.672126 C39.56051,32.672126 40.02856,33.141949 40.02856,33.7210844 C40.02856,34.3007719 39.56051,34.7705948 38.98356,34.7705948 L30.20941,34.7705948 L30.20941,44.8146469 C38.27241,44.4188031 45.45816,39.4837302 48.70371,31.995824 C49.25316,30.724376 51.17156,31.5602302 50.61991,32.8327823 C46.90246,41.4093969 38.48086,46.9517615 29.16496,46.9517615 L29.16441,46.9517615 L29.16441,46.9517615 C20.16586,46.9517615 12.34321,41.820699 8.43381,34.3228552 C8.38211,34.248876 8.34141,34.1671677 8.31006,34.0804906 C6.69416,30.8927615 5.77731,27.2909698 5.77731,23.476074 C5.77731,19.1990844 6.92846,15.188751 8.92771,11.7316052 C8.96181,11.6465844 9.00801,11.5687406 9.06246,11.4964177 C13.14511,4.61911563 20.62621,-0.000165625 29.16441,-0.000165625 C34.27776,-0.000165625 38.83451,1.86753229 39.31246,2.41961563 C44.36256,0.923469792 47.36996,4.10346979 49.48911,5.87841771 C51.81066,3.93342813 53.89736,1.72509479 57.97231,2.09554271 C60.28011,2.30478229 62.36956,3.40342813 63.85456,5.19052188 C66.91971,8.87733438 66.42416,14.3810531 62.75126,17.4578135 L62.75126,17.4578135 Z" id="Fill-1" fill="#0C1831" mask="url(#mask-2)"></path>
                </g>
                <path d="M46.14951,44.6412927 C45.67376,45.0260948 45.18206,45.3976469 44.68816,45.7449073 C44.21516,46.0772615 44.10076,46.7314802 44.43186,47.2057198 C44.63536,47.4977719 44.95931,47.6534594 45.28876,47.6534594 C45.49556,47.6534594 45.70456,47.591626 45.88716,47.4635427 C46.41956,47.0886781 46.94921,46.6889698 47.46181,46.2738031 C47.91116,45.9105323 47.98156,45.2496885 47.61911,44.7991885 C47.25721,44.3470323 46.59886,44.2763656 46.14951,44.6412927 L46.14951,44.6412927 Z" id="Path" fill="#3C76A6"></path>
                <path d="M40.82606,48.0101052 C37.17131,49.764074 33.24761,50.6529281 29.16441,50.6529281 C19.40631,50.6529281 10.36376,45.3479594 5.56501,36.8066781 C3.29186,32.7604594 2.09011,28.1511156 2.09011,23.476074 C2.09011,22.8963865 1.62206,22.4265635 1.04511,22.4265635 C0.46761,22.4265635 0.000110000006,22.8963865 0.000110000006,23.476074 C0.000110000006,28.511074 1.29481,33.4770635 3.74451,37.8374177 C8.91341,47.0367823 18.65391,52.7513969 29.16441,52.7513969 C33.56221,52.7513969 37.78896,51.7929802 41.72696,49.9026469 C42.24781,49.6531052 42.46836,49.0264906 42.21921,48.5042198 C41.97061,47.9813969 41.34636,47.7589073 40.82606,48.0101052 L40.82606,48.0101052 Z" id="Path" fill="#3C76A6"></path>
            </g>
        </g>
    </g>
</svg>