<?xml version="1.0" encoding="UTF-8"?>
<svg width="67px" height="78px" viewBox="0 0 67 78" version="1.1" xmlns="http://www.w3.org/2000/svg" xmlns:xlink="http://www.w3.org/1999/xlink">
    <!-- Generator: Sketch 55.2 (78181) - https://sketchapp.com -->
    <title>Group 31</title>
    <desc>Created with Sketch.</desc>
    <defs>
        <polygon id="path-1" points="0.900236844 0.95798785 3.539 0.95798785 3.539 4.6108024 0.900236844 4.6108024"></polygon>
        <polygon id="path-3" points="0 0.00029 28.702228 0.00029 28.702228 14.348214 0 14.348214"></polygon>
    </defs>
    <g id="Page-1" stroke="none" stroke-width="1" fill="none" fill-rule="evenodd">
        <g id="Browse-charities-V2" transform="translate(-542.000000, -1351.000000)">
            <g id="Group-31" transform="translate(542.000000, 1351.000000)">
                <path d="M54.0973,29.2378603 L52.7773,29.9689547 C52.6103,30.0600912 52.4313,30.1041571 52.2543,30.1041571 C51.8693,30.1041571 51.4983,29.8998513 51.2993,29.5373085 C51.0093,29.0065139 51.2023,28.3405169 51.7283,28.0490807 L53.0483,27.3179862 C53.5763,27.0285529 54.2363,27.2208408 54.5263,27.7506339 C54.8163,28.280427 54.6233,28.946424 54.0973,29.2378603" id="Fill-1" fill="#0C1831"></path>
                <g id="Group-5" transform="translate(63.000000, 46.616676)">
                    <mask id="mask-2" fill="white">
                        <use xlink:href="#path-1"></use>
                    </mask>
                    <g id="Clip-4"></g>
                    <path d="M3.4877,2.38547106 L3.0257,3.84665847 C2.8787,4.31335712 2.4497,4.6108024 1.9887,4.6108024 C1.8797,4.6108024 1.7687,4.59277541 1.6587,4.55872444 C1.0857,4.37444858 0.7697,3.75952804 0.9517,3.18266447 L1.4137,1.72147706 C1.5957,1.14461349 2.2077,0.827138231 2.7807,1.00941109 C3.3527,1.19368696 3.6697,1.8086075 3.4877,2.38547106" id="Fill-3" fill="#3C76A6" mask="url(#mask-2)"></path>
                </g>
                <path d="M64.8643,54.2237643 C55.7423,75.2201961 35.6783,77.6348108 35.4763,77.6558423 C35.4363,77.6608498 35.3973,77.6628528 35.3583,77.6628528 C34.8093,77.6628528 34.3373,77.2462291 34.2783,76.6853895 C34.2123,76.08449 34.6443,75.5446819 35.2413,75.4795844 C35.4303,75.4585529 54.2683,73.1460912 62.8693,53.3454495 C63.1113,52.7916204 63.7503,52.5382411 64.3033,52.7806039 C64.8533,53.0239682 65.1053,53.6689337 64.8643,54.2237643" id="Fill-6" fill="#3C76A6"></path>
                <path d="M56.96,36.4325307 C56.56,36.774042 56.459,37.3549115 56.721,37.8135982 C56.769,37.8967226 61.404,46.2962969 53.236,56.5536522 C45.308,66.5105577 40.601,68.6026897 30.478,69.8345337 C20.322,71.0713853 8.51,68.1470075 3.359,59.1194933 C8.805,61.3598471 20.832,64.6397571 27.459,53.6062399 C38.914,55.3728846 45.986,51.1876192 49.398,48.2392054 C49.855,47.8446147 49.907,47.1535802 49.515,46.6948936 C49.123,46.2352054 48.437,46.1831274 47.981,46.5767166 C44.905,49.2356972 38.55,52.9782999 28.162,51.492075 C31.869,50.6297841 36.965,49.0654423 41.034,46.4004528 C41.537,46.0689565 41.68,45.391943 41.352,44.8851844 C41.025,44.3774243 40.35,44.2352114 39.847,44.5637031 C33.152,48.9502699 23.032,50.2271814 22.93,50.2391994 C22.845,50.2502159 22.765,50.2722489 22.688,50.3002909 C22.58,50.2692444 22.476,50.2422039 22.367,50.2101559 C19.421,49.3368486 16.795,47.8456162 14.487,46.0509295 C18.791,45.8586417 27.051,44.9993553 34.572,41.4049745 C35.115,41.1455862 35.346,40.4926087 35.089,39.9457901 C34.831,39.399973 34.181,39.1696282 33.639,39.426012 C24.642,43.7254483 14.194,43.9187376 12.008,43.9087226 C10.36,42.3313613 8.915,40.6348216 7.676,38.9783418 C9.046,39.1646207 10.9,39.3278651 13.197,39.3278651 C15.825,39.3278651 19.031,39.1135442 22.741,38.4745877 C23.333,38.3724348 23.731,37.8055862 23.63,37.2096942 C23.528,36.6138021 22.966,36.2111994 22.374,36.3153553 C13.374,37.8666777 7.437,36.7850585 5.905,36.4385397 C4.531,34.3293823 3.524,32.4395532 2.893,31.1536282 C5.656,31.389982 11.213,31.5201769 19.311,30.110066 C30.62,28.1431214 43.507,31.8176222 43.636,31.8536762 C44.132,31.9988936 44.66,31.7715532 44.901,31.3118651 C46.606,28.049982 52.415,24.8401769 56.404,24.9603568 C58.121,25.0104318 59.278,25.6684168 59.841,26.9162849 C62.102,31.9247826 57.17,36.2522609 56.96,36.4325307 M65.828,23.6614123 C65.534,23.3038771 65.049,23.1716792 64.617,23.329916 L60.961,24.6669175 C59.923,23.4891544 58.376,22.8261619 56.467,22.7710795 C56.381,22.768075 56.295,22.7670735 56.208,22.7670735 C51.788,22.7670735 45.844,25.9618561 43.432,29.5301979 C40.358,28.73 29.221,26.1641589 18.94,27.9528366 C7.618,29.9227856 1.356,28.7650525 1.296,28.7530345 C0.901,28.6749175 0.502,28.8221379 0.249,29.1316012 C-0.005,29.4410645 -0.07,29.8657001 0.079,30.2382579 C0.37,30.9633433 7.366,48.047919 21.753,52.3102999 C22.922,52.6578201 24.053,52.9452504 25.148,53.1796012 C17.39,64.791985 2.286,56.2692264 1.63,55.8896582 C1.231,55.6603148 0.732,55.7063838 0.382,56.0068336 C0.032,56.3082849 -0.092,56.7970165 0.071,57.2296642 C4.096,67.8796072 15.324,72.2932144 26.043,72.2922131 C27.627,72.2922131 29.201,72.196069 30.738,72.0087886 C41.346,70.7188576 46.596,68.3973823 54.934,57.9237031 C62.629,48.2582339 60.086,40.0389295 58.991,37.5101439 C60.098,36.3764468 62.3,33.7254783 62.588,30.3524288 C62.704,30.2683028 62.81,30.1671514 62.887,30.035955 L65.923,24.9212984 C66.159,24.5227016 66.121,24.0189475 65.828,23.6614123" id="Fill-8" fill="#0C1831"></path>
                <g id="Group-3" transform="translate(13.000000, 0.000000)">
                    <mask id="mask-4" fill="white">
                        <use xlink:href="#path-3"></use>
                    </mask>
                    <g id="Clip-2"></g>
                    <path d="M2.460128,12.14375 C3.296488,9.27333 5.517888,7.29959 8.083228,7.29959 C8.756608,7.29959 9.432308,7.44517 10.089448,7.73401 C10.635228,7.97239 11.273228,7.73459 11.528428,7.19519 C12.982488,4.11655 15.631928,2.20429 18.443768,2.20429 C22.820448,2.20429 26.393828,6.64071 26.495328,12.14375 L2.460128,12.14375 Z M18.443768,0.00029 C15.061788,0.00029 11.900208,2.03145 9.998388,5.36413 C9.368508,5.18491 8.727608,5.09501 8.083228,5.09501 C4.047008,5.09501 0.652268,8.45959 0.010208,13.09495 C-0.033292,13.41047 0.061248,13.72947 0.271208,13.96959 C0.480008,14.21029 0.782768,14.34833 1.101768,14.34833 L27.564848,14.34833 C28.147168,14.34833 28.629148,13.89535 28.665108,13.31419 C28.683668,13.00679 28.702228,12.69997 28.702228,12.38735 C28.702228,5.55727 24.100508,0.00029 18.443768,0.00029 L18.443768,0.00029 Z" id="Fill-1" fill="#0C1831" mask="url(#mask-4)"></path>
                </g>
            </g>
        </g>
    </g>
</svg>