<?xml version="1.0" encoding="UTF-8"?>
<svg width="62px" height="69px" viewBox="0 0 62 69" version="1.1" xmlns="http://www.w3.org/2000/svg" xmlns:xlink="http://www.w3.org/1999/xlink">
    <!-- Generator: Sketch 55.2 (78181) - https://sketchapp.com -->
    <title>Group 17</title>
    <desc>Created with Sketch.</desc>
    <defs>
        <polygon id="path-1" points="0.000248503962 1.00629175 61.8752485 1.00629175 61.8752485 46.3812917 0.000248503962 46.3812917"></polygon>
        <polygon id="path-3" points="0 1.00693252 62.90625 1.00693252 62.90625 43.2881825 0 43.2881825"></polygon>
    </defs>
    <g id="Page-1" stroke="none" stroke-width="1" fill="none" fill-rule="evenodd">
        <g id="Browse-charities-V2" transform="translate(-1121.000000, -1355.000000)">
            <g id="Group-17" transform="translate(1121.000000, 1357.000000)">
                <path d="M31.1811233,65.6796117 C27.752968,65.6796117 24.7861718,62.1790485 22.6004825,55.5566214 C20.5922883,49.4698835 19.4863078,41.4025049 19.4863078,32.8398058 C19.4863078,24.2777476 20.5922883,16.2097282 22.6004825,10.1236311 C24.7861718,3.50056311 27.752968,0 31.1811233,0 C34.6092786,0 37.575434,3.50056311 39.7604825,10.1236311 C41.7686767,16.2097282 42.8746573,24.2777476 42.8746573,32.8398058 C42.8746573,41.4025049 41.7686767,49.4698835 39.7604825,55.5566214 C37.575434,62.1790485 34.6092786,65.6796117 31.1811233,65.6796117" id="Fill-1" stroke="#0C1831" stroke-width="2.2"></path>
                <g id="Group-5" transform="translate(0.000000, 10.042172)">
                    <mask id="mask-2" fill="white">
                        <use xlink:href="#path-1"></use>
                    </mask>
                    <g id="Clip-4"></g>
                    <path d="M52.3471311,42.2562917 C45.6542184,42.2562917 35.3031117,38.6807578 25.333267,32.9240199 C17.918199,28.6436316 11.484801,23.6526218 7.21786893,18.8698646 C2.57480097,13.666117 1.02732524,9.34600049 2.74140291,6.37792282 C3.54109223,4.99192282 5.45252913,3.33935971 10.0148592,3.33935971 C16.7084126,3.33935971 27.0595194,6.91489369 37.0280825,12.67035 C44.4437913,16.9507383 50.8778301,21.9423888 55.1447621,26.7257869 C59.7878301,31.9295345 61.3353058,36.2490102 59.6218689,39.2177286 C58.8208981,40.6037286 56.9094612,42.2562917 52.3471311,42.2562917" id="Fill-3" stroke="#0C1831" stroke-width="2.2" mask="url(#mask-2)"></path>
                </g>
                <g id="Group-8" transform="translate(0.000000, 10.042172)">
                    <mask id="mask-4" fill="white">
                        <use xlink:href="#path-3"></use>
                    </mask>
                    <g id="Clip-7"></g>
                    <path d="M10.0148592,42.2569325 L10.0142184,42.2569325 C5.45188835,42.2569325 3.54109223,40.6037286 2.74076214,39.2170879 C1.02732524,36.249651 2.57480097,31.9301752 7.21786893,26.7264277 C11.4841602,21.9436704 17.918199,16.9520199 25.333267,12.67035 C35.3031117,6.91489369 45.6542184,3.33935971 52.3471311,3.33935971 C56.9094612,3.33935971 58.8208981,4.99192282 59.6212282,6.37728204 C61.3353058,9.34664126 59.7878301,13.666117 55.1447621,18.8698646 C50.8771893,23.6526218 44.4437913,28.6436316 37.0280825,32.9240199 C27.0588786,38.6807578 16.7077718,42.2569325 10.0148592,42.2569325" id="Fill-6" stroke="#0C1831" stroke-width="2.2" mask="url(#mask-4)"></path>
                </g>
                <path d="M59.5348515,39.407767 C59.5348515,41.5306602 57.8137252,43.2524272 55.6901913,43.2524272 C53.5666573,43.2524272 51.8455311,41.5306602 51.8455311,39.407767 C51.8455311,37.2848738 53.5666573,35.5631068 55.6901913,35.5631068 C57.8137252,35.5631068 59.5348515,37.2848738 59.5348515,39.407767" id="Fill-9" stroke="#0C1831" stroke-width="2" fill="#A5D6FE"></path>
                <path d="M28.4571816,8.97087379 C28.4571816,11.0944078 26.7360553,12.815534 24.6125214,12.815534 C22.4889874,12.815534 20.7678612,11.0944078 20.7678612,8.97087379 C20.7678612,6.84862136 22.4889874,5.12621359 24.6125214,5.12621359 C26.7360553,5.12621359 28.4571816,6.84862136 28.4571816,8.97087379" id="Fill-11" stroke="#0C1831" stroke-width="2" fill="#A5D6FE"></path>
                <path d="M15.9620359,50.9417476 C15.9620359,53.0646408 14.2409097,54.7864078 12.1173757,54.7864078 C9.99384175,54.7864078 8.27271553,53.0646408 8.27271553,50.9417476 C8.27271553,48.8188544 9.99384175,47.0970874 12.1173757,47.0970874 C14.2409097,47.0970874 15.9620359,48.8188544 15.9620359,50.9417476" id="Fill-13" stroke="#0C1831" stroke-width="2" fill="#A5D6FE"></path>
                <path d="M31.4451874,29.4757282 C29.5901388,29.4757282 28.0804689,30.9847573 28.0804689,32.8398058 C28.0804689,34.6948544 29.5901388,36.2038835 31.4451874,36.2038835 C33.3002359,36.2038835 34.8086243,34.6948544 34.8086243,32.8398058 C34.8086243,30.9847573 33.3002359,29.4757282 31.4451874,29.4757282 M31.4451874,38.7669903 C28.1765854,38.7669903 25.5173621,36.1084078 25.5173621,32.8398058 C25.5173621,29.5712039 28.1765854,26.9126214 31.4451874,26.9126214 C34.7131485,26.9126214 37.3717311,29.5712039 37.3717311,32.8398058 C37.3717311,36.1084078 34.7131485,38.7669903 31.4451874,38.7669903" id="Fill-15" fill="#0C1831"></path>
            </g>
        </g>
    </g>
</svg>