<?xml version="1.0" encoding="UTF-8"?>
<svg width="80px" height="80px" viewBox="0 0 80 80" version="1.1" xmlns="http://www.w3.org/2000/svg" xmlns:xlink="http://www.w3.org/1999/xlink">
    <!-- Generator: Sketch 55.2 (78181) - https://sketchapp.com -->
    <title>Group 12</title>
    <desc>Created with Sketch.</desc>
    <g id="Page-1" stroke="none" stroke-width="1" fill="none" fill-rule="evenodd">
        <g id="Browse-charities-V2" transform="translate(-538.000000, -1561.000000)">
            <g id="Group-12" transform="translate(538.000000, 1561.000000)">
                <path d="M76.899845,59.9162791 C76.899845,53.2192248 71.4511628,47.7705426 64.7534884,47.7705426 C63.0716279,47.7705426 61.4691473,48.1153488 60.0111628,48.736124 L65.3804651,59.3996899 C65.6657364,59.9665116 65.4375194,60.6573643 64.8713178,60.9426357 C64.7051163,61.0251163 64.5289922,61.0654264 64.3553488,61.0654264 C63.9355039,61.0654264 63.5305426,60.8341085 63.3283721,60.4328682 L57.9913178,49.8331783 C54.7472868,52.016124 52.6077519,55.7209302 52.6077519,59.9162791 C52.6077519,66.6133333 58.0564341,72.0620155 64.7534884,72.0620155 C71.4511628,72.0620155 76.899845,66.6133333 76.899845,59.9162791 L76.899845,59.9162791 Z M53.7258915,36.2530233 L54.1717829,37.1386047 C59.0325581,36.5351938 60.3906977,33.1553488 60.7231008,31.9466667 L60.1116279,31.1423256 C58.4396899,34.4062016 55.5324031,35.7289922 53.7258915,36.2530233 L53.7258915,36.2530233 Z M50.6883721,40.9023256 L30.5382946,41.3184496 L28.259845,44.4955039 L35.939845,58.4415504 L50.6883721,40.9023256 Z M28.0930233,62.0155039 L15.0573643,62.0155039 C14.5922481,62.0155039 14.1668217,61.7550388 13.9541085,61.3413953 C13.7413953,60.9277519 13.7786047,60.4297674 14.0496124,60.052093 L21.8362791,49.1956589 C20.1364341,48.2889922 18.1990698,47.7705426 16.1413953,47.7705426 C9.44496124,47.7705426 3.99565891,53.2192248 3.99565891,59.9162791 C3.99565891,66.6133333 9.44496124,72.0620155 16.1413953,72.0620155 C22.1215504,72.0620155 27.0939535,67.7134884 28.0930233,62.0155039 L28.0930233,62.0155039 Z M23.8970543,50.5786047 L17.4734884,59.5348837 L28.267907,59.5348837 C28.1556589,55.939845 26.4849612,52.7317829 23.8970543,50.5786047 L23.8970543,50.5786047 Z M25.2378295,48.7094574 C28.4043411,51.2843411 30.460155,55.1714729 30.5742636,59.5348837 L33.9193798,59.5348837 L26.7764341,46.5637209 L25.2378295,48.7094574 Z M18.3665116,34.0632558 L32.4527132,34.0632558 L32.4527132,33.0765891 C32.4527132,32.8905426 32.3075969,32.7348837 32.1221705,32.7224806 L21.1231008,31.9584496 C20.3882171,31.9088372 19.6886822,32.1562791 19.1510078,32.6573643 C18.7410853,33.04 18.4713178,33.5268217 18.3665116,34.0632558 L18.3665116,34.0632558 Z M65.6117829,74.3311628 C65.412093,74.7485271 64.9897674,75.0387597 64.496124,75.0387597 L26.6666667,75.0387597 C25.9820155,75.0387597 25.4263566,74.4831008 25.4263566,73.7984496 C25.4263566,73.1131783 25.9820155,72.5581395 26.6666667,72.5581395 L57.779845,72.5581395 C53.3314729,70.0942636 50.3113178,65.351938 50.3113178,59.9162791 C50.3113178,54.8254264 52.9618605,50.344186 56.9531783,47.7717829 L53.6576744,41.2254264 L36.5469767,61.5733333 C36.3113178,61.8536434 35.964031,62.0155039 35.5975194,62.0155039 L30.4291473,62.0155039 C29.4096124,68.9872868 23.3916279,74.3584496 16.1413953,74.3584496 C8.1779845,74.3584496 1.69922481,67.8796899 1.69922481,59.9162791 C1.69922481,51.9528682 8.1779845,45.4741085 16.1413953,45.4741085 C18.6976744,45.4741085 21.0995349,46.1444961 23.1851163,47.3147287 L25.4505426,44.1556589 L21.1572093,36.3596899 L17.1689922,36.3596899 C16.5345736,36.3596899 16.0204651,35.8455814 16.0204651,35.2111628 L16.0204651,34.5755039 C16.0204651,33.216124 16.5903876,31.9051163 17.5844961,30.9779845 C18.5779845,30.0508527 19.9293023,29.5733333 21.2812403,29.6669767 L32.2809302,30.4303876 C33.6651163,30.5265116 34.7491473,31.6886822 34.7491473,33.0765891 L34.7491473,35.2111628 C34.7491473,35.8455814 34.2350388,36.3596899 33.6012403,36.3596899 L23.779845,36.3596899 L26.9339535,42.088062 L28.8843411,39.368062 C29.111938,39.0511628 29.475969,38.8595349 29.8666667,38.8508527 L52.2294574,38.3888372 L51.004031,35.955969 C50.8341085,35.6167442 50.8409302,35.2155039 51.0251163,34.8831008 C51.2086822,34.5513178 51.544186,34.3311628 51.9224806,34.295814 C52.1333333,34.2741085 57.2167442,33.6973643 58.6846512,28.5085271 C58.8031008,28.0893023 59.1485271,27.7730233 59.575814,27.6924031 C60.0043411,27.6111628 60.4403101,27.779845 60.7044961,28.1265116 L62.8725581,30.9779845 C63.0567442,31.2210853 63.1373643,31.5274419 63.095814,31.8294574 C62.7937984,34.0285271 60.7621705,38.256124 55.2564341,39.2930233 L58.9773643,46.6834109 C60.747907,45.9075969 62.7007752,45.4741085 64.7534884,45.4741085 C72.7175194,45.4741085 79.1962791,51.9528682 79.1962791,59.9162791 C79.1962791,67.5913178 73.1776744,73.8852713 65.6117829,74.3311628 L65.6117829,74.3311628 Z M42.9147287,14.3646512 C42.9147287,14.5494574 42.9258915,14.7187597 42.9463566,14.8837209 L67.5293023,14.8837209 C67.5522481,14.579845 67.564031,14.259845 67.564031,13.9423256 C67.564031,8.20837209 63.8015504,3.54356589 59.1764341,3.54356589 C56.2548837,3.54356589 53.4951938,5.51317829 51.9751938,8.68341085 C51.7066667,9.24031008 51.0691473,9.51565891 50.4806202,9.32899225 C49.9057364,9.14604651 49.2893023,9.05364341 48.6493023,9.05364341 C45.4337984,9.05364341 42.9147287,11.3860465 42.9147287,14.3646512 L42.9147287,14.3646512 Z M40.7603101,16.4651163 C40.5643411,15.7817054 40.4341085,15.1627907 40.4341085,14.3646512 C40.4341085,10.0682171 44.1196899,6.57302326 48.6493023,6.57302326 C49.1807752,6.57302326 49.7029457,6.61953488 50.2108527,6.71131783 C52.2294574,3.20248062 55.5888372,1.06294574 59.1764341,1.06294574 C65.1689922,1.06294574 70.0446512,6.84031008 70.0446512,13.9423256 C70.0446512,14.8062016 69.9714729,15.6644961 69.8375194,16.3584496 C69.7258915,16.9420155 69.2142636,17.3643411 68.6195349,17.3643411 L41.9522481,17.3643411 C41.3990698,17.3643411 40.9122481,16.9972093 40.7603101,16.4651163 L40.7603101,16.4651163 Z" id="Fill-1" fill="#0C1831"></path>
                <path d="M62.6356589,77.5193798 L58.2945736,77.5193798 C57.6099225,77.5193798 57.0542636,78.0744186 57.0542636,78.7596899 C57.0542636,79.4449612 57.6099225,80 58.2945736,80 L62.6356589,80 C63.3209302,80 63.875969,79.4449612 63.875969,78.7596899 C63.875969,78.0744186 63.3209302,77.5193798 62.6356589,77.5193798 L62.6356589,77.5193798 Z" id="Path" fill="#3C76A6"></path>
                <path d="M53.3333333,77.5193798 L15.503876,77.5193798 C14.8192248,77.5193798 14.2635659,78.0744186 14.2635659,78.7596899 C14.2635659,79.4449612 14.8192248,80 15.503876,80 L53.3333333,80 C54.0186047,80 54.5736434,79.4449612 54.5736434,78.7596899 C54.5736434,78.0744186 54.0186047,77.5193798 53.3333333,77.5193798 L53.3333333,77.5193798 Z" id="Path" fill="#3C76A6"></path>
                <path d="M6.20155039,72.5581395 L1.24031008,72.5581395 C0.55503876,72.5581395 -8.45989945e-13,73.1131783 -8.45989945e-13,73.7984496 C-8.45989945e-13,74.4831008 0.55503876,75.0387597 1.24031008,75.0387597 L6.20155039,75.0387597 C6.88682171,75.0387597 7.44186047,74.4831008 7.44186047,73.7984496 C7.44186047,73.1131783 6.88682171,72.5581395 6.20155039,72.5581395 L6.20155039,72.5581395 Z" id="Path" fill="#3C76A6"></path>
                <path d="M68.2170543,24.8062016 C68.2170543,25.4908527 68.7727132,26.0465116 69.4573643,26.0465116 L71.9379845,26.0465116 C72.6232558,26.0465116 73.1782946,25.4908527 73.1782946,24.8062016 C73.1782946,24.1209302 72.6232558,23.5658915 71.9379845,23.5658915 L69.4573643,23.5658915 C68.7727132,23.5658915 68.2170543,24.1209302 68.2170543,24.8062016 L68.2170543,24.8062016 Z" id="Path" fill="#3C76A6"></path>
                <path d="M66.3565891,24.8062016 C66.3565891,24.1209302 65.8015504,23.5658915 65.1162791,23.5658915 L42.1705426,23.5658915 C41.4858915,23.5658915 40.9302326,24.1209302 40.9302326,24.8062016 C40.9302326,25.4908527 41.4858915,26.0465116 42.1705426,26.0465116 L65.1162791,26.0465116 C65.8015504,26.0465116 66.3565891,25.4908527 66.3565891,24.8062016 L66.3565891,24.8062016 Z" id="Path" fill="#3C76A6"></path>
                <path d="M26.9674419,23.4127132 C27.191938,23.6365891 27.4858915,23.7488372 27.779845,23.7488372 C28.0737984,23.7488372 28.3671318,23.6365891 28.5922481,23.4127132 C29.04,22.9643411 29.0406202,22.2368992 28.5922481,21.7885271 L26.6555039,19.8517829 C26.2077519,19.4034109 25.4809302,19.4034109 25.0313178,19.8517829 C24.5835659,20.2995349 24.5829457,21.0269767 25.0313178,21.475969 L26.9674419,23.4127132 Z" id="Path" fill="#3C76A6"></path>
                <path d="M10.9916279,7.43565891 C11.216124,7.66015504 11.5100775,7.77178295 11.8034109,7.77178295 C12.0973643,7.77178295 12.3913178,7.66015504 12.615814,7.43565891 C13.064186,6.98728682 13.0635659,6.25984496 12.615814,5.81147287 L10.6790698,3.87534884 C10.2294574,3.42697674 9.50263566,3.42697674 9.05488372,3.87534884 C8.60589147,4.32434109 8.60651163,5.05116279 9.05488372,5.49953488 L10.9916279,7.43565891 Z" id="Path" fill="#3C76A6"></path>
                <path d="M10.9916279,19.8517829 L9.05488372,21.7885271 C8.60651163,22.2368992 8.60651163,22.9637209 9.05488372,23.4127132 C9.27875969,23.6365891 9.57271318,23.7488372 9.86666667,23.7488372 C10.1606202,23.7488372 10.4545736,23.6365891 10.6790698,23.4127132 L12.615814,21.475969 C13.0635659,21.0269767 13.0635659,20.300155 12.615814,19.8517829 C12.1674419,19.4034109 11.4393798,19.4034109 10.9916279,19.8517829 L10.9916279,19.8517829 Z" id="Path" fill="#3C76A6"></path>
                <path d="M25.8437209,7.77178295 C26.1370543,7.77178295 26.4316279,7.66015504 26.6555039,7.43565891 L28.5922481,5.49953488 C29.04,5.05116279 29.04,4.32434109 28.5922481,3.87534884 C28.143876,3.42697674 27.415814,3.42697674 26.9674419,3.87534884 L25.0313178,5.81147287 C24.5835659,6.26046512 24.5835659,6.98728682 25.0313178,7.43565891 C25.255814,7.66015504 25.5497674,7.77178295 25.8437209,7.77178295 L25.8437209,7.77178295 Z" id="Path" fill="#3C76A6"></path>
                <path d="M27.9069767,13.6434109 C27.9069767,14.328062 28.4626357,14.8837209 29.1472868,14.8837209 L31.0077519,14.8837209 C31.6930233,14.8837209 32.248062,14.328062 32.248062,13.6434109 C32.248062,12.9581395 31.6930233,12.4031008 31.0077519,12.4031008 L29.1472868,12.4031008 C28.4626357,12.4031008 27.9069767,12.9581395 27.9069767,13.6434109 L27.9069767,13.6434109 Z" id="Path" fill="#3C76A6"></path>
                <path d="M6.20155039,14.8837209 L9.30232558,14.8837209 C9.9875969,14.8837209 10.5426357,14.328062 10.5426357,13.6434109 C10.5426357,12.9581395 9.9875969,12.4031008 9.30232558,12.4031008 L6.20155039,12.4031008 C5.51689922,12.4031008 4.96124031,12.9581395 4.96124031,13.6434109 C4.96124031,14.328062 5.51689922,14.8837209 6.20155039,14.8837209 L6.20155039,14.8837209 Z" id="Path" fill="#3C76A6"></path>
                <path d="M17.3643411,24.1860465 L17.3643411,26.6666667 C17.3643411,27.3513178 17.92,27.9069767 18.6046512,27.9069767 C19.2899225,27.9069767 19.8449612,27.3513178 19.8449612,26.6666667 L19.8449612,24.1860465 C19.8449612,23.5007752 19.2899225,22.9457364 18.6046512,22.9457364 C17.92,22.9457364 17.3643411,23.5007752 17.3643411,24.1860465 L17.3643411,24.1860465 Z" id="Path" fill="#3C76A6"></path>
                <path d="M18.6046512,5.58139535 C19.2899225,5.58139535 19.8449612,5.02573643 19.8449612,4.34108527 L19.8449612,1.24031008 C19.8449612,0.55503876 19.2899225,2.7533531e-13 18.6046512,2.7533531e-13 C17.92,2.7533531e-13 17.3643411,0.55503876 17.3643411,1.24031008 L17.3643411,4.34108527 C17.3643411,5.02573643 17.92,5.58139535 18.6046512,5.58139535 L18.6046512,5.58139535 Z" id="Path" fill="#3C76A6"></path>
                <path d="M13.1106977,13.4728682 C13.1106977,10.4793798 15.5448062,8.04527132 18.5382946,8.04527132 C21.5311628,8.04527132 23.9658915,10.4793798 23.9658915,13.4728682 C23.9658915,16.4657364 21.5311628,18.9004651 18.5382946,18.9004651 C15.5448062,18.9004651 13.1106977,16.4657364 13.1106977,13.4728682 Z M15.4071318,13.4728682 C15.4071318,15.1993798 16.8111628,16.6034109 18.5382946,16.6034109 C20.2648062,16.6034109 21.6688372,15.1993798 21.6688372,13.4728682 C21.6688372,11.7457364 20.2648062,10.3417054 18.5382946,10.3417054 C16.8111628,10.3417054 15.4071318,11.7457364 15.4071318,13.4728682 Z" id="Combined-Shape" fill="#3C76A6"></path>
            </g>
        </g>
    </g>
</svg>