<?xml version="1.0" encoding="UTF-8"?>
<svg width="83px" height="83px" viewBox="0 0 83 83" version="1.1" xmlns="http://www.w3.org/2000/svg" xmlns:xlink="http://www.w3.org/1999/xlink">
    <!-- Generator: Sketch 55.2 (78181) - https://sketchapp.com -->
    <title>Group 23</title>
    <desc>Created with Sketch.</desc>
    <g id="Page-1" stroke="none" stroke-width="1" fill="none" fill-rule="evenodd">
        <g id="Cause-report" transform="translate(-670.000000, -2271.000000)">
            <g id="Group-33" transform="translate(328.000000, 2273.000000)">
                <g id="Group-26" transform="translate(344.000000, 0.000000)">
                    <g id="Group-23">
                        <path d="M39.5219444,79 C17.6865952,79 0,61.3083789 0,39.4863313 C0,17.6767098 17.6865952,0 39.5219444,0 C61.3466349,0 79,17.6767098 79,39.4863313 C79,61.3083789 61.3466349,79 39.5219444,79 Z" id="Stroke-9" stroke="#3C76A6" stroke-width="2.2" stroke-linecap="round" stroke-dasharray="4,6"></path>
                        <g id="Group-11" transform="translate(27.000000, 19.000000)" stroke="#0C1831">
                            <polyline id="Stroke-3" stroke-width="2.2" stroke-linecap="round" stroke-linejoin="round" points="21.0883515 0.942159211 0.539313748 0.942159211 0.539313748 8.18658573 0.539313748 17.7376953 0.539313748 37.2532703 15.9551143 37.2532703 21.9707749 37.2532703 29.9072225 37.2532703 29.9072225 17.7376953 29.9072225 8.9228171"></polyline>
                            <path d="M27.1739988,6.45501252 L29.3227807,8.59144048 L30.2041123,6.45501252 L27.1739988,6.45501252 Z M23.7045455,6.45501252 L22.4545455,6.45501252 L23.7045455,7.70501252 L23.7045455,6.45501252 Z M23.7045455,3.00550601 L23.7045455,3.01980663e-13 L21.5732138,0.886427959 L23.7045455,3.00550601 Z" id="Fill-4" stroke-width="2.5"></path>
                            <path d="M4.46669605,9.54023866 L12.9019046,9.54023866" id="Stroke-5" stroke-width="2.2"></path>
                            <path d="M4.31116841,15.5929453 L24.3465937,15.5929453" id="Stroke-6" stroke-width="2.2"></path>
                            <path d="M4.31116841,20.0132719 L24.3465937,20.0132719" id="Stroke-7" stroke-width="2.2"></path>
                            <path d="M4.31116841,24.4343822 L24.3465937,24.4343822" id="Stroke-8" stroke-width="2.2"></path>
                            <path d="M4.31116841,28.854255 L24.2228316,28.854255" id="Stroke-9" stroke-width="2.2"></path>
                        </g>
                    </g>
                </g>
            </g>
        </g>
    </g>
</svg>