<?xml version="1.0" encoding="UTF-8"?>
<svg width="80px" height="80px" viewBox="0 0 80 80" version="1.1" xmlns="http://www.w3.org/2000/svg" xmlns:xlink="http://www.w3.org/1999/xlink">
    <!-- Generator: Sketch 55.2 (78181) - https://sketchapp.com -->
    <title>Group 35</title>
    <desc>Created with Sketch.</desc>
    <defs>
        <polygon id="path-1" points="0 -0.000170212766 79.6238298 -0.000170212766 79.6238298 79.6243404 0 79.6243404"></polygon>
    </defs>
    <g id="Page-1" stroke="none" stroke-width="1" fill="none" fill-rule="evenodd">
        <g id="Cause-report" transform="translate(-1090.000000, -2815.000000)">
            <g id="Group-2" transform="translate(170.000000, 2815.000000)">
                <g id="Group-35" transform="translate(920.000000, 0.000000)">
                    <g id="Group-3">
                        <mask id="mask-2" fill="white">
                            <use xlink:href="#path-1"></use>
                        </mask>
                        <g id="Clip-2"></g>
                        <path d="M16.4893617,44.9853617 L13.9957447,45.5351489 C13.7412766,44.3777021 13.5617021,43.188766 13.4638298,42.0015319 L16.0093617,41.7930213 C16.0970213,42.8653617 16.2587234,43.9394043 16.4893617,44.9853617 L16.4893617,44.9853617 Z M18.72,51.0253617 L16.466383,52.2262128 C15.907234,51.1785532 15.4153191,50.0815319 15.0042553,48.9649362 L17.3991489,48.0815319 C17.7710638,49.0883404 18.2153191,50.0798298 18.72,51.0253617 L18.72,51.0253617 Z M20.4246809,53.7657872 C21.0510638,54.6347234 21.7446809,55.4713191 22.4851064,56.2508936 L20.6331915,58.0083404 C19.813617,57.1462128 19.0476596,56.2202553 18.3531915,55.2585532 L20.4246809,53.7657872 Z M24.8612766,58.4389787 C25.6995745,59.1130213 26.5906383,59.7342979 27.5089362,60.2874894 L26.1923404,62.4747234 C25.1753191,61.8628085 24.1897872,61.1751489 23.2621277,60.429617 L24.8612766,58.4389787 Z M30.3821277,61.762383 C31.3676596,62.1870638 32.3931915,62.5470638 33.4280851,62.8338723 L32.747234,65.2942979 C31.6,64.9768511 30.4646809,64.5777021 29.373617,64.1079149 L30.3821277,61.762383 Z M63.6953191,39.8125957 L66.2485106,39.8125957 C66.2485106,55.7130213 52.1991489,68.1640851 36.2485106,66.0108936 L36.5889362,63.4806809 C51.0093617,65.4245106 63.6953191,54.1742979 63.6953191,39.8125957 L63.6953191,39.8125957 Z M62.8042553,62.8049362 L58.2068085,71.6730213 L48.2323404,71.229617 L39.8110638,76.5964255 L31.3914894,71.229617 L21.4153191,71.6721702 L16.8187234,62.8040851 L7.95148936,58.2074894 L8.39404255,48.2330213 L3.02723404,39.8125957 L8.39404255,31.3913191 L7.95148936,21.416 L16.8195745,16.8194043 L21.4161702,7.95217021 L31.3906383,8.39557447 L39.8110638,3.02791489 L48.2314894,8.39557447 L58.2076596,7.95217021 L62.8051064,16.8194043 L71.6723404,21.4168511 L71.2280851,31.3913191 L76.5957447,39.8125957 L71.2280851,48.2330213 L71.6714894,58.2083404 L62.8042553,62.8049362 Z M79.6246809,39.8125957 L73.8144681,30.6994043 L74.2953191,19.9011064 L64.6987234,14.9257872 L59.7234043,5.32919149 L48.9242553,5.80834043 L39.8110638,-0.000170212766 L30.6987234,5.80834043 L19.9004255,5.32919149 L14.9259574,14.9249362 L5.32851064,19.9002553 L5.80765957,30.6994043 L0,39.8125957 L5.80765957,48.9249362 L5.32851064,59.723234 L14.9251064,64.6985532 L19.8995745,74.2951489 L30.6978723,73.816 L39.8110638,79.6245106 L48.9234043,73.816 L59.7225532,74.296 L64.6978723,64.6994043 L74.2944681,59.7240851 L73.8144681,48.9249362 L79.6246809,39.8125957 Z" id="Fill-1" fill="#FFFFFF" mask="url(#mask-2)"></path>
                    </g>
                    <g id="Group-17" transform="translate(13.375319, 13.370699)" fill="#A5D6FE">
                        <path d="M2.55319149,26.4418971 L3.83693077e-13,26.4418971 C3.83693077e-13,10.5414716 14.0476596,-1.91044334 29.9991489,0.242748154 L29.6578723,2.77296092 C15.24,0.829131132 2.55319149,12.0776418 2.55319149,26.4418971 L2.55319149,26.4418971 Z" id="Path"></path>
                        <path d="M45.8238298,12.4878545 C45.1965957,11.6189184 44.5038298,10.7823226 43.7634043,10.0027482 L45.6144681,8.24445028 C46.4340426,9.107429 47.2008511,10.0325354 47.8944681,10.9950886 L45.8238298,12.4878545 Z" id="Path"></path>
                        <path d="M47.5285106,15.2265779 L49.7821277,14.0257269 C50.3404255,15.0742375 50.8323404,16.1712588 51.2442553,17.2878545 L48.8485106,18.1712588 C48.4774468,17.1635992 48.0323404,16.1729609 47.5285106,15.2265779 L47.5285106,15.2265779 Z" id="Path"></path>
                        <path d="M49.7582979,21.267429 L52.2510638,20.7176418 C52.506383,21.8750886 52.6859574,23.0640247 52.7829787,24.2512588 L50.2382979,24.4597694 C50.1506383,23.387429 49.9889362,22.3133865 49.7582979,21.267429 L49.7582979,21.267429 Z" id="Path"></path>
                        <path d="M35.8646809,4.49125879 C34.8791489,4.067429 33.8544681,3.70657794 32.8187234,3.41976943 L33.5004255,0.959343898 C34.6476596,1.27679071 35.7829787,1.67593964 36.8740426,2.14572688 L35.8646809,4.49125879 Z" id="Path"></path>
                        <path d="M41.3880851,7.81466305 C40.5489362,7.14062049 39.6578723,6.51849283 38.7395745,5.96615241 L40.0561702,3.7780673 C41.0740426,4.3899822 42.0595745,5.07849283 42.987234,5.82402475 L41.3880851,7.81466305 Z" id="Path"></path>
                    </g>
                    <text id="FREE" font-family="Calibre-Semibold, Calibre" font-size="17" font-weight="500" fill="#A5D6FE">
                        <tspan x="22.184" y="45">FREE</tspan>
                    </text>
                </g>
            </g>
        </g>
    </g>
</svg>