<?xml version="1.0" encoding="UTF-8"?>
<svg width="83px" height="83px" viewBox="0 0 83 83" version="1.1" xmlns="http://www.w3.org/2000/svg" xmlns:xlink="http://www.w3.org/1999/xlink">
    <!-- Generator: Sketch 55.2 (78181) - https://sketchapp.com -->
    <title>Group 24</title>
    <desc>Created with Sketch.</desc>
    <g id="Page-1" stroke="none" stroke-width="1" fill="none" fill-rule="evenodd">
        <g id="Cause-report" transform="translate(-851.000000, -2271.000000)" stroke-width="2.2">
            <g id="Group-33" transform="translate(328.000000, 2273.000000)">
                <g id="Group-25" transform="translate(516.000000, 0.000000)">
                    <g id="Group-24" transform="translate(9.000000, 0.000000)">
                        <path d="M39.5219444,79 C17.6865952,79 0,61.3083789 0,39.4863313 C0,17.6767098 17.6865952,0 39.5219444,0 C61.3466349,0 79,17.6767098 79,39.4863313 C79,61.3083789 61.3466349,79 39.5219444,79 Z" id="Stroke-9" stroke="#3C76A6" stroke-linecap="round" stroke-dasharray="4,6"></path>
                        <g id="Group-9" transform="translate(21.000000, 21.000000)" stroke="#0C1831">
                            <path d="M37.1160476,18.5530476 C37.1160476,28.8049048 28.8103333,37.110619 18.559381,37.110619 C8.30842857,37.110619 0,28.8049048 0,18.5530476 C0,8.30661905 8.30842857,0 18.559381,0 C28.8103333,0 37.1160476,8.30661905 37.1160476,18.5530476 Z" id="Stroke-1"></path>
                            <path d="M23.7708095,12.4630952 L23.7708095,11.2036667 C23.7708095,9.0132381 21.9965714,7.23809524 19.8106667,7.23809524 L16.6277143,7.23809524 C14.44,7.23809524 12.6666667,9.0132381 12.6666667,11.2036667 L12.6666667,13.9007619 C12.6666667,15.1538571 13.6329524,16.1816667 14.9068571,16.9905238 L20.9488571,19.3021905" id="Stroke-3"></path>
                            <path d="M12.6666667,24.0015238 L12.6666667,25.2645714 C12.6666667,27.4522857 14.4409048,29.225619 16.628619,29.225619 L19.8106667,29.225619 C21.9974762,29.225619 23.7708095,27.4522857 23.7708095,25.2645714 L23.7708095,22.5656667 C23.7708095,21.3134762 22.739381,20.2214286 21.4618571,19.4107619 L15.6994286,17.1904762" id="Stroke-5"></path>
                            <path d="M18.547619,4.52380952 L18.547619,31.6259524" id="Stroke-7"></path>
                        </g>
                    </g>
                </g>
            </g>
        </g>
    </g>
</svg>