<?xml version="1.0" encoding="UTF-8"?>
<svg width="83px" height="83px" viewBox="0 0 83 83" version="1.1" xmlns="http://www.w3.org/2000/svg" xmlns:xlink="http://www.w3.org/1999/xlink">
    <!-- Generator: Sketch 55.2 (78181) - https://sketchapp.com -->
    <title>Group 34</title>
    <desc>Created with Sketch.</desc>
    <defs>
        <polygon id="path-1" points="0 0.439449231 30.5686338 0.439449231 30.5686338 29.0769231 0 29.0769231"></polygon>
    </defs>
    <g id="Page-1" stroke="none" stroke-width="1" fill="none" fill-rule="evenodd">
        <g id="Cause-report" transform="translate(-1032.000000, -2271.000000)">
            <g id="Group-33" transform="translate(328.000000, 2273.000000)">
                <g id="Group-30" transform="translate(706.000000, 0.000000)">
                    <g id="Group-34">
                        <path d="M39.5219444,79 C17.6865952,79 0,61.3083789 0,39.4863313 C0,17.6767098 17.6865952,0 39.5219444,0 C61.3466349,0 79,17.6767098 79,39.4863313 C79,61.3083789 61.3466349,79 39.5219444,79 Z" id="Stroke-9" stroke="#3C76A6" stroke-width="2.2" stroke-linecap="round" stroke-dasharray="4,6"></path>
                        <g id="Group-12" transform="translate(24.000000, 18.000000)">
                            <path d="M21.8600954,13.8509538 L21.8600954,9.03064615 C21.8600954,6.14815385 19.5158492,3.80649231 16.6372338,3.80649231 L13.9298492,3.80649231 C11.0512338,3.80649231 8.70634154,6.14815385 8.70634154,9.03064615 L8.70634154,13.8509538 M5.22551077,13.8509538 L5.22551077,9.03064615 C5.22551077,4.23036923 9.13021846,0.323076923 13.9298492,0.323076923 L16.6372338,0.323076923 C21.4368646,0.323076923 25.3422185,4.23036923 25.3422185,9.03064615 L25.3422185,13.8509538" id="Stroke-1" stroke="#0C1831" stroke-width="2.2"></path>
                            <g id="Group-5" transform="translate(0.000000, 12.451708)">
                                <mask id="mask-2" fill="white">
                                    <use xlink:href="#path-1"></use>
                                </mask>
                                <g id="Clip-4"></g>
                                <path d="M29.4686338,1.53944923 L1.09974154,1.53944923 L1.09974154,27.9769877 L29.4686338,27.9769877 L29.4686338,1.53944923 Z" id="Fill-3" stroke="#0C1831" stroke-width="2.2" mask="url(#mask-2)"></path>
                            </g>
                            <path d="M17.7471323,23.7433108 C17.7471323,22.3812185 16.6441477,21.2801723 15.28464,21.2801723 C13.9270708,21.2801723 12.8227938,22.3812185 12.8227938,23.7433108 C12.8227938,24.6395262 13.3048246,25.4220185 14.0220554,25.8517108 L13.4644246,31.9171569 L15.28464,31.9171569 L17.1042092,31.9171569 L16.5452862,25.8517108 C17.2644554,25.4220185 17.7471323,24.6395262 17.7471323,23.7433108 Z" id="Stroke-6" stroke="#0C1831" stroke-width="2.2"></path>
                            <path d="M1.38444923,36.7354615 L29.4921415,36.7354615" id="Stroke-8" stroke="#0C1831" stroke-width="2.2"></path>
                            <path d="M1.38444923,18.7606716 L29.4921415,18.7606716" id="Stroke-10" stroke="#0C1831" stroke-width="2.2"></path>
                        </g>
                    </g>
                </g>
            </g>
        </g>
    </g>
</svg>