<?xml version="1.0" encoding="UTF-8"?>
<svg width="83px" height="83px" viewBox="0 0 83 83" version="1.1" xmlns="http://www.w3.org/2000/svg" xmlns:xlink="http://www.w3.org/1999/xlink">
    <!-- Generator: Sketch 55.2 (78181) - https://sketchapp.com -->
    <title>Group 22</title>
    <desc>Created with Sketch.</desc>
    <g id="Page-1" stroke="none" stroke-width="1" fill="none" fill-rule="evenodd">
        <g id="Cause-report" transform="translate(-498.000000, -2271.000000)" stroke-width="2.2">
            <g id="Group-33" transform="translate(328.000000, 2273.000000)">
                <g id="Group-27" transform="translate(172.000000, 0.000000)">
                    <g id="Group-22">
                        <g id="Group-13" transform="translate(18.000000, 22.000000)" stroke="#0C1831">
                            <g id="Group-21">
                                <path d="M20.4058357,8.08143566 L16.5188279,4.16304806 L14.6101147,2.23898605 L12.6287504,0.240908527 C12.4128434,0.426117829 12.2017116,0.616784496 11.9994481,0.821094574 C9.59957209,3.23973023 8.55789767,6.59635039 8.7888124,10.1422729" id="Stroke-1"></path>
                                <path d="M39.4593023,13.7343101 C39.457938,13.7257829 39.4531628,13.7169147 39.4524806,13.7094109 C39.1987132,12.6233953 38.7716744,11.6093488 38.2034264,10.6897829 C38.1850078,10.6584031 38.1672713,10.6249767 38.1468062,10.5946202 C38.0243566,10.4005426 37.8930388,10.2143101 37.7596744,10.0297829 C37.7166977,9.97213953 37.6754264,9.91483721 37.6321085,9.85889922 C37.5038605,9.69006202 37.370155,9.52565891 37.2286047,9.36500775 C37.174031,9.30020155 37.1150233,9.23744186 37.0577209,9.17263566 C36.9199225,9.02324031 36.7811008,8.87623256 36.6347752,8.73468217 C36.5668992,8.66885271 36.4956124,8.60779845 36.4280775,8.54367442 C36.2810698,8.40996899 36.134062,8.27455814 35.9805736,8.15006202 C35.9133798,8.09582946 35.845845,8.0484186 35.7762636,7.99623256 C35.5095349,7.7891938 35.2322326,7.59750388 34.9446977,7.41775194 C34.8147442,7.33793798 34.686155,7.25368992 34.5531318,7.17899225 C34.4313643,7.10975194 34.3014109,7.04903876 34.1758915,6.98525581 C34.0285426,6.91055814 33.8805116,6.83551938 33.7287287,6.76832558 C33.6049147,6.7123876 33.4770078,6.66293023 33.3484186,6.61176744 C33.1877674,6.5479845 33.0247287,6.48658915 32.8589612,6.43133333 C32.734124,6.38972093 32.6089457,6.34981395 32.4817209,6.31263566 C32.3033333,6.26010853 32.1225581,6.21508527 31.9428062,6.17210853 C31.8196744,6.14448062 31.6992713,6.11582946 31.5771628,6.09195349 C31.3718295,6.0523876 31.165814,6.02237209 30.9560465,5.99610853 C30.8516744,5.9828062 30.7476434,5.96472868 30.6408837,5.95449612 C30.3253798,5.92482171 30.0054419,5.90537984 29.6810698,5.90537984 C29.4133178,5.90537984 29.15,5.92175194 28.8897519,5.94596899 C24.1111473,6.32252713 20.2800775,10.0632093 19.7135349,14.8233953 C19.3642636,13.5552403 18.2137829,12.6233953 16.8443256,12.6233953 L5.62466667,12.6233953 L2.92565891,12.6233953 L0.124325581,12.6233953 C0.101813953,12.9075194 0.0851007752,13.1936899 0.0851007752,13.4825891 C0.0851007752,20.7575969 7.39728682,26.6563256 16.4172868,26.6563256 C16.9210698,26.6563256 17.4159845,26.6348372 17.9068062,26.5990233 C18.6971008,26.2947752 19.3175349,26.1545891 19.6217829,25.3598605 C19.6289457,29.230155 19.641907,32.3875814 19.641907,32.3875814 C20.870155,32.6604496 21.9793643,32.809845 23.2959535,32.809845 C23.8437364,32.809845 24.3853798,32.7811938 24.9188372,32.7334419 C25.0972248,32.7157054 25.2708372,32.6863721 25.4488837,32.6645426 C25.7988372,32.6222481 26.150155,32.5768837 26.4960155,32.5144651 C26.7027132,32.4766047 26.9056589,32.4268062 27.1103101,32.382124 C27.4152403,32.3149302 27.7208527,32.2446667 28.0203256,32.1611008 C28.2348682,32.102093 28.4453178,32.0345581 28.6557674,31.9666822 C28.9347752,31.8773178 29.2131008,31.7835194 29.4856279,31.681876 C29.6984651,31.6003566 29.9085736,31.5161085 30.1173178,31.4277674 C30.3772248,31.317938 30.6316744,31.2012868 30.8847597,31.0798605 C31.0928217,30.9799225 31.2984961,30.8789612 31.5014419,30.7708372 C31.7422481,30.641907 31.9769147,30.5051318 32.209876,30.365969 C32.4104341,30.245907 32.609969,30.1289147 32.8040465,30.0033953 C33.0274574,29.8563876 33.2413178,29.6994884 33.4555194,29.5436124 C33.6451628,29.405814 33.8368527,29.2744961 34.0193333,29.1295349 C34.2270543,28.965814 34.4214729,28.7891318 34.6199845,28.6162016 C34.7946202,28.4630543 34.9753953,28.318093 35.141845,28.1601705 C35.4805426,27.8398915 35.801845,27.505969 36.1091628,27.1584031 C36.2844806,26.9605736 36.4444496,26.7491008 36.609876,26.5427442 C36.7480155,26.3708372 36.889907,26.202 37.0212248,26.0246357 C37.1808527,25.8087287 37.3241085,25.5825891 37.4704341,25.3598605 C37.5904961,25.1784031 37.7119225,24.9996744 37.8224341,24.8127597 C37.9615969,24.5828682 38.0874574,24.3451318 38.2150233,24.1070543 C38.3149612,23.9163876 38.4152403,23.7267442 38.5086977,23.5319845 C38.6236434,23.2887907 38.7314264,23.0404806 38.8337519,22.790124 C38.9162946,22.5905891 38.9950853,22.3896899 39.0687597,22.1853798 C39.1615349,21.9319535 39.2471473,21.6761395 39.325938,21.4155504 C39.3914264,21.2057829 39.4453178,20.9932868 39.4998915,20.7801085 C39.5667442,20.517814 39.6318915,20.2551783 39.6844186,19.9867442 C39.6977209,19.921938 39.7171628,19.8598605 39.7294419,19.7957364 L39.7294419,19.7131938 C39.8788372,18.8662791 39.9757054,18.0026512 39.9757054,17.1161705 C39.9757054,15.9527287 39.5012558,13.7343101 39.4593023,13.7343101 Z" id="Stroke-3" stroke-linejoin="round"></path>
                                <path d="M15.7911907,31.0394078 C16.9229116,31.5940124 17.9676558,32.0009271 19.2474078,32.3116558 C19.7788186,32.440586 20.3126171,32.5408651 20.8430047,32.6193147 C21.0200279,32.6452372 21.1960279,32.6581984 21.372369,32.6779814 C21.7247101,32.720276 22.0760279,32.7584775 22.4263225,32.7789426 C22.6360899,32.7912217 22.8448341,32.7905395 23.0546016,32.7959969 C23.3670357,32.8014543 23.6801519,32.8062295 23.9915628,32.7959969 C24.212245,32.7881519 24.4329271,32.7717798 24.6539504,32.7560899" id="Stroke-5"></path>
                                <path d="M34.2943845,12.9105891 C34.2943845,13.6913333 33.6661054,14.3233643 32.8915008,14.3233643 C32.1158729,14.3233643 31.4896403,13.6913333 31.4896403,12.9105891 C31.4896403,12.1295039 32.1158729,11.4967907 32.8915008,11.4967907 C33.6661054,11.4967907 34.2943845,12.1295039 34.2943845,12.9105891 Z" id="Stroke-7"></path>
                                <path d="M34.2943845,12.9105891 L43.7441519,12.9105891" id="Stroke-9" stroke-linecap="round"></path>
                                <path d="M34.2943845,12.4808899 L43.1759039,9.55233178" id="Stroke-11" stroke-linecap="round"></path>
                                <path d="M1.5055845,17.9219504 L13.1519411,17.9219504" id="Stroke-13" stroke-linecap="round"></path>
                                <path d="M5.61726512,23.369969 L14.0270636,21.061845" id="Stroke-15" stroke-linecap="round"></path>
                                <path d="M12.5791907,26.0390295 L16.4256093,23.2782853" id="Stroke-17" stroke-linecap="round"></path>
                                <path d="M28.6265023,31.2105984 C28.549076,31.2382264 28.4706264,31.2655132 28.3914946,31.2921178 C28.3219132,30.7924279 28.2881457,30.288986 28.2881457,29.7869085 C28.2881457,23.7909705 33.0814171,18.8479628 39.1878667,18.2919938" id="Stroke-19"></path>
                            </g>
                        </g>
                        <path d="M39.5219444,79 C17.6865952,79 0,61.3083789 0,39.4863313 C0,17.6767098 17.6865952,0 39.5219444,0 C61.3466349,0 79,17.6767098 79,39.4863313 C79,61.3083789 61.3466349,79 39.5219444,79 Z" id="Stroke-9" stroke="#3C76A6" stroke-linecap="round" stroke-dasharray="4,6"></path>
                    </g>
                </g>
            </g>
        </g>
    </g>
</svg>