<?xml version="1.0" encoding="UTF-8"?>
<svg width="83px" height="83px" viewBox="0 0 83 83" version="1.1" xmlns="http://www.w3.org/2000/svg" xmlns:xlink="http://www.w3.org/1999/xlink">
    <!-- Generator: Sketch 55.2 (78181) - https://sketchapp.com -->
    <title>Group 18</title>
    <desc>Created with Sketch.</desc>
    <g id="Page-1" stroke="none" stroke-width="1" fill="none" fill-rule="evenodd">
        <g id="Cause-report" transform="translate(-326.000000, -2271.000000)" stroke-width="2.2">
            <g id="Group-33" transform="translate(328.000000, 2273.000000)">
                <g id="Group-29">
                    <g id="Group-18">
                        <g id="Group-11" transform="translate(17.000000, 16.000000)" stroke="#0C1831">
                            <path d="M45.8266319,23.2687535 C45.8266319,36.0169595 35.5845486,46.3526076 22.9560185,46.3526076 C10.3242245,46.3526076 0.0859490741,36.0169595 0.0859490741,23.2687535 C0.0859490741,10.5227234 10.3242245,0.185987269 22.9560185,0.185987269 C35.5845486,0.185987269 45.8266319,10.5227234 45.8266319,23.2687535 Z" id="Stroke-1"></path>
                            <path d="M36.1799907,23.2687535 C36.1799907,36.0169595 30.2571204,46.3526076 22.9558009,46.3526076 C15.6495856,46.3526076 9.72508333,36.0169595 9.72508333,23.2687535 C9.72508333,10.5227234 15.6495856,0.185987269 22.9558009,0.185987269 C30.2571204,0.185987269 36.1799907,10.5227234 36.1799907,23.2687535 Z" id="Stroke-3"></path>
                            <path d="M22.9560185,46.35239 C35.5845486,46.35239 45.8266319,36.0167419 45.8266319,23.2685359 C45.8266319,10.5230498 35.5845486,0.186313657 22.9560185,0.186313657 L22.9560185,46.35239 Z" id="Stroke-5"></path>
                            <path d="M0.0859490741,23.2687535 C0.0859490741,26.1377118 0.627210648,28.8717627 1.57101852,31.4050845 L44.3355787,31.4050845 C45.2837384,28.8717627 45.8266319,26.1377118 45.8266319,23.2687535 C45.8266319,20.4014271 45.2837384,17.6646563 44.3355787,15.1307905 L1.57265046,15.1307905 C0.627210648,17.6646563 0.0859490741,20.4014271 0.0859490741,23.2687535 Z" id="Stroke-7"></path>
                        </g>
                        <path d="M39.5219444,79 C17.6865952,79 0,61.3083789 0,39.4863313 C0,17.6767098 17.6865952,0 39.5219444,0 C61.3466349,0 79,17.6767098 79,39.4863313 C79,61.3083789 61.3466349,79 39.5219444,79 Z" id="Stroke-9" stroke="#3C76A6" stroke-linecap="round" stroke-dasharray="4,6"></path>
                    </g>
                </g>
            </g>
        </g>
    </g>
</svg>