<?xml version="1.0" encoding="UTF-8"?>
<svg width="175px" height="180px" viewBox="0 0 175 180" version="1.1" xmlns="http://www.w3.org/2000/svg" xmlns:xlink="http://www.w3.org/1999/xlink">
    <!-- Generator: sketchtool 55.2 (78181) - https://sketchapp.com -->
    <title>805AF414-0F59-4D4B-8896-A3B6BC6DFF9F</title>
    <desc>Created with sketchtool.</desc>
    <defs>
        <polygon id="path-1" points="0.63981 0 6.21441 0 6.21441 26.74791 0.63981 26.74791"></polygon>
        <polygon id="path-3" points="0.80505 0.63873 27.5544 0.63873 27.5544 6.21513 0.80505 6.21513"></polygon>
        <polygon id="path-5" points="0.71109 0.0109471432 30.8353038 0.0109471432 30.8353038 19.8 0.71109 19.8"></polygon>
    </defs>
    <g id="Page-1" stroke="none" stroke-width="1" fill="none" fill-rule="evenodd">
        <g id="Charity-page" transform="translate(-272.000000, -678.000000)">
            <g id="CharityLarge" transform="translate(272.000000, 678.000000)">
                <g id="Group-22" transform="translate(-0.000000, 0.000000)">
                    <path d="M120.21183,163.78812 C109.34703,151.37352 99.60093,139.03452 91.22013,127.08072 C94.60863,122.14062 97.63983,117.45972 100.33983,113.04972 C118.45503,129.04632 138.59433,143.32662 146.77893,148.96602 L120.21183,163.78812 Z M55.42443,163.78812 L28.86633,148.97142 C45.12753,137.81772 107.03583,93.71142 111.12003,66.02292 L116.09433,66.02292 C113.30163,76.41342 101.18223,111.51162 55.42443,163.78812 L55.42443,163.78812 Z M59.54193,66.02292 L64.51623,66.02292 C65.68803,74.45322 72.06363,84.72582 83.90223,97.28532 C81.57843,99.61722 79.13313,101.95812 76.61223,104.28822 C65.44953,84.97962 61.08273,71.75682 59.54193,66.02292 L59.54193,66.02292 Z M105.48333,66.02292 C104.07213,73.69272 97.20333,83.29212 87.78933,93.27942 C77.50863,82.33452 71.47953,73.00602 70.15833,66.02292 L105.48333,66.02292 Z M72.99243,44.81622 L102.64383,44.81622 L114.10263,60.44652 L61.53363,60.44652 L72.99243,44.81622 Z M153.62343,146.87622 C153.35163,146.69622 126.42453,128.78172 103.25583,108.18972 C119.46033,80.50482 122.19543,64.69722 122.35833,63.67302 C122.39253,63.46062 122.39523,63.25182 122.38083,63.04662 C122.37723,62.99802 122.36733,62.95392 122.36193,62.90712 C122.33943,62.72082 122.29803,62.54082 122.24133,62.36622 C122.22243,62.30862 122.20443,62.25102 122.18103,62.19612 C122.09463,61.98102 121.99203,61.77582 121.85523,61.59132 C121.85343,61.58952 121.85343,61.58862 121.85343,61.58682 L106.30503,40.38012 C105.78033,39.66372 104.94603,39.24072 104.05683,39.24072 L71.57943,39.24072 C70.69113,39.24072 69.85683,39.66372 69.33123,40.38012 L53.78283,61.58682 C53.78283,61.58862 53.78103,61.58952 53.78103,61.59132 C53.64423,61.77582 53.54163,61.98102 53.45523,62.19612 C53.43183,62.25102 53.41473,62.30862 53.39493,62.36622 C53.33643,62.54082 53.29683,62.72082 53.27523,62.90712 C53.26893,62.95392 53.25723,62.99802 53.25453,63.04662 C53.24103,63.25182 53.24373,63.46062 53.27793,63.67302 C53.38323,64.33632 56.03823,80.13042 72.38943,108.12222 C54.41643,124.14222 33.61023,139.18842 22.01373,146.87622 C21.20373,147.41352 20.73123,148.33512 20.76723,149.30622 C20.80593,150.27822 21.34593,151.16112 22.19553,151.63542 L54.67293,169.75332 C55.10043,169.99272 55.56663,170.10702 56.03103,170.10702 C56.80953,170.10702 57.57723,169.78122 58.12173,169.16472 C70.11513,155.58102 79.86753,143.14662 87.83073,131.93352 C96.45003,144.08262 106.41663,156.59532 117.51453,169.16472 C118.05903,169.78122 118.82673,170.10702 119.60613,170.10702 C120.06963,170.10702 120.53583,169.99272 120.96333,169.75332 L153.44073,151.63542 C154.29033,151.16112 154.83033,150.27822 154.86903,149.30622 C154.90593,148.33512 154.43343,147.41352 153.62343,146.87622 L153.62343,146.87622 Z" id="Fill-1" fill="#0C1831"></path>
                    <g id="Group-5" transform="translate(83.700000, 0.000000)">
                        <mask id="mask-2" fill="white">
                            <use xlink:href="#path-1"></use>
                        </mask>
                        <g id="Clip-4"></g>
                        <path d="M0.63981,23.95971 L0.63981,2.78811 C0.63981,1.24731 1.88721,-9e-05 3.42801,-9e-05 C4.96701,-9e-05 6.21441,1.24731 6.21441,2.78811 L6.21441,23.95971 C6.21441,25.49871 4.96701,26.74791 3.42801,26.74791 C1.88721,26.74791 0.63981,25.49871 0.63981,23.95971" id="Fill-3" fill="#3C76A6" mask="url(#mask-2)"></path>
                    </g>
                    <path d="M2.78757,89.91486 L23.96097,89.91486 C25.49997,89.91486 26.74917,88.66656 26.74917,87.12666 C26.74917,85.58766 25.49997,84.33846 23.96097,84.33846 L2.78757,84.33846 C1.24857,84.33846 0.00117,85.58766 0.00117,87.12666 C0.00117,88.66656 1.24857,89.91486 2.78757,89.91486" id="Fill-6" fill="#3C76A6"></path>
                    <g id="Group-10" transform="translate(146.700000, 83.700000)">
                        <mask id="mask-4" fill="white">
                            <use xlink:href="#path-3"></use>
                        </mask>
                        <g id="Clip-9"></g>
                        <path d="M24.76665,0.63873 L3.59325,0.63873 C2.05425,0.63873 0.80505,1.88793 0.80505,3.42693 C0.80505,4.96593 2.05425,6.21513 3.59325,6.21513 L24.76665,6.21513 C26.30565,6.21513 27.55485,4.96593 27.55485,3.42693 C27.55485,1.88793 26.30565,0.63873 24.76665,0.63873" id="Fill-8" fill="#3C76A6" mask="url(#mask-4)"></path>
                    </g>
                    <path d="M131.79249,45.24876 C132.50709,45.24876 133.22079,44.97606 133.76439,44.43156 L148.73499,29.46096 C149.82399,28.37196 149.82399,26.60706 148.73499,25.51806 C147.64779,24.42906 145.88109,24.42906 144.79209,25.51806 L129.82149,40.48956 C128.73339,41.57766 128.73339,43.34436 129.82149,44.43156 C130.36599,44.97606 131.07969,45.24876 131.79249,45.24876" id="Fill-11" fill="#3C76A6"></path>
                    <path d="M40.48947,44.43138 C41.03397,44.97588 41.74677,45.24858 42.46137,45.24858 C43.17507,45.24858 43.88787,44.97588 44.43237,44.43138 C45.52137,43.34418 45.52137,41.57748 44.43237,40.49028 L29.46177,25.51788 C28.37457,24.42888 26.60607,24.42888 25.51887,25.51788 C24.42987,26.60688 24.42987,28.37178 25.51887,29.46078 L40.48947,44.43138 Z" id="Fill-13" fill="#3C76A6"></path>
                    <path d="M22.70313,158.68746 L7.88283,150.11496 L47.14083,121.36986 C48.38283,120.45996 48.65283,118.71576 47.74293,117.47376 C46.83123,116.23086 45.08793,115.96266 43.84503,116.87076 L1.14093,148.13856 C0.38133,148.69566 -0.04617,149.59836 0.00423,150.53886 C0.05553,151.47936 0.57753,152.33076 1.39203,152.80146 L19.91223,163.51416 C20.35053,163.76796 20.83113,163.88766 21.30453,163.88766 C22.26753,163.88766 23.20353,163.38906 23.72193,162.49536 C24.49233,161.16336 24.03513,159.45786 22.70313,158.68746" id="Fill-15" fill="#3C76A6"></path>
                    <g id="Group-19" transform="translate(128.700000, 160.200000)">
                        <mask id="mask-6" fill="white">
                            <use xlink:href="#path-5"></use>
                        </mask>
                        <g id="Clip-18"></g>
                        <path d="M26.68689,0.36576 C20.81169,3.64986 0.71109,14.93676 0.71109,14.93676 L3.44169,19.80036 C3.44169,19.80036 23.53509,8.51526 29.40759,5.23476 C30.75129,4.48326 31.23099,2.78406 30.48129,1.43946 C29.72889,0.09576 28.03239,-0.38574 26.68689,0.36576" id="Fill-17" fill="#3C76A6" mask="url(#mask-6)"></path>
                    </g>
                    <path d="M165.75696,153.30798 L162.64926,155.03508 C161.30196,155.78388 160.81776,157.47948 161.56566,158.82678 C162.07506,159.74388 163.02636,160.26048 164.00646,160.26048 C164.46456,160.26048 164.92806,160.14798 165.35646,159.90948 L168.46596,158.18148 C169.81326,157.43448 170.29746,155.73618 169.54866,154.39068 C168.80166,153.04518 167.10516,152.55918 165.75696,153.30798" id="Fill-20" fill="#3C76A6"></path>
                </g>
            </g>
        </g>
    </g>
</svg>