<?xml version="1.0" encoding="UTF-8"?>
<svg width="118px" height="34px" viewBox="0 0 118 34" version="1.1" xmlns="http://www.w3.org/2000/svg" xmlns:xlink="http://www.w3.org/1999/xlink">
    <!-- Generator: sketchtool 55.2 (78181) - https://sketchapp.com -->
    <title>70E1BDFF-2C5D-4485-94A3-1250DFF79B26</title>
    <desc>Created with sketchtool.</desc>
    <defs>
        <polygon id="path-1" points="0.331373134 0.268244776 23.0712836 0.268244776 23.0712836 23.7622448 0.331373134 23.7622448"></polygon>
        <polygon id="path-3" points="0.328937313 0.48158209 9.43687761 0.48158209 9.43687761 8.88861493 0.328937313 8.88861493"></polygon>
    </defs>
    <g id="Symbols" stroke="none" stroke-width="1" fill="none" fill-rule="evenodd">
        <g id="Logo-full-colour">
            <g id="Group" transform="translate(0.000000, 0.000000)">
                <path d="M21.099791,14.1854597 L17.8195522,17.5986537 C16.2682388,15.9585343 14.3617015,15.160803 12.1456119,15.160803 C10.1949254,15.160803 8.55480597,15.8255791 7.22525373,17.1551313 C5.93934328,18.485191 5.27456716,20.1694597 5.27456716,22.1642955 C5.27456716,24.1591313 5.93934328,25.8434 7.22525373,27.1734597 C8.55480597,28.5030119 10.1949254,29.1677881 12.1456119,29.1677881 C14.3617015,29.1677881 16.2682388,28.3700567 17.8195522,26.7304448 L21.099791,30.1436388 C18.7060896,32.7144448 15.7359104,33.9998478 12.1456119,33.9998478 C8.73241791,33.9998478 5.85104478,32.8915493 3.502,30.630803 C1.15244776,28.3700567 -1.38555833e-13,25.5333403 -1.38555833e-13,22.1642955 C-1.38555833e-13,18.7957582 1.15244776,16.0026836 3.502,13.7419373 C5.85104478,11.481191 8.73241791,10.3287433 12.1456119,10.3287433 C15.7359104,10.3287433 18.7060896,11.6146537 21.099791,14.1854597" id="Fill-1" fill="#0C1831"></path>
                <path d="M39.714994,27.0846537 C41.0450537,25.7992507 41.7098299,24.1591313 41.7098299,22.2089522 C41.7098299,20.2582657 41.0450537,18.6181463 39.714994,17.3327433 C38.429591,16.0473403 36.7894716,15.3825642 34.8834418,15.3825642 C32.9774119,15.3825642 31.4260985,16.0473403 30.1401881,17.3327433 C28.8994418,18.6181463 28.2783075,20.2582657 28.2783075,22.2089522 C28.2783075,24.1591313 28.8994418,25.7992507 30.1401881,27.0846537 C31.4260985,28.3700567 32.9774119,29.0353403 34.8834418,29.0353403 C36.7894716,29.0353403 38.429591,28.3700567 39.714994,27.0846537 M41.3109642,14.2742657 L41.3109642,11.0381761 L46.6301881,11.0381761 L46.6301881,33.3792209 L41.3109642,33.3792209 L41.3109642,30.1436388 C40.5573821,32.3155791 37.8536209,33.8668925 34.174009,33.8668925 C31.0267254,33.8668925 28.3671134,32.758594 26.1951731,30.5425045 C24.0673821,28.2817582 23.0037403,25.5333403 23.0037403,22.2089522 C23.0037403,18.8840567 24.0673821,16.1361463 26.1951731,13.9195493 C28.3671134,11.658803 31.0267254,10.5505045 34.174009,10.5505045 C37.8536209,10.5505045 40.5573821,12.1018179 41.3109642,14.2742657" id="Fill-3" fill="#0C1831"></path>
                <path d="M50.9714299,11.0382776 L56.3353104,11.0382776 L56.3353104,24.0704269 C56.3353104,27.4394716 58.2413403,29.079591 61.2110119,29.079591 C64.181191,29.079591 66.0872209,27.3953224 66.0872209,24.0262776 L66.0872209,11.0382776 L71.4511015,11.0382776 L71.4511015,24.380994 C71.4511015,27.4836209 70.4752507,29.8773224 68.5250716,31.5174418 C66.5748925,33.1575612 64.1365343,33.9552925 61.1668627,33.9552925 C58.1966836,33.9552925 55.7588328,33.1575612 53.852803,31.5174418 C51.9467731,29.8773224 50.9714299,27.5724269 50.9714299,24.5139493 L50.9714299,11.0382776 Z" id="Fill-5" fill="#0C1831"></path>
                <path d="M77.4332239,26.5528836 C78.4527164,28.1488537 80.6246567,29.3454507 83.3289254,29.3454507 C86.1214925,29.3454507 87.3180896,28.281809 87.3180896,26.9076 C87.3180896,26.1540179 86.7862687,25.533391 86.0326866,25.1345254 C85.5450149,24.8239582 84.6143284,24.5138985 83.9495522,24.2921373 C83.2842687,24.0703761 81.954209,23.6715104 81.2006269,23.3614507 C77.6103284,22.0755403 75.7042985,20.2583164 75.7042985,17.0668836 C75.7042985,14.9832418 76.4578806,13.3877791 77.9650448,12.1906746 C79.5163582,10.9935701 81.3782388,10.3734507 83.5948358,10.3734507 C86.7421194,10.3734507 89.1353134,11.4812418 90.8200896,13.6531821 L87.8499104,16.8009731 C86.8745672,15.5597194 85.4120597,14.9390925 83.5060299,14.9390925 C81.8659104,14.9390925 80.8017612,15.7368239 80.8017612,16.9339284 C80.8017612,17.6875104 81.2006269,18.0863761 81.8217612,18.4852418 C82.1759701,18.707003 83.0625075,19.0617194 83.6389851,19.2829731 C84.3037612,19.4605851 85.5450149,19.9036 86.4315522,20.2141672 C90.5541791,21.6766746 92.4155522,23.6715104 92.4155522,26.8629433 C92.4155522,30.9855701 89.3129254,33.9557493 83.2401194,33.9557493 C78.7627761,33.9557493 75.4383881,32.2268239 74.0200299,29.4342567 L77.4332239,26.5528836 Z" id="Fill-7" fill="#0C1831"></path>
                <g id="Group-11" transform="translate(94.387958, 10.149254)">
                    <mask id="mask-2" fill="white">
                        <use xlink:href="#path-1"></use>
                    </mask>
                    <g id="Clip-10"></g>
                    <path d="M17.6632537,9.66594627 C17.6632537,8.33588657 17.0867761,7.18343881 15.9789851,6.25224478 C14.8706866,5.27740896 13.5852836,4.78973731 12.0334627,4.78973731 C10.3933433,4.78973731 8.93032836,5.27740896 7.73373134,6.20809552 C6.53713433,7.13928955 5.87185075,8.29173731 5.73940299,9.66594627 L17.6632537,9.66594627 Z M0.331373134,12.0596478 C0.331373134,8.51299104 1.43916418,5.67627463 3.61110448,3.50433433 C5.82770149,1.33188657 8.62026866,0.268244776 12.0334627,0.268244776 C15.2695522,0.268244776 17.9291642,1.33188657 19.9681493,3.50433433 C22.051791,5.67627463 23.0712836,8.33588657 23.0712836,11.5273194 C23.0712836,12.192603 23.0271343,12.8132299 22.9824776,13.3892 L5.6059403,13.3892 C5.78355224,16.9353493 8.39901493,19.2407522 12.3440299,19.2407522 C14.6489254,19.2407522 16.6437612,18.3983642 18.3721791,16.6694388 L21.5641194,19.7725731 C19.0374627,22.4321851 15.9343284,23.7622448 12.1669254,23.7622448 C8.66492537,23.7622448 5.78355224,22.6980955 3.61110448,20.6144537 C1.43916418,18.5313194 0.331373134,15.7387522 0.331373134,12.2367522 L0.331373134,12.0596478 Z" id="Fill-9" fill="#0C1831" mask="url(#mask-2)"></path>
                </g>
                <g id="Group-14" transform="translate(56.328257, 0.000000)">
                    <mask id="mask-4" fill="white">
                        <use xlink:href="#path-3"></use>
                    </mask>
                    <g id="Clip-13"></g>
                    <path d="M4.88290746,8.88861493 L4.22269851,8.29285373 C1.87720597,6.13968955 0.328937313,4.74213731 0.328937313,3.0015403 C0.328937313,1.58115224 1.42201194,0.481480597 2.83377313,0.481480597 C3.63048955,0.481480597 4.38204179,0.847868657 4.88290746,1.44362985 C5.38377313,0.847868657 6.13532537,0.481480597 6.93204179,0.481480597 C8.34380299,0.481480597 9.43687761,1.58115224 9.43687761,3.0015403 C9.43687761,4.74213731 7.88860896,6.13968955 5.54311642,8.29285373 L4.88290746,8.88861493 Z" id="Fill-12" fill="#3B75A4" mask="url(#mask-4)"></path>
                </g>
            </g>
        </g>
    </g>
</svg>