<?xml version="1.0" encoding="UTF-8"?>
<svg width="77px" height="81px" viewBox="0 0 77 81" version="1.1" xmlns="http://www.w3.org/2000/svg" xmlns:xlink="http://www.w3.org/1999/xlink">
    <!-- Generator: sketchtool 55.2 (78181) - https://sketchapp.com -->
    <title>2BACB30D-784D-44BE-A2CF-A743CF16768C</title>
    <desc>Created with sketchtool.</desc>
    <defs>
        <polygon id="path-1" points="0 0.781169353 21.290412 0.781169353 21.290412 21.8915718 0 21.8915718"></polygon>
    </defs>
    <g id="Symbols" stroke="none" stroke-width="1" fill="none" fill-rule="evenodd">
        <g id="Charity-icon">
            <g id="Group-20" transform="translate(0.000000, -0.000000)">
                <path d="M73.0922,68.0537769 L71.7212,68.8209253 C71.1282,69.1524216 70.9142,69.905549 71.2442,70.5034441 C71.4692,70.9110543 71.8872,71.1403976 72.3192,71.1403976 C72.5212,71.1403976 72.7262,71.0903226 72.9152,70.9841637 L74.2862,70.2170153 C74.8802,69.885519 75.0932,69.1313901 74.7642,68.5344966 C74.4342,67.937603 73.6872,67.7212792 73.0922,68.0537769" id="Fill-1" fill="#A5D6FE"></path>
                <path d="M68.5194,71.2754999 C65.9284,72.7336828 57.0654,77.7441835 57.0654,77.7441835 L58.2684,79.9024144 C58.2684,79.9024144 67.1284,74.8929151 69.7184,73.4367352 C70.3114,73.103236 70.5234,72.349107 70.1924,71.7522135 C69.8604,71.1553199 69.1124,70.9420006 68.5194,71.2754999" id="Fill-3" fill="#A5D6FE"></path>
                <g id="Group-7" transform="translate(0.000000, 50.858936)">
                    <mask id="mask-2" fill="white">
                        <use xlink:href="#path-1"></use>
                    </mask>
                    <g id="Clip-6"></g>
                    <path d="M10.0117,19.5821145 L3.4767,15.7774189 L20.7867,3.01731694 C21.3357,2.61371274 21.4537,1.83955382 21.0527,1.28772774 C20.6517,0.735901649 19.8817,0.616723238 19.3347,1.02032744 L0.5027,14.9001055 C0.1687,15.1474759 -0.0203,15.5480756 0.0017,15.9657007 C0.0247,16.3833259 0.2547,16.7608912 0.6147,16.9702045 L8.7807,21.7253229 C8.9747,21.8374909 9.1857,21.8915718 9.3947,21.8915718 C9.8197,21.8915718 10.2327,21.6702405 10.4597,21.2726453 C10.7997,20.6817607 10.5997,19.9246273 10.0117,19.5821145" id="Fill-5" fill="#A5D6FE" mask="url(#mask-2)"></path>
                </g>
                <path d="M53.0088,72.7059412 C48.2178,67.1956924 43.9198,61.7174915 40.2238,56.4115484 C41.7188,54.2182651 43.0548,52.1401541 44.2468,50.1832246 C52.2338,57.2838543 61.1138,63.6233445 64.7238,66.1260912 L53.0088,72.7059412 Z M24.4398,72.7059412 L12.7298,66.1290957 C19.8998,61.1776834 47.1978,41.598373 48.9998,29.3079742 L51.1928,29.3079742 C49.9618,33.9198783 44.6178,49.5002021 24.4398,72.7059412 L24.4398,72.7059412 Z M26.2558,29.3079742 L28.4498,29.3079742 C28.9658,33.0495754 31.7768,37.610403 36.9978,43.1857493 C35.9728,44.2202981 34.8948,45.2588528 33.7838,46.2934015 C28.8608,37.7225709 26.9358,31.8527838 26.2558,29.3079742 L26.2558,29.3079742 Z M46.5138,29.3079742 C45.8908,32.7120702 42.8628,36.9734495 38.7118,41.4060852 C34.1778,36.5488138 31.5198,32.4076144 30.9378,29.3079742 L46.5138,29.3079742 Z M32.1868,19.8938813 L45.2618,19.8938813 L50.3148,26.8322681 L27.1338,26.8322681 L32.1868,19.8938813 Z M67.7408,65.1987028 C67.6218,65.1185829 55.7478,57.1666789 45.5318,48.0259952 C52.6778,35.7365979 53.8828,28.7190927 53.9548,28.264412 C53.9698,28.1702711 53.9718,28.0781331 53.9648,27.9869967 C53.9638,27.9649637 53.9588,27.9459352 53.9558,27.9249037 C53.9468,27.8417793 53.9288,27.7616594 53.9038,27.6845439 C53.8948,27.6595064 53.8868,27.6334675 53.8768,27.60843 C53.8388,27.5132876 53.7928,27.4221511 53.7338,27.3400282 C53.7328,27.3400282 53.7328,27.3390267 53.7318,27.3390267 L46.8768,17.9249337 C46.6448,17.606457 46.2768,17.4191766 45.8858,17.4191766 L31.5638,17.4191766 C31.1718,17.4191766 30.8048,17.606457 30.5728,17.9249337 L23.7168,27.3390267 C23.7158,27.3390267 23.7158,27.3400282 23.7148,27.3400282 C23.6558,27.4221511 23.6098,27.5132876 23.5718,27.60843 C23.5618,27.6334675 23.5538,27.6595064 23.5458,27.6845439 C23.5198,27.7616594 23.5018,27.8417793 23.4928,27.9249037 C23.4898,27.9459352 23.4848,27.9649637 23.4838,27.9869967 C23.4778,28.0781331 23.4788,28.1702711 23.4938,28.264412 C23.5398,28.5588528 24.7108,35.570349 31.9208,47.9959502 C23.9958,55.1065949 14.8208,61.7865949 9.7078,65.1987028 C9.3498,65.4370597 9.1418,65.8466729 9.1578,66.2773175 C9.1748,66.7089637 9.4128,67.1005499 9.7868,67.3108648 L24.1088,75.3539052 C24.2968,75.4600642 24.5028,75.5111406 24.7068,75.5111406 C25.0508,75.5111406 25.3888,75.3659232 25.6288,75.0925139 C30.9178,69.062487 35.2178,63.5432246 38.7298,58.5657733 C42.5308,63.9588468 46.9258,69.5131616 51.8198,75.0925139 C52.0598,75.3659232 52.3978,75.5111406 52.7418,75.5111406 C52.9458,75.5111406 53.1518,75.4600642 53.3398,75.3539052 L67.6608,67.3108648 C68.0358,67.1005499 68.2738,66.7089637 68.2908,66.2773175 C68.3068,65.8466729 68.0988,65.4370597 67.7408,65.1987028 L67.7408,65.1987028 Z" id="Fill-8" fill="#FFFFFF"></path>
                <path d="M17.8547,19.7232258 C18.0937,19.9645871 18.4097,20.0857685 18.7237,20.0857685 C19.0377,20.0857685 19.3537,19.9645871 19.5927,19.7232258 C20.0737,19.2395016 20.0737,18.4563292 19.5927,17.9736066 L12.9917,11.3276576 C12.5117,10.8439334 11.7327,10.8439334 11.2537,11.3276576 C10.7737,11.8113817 10.7737,12.5945541 11.2537,13.0782783 L17.8547,19.7232258 Z" id="Fill-10" fill="#A5D6FE"></path>
                <path d="M58.1154,20.086069 C58.4294,20.086069 58.7454,19.9648876 58.9844,19.7235262 L65.5854,13.0775772 C66.0664,12.5948546 66.0664,11.8106807 65.5854,11.327958 C65.1064,10.8442339 64.3274,10.8442339 63.8474,11.327958 L57.2464,17.973907 C56.7664,18.4566297 56.7664,19.2398021 57.2464,19.7235262 C57.4854,19.9648876 57.8014,20.086069 58.1154,20.086069" id="Fill-12" fill="#A5D6FE"></path>
                <path d="M75.6093,37.4381451 L66.2733,37.4381451 C65.5943,37.4381451 65.0443,37.9919742 65.0443,38.6759982 C65.0443,39.3590207 65.5943,39.9138513 66.2733,39.9138513 L75.6093,39.9138513 C76.2883,39.9138513 76.8383,39.3590207 76.8383,38.6759982 C76.8383,37.9919742 76.2883,37.4381451 75.6093,37.4381451" id="Fill-14" fill="#A5D6FE"></path>
                <path d="M1.2298,39.9134507 L10.5658,39.9134507 C11.2448,39.9134507 11.7948,39.3596216 11.7948,38.6755976 C11.7948,37.9925751 11.2448,37.4377445 10.5658,37.4377445 L1.2298,37.4377445 C0.5508,37.4377445 0.0008,37.9925751 0.0008,38.6755976 C0.0008,39.3596216 0.5508,39.9134507 1.2298,39.9134507" id="Fill-16" fill="#A5D6FE"></path>
                <path d="M37.1901,10.6358219 L37.1901,1.23775292 C37.1901,0.553728936 37.7411,-0.000100149925 38.4191,-0.000100149925 C39.0981,-0.000100149925 39.6491,0.553728936 39.6491,1.23775292 L39.6491,10.6358219 C39.6491,11.3188444 39.0981,11.873675 38.4191,11.873675 C37.7411,11.873675 37.1901,11.3188444 37.1901,10.6358219" id="Fill-18" fill="#A5D6FE"></path>
            </g>
        </g>
    </g>
</svg>