<?xml version="1.0" encoding="UTF-8"?>
<svg width="76px" height="76px" viewBox="0 0 76 76" version="1.1" xmlns="http://www.w3.org/2000/svg" xmlns:xlink="http://www.w3.org/1999/xlink">
    <!-- Generator: sketchtool 55.2 (78181) - https://sketchapp.com -->
    <title>FEC9759C-0F50-410F-9C40-31E0DB1FE90D</title>
    <desc>Created with sketchtool.</desc>
    <defs>
        <polygon id="path-1" points="0 75.6615625 75.6473125 75.6615625 75.6473125 0 0 0"></polygon>
    </defs>
    <g id="Page-1" stroke="none" stroke-width="1" fill="none" fill-rule="evenodd">
        <g id="About-us" transform="translate(-252.000000, -2879.000000)">
            <g id="Cooperation" transform="translate(252.000000, 2879.000000)">
                <g id="Group-18">
                    <path d="M59.6468188,58.5952875 C57.9356312,58.5952875 56.5438812,57.2035375 56.5438812,55.4935375 C56.5438812,53.7811625 57.9356312,52.3894125 59.6468188,52.3894125 C61.3580063,52.3894125 62.7485688,53.7811625 62.7485688,55.4935375 C62.7485688,57.2035375 61.3580063,58.5952875 59.6468188,58.5952875 M59.6468188,50.0144125 C56.6258188,50.0144125 54.1688812,52.4725375 54.1688812,55.4935375 C54.1688812,58.51335 56.6258188,60.9702875 59.6468188,60.9702875 C62.6666313,60.9702875 65.1235688,58.51335 65.1235688,55.4935375 C65.1235688,52.4725375 62.6666313,50.0144125 59.6468188,50.0144125" id="Fill-1" fill="#3C76A6"></path>
                    <path d="M70.330875,68.0686875 L70.330875,66.6840625 C70.330875,64.1166875 68.240875,62.0266875 65.6735,62.0266875 L53.6191875,62.0266875 C51.0518125,62.0266875 48.963,64.1166875 48.963,66.6840625 L48.963,68.1518125 C47.0879375,65.813625 45.9598125,62.8531875 45.9598125,59.6303125 C45.9598125,52.100375 52.086125,45.972875 59.6160625,45.972875 C67.1448125,45.972875 73.2723125,52.100375 73.2723125,59.6303125 C73.2723125,62.8151875 72.16675,65.7435625 70.330875,68.0686875 L70.330875,68.0686875 Z M55.9181875,72.7640625 L55.9181875,69.727625 L53.5431875,69.727625 L53.5431875,71.84375 C52.7618125,71.4530625 52.0255625,70.9923125 51.338,70.46625 L51.338,66.6840625 C51.338,65.4253125 52.3604375,64.4016875 53.6191875,64.4016875 L65.6735,64.4016875 C66.93225,64.4016875 67.955875,65.4253125 67.955875,66.6840625 L67.955875,70.41875 C67.2695,70.95075 66.5320625,71.418625 65.7506875,71.8140625 L65.7506875,69.727625 L63.3756875,69.727625 L63.3756875,72.7474375 C62.1786875,73.090625 60.921125,73.2865625 59.6160625,73.2865625 C58.332375,73.2865625 57.0961875,73.095375 55.9181875,72.7640625 L55.9181875,72.7640625 Z M26.74725,68.0675 L26.74725,66.6840625 C26.74725,64.1166875 24.6584375,62.0266875 22.089875,62.0266875 L10.0355625,62.0266875 C7.467,62.0266875 5.3781875,64.1166875 5.3781875,66.6840625 L5.3781875,68.153 C3.5043125,65.813625 2.375,62.8531875 2.375,59.6303125 C2.375,52.100375 8.5013125,45.972875 16.03125,45.972875 C23.5611875,45.972875 29.6875,52.100375 29.6875,59.6303125 C29.6875,62.8151875 28.5819375,65.742375 26.74725,68.0675 L26.74725,68.0675 Z M12.3345625,72.7640625 L12.3345625,69.727625 L9.9595625,69.727625 L9.9595625,71.84375 C9.1781875,71.45425 8.44075,70.9923125 7.7531875,70.46625 L7.7531875,66.6840625 C7.7531875,65.4253125 8.7768125,64.4016875 10.0355625,64.4016875 L22.089875,64.4016875 C23.348625,64.4016875 24.37225,65.4253125 24.37225,66.6840625 L24.37225,70.41875 C23.6846875,70.95075 22.94725,71.418625 22.165875,71.8140625 L22.165875,69.727625 L19.790875,69.727625 L19.790875,72.7474375 C18.5950625,73.090625 17.3363125,73.2865625 16.03125,73.2865625 C14.74875,73.2865625 13.5125625,73.095375 12.3345625,72.7640625 L12.3345625,72.7640625 Z M2.375,16.03125 C2.375,8.500125 8.5013125,2.375 16.03125,2.375 C23.5611875,2.375 29.6875,8.5013125 29.6875,16.03125 C29.6875,19.2173125 28.5819375,22.1445 26.74725,24.469625 L26.74725,23.0861875 C26.74725,20.5188125 24.6584375,18.4288125 22.089875,18.4288125 L10.0355625,18.4288125 C7.467,18.4288125 5.3781875,20.5188125 5.3781875,23.0861875 L5.3781875,24.5539375 C3.5043125,22.21575 2.375,19.254125 2.375,16.03125 L2.375,16.03125 Z M9.9595625,26.12975 L9.9595625,28.2446875 C9.1781875,27.8551875 8.44075,27.39325 7.7531875,26.8671875 L7.7531875,23.0861875 C7.7531875,21.828625 8.7768125,20.8038125 10.0355625,20.8038125 L22.089875,20.8038125 C23.348625,20.8038125 24.37225,21.828625 24.37225,23.0861875 L24.37225,26.8196875 C23.6846875,27.3516875 22.94725,27.8195625 22.165875,28.215 L22.165875,26.12975 L19.790875,26.12975 L19.790875,29.148375 C18.5950625,29.4915625 17.3363125,29.6875 16.03125,29.6875 C14.74875,29.6875 13.5125625,29.4963125 12.3345625,29.165 L12.3345625,26.12975 L9.9595625,26.12975 Z M47.9310625,48.6875 C45.4990625,51.283375 43.9220625,54.6808125 43.6441875,58.4428125 L32.0019375,58.4428125 C31.4200625,50.5495 25.1096875,44.2415 17.21875,43.6584375 L17.21875,32.0019375 C20.265875,31.7775 23.073125,30.69925 25.4125,29.0023125 L47.9310625,48.6875 Z M45.9598125,16.03125 C45.9598125,8.500125 52.086125,2.375 59.6160625,2.375 C67.1448125,2.375 73.2723125,8.5013125 73.2723125,16.03125 C73.2723125,19.2173125 72.16675,22.1445 70.330875,24.469625 L70.330875,23.0861875 C70.330875,20.5188125 68.240875,18.4288125 65.6735,18.4288125 L53.6191875,18.4288125 C51.0518125,18.4288125 48.963,20.5188125 48.963,23.0861875 L48.963,24.5539375 C47.0879375,22.21575 45.9598125,19.254125 45.9598125,16.03125 L45.9598125,16.03125 Z M53.5431875,26.12975 L53.5431875,28.2446875 C52.7618125,27.8551875 52.0255625,27.39325 51.338,26.8671875 L51.338,23.0861875 C51.338,21.828625 52.3604375,20.8038125 53.6191875,20.8038125 L65.6735,20.8038125 C66.93225,20.8038125 67.955875,21.828625 67.955875,23.0861875 L67.955875,26.8196875 C67.2695,27.352875 66.5320625,27.8195625 65.7506875,28.215 L65.7506875,26.12975 L63.3756875,26.12975 L63.3756875,29.148375 C62.1786875,29.4915625 60.921125,29.6875 59.6160625,29.6875 C58.332375,29.6875 57.0961875,29.4963125 55.9181875,29.165 L55.9181875,26.12975 L53.5431875,26.12975 Z M60.9294375,43.6655625 L60.9294375,31.996 C69.15525,31.323875 75.6473125,24.426875 75.6473125,16.03125 C75.6473125,7.1915 68.4558125,7.10542736e-15 59.6160625,7.10542736e-15 C50.775125,7.10542736e-15 43.5848125,7.1915 43.5848125,16.03125 C43.5848125,24.512375 50.209875,31.4580625 58.5544375,32.007875 L58.5544375,43.6525 C55.2175625,43.8721875 52.1585625,45.108375 49.6861875,47.0665625 L27.2543125,27.4585625 C29.9523125,24.80925 31.7074375,21.215875 32.0019375,17.21875 L33.4388125,17.21875 L33.4388125,14.84375 L32.0019375,14.84375 C31.390375,6.5585625 24.469625,7.10542736e-15 16.03125,7.10542736e-15 C7.1915,7.10542736e-15 0,7.1915 0,16.03125 C0,24.4708125 6.5585625,31.390375 14.84375,32.0019375 L14.84375,43.6584375 C6.5585625,44.27 0,51.19075 0,59.6303125 C0,68.4700625 7.1915,75.6615625 16.03125,75.6615625 C24.469625,75.6615625 31.390375,69.103 32.0019375,60.8178125 L43.6441875,60.8178125 C44.25575,69.103 51.1765,75.6615625 59.6160625,75.6615625 C68.4558125,75.6615625 75.6473125,68.4700625 75.6473125,59.6303125 C75.6473125,51.2335 69.15525,44.3376875 60.9294375,43.6655625 L60.9294375,43.6655625 Z" id="Fill-3" fill="#0C1831"></path>
                    <path d="M16.063075,58.5952875 C14.3518875,58.5952875 12.9601375,57.2035375 12.9601375,55.4935375 C12.9601375,53.7811625 14.3518875,52.3894125 16.063075,52.3894125 C17.7742625,52.3894125 19.1660125,53.7811625 19.1660125,55.4935375 C19.1660125,57.2035375 17.7742625,58.5952875 16.063075,58.5952875 M16.063075,50.0144125 C13.042075,50.0144125 10.5851375,52.4725375 10.5851375,55.4935375 C10.5851375,58.51335 13.042075,60.9702875 16.063075,60.9702875 C19.0828875,60.9702875 21.5410125,58.51335 21.5410125,55.4935375 C21.5410125,52.4725375 19.0828875,50.0144125 16.063075,50.0144125" id="Fill-5" fill="#3C76A6"></path>
                    <path d="M59.6468188,8.79165625 C61.3580063,8.79165625 62.7485688,10.1834062 62.7485688,11.8945937 C62.7485688,13.6057813 61.3580063,14.9975312 59.6468188,14.9975312 C57.9356312,14.9975312 56.5438812,13.6057813 56.5438812,11.8945937 C56.5438812,10.1834062 57.9356312,8.79165625 59.6468188,8.79165625 M59.6468188,17.3725313 C62.6666313,17.3725313 65.1235688,14.9144063 65.1235688,11.8945938 C65.1235688,8.87359375 62.6666313,6.41665625 59.6468188,6.41665625 C56.6258188,6.41665625 54.1688812,8.87359375 54.1688812,11.8945938 C54.1688812,14.9144063 56.6258188,17.3725313 59.6468188,17.3725313" id="Fill-7" fill="#3C76A6"></path>
                    <path d="M16.063075,8.79165625 C17.7742625,8.79165625 19.1660125,10.1834062 19.1660125,11.8945937 C19.1660125,13.6057813 17.7742625,14.9975312 16.063075,14.9975312 C14.3518875,14.9975312 12.9601375,13.6057813 12.9601375,11.8945937 C12.9601375,10.1834062 14.3518875,8.79165625 16.063075,8.79165625 M16.063075,17.3725313 C19.0828875,17.3725313 21.5410125,14.9144063 21.5410125,11.8945938 C21.5410125,8.87359375 19.0828875,6.41665625 16.063075,6.41665625 C13.042075,6.41665625 10.5851375,8.87359375 10.5851375,11.8945938 C10.5851375,14.9144063 13.042075,17.3725313 16.063075,17.3725313" id="Fill-9" fill="#3C76A6"></path>
                    <mask id="mask-2" fill="white">
                        <use xlink:href="#path-1"></use>
                    </mask>
                    <g id="Clip-12"></g>
                    <polygon id="Fill-11" fill="#3C76A6" mask="url(#mask-2)" points="40.5638125 17.21875 42.9388125 17.21875 42.9388125 14.84375 40.5638125 14.84375"></polygon>
                    <polygon id="Fill-13" fill="#3C76A6" mask="url(#mask-2)" points="35.8138125 17.21875 38.1888125 17.21875 38.1888125 14.84375 35.8138125 14.84375"></polygon>
                    <polygon id="Fill-14" fill="#3C76A6" mask="url(#mask-2)" points="43.8267063 34.1141437 42.1475813 32.4350187 40.4684563 34.1141437 42.1475813 35.7932687"></polygon>
                    <polygon id="Fill-15" fill="#3C76A6" mask="url(#mask-2)" points="45.5058312 29.0759375 43.8267063 30.7550625 45.5058312 32.4341875 47.1849563 30.7550625"></polygon>
                    <polygon id="Fill-16" fill="#3C76A6" mask="url(#mask-2)" points="35.3135188 42.623175 33.6343938 40.94405 31.9540813 42.6243625 33.6332063 44.3034875"></polygon>
                    <polygon id="Fill-17" fill="#3C76A6" mask="url(#mask-2)" points="31.9545562 45.9827313 30.2754312 44.3036063 28.5963063 45.9827313 30.2754312 47.6618563"></polygon>
                </g>
            </g>
        </g>
    </g>
</svg>