<?xml version="1.0" encoding="UTF-8"?>
<svg width="51px" height="40px" viewBox="0 0 51 40" version="1.1" xmlns="http://www.w3.org/2000/svg" xmlns:xlink="http://www.w3.org/1999/xlink">
    <!-- Generator: sketchtool 55.2 (78181) - https://sketchapp.com -->
    <title>0DE86846-4EB9-4E0A-A6D1-C334737627BB</title>
    <desc>Created with sketchtool.</desc>
    <g id="Page-1" stroke="none" stroke-width="1" fill="none" fill-rule="evenodd">
        <g id="About-us-alt" transform="translate(-695.000000, -1175.000000)" fill="#3C76A6">
            <g id="Group-19" transform="translate(695.000000, 1175.000000)">
                <path d="M4.77712593,23.5244145 L24.0738442,39.6252652 C24.373802,39.8750884 24.7408891,40 25.108826,40 C25.4759132,40 25.8430004,39.8750884 26.1429582,39.6252652 L45.4396764,23.5244145 C48.1690374,21.2462648 49.848971,18.0418998 50.1684728,14.5010383 C50.4879746,10.9601767 49.4096561,7.50683827 47.1323561,4.77747727 L45.8925872,5.81160938 L47.1323561,4.77662753 C42.4299016,-0.857140675 34.019187,-1.61595742 28.3854188,3.08479759 L25.108826,5.81925703 L21.8313835,3.08479759 C16.1950661,-1.61765689 7.78690073,-0.857990413 3.08444625,4.77747727 C-1.61715849,10.4120952 -0.858341752,18.82196 4.77712593,23.5244145" id="Fill-9"></path>
            </g>
        </g>
    </g>
</svg>