<?xml version="1.0" encoding="UTF-8"?>
<svg width="26px" height="26px" viewBox="0 0 26 26" version="1.1" xmlns="http://www.w3.org/2000/svg" xmlns:xlink="http://www.w3.org/1999/xlink">
    <!-- Generator: sketchtool 55.2 (78181) - https://sketchapp.com -->
    <title>8ED8CACB-D90B-4546-BF34-53A4D8BC1E42</title>
    <desc>Created with sketchtool.</desc>
    <g id="Symbols" stroke="none" stroke-width="1" fill="none" fill-rule="evenodd">
        <g id="instagram-icon">
            <g id="instagram-2">
                <g id="instagram">
                    <rect id="Rectangle" x="0" y="0" width="26" height="26"></rect>
                    <circle id="Oval" stroke="#FFFFFF" stroke-width="2" cx="13" cy="13" r="12"></circle>
                    <path d="M16.6250855,7.09090909 L9.37491448,7.09090909 C8.11582785,7.09090909 7.09090909,8.11513299 7.09090909,9.37491448 L7.09090909,16.6250855 C7.09090909,17.884867 8.11582785,18.9090909 9.37491448,18.9090909 L16.6250855,18.9090909 C17.8841722,18.9090909 18.9090909,17.884867 18.9090909,16.6250855 L18.9090909,9.37491448 C18.9090909,8.11513299 17.8841722,7.09090909 16.6250855,7.09090909 L16.6250855,7.09090909 Z M17.2803387,8.45352989 L17.5416061,8.45214017 L17.5416061,10.455422 L15.544578,10.4616758 L15.5376294,8.45839391 L17.2803387,8.45352989 L17.2803387,8.45352989 Z M11.3135744,11.7867741 C11.6915783,11.2628496 12.3058347,10.9195886 13,10.9195886 C13.6941653,10.9195886 14.3084217,11.2628496 14.6864256,11.7867741 C14.933101,12.1286453 15.0804114,12.5469512 15.0804114,13 C15.0804114,14.1465193 14.1472141,15.0797165 13,15.0797165 C11.8534807,15.0797165 10.9202835,14.1465193 10.9202835,13 C10.9202835,12.5469512 11.0675939,12.1286453 11.3135744,11.7867741 L11.3135744,11.7867741 Z M17.7577076,16.6250855 C17.7577076,17.2497648 17.2497648,17.7577076 16.6250855,17.7577076 L9.37491448,17.7577076 C8.75023518,17.7577076 8.2422924,17.2497648 8.2422924,16.6250855 L8.2422924,11.7867741 L10.0072372,11.7867741 C9.854368,12.1619986 9.7689002,12.5712713 9.7689002,13 C9.7689002,14.7816215 11.2183785,16.2317947 13,16.2317947 C14.7823163,16.2317947 16.2317947,14.7816215 16.2317947,13 C16.2317947,12.5712713 16.1449371,12.1619986 15.9934576,11.7867741 L17.7577076,11.7867741 L17.7577076,16.6250855 L17.7577076,16.6250855 Z" id="Shape" fill="#FFFFFF"></path>
                </g>
            </g>
        </g>
    </g>
</svg>