<?xml version="1.0" encoding="UTF-8"?>
<svg width="98px" height="81px" viewBox="0 0 98 81" version="1.1" xmlns="http://www.w3.org/2000/svg" xmlns:xlink="http://www.w3.org/1999/xlink">
    <!-- Generator: sketchtool 55.2 (78181) - https://sketchapp.com -->
    <title>0CB59B33-738D-4CEA-847C-C52AADBA085C</title>
    <desc>Created with sketchtool.</desc>
    <g id="Page-1" stroke="none" stroke-width="1" fill="none" fill-rule="evenodd">
        <g id="About-us" transform="translate(-1102.000000, -2881.000000)">
            <g id="Handshake" transform="translate(1101.000000, 2880.000000)">
                <g id="Group-7">
                    <g id="Group-6" transform="translate(10.000000, 0.368486)">
                        <path d="M62.9902854,46.1394045 L50.4384119,33.6292928 L43.8547891,33.6010422 C42.0762283,33.604727 40.6121092,34.1685112 39.5029653,35.2801117 L35.2948511,39.5091067 C34.3760918,40.4315509 33.1527171,40.9412903 31.850732,40.9437469 C30.5303226,40.9204094 29.3241439,40.4413772 28.4016998,39.5226179 L27.6696402,38.7917866 L40.2178288,26.1944665 L49.6903846,26.1944665 L52.487196,23.3988834 L69.1083871,40.022531 L62.9902854,46.1394045 Z M61.4672084,52.3398015 C60.2954218,53.515273 58.3854342,53.5177295 57.2087345,52.3459429 L57.1829404,52.3729653 L52.9981638,48.2016998 L51.2625931,49.9409553 L55.6131886,54.2780397 L55.6242432,54.2669851 C56.6363524,55.4473697 56.5982754,57.2247022 55.4829901,58.3436725 C54.9118362,58.9160546 54.1662655,59.2575186 53.3494541,59.2304963 C52.5486104,59.2304963 51.7968983,58.9197395 51.228201,58.354727 L47.0385112,54.1797767 L45.3041687,55.9190323 L49.4901737,60.0915261 C50.6656452,61.2633127 50.66933,63.1745285 49.4987717,64.35 C48.3810298,65.4701985 46.6049256,65.510732 45.4233127,64.5059926 L45.4429653,64.4851117 L41.0911414,60.1480273 L39.3580273,61.8872829 L43.542804,66.0597767 L43.5059553,66.0966253 C44.6814268,67.2696402 44.6851117,69.1783995 43.5120968,70.353871 C42.9446278,70.9237965 42.1904591,71.2394665 41.3847022,71.2406948 L41.3810174,71.2406948 C40.9818238,71.2406948 40.5961414,71.1633127 40.2387097,71.0171464 C40.8209181,70.1573449 41.1611538,69.12067 41.1586973,68.0066129 C41.1525558,65.0501241 38.74634,62.6488213 35.7910794,62.6488213 L35.7824814,62.6488213 C35.5257692,62.6488213 35.28134,62.6905831 35.0344541,62.7262035 C35.0688462,62.4793176 35.1093797,62.2348883 35.1093797,61.9781762 C35.1069231,60.5447643 34.5468238,59.1985608 33.5310298,58.1852233 C32.5176923,57.1755707 31.1727171,56.6203846 29.7417618,56.6203846 L29.7331638,56.6203846 C29.4776799,56.6203846 29.2332506,56.6621464 28.9875931,56.6965385 C29.0219851,56.4496526 29.060062,56.203995 29.060062,55.9497395 C29.0576055,54.5163275 28.4962779,53.1688958 27.4817122,52.1567866 C26.4683747,51.1483623 25.1246278,50.5931762 23.6949007,50.5931762 L23.6838462,50.5931762 C23.4283623,50.5931762 23.183933,50.6337097 22.9382754,50.66933 C22.9726675,50.4212159 23.0107444,50.1755583 23.0107444,49.9213027 C23.0082878,48.4878908 22.4481886,47.1404591 21.4311663,46.1283499 C20.4190571,45.1199256 19.0740819,44.5635112 17.6455831,44.5635112 L17.6345285,44.5635112 C16.992134,44.5647395 16.3730769,44.6937097 15.7871836,44.9098883 L10.5534491,39.6761538 L27.5885732,22.6398015 L31.1444665,26.1944665 L36.7503722,26.1944665 L24.1960422,38.7991563 L26.6673573,41.2618734 C28.0516377,42.6412407 29.8891563,43.4003226 31.842134,43.4003226 L31.8544169,43.4003226 C33.813536,43.3966377 35.6522829,42.6301861 37.035335,41.2422208 L41.2434491,37.0132258 C41.8833871,36.3720596 42.7395037,36.0600744 43.8523325,36.0576179 L49.418933,36.0809553 L61.4586104,48.0813275 C62.6353102,49.2531141 62.638995,51.1631017 61.4672084,52.3398015 L61.4672084,52.3398015 Z M17.6443548,52.8409429 C16.0414392,52.8409429 14.7357692,51.5377295 14.7333127,49.9348139 C14.7333127,49.7677667 14.7541935,49.6031762 14.7812159,49.4410422 C14.8807072,48.851464 15.1521588,48.3073325 15.5820596,47.8762035 C15.7724442,47.6845906 15.9910794,47.5347395 16.2195409,47.4057692 C16.6494417,47.1625682 17.1309305,47.0213151 17.6382134,47.0200868 L17.6455831,47.0200868 C18.4206328,47.0200868 19.1490074,47.3210174 19.6980521,47.8688337 C20.2483251,48.4166501 20.5529404,49.1474814 20.5541687,49.9262159 C20.5541687,50.4334988 20.4141439,50.9149876 20.1721712,51.3461166 C20.0444293,51.5745782 19.8958065,51.7932134 19.7054218,51.983598 C19.2742928,52.4171836 18.7313896,52.6898635 18.1430397,52.7918114 C17.9809057,52.8188337 17.8175434,52.8397146 17.649268,52.8409429 L17.6443548,52.8409429 Z M23.6936725,58.8693797 C22.0907568,58.8693797 20.7850868,57.5661663 20.7826303,55.9644789 C20.7826303,55.7949752 20.8047395,55.6316129 20.8317618,55.4707072 C20.9816129,54.594938 21.5232878,53.8591935 22.2700868,53.4366625 C22.6913896,53.1983747 23.1704218,53.0497519 23.687531,53.0497519 L23.6887593,53.0497519 C24.4822333,53.0153598 25.1958685,53.3482258 25.7473697,53.8972705 C26.2976427,54.4450868 26.6022581,55.1759181 26.6034864,55.9546526 C26.6034864,56.4619355 26.4634615,56.9434243 26.2214888,57.3745533 C26.0937469,57.6030149 25.9438958,57.8216501 25.7535112,58.013263 C25.3236104,58.4456203 24.7807072,58.7183002 24.1923573,58.8202481 C24.0302233,58.8484988 23.8656328,58.8693797 23.6973573,58.8693797 L23.6936725,58.8693797 Z M29.7429901,64.8978164 C28.1400744,64.8978164 26.8344045,63.5958313 26.8319479,61.9929156 C26.8319479,61.8234119 26.8540571,61.6600496 26.8810794,61.4991439 C27.0309305,60.6233747 27.5726055,59.8876303 28.3194045,59.4650993 C28.7407072,59.2255831 29.2197395,59.0781886 29.7380769,59.0769603 L29.7417618,59.0769603 C30.5168114,59.0769603 31.2476427,59.3778908 31.7966873,59.9257072 C32.3469603,60.4747519 32.6515757,61.2043548 32.652804,61.9830893 C32.652804,62.5001985 32.5066377,62.9804591 32.2695782,63.4017618 C31.8495037,64.1497891 31.1162159,64.6939206 30.2404467,64.8474566 C30.0795409,64.8744789 29.9161787,64.8978164 29.7479032,64.8978164 L29.7429901,64.8978164 Z M35.7923077,70.9262531 C34.1906203,70.9262531 32.8849504,69.624268 32.8812655,68.0201241 C32.8812655,67.8518486 32.9033747,67.6884864 32.930397,67.5275806 C33.0802481,66.6518114 33.6219231,65.9172953 34.3687221,65.493536 C34.7900248,65.2552481 35.2690571,65.1066253 35.7873945,65.105397 L35.7910794,65.105397 C37.393995,65.105397 38.6984367,66.4086104 38.7021293,68.0115261 C38.7033499,68.5298635 38.5571836,69.0088958 38.3201241,69.4301985 C37.8988213,70.1794541 37.1655335,70.7235856 36.2897643,70.8758933 C36.1288586,70.9041439 35.9667246,70.9262531 35.7972208,70.9262531 L35.7923077,70.9262531 Z M77.1880645,39.3211787 L74.5349628,41.9742804 L50.9186725,18.3579901 L66.6788337,2.5966005 L64.9420347,0.859801489 L47.4450744,18.3579901 L50.7491687,21.6620844 L48.6733623,23.7378908 L39.7080893,23.7378908 L39.1971216,23.7378908 L32.1614888,23.7378908 L29.3266005,20.9030025 L31.8716129,18.3579901 L14.3734243,0.859801489 L12.6366253,2.5966005 L28.3980149,18.3579901 L4.78049628,41.9742804 L1.73679901,38.9293548 L0,40.6673821 L4.78049628,45.4478784 L8.81665012,41.4129529 L13.7089206,46.3052233 C12.7901613,47.3001365 12.2742804,48.5775558 12.276737,49.939727 C12.2816501,52.8962159 14.6890943,55.2975186 17.6443548,55.2975186 L17.6529529,55.2975186 C17.9059801,55.2962903 18.152866,55.2582134 18.3997519,55.2225931 C18.3653598,55.4682506 18.3260546,55.7139082 18.3260546,55.9693921 C18.3309677,58.9246526 20.7384119,61.3259553 23.6936725,61.3259553 L23.7022705,61.3259553 C23.9552978,61.324727 24.2021836,61.2866501 24.4502978,61.2510298 C24.4159057,61.4979156 24.3753722,61.7423449 24.3753722,61.9978288 C24.3802854,64.9530893 26.7877295,67.3543921 29.7429901,67.3543921 L29.7515881,67.3543921 C30.0083002,67.3543921 30.2527295,67.3126303 30.4996154,67.2770099 C30.4652233,67.5238958 30.4246898,67.7695533 30.4246898,68.0250372 C30.4308313,70.9815261 32.8370471,73.3828288 35.793536,73.3828288 L35.802134,73.3828288 C36.7061538,73.3816005 37.5450744,73.1334864 38.2931017,72.7355211 C39.1958933,73.3570347 40.2608189,73.6972705 41.3810174,73.6972705 L41.3896154,73.6972705 C42.8512779,73.6948139 44.2232754,73.1224318 45.2525806,72.0894417 C46.2843424,71.0552233 46.8505831,69.6819975 46.8481266,68.220335 C46.8481266,68.0324069 46.8383002,67.8469355 46.8186476,67.661464 C48.3957692,67.8186849 50.0330769,67.2929777 51.2392556,66.0843424 C52.4417494,64.8744789 52.9625434,63.2383995 52.7991811,61.6588213 C52.982196,61.6772457 53.1639826,61.687072 53.3494541,61.687072 L53.3592804,61.687072 C54.8197146,61.6846154 56.1917122,61.1122333 57.2222457,60.0780149 C58.4284243,58.8681514 58.9479901,57.2308437 58.7846278,55.6512655 C60.3617494,55.8084864 62.0015136,55.2815509 63.206464,54.0741439 C64.9186973,52.3545409 65.2245409,49.7837345 64.1768114,47.7337221 L64.5231886,48.0800993 L70.8451861,41.75933 L74.5349628,45.4478784 L78.9248635,41.0579777 L77.1880645,39.3211787 Z" id="Fill-2" fill="#0C1831"></path>
                        <polygon id="Fill-4" fill="#FEFEFE" points="75.4667419 36.4803945 76.3351414 35.611995 74.4693722 33.7462258 73.6009727 34.6146253 72.7325732 35.4830248 74.5983424 37.348794"></polygon>
                    </g>
                    <g id="Group-8" transform="translate(66.550157, 50.999932)" fill="#3C76A6">
                        <path d="M28.4251836,16.1436025 C15.5553584,20.9957967 1.62596031,20.2151365 1.48724186,20.2055443 C0.710270989,20.158321 0.0498826399,20.7463987 0.0026593389,21.5189423 C-0.0445639621,22.2922239 0.542775844,22.9563016 1.31531953,23.0042627 C1.46436808,23.0131171 2.4641739,23.0706705 4.09263992,23.0706705 C8.93893118,23.0706705 19.3479797,22.56302 29.4146593,18.7674472 C30.1392419,18.4944375 30.5044846,17.6850006 30.2314749,16.9604181 C29.9584652,16.2358355 29.1497661,15.869855 28.4251836,16.1436025" id="Fill-4" transform="translate(15.160999, 19.561725) rotate(-33.000000) translate(-15.160999, -19.561725) "></path>
                        <path d="M30.870421,2.1297937 L28.4133336,3.26389079 C27.7101491,3.58855098 27.4031977,4.42159953 27.7278579,5.12478399 C27.9647122,5.63686166 28.4716249,5.93938593 29.0014113,5.93938593 C29.198421,5.93938593 29.3983821,5.89806555 29.5887511,5.80952186 L32.0458385,4.67542477 C32.7482851,4.35076457 33.0552365,3.51771603 32.7305763,2.81526943 C32.406654,2.11208496 31.5713919,1.80439564 30.870421,2.1297937" id="Fill-7" transform="translate(30.229224, 3.969693) rotate(-33.000000) translate(-30.229224, -3.969693) "></path>
                    </g>
                    <g id="Group-8" transform="translate(17.000000, 66.499932) scale(-1, -1) rotate(-92.000000) translate(-17.000000, -66.499932) translate(0.000000, 50.999932)" fill="#3C76A6">
                        <path d="M28.4251836,16.1436025 C15.5553584,20.9957967 1.62596031,20.2151365 1.48724186,20.2055443 C0.710270989,20.158321 0.0498826399,20.7463987 0.0026593389,21.5189423 C-0.0445639621,22.2922239 0.542775844,22.9563016 1.31531953,23.0042627 C1.46436808,23.0131171 2.4641739,23.0706705 4.09263992,23.0706705 C8.93893118,23.0706705 19.3479797,22.56302 29.4146593,18.7674472 C30.1392419,18.4944375 30.5044846,17.6850006 30.2314749,16.9604181 C29.9584652,16.2358355 29.1497661,15.869855 28.4251836,16.1436025" id="Fill-4" transform="translate(15.160999, 19.561725) rotate(-33.000000) translate(-15.160999, -19.561725) "></path>
                        <path d="M30.870421,2.1297937 L28.4133336,3.26389079 C27.7101491,3.58855098 27.4031977,4.42159953 27.7278579,5.12478399 C27.9647122,5.63686166 28.4716249,5.93938593 29.0014113,5.93938593 C29.198421,5.93938593 29.3983821,5.89806555 29.5887511,5.80952186 L32.0458385,4.67542477 C32.7482851,4.35076457 33.0552365,3.51771603 32.7305763,2.81526943 C32.406654,2.11208496 31.5713919,1.80439564 30.870421,2.1297937" id="Fill-7" transform="translate(30.229224, 3.969693) rotate(-33.000000) translate(-30.229224, -3.969693) "></path>
                    </g>
                </g>
            </g>
        </g>
    </g>
</svg>