<?xml version="1.0" encoding="UTF-8"?>
<svg width="86px" height="76px" viewBox="0 0 86 76" version="1.1" xmlns="http://www.w3.org/2000/svg" xmlns:xlink="http://www.w3.org/1999/xlink">
    <!-- Generator: sketchtool 55.2 (78181) - https://sketchapp.com -->
    <title>2BAD4553-06CE-4058-82E5-B7FFC4684D3F</title>
    <desc>Created with sketchtool.</desc>
    <defs>
        <polygon id="path-1" points="0 0.662675728 78.2093623 0.662675728 78.2093623 27.7083456 0 27.7083456"></polygon>
        <polygon id="path-3" points="0.619581438 0.361044846 30.9415803 0.361044846 30.9415803 7.37864078 0.619581438 7.37864078"></polygon>
    </defs>
    <g id="Page-1" stroke="none" stroke-width="1" fill="none" fill-rule="evenodd">
        <g id="About-us" transform="translate(-534.000000, -2879.000000)">
            <g id="HeartHand" transform="translate(534.000000, 2879.000000)">
                <g id="Group-19">
                    <g id="Group-3" transform="translate(0.000000, 42.006602)">
                        <mask id="mask-2" fill="white">
                            <use xlink:href="#path-1"></use>
                        </mask>
                        <g id="Clip-2"></g>
                        <path d="M75.1630408,14.9558408 C73.337565,18.8930835 55.5225748,22.8177825 39.3537592,24.3377825 C27.8866136,25.4135883 24.5964777,24.0625592 23.0100699,22.7639184 C21.2849437,21.3531223 15.203468,20.9118796 11.9760505,20.7753748 L11.9760505,8.32613204 L13.1477786,8.32613204 C14.8884,8.32613204 16.4740699,7.29976311 17.1875845,5.71261748 L17.7859922,4.38003495 C18.0361282,3.82516117 18.5902641,3.46655922 19.1990019,3.46655922 L31.2748854,3.46655922 C32.0223417,3.46655922 32.7247883,3.75727767 33.2826136,4.31510291 L34.4085942,5.37615146 C36.4251767,7.27836505 39.0623029,8.32613204 41.8344583,8.32613204 L53.7074291,8.32613204 C54.9367107,8.32613204 55.9365165,9.32593786 55.9365165,10.5544816 C55.9365165,11.7837631 54.9367107,12.7835689 53.7074291,12.7835689 C53.5067301,12.7835689 53.317099,12.8271029 53.1444388,12.9031029 C48.6169049,13.0587922 44.3313903,13.0528893 42.0167107,12.7924233 C41.2515456,12.7119961 40.5535262,13.2594913 40.4664583,14.0283456 C40.3801282,14.7979379 40.9335262,15.492268 41.7023806,15.5785981 C47.3817204,16.2183262 67.2892932,15.4140544 70.7365942,13.8815107 C72.4469631,13.1222485 74.7092544,13.1989864 75.2943806,13.792967 C75.5349243,14.0379379 75.3157786,14.6267534 75.1630408,14.9558408 M69.5980699,11.3196466 C68.4160117,11.8450058 63.6383417,12.3460155 58.2711184,12.664035 C58.5692155,12.0213553 58.7404,11.3085786 58.7404,10.5544816 C58.7404,7.77937476 56.4832738,5.52224854 53.7074291,5.52224854 L41.8344583,5.52224854 C39.7809825,5.52224854 37.8263806,4.74601553 36.3322058,3.33595728 L35.2364777,2.30368544 C34.1783806,1.24558835 32.7712738,0.662675728 31.2748854,0.662675728 L19.1990019,0.662675728 C17.488633,0.662675728 15.9302641,1.67059806 15.2285553,3.23118058 L14.6301476,4.56302524 C14.3682058,5.14593786 13.7867689,5.52224854 13.1477786,5.52224854 L11.9760505,5.52224854 L11.9760505,5.50380194 C11.9760505,2.83420971 9.8045165,0.662675728 7.13492427,0.662675728 L1.40172039,0.662675728 C0.627700971,0.662675728 -0.000221359223,1.28986019 -0.000221359223,2.06461748 C-0.000221359223,2.83863689 0.627700971,3.46655922 1.40172039,3.46655922 L7.13492427,3.46655922 C8.25869126,3.46655922 9.17216699,4.38003495 9.17216699,5.50380194 L9.17216699,22.8672194 C9.17216699,23.9909864 8.25869126,24.9044621 7.13492427,24.9044621 L1.40172039,24.9044621 C0.627700971,24.9044621 -0.000221359223,25.5323845 -0.000221359223,26.3064039 C-0.000221359223,27.0811612 0.627700971,27.7083456 1.40172039,27.7083456 L7.13492427,27.7083456 C9.56102136,27.7083456 11.5702252,25.9123845 11.9177592,23.5814718 C16.0409437,23.7666757 20.4504194,24.3060544 21.2347689,24.9347146 C22.9274291,26.3196854 25.5040505,27.5342097 32.0444777,27.5342097 C34.1318951,27.5342097 36.6221864,27.4102485 39.615701,27.1291223 C43.1471184,26.7970835 74.2148854,23.6700155 77.7064583,16.1349476 C78.7726718,13.8350252 77.9049437,12.4485786 77.2925165,11.8265592 C75.6094485,10.1169282 72.0595845,10.226132 69.5980699,11.3196466" id="Fill-1" fill="#383838" mask="url(#mask-2)"></path>
                    </g>
                    <g id="Group-6" transform="translate(33.941748, 68.569709)">
                        <mask id="mask-4" fill="white">
                            <use xlink:href="#path-3"></use>
                        </mask>
                        <g id="Clip-5"></g>
                        <path d="M29.044765,0.451867961 C16.1749398,5.30406214 2.24554175,4.52340194 2.1068233,4.51380971 C1.32985243,4.46658641 0.669464078,5.05466408 0.622240777,5.82720777 C0.575017476,6.60048932 1.16235728,7.26456699 1.93490097,7.31252816 C2.08394951,7.32138252 3.08375534,7.37893592 4.71222136,7.37893592 C9.55851262,7.37893592 19.9675612,6.87128544 30.0342408,3.07571262 C30.7588233,2.80270291 31.124066,1.99326602 30.8510563,1.2686835 C30.5780466,0.544100971 29.7693476,0.178120388 29.044765,0.451867961" id="Fill-4" fill="#3C76A6" mask="url(#mask-4)"></path>
                    </g>
                    <path d="M71.4928311,65.729965 L69.0357437,66.8640621 C68.3325592,67.1887223 68.0256078,68.0217709 68.350268,68.7249553 C68.5871223,69.237033 69.094035,69.5395573 69.6238214,69.5395573 C69.8208311,69.5395573 70.0207922,69.4982369 70.2111612,69.4096932 L72.6682485,68.2755961 C73.3706951,67.9509359 73.6776466,67.1178874 73.3529864,66.4154408 C73.0290641,65.7122563 72.1938019,65.404567 71.4928311,65.729965" id="Fill-7" fill="#3C76A6"></path>
                    <path d="M37.6808,13.3477398 C39.4096155,11.2758175 41.9006447,10.2059146 44.4093825,10.2059146 C46.3868583,10.2059146 48.3761398,10.871468 50.0097709,12.2350408 L53.7536932,15.3591573 C54.2738874,15.7922835 55.0301981,15.7922835 55.5503922,15.3591573 L59.2943146,12.2350408 C61.0888,10.7371767 63.3606835,10.0244 65.6893825,10.2383806 C68.0173437,10.447934 70.1254214,11.5525165 71.6232854,13.3484777 C73.1211495,15.143701 73.8302369,17.4141087 73.6199456,19.7428078 C73.4096544,22.0715068 72.3050718,24.1788466 70.5098485,25.6774485 L54.6524117,38.9088272 L38.793499,25.6774485 C35.0879456,22.5850602 34.5884117,17.0540311 37.6808,13.3477398 M36.9975379,27.8305359 L53.7536932,41.8115845 C54.0141592,42.0285165 54.3329165,42.1369825 54.6524117,42.1369825 C54.9711689,42.1369825 55.2899262,42.0285165 55.5503922,41.8115845 L72.3065476,27.8305359 C74.676567,25.8523223 76.1353243,23.0698369 76.4127612,19.9951573 C76.6901981,16.9204777 75.7538485,13.9217981 73.7763728,11.5517786 L72.6998291,12.4497592 L73.7763728,11.5510408 C69.693033,6.65900194 62.3896544,6.00008932 57.4976155,10.0819534 L54.6524117,12.4564 L51.8064699,10.0819534 C46.9122175,5.99861359 39.6110524,6.65826408 35.5277126,11.5517786 C31.4451107,16.4445553 32.1040233,23.7471961 36.9975379,27.8305359" id="Fill-9" fill="#383838"></path>
                    <path d="M28.289266,30.2692505 C28.565965,30.5754641 28.9474408,30.7311534 29.3296544,30.7311534 C29.6646447,30.7311534 30.0011107,30.6116194 30.2696932,30.3696 C30.8437515,29.8501437 30.8887612,28.9632311 30.3693049,28.3891728 C30.3338874,28.350066 26.8246058,24.4017553 26.2202951,18.0583379 C25.6344311,11.9045515 29.7509748,7.00956117 29.8173825,6.93208544 C30.3228194,6.34622136 30.2586252,5.46226019 29.673499,4.95534757 C29.0883728,4.44917282 28.2029359,4.51262913 27.6960233,5.09775534 C27.4931107,5.33239612 22.725033,10.9320466 23.4289553,18.3239689 C24.1210718,25.5823379 28.1195573,30.081833 28.289266,30.2692505" id="Fill-11" fill="#3C76A6"></path>
                    <path d="M32.3601359,4.19615922 C32.6870097,4.19615922 33.0153592,4.08252816 33.2802524,3.85083883 L34.8777282,2.45848932 C35.4613786,1.95010097 35.5218835,1.06392621 35.0134951,0.480275728 C34.5051068,-0.102636893 33.618932,-0.163141748 33.0352816,0.345246602 L31.4378058,1.73759612 C30.8541553,2.24598447 30.7936505,3.13215922 31.3027767,3.71580971 C31.5794757,4.03382913 31.969068,4.19615922 32.3601359,4.19615922" id="Fill-13" fill="#3C76A6"></path>
                    <path d="M85.1480388,13.1950019 C84.951767,12.4460699 84.1851262,11.9974485 83.436932,12.1937204 C82.6872621,12.3899922 82.2393786,13.156633 82.4356505,13.905565 C82.4695922,14.0339534 85.6888932,26.7923612 76.7636893,33.0405942 C76.1291262,33.4840505 75.9749126,34.3584194 76.4191068,34.9929825 C76.6913786,35.3825748 77.1267184,35.5906524 77.568699,35.5906524 C77.8461359,35.5906524 78.1265243,35.5087495 78.3714951,35.337565 C88.8779417,27.9825359 85.3052039,13.7948854 85.1480388,13.1950019" id="Fill-15" fill="#3C76A6"></path>
                    <path d="M73.6912971,35.3442796 L72.3262485,36.3263767 C71.6975883,36.7786874 71.5544427,37.6552699 72.0074913,38.2831922 C72.2812388,38.6639301 72.7106757,38.8661049 73.1460155,38.8661049 C73.4293553,38.8661049 73.7163845,38.7805126 73.9643068,38.6019495 L75.3293553,37.6198524 C75.9572777,37.1675417 76.1004233,36.2916971 75.6481126,35.6630369 C75.1965398,35.0351146 74.3206951,34.8927068 73.6912971,35.3442796" id="Fill-17" fill="#3C76A6"></path>
                </g>
            </g>
        </g>
    </g>
</svg>