<?xml version="1.0" encoding="UTF-8"?>
<svg width="26px" height="26px" viewBox="0 0 26 26" version="1.1" xmlns="http://www.w3.org/2000/svg" xmlns:xlink="http://www.w3.org/1999/xlink">
    <!-- Generator: sketchtool 55.2 (78181) - https://sketchapp.com -->
    <title>B5D4B63C-258B-4E38-97CB-629E64DD4819</title>
    <desc>Created with sketchtool.</desc>
    <g id="Symbols" stroke="none" stroke-width="1" fill="none" fill-rule="evenodd">
        <g id="Linkedin-icon">
            <g id="Group">
                <rect id="Rectangle" x="0" y="0" width="26" height="26"></rect>
                <circle id="Oval" stroke="#FFFFFF" stroke-width="2" cx="13" cy="13" r="12"></circle>
                <path d="M7.38900411,10.8804759 L9.69246558,10.8804759 L9.69246558,18.9083342 L7.38900411,18.9083342 L7.38900411,10.8804759 Z M8.48201916,9.87633151 L8.46534251,9.87633151 C7.63151031,9.87633151 7.09090909,9.26264567 7.09090909,8.48551205 C7.09090909,7.69248769 7.64749209,7.09090909 8.49800094,7.09090909 C9.34781493,7.09090909 9.87034978,7.69097428 9.88702643,8.48324195 C9.88702643,9.26037556 9.34781493,9.87633151 8.48201916,9.87633151 L8.48201916,9.87633151 Z M18.9090909,18.9090909 L16.2971115,18.9090909 L16.2971115,14.7540367 C16.2971115,13.666655 15.8885337,12.9250864 14.9900795,12.9250864 C14.3028628,12.9250864 13.9206897,13.4252669 13.7428055,13.9087999 C13.6760989,14.0813281 13.6865219,14.3227162 13.6865219,14.5648611 L13.6865219,18.9090909 L11.0988626,18.9090909 C11.0988626,18.9090909 11.1322159,11.549401 11.0988626,10.8804759 L13.6865219,10.8804759 L13.6865219,12.1403858 C13.8393911,11.5895063 14.6662747,10.8032922 15.9858142,10.8032922 C17.6229047,10.8032922 18.9090909,11.9587772 18.9090909,14.4445453 L18.9090909,18.9090909 L18.9090909,18.9090909 Z" id="Shape" fill="#FFFFFF"></path>
            </g>
        </g>
    </g>
</svg>