<?xml version="1.0" encoding="UTF-8"?>
<svg width="53px" height="71px" viewBox="0 0 53 71" version="1.1" xmlns="http://www.w3.org/2000/svg" xmlns:xlink="http://www.w3.org/1999/xlink">
    <!-- Generator: sketchtool 55.2 (78181) - https://sketchapp.com -->
    <title>ACCEC7BB-4257-42AC-97A5-E2236716CD43</title>
    <desc>Created with sketchtool.</desc>
    <defs>
        <polygon id="path-1" points="0.625 0 40.375 0 40.375 27.3846951 0.625 27.3846951"></polygon>
        <polygon id="path-3" points="0.0003 0.250374813 53 0.250374813 53 44.065967 0.0003 44.065967"></polygon>
    </defs>
    <g id="Symbols" stroke="none" stroke-width="1" fill="none" fill-rule="evenodd">
        <g id="Privacy-icon">
            <g id="Group-17" transform="translate(0.000000, -0.000000)">
                <g id="Group-3" transform="translate(6.000000, 0.000000)">
                    <mask id="mask-2" fill="white">
                        <use xlink:href="#path-1"></use>
                    </mask>
                    <g id="Clip-2"></g>
                    <path d="M40.375,27.3846951 L38.167,27.3846951 L38.167,18.6215766 C38.167,9.56201439 30.737,2.19097991 21.604,2.19097991 L19.396,2.19097991 C10.263,2.19097991 2.833,9.56201439 2.833,18.6215766 L2.833,27.3846951 L0.625,27.3846951 L0.625,18.6215766 C0.625,8.3532048 9.045,-0.000300449775 19.396,-0.000300449775 L21.604,-0.000300449775 C31.955,-0.000300449775 40.375,8.3532048 40.375,18.6215766 L40.375,27.3846951 Z" id="Fill-1" fill="#FFFFFF" mask="url(#mask-2)"></path>
                </g>
                <path d="M39.75,24.0985757 L37.542,24.0985757 L37.542,18.6213763 C37.542,13.1852384 33.083,8.76261769 27.604,8.76261769 L25.396,8.76261769 C19.917,8.76261769 15.458,13.1852384 15.458,18.6213763 L15.458,24.0985757 L13.25,24.0985757 L13.25,18.6213763 C13.25,11.9784318 18.699,6.57233883 25.396,6.57233883 L27.604,6.57233883 C34.301,6.57233883 39.75,11.9784318 39.75,18.6213763 L39.75,24.0985757 Z" id="Fill-4" fill="#FFFFFF"></path>
                <path d="M26.5001,56.318409 L17.2101,47.1016114 L22.0831,42.266373 L26.5001,46.6479322 L36.4381,36.7901751 L41.3111,41.624412 L26.5001,56.318409 Z M20.3321,47.1016114 L26.5001,53.2207718 L38.1891,41.624412 L36.4381,39.8878123 L26.5001,49.7465709 L22.0831,45.3640102 L20.3321,47.1016114 Z" id="Fill-6" fill="#A5D6FE"></path>
                <path d="M26.5,63.5326087 C17.976,63.5326087 11.042,56.6533103 11.042,48.1966507 C11.042,39.7409925 17.976,32.8616942 26.5,32.8616942 C28.56,32.8616942 30.563,33.2572864 32.453,34.0394573 L31.602,36.0614843 C29.984,35.3924828 28.268,35.051973 26.5,35.051973 C19.194,35.051973 13.25,40.9488006 13.25,48.1966507 C13.25,55.4455022 19.194,61.3413283 26.5,61.3413283 C33.806,61.3413283 39.75,55.4455022 39.75,48.1966507 L41.958,48.1966507 C41.958,56.6533103 35.024,63.5326087 26.5,63.5326087" id="Fill-8" fill="#A5D6FE"></path>
                <g id="Group-12" transform="translate(0.000000, 26.038981)">
                    <mask id="mask-4" fill="white">
                        <use xlink:href="#path-3"></use>
                    </mask>
                    <g id="Clip-11"></g>
                    <path d="M48.5833,44.065967 L4.4163,44.065967 C1.9813,44.065967 0.0003,42.1010255 0.0003,39.6844078 L0.0003,4.63193403 C0.0003,2.21531634 1.9813,0.250374813 4.4163,0.250374813 L48.5833,0.250374813 C51.0193,0.250374813 53.0003,2.21531634 53.0003,4.63193403 L53.0003,39.6844078 C53.0003,42.1010255 51.0193,44.065967 48.5833,44.065967 L48.5833,44.065967 Z M4.4163,2.44065367 C3.1983,2.44065367 2.2083,3.42412594 2.2083,4.63193403 L2.2083,39.6844078 C2.2083,40.8912144 3.1983,41.8746867 4.4163,41.8746867 L48.5833,41.8746867 C49.8013,41.8746867 50.7913,40.8912144 50.7913,39.6844078 L50.7913,4.63193403 C50.7913,3.42412594 49.8013,2.44065367 48.5833,2.44065367 L4.4163,2.44065367 Z" id="Fill-10" fill="#FFFFFF" mask="url(#mask-4)"></path>
                </g>
                <polygon id="Fill-13" fill="#FFFFFF" points="1.8848 67.5931874 0.3238 66.0438681 4.4168 61.9837901 4.4168 34.4105127 0.3238 30.3494333 1.8848 28.8011154 6.6248 33.5031544 6.6248 62.8911484"></polygon>
                <polygon id="Fill-15" fill="#FFFFFF" points="51.1152 67.5931874 46.3752 62.8911484 46.3752 33.5031544 51.1152 28.8011154 52.6762 30.3494333 48.5832 34.4105127 48.5832 61.9837901 52.6762 66.0438681"></polygon>
            </g>
        </g>
    </g>
</svg>