<?xml version="1.0" encoding="UTF-8"?>
<svg width="67px" height="82px" viewBox="0 0 67 82" version="1.1" xmlns="http://www.w3.org/2000/svg" xmlns:xlink="http://www.w3.org/1999/xlink">
    <!-- Generator: sketchtool 55.2 (78181) - https://sketchapp.com -->
    <title>ED01C283-EF03-4339-AAD7-60AD3AE85BA5</title>
    <desc>Created with sketchtool.</desc>
    <defs>
        <polygon id="path-1" points="0.900236844 0.95798785 3.539 0.95798785 3.539 4.6108024 0.900236844 4.6108024"></polygon>
        <polygon id="path-3" points="0.0475 0.458686657 2.2245 0.458686657 2.2245 5.2820072 0.0475 5.2820072"></polygon>
    </defs>
    <g id="Symbols" stroke="none" stroke-width="1" fill="none" fill-rule="evenodd">
        <g id="Purpose-icon">
            <g id="Group-31" transform="translate(0.000000, 0.000000)">
                <path d="M54.0973,32.2378603 L52.7773,32.9689547 C52.6103,33.0600912 52.4313,33.1041571 52.2543,33.1041571 C51.8693,33.1041571 51.4983,32.8998513 51.2993,32.5373085 C51.0093,32.0065139 51.2023,31.3405169 51.7283,31.0490807 L53.0483,30.3179862 C53.5763,30.0285529 54.2363,30.2208408 54.5263,30.7506339 C54.8163,31.280427 54.6233,31.946424 54.0973,32.2378603" id="Fill-1" fill="#FFFFFF"></path>
                <g id="Group-5" transform="translate(63.000000, 49.616676)">
                    <mask id="mask-2" fill="white">
                        <use xlink:href="#path-1"></use>
                    </mask>
                    <g id="Clip-4"></g>
                    <path d="M3.4877,2.38547106 L3.0257,3.84665847 C2.8787,4.31335712 2.4497,4.6108024 1.9887,4.6108024 C1.8797,4.6108024 1.7687,4.59277541 1.6587,4.55872444 C1.0857,4.37444858 0.7697,3.75952804 0.9517,3.18266447 L1.4137,1.72147706 C1.5957,1.14461349 2.2077,0.827138231 2.7807,1.00941109 C3.3527,1.19368696 3.6697,1.8086075 3.4877,2.38547106" id="Fill-3" fill="#A5D6FE" mask="url(#mask-2)"></path>
                </g>
                <path d="M64.8643,57.2237643 C55.7423,78.2201961 35.6783,80.6348108 35.4763,80.6558423 C35.4363,80.6608498 35.3973,80.6628528 35.3583,80.6628528 C34.8093,80.6628528 34.3373,80.2462291 34.2783,79.6853895 C34.2123,79.08449 34.6443,78.5446819 35.2413,78.4795844 C35.4303,78.4585529 54.2683,76.1460912 62.8693,56.3454495 C63.1113,55.7916204 63.7503,55.5382411 64.3033,55.7806039 C64.8533,56.0239682 65.1053,56.6689337 64.8643,57.2237643" id="Fill-6" fill="#A5D6FE"></path>
                <path d="M56.96,39.4325307 C56.56,39.774042 56.459,40.3549115 56.721,40.8135982 C56.769,40.8967226 61.404,49.2962969 53.236,59.5536522 C45.308,69.5105577 40.601,71.6026897 30.478,72.8345337 C20.322,74.0713853 8.51,71.1470075 3.359,62.1194933 C8.805,64.3598471 20.832,67.6397571 27.459,56.6062399 C38.914,58.3728846 45.986,54.1876192 49.398,51.2392054 C49.855,50.8446147 49.907,50.1535802 49.515,49.6948936 C49.123,49.2352054 48.437,49.1831274 47.981,49.5767166 C44.905,52.2356972 38.55,55.9782999 28.162,54.492075 C31.869,53.6297841 36.965,52.0654423 41.034,49.4004528 C41.537,49.0689565 41.68,48.391943 41.352,47.8851844 C41.025,47.3774243 40.35,47.2352114 39.847,47.5637031 C33.152,51.9502699 23.032,53.2271814 22.93,53.2391994 C22.845,53.2502159 22.765,53.2722489 22.688,53.3002909 C22.58,53.2692444 22.476,53.2422039 22.367,53.2101559 C19.421,52.3368486 16.795,50.8456162 14.487,49.0509295 C18.791,48.8586417 27.051,47.9993553 34.572,44.4049745 C35.115,44.1455862 35.346,43.4926087 35.089,42.9457901 C34.831,42.399973 34.181,42.1696282 33.639,42.426012 C24.642,46.7254483 14.194,46.9187376 12.008,46.9087226 C10.36,45.3313613 8.915,43.6348216 7.676,41.9783418 C9.046,42.1646207 10.9,42.3278651 13.197,42.3278651 C15.825,42.3278651 19.031,42.1135442 22.741,41.4745877 C23.333,41.3724348 23.731,40.8055862 23.63,40.2096942 C23.528,39.6138021 22.966,39.2111994 22.374,39.3153553 C13.374,40.8666777 7.437,39.7850585 5.905,39.4385397 C4.531,37.3293823 3.524,35.4395532 2.893,34.1536282 C5.656,34.389982 11.213,34.5201769 19.311,33.110066 C30.62,31.1431214 43.507,34.8176222 43.636,34.8536762 C44.132,34.9988936 44.66,34.7715532 44.901,34.3118651 C46.606,31.049982 52.415,27.8401769 56.404,27.9603568 C58.121,28.0104318 59.278,28.6684168 59.841,29.9162849 C62.102,34.9247826 57.17,39.2522609 56.96,39.4325307 M65.828,26.6614123 C65.534,26.3038771 65.049,26.1716792 64.617,26.329916 L60.961,27.6669175 C59.923,26.4891544 58.376,25.8261619 56.467,25.7710795 C56.381,25.768075 56.295,25.7670735 56.208,25.7670735 C51.788,25.7670735 45.844,28.9618561 43.432,32.5301979 C40.358,31.73 29.221,29.1641589 18.94,30.9528366 C7.618,32.9227856 1.356,31.7650525 1.296,31.7530345 C0.901,31.6749175 0.502,31.8221379 0.249,32.1316012 C-0.005,32.4410645 -0.07,32.8657001 0.079,33.2382579 C0.37,33.9633433 7.366,51.047919 21.753,55.3102999 C22.922,55.6578201 24.053,55.9452504 25.148,56.1796012 C17.39,67.791985 2.286,59.2692264 1.63,58.8896582 C1.231,58.6603148 0.732,58.7063838 0.382,59.0068336 C0.032,59.3082849 -0.092,59.7970165 0.071,60.2296642 C4.096,70.8796072 15.324,75.2932144 26.043,75.2922131 C27.627,75.2922131 29.201,75.196069 30.738,75.0087886 C41.346,73.7188576 46.596,71.3973823 54.934,60.9237031 C62.629,51.2582339 60.086,43.0389295 58.991,40.5101439 C60.098,39.3764468 62.3,36.7254783 62.588,33.3524288 C62.704,33.2683028 62.81,33.1671514 62.887,33.035955 L65.923,27.9212984 C66.159,27.5227016 66.121,27.0189475 65.828,26.6614123" id="Fill-8" fill="#FFFFFF"></path>
                <path d="M62.1854,29.9472312 C62.1474,29.8300558 62.1054,29.7128804 62.0614,29.5957049 L62.4864,29.4404726 L62.1854,29.9472312 Z" id="Fill-10" fill="#FFFFFF"></path>
                <path d="M27.0866,21.2037421 C27.5116,21.6313823 27.5106,22.3244198 27.0866,22.75206 C26.8746,22.9663808 26.5956,23.0735412 26.3166,23.0735412 C26.0386,23.0735412 25.7606,22.9663808 25.5476,22.75206 L23.6986,20.8902729 C23.2736,20.4626327 23.2736,19.7685937 23.6986,19.3409535 C24.1236,18.9133133 24.8116,18.9133133 25.2366,19.3409535 L27.0866,21.2037421 Z" id="Fill-12" fill="#A5D6FE"></path>
                <path d="M9.185,6.28250495 C8.76,5.85486477 8.76,5.16182729 9.185,4.73318561 C9.61,4.30554543 10.299,4.30554543 10.724,4.73318561 L12.573,6.59497271 C12.998,7.02261289 12.998,7.71565037 12.573,8.14329055 C12.361,8.35761139 12.083,8.46477181 11.804,8.46477181 C11.525,8.46477181 11.247,8.35761139 11.035,8.14329055 L9.185,6.28250495 Z" id="Fill-14" fill="#A5D6FE"></path>
                <path d="M12.5734,19.3414543 C12.9974,19.7690945 12.9984,20.4621319 12.5734,20.8907736 L10.7244,22.7525607 C10.5114,22.9668816 10.2334,23.074042 9.9544,23.074042 C9.6764,23.074042 9.3974,22.9668816 9.1854,22.7525607 C8.7604,22.3249205 8.7604,21.6318831 9.1854,21.2042429 L11.0344,19.3414543 C11.4594,18.9138141 12.1484,18.9138141 12.5734,19.3414543" id="Fill-16" fill="#A5D6FE"></path>
                <path d="M23.6982,8.14369115 C23.2732,7.71605097 23.2732,7.02301349 23.6982,6.59537331 L25.5482,4.73358621 C25.9732,4.30494453 26.6612,4.30494453 27.0862,4.73358621 C27.5112,5.16122639 27.5112,5.85526537 27.0862,6.28290555 L25.2372,8.14369115 C25.0242,8.35801199 24.7462,8.46517241 24.4682,8.46517241 C24.1892,8.46517241 23.9102,8.35801199 23.6982,8.14369115" id="Fill-18" fill="#A5D6FE"></path>
                <path d="M27.0906,12.6476336 L29.7056,12.6476336 C30.3076,12.6476336 30.7946,13.1373667 30.7946,13.7432738 C30.7946,14.3481793 30.3076,14.8389139 29.7056,14.8389139 L27.0906,14.8389139 C26.4896,14.8389139 26.0016,14.3481793 26.0016,13.7432738 C26.0016,13.1373667 26.4896,12.6476336 27.0906,12.6476336" id="Fill-20" fill="#A5D6FE"></path>
                <path d="M5.4777,13.7428732 C5.4777,13.1379676 5.9647,12.647233 6.5657,12.647233 L9.1807,12.647233 C9.7827,12.647233 10.2697,13.1379676 10.2697,13.7428732 C10.2697,14.3477787 9.7827,14.8385133 9.1807,14.8385133 L6.5657,14.8385133 C5.9647,14.8385133 5.4777,14.3477787 5.4777,13.7428732" id="Fill-22" fill="#A5D6FE"></path>
                <path d="M18.1355,21.6608264 C18.7365,21.6608264 19.2245,22.1505595 19.2245,22.7564666 L19.2245,25.3884066 C19.2245,25.9933121 18.7365,26.4840468 18.1355,26.4840468 C17.5345,26.4840468 17.0475,25.9933121 17.0475,25.3884066 L17.0475,22.7564666 C17.0475,22.1505595 17.5345,21.6608264 18.1355,21.6608264" id="Fill-24" fill="#A5D6FE"></path>
                <g id="Group-28" transform="translate(17.000000, 0.543213)">
                    <mask id="mask-4" fill="white">
                        <use xlink:href="#path-3"></use>
                    </mask>
                    <g id="Clip-27"></g>
                    <path d="M0.0475,4.18636702 L0.0475,1.55342549 C0.0475,0.94851994 0.5345,0.457785307 1.1355,0.457785307 C1.7365,0.457785307 2.2245,0.94851994 2.2245,1.55342549 L2.2245,4.18636702 C2.2245,4.79127256 1.7365,5.2820072 1.1355,5.2820072 C0.5345,5.2820072 0.0475,4.79127256 0.0475,4.18636702" id="Fill-26" fill="#A5D6FE" mask="url(#mask-4)"></path>
                </g>
                <path d="M18.1355,16.5965451 C16.5725,16.5965451 15.3005,15.3166291 15.3005,13.7432738 C15.3005,12.1689169 16.5725,10.8879994 18.1355,10.8879994 C19.6995,10.8879994 20.9715,12.1689169 20.9715,13.7432738 C20.9715,15.3166291 19.6995,16.5965451 18.1355,16.5965451 M18.1355,8.69772054 C15.3725,8.69772054 13.1235,10.9611088 13.1235,13.7432738 C13.1235,16.5234357 15.3725,18.7878255 18.1355,18.7878255 C20.8995,18.7878255 23.1475,16.5234357 23.1475,13.7432738 C23.1475,10.9611088 20.8995,8.69772054 18.1355,8.69772054" id="Fill-29" fill="#A5D6FE"></path>
            </g>
        </g>
    </g>
</svg>