<?xml version="1.0" encoding="UTF-8"?>
<svg width="77px" height="95px" viewBox="0 0 77 95" version="1.1" xmlns="http://www.w3.org/2000/svg" xmlns:xlink="http://www.w3.org/1999/xlink">
    <!-- Generator: sketchtool 55.2 (78181) - https://sketchapp.com -->
    <title>EB04BC4A-3DC4-4F05-BD8E-2219AD00233A</title>
    <desc>Created with sketchtool.</desc>
    <g id="Page-1" stroke="none" stroke-width="1" fill="none" fill-rule="evenodd">
        <g id="About-us" transform="translate(-821.000000, -2860.000000)">
            <g id="VictoryHand" transform="translate(821.000000, 2860.000000)">
                <g id="Group-15">
                    <path d="M55.46176,46.67668 L55.41616,59.52108 C55.41616,59.52108 55.46176,62.54988 52.11496,62.54988 C48.14576,62.54988 48.28976,58.53348 48.28976,58.53348 L47.94056,43.95668" id="Stroke-1" stroke="#0C1831" stroke-width="2.3"></path>
                    <path d="M62.42976,59.57408 C62.42976,59.57408 61.82016,62.13408 59.39096,62.13408 C55.75656,62.13408 55.41776,59.05488 55.41776,59.05488" id="Stroke-3" stroke="#0C1831" stroke-width="2.3"></path>
                    <path d="M34.77864,60.74992 C34.77864,60.74992 35.81424,61.53312 37.10784,61.53312" id="Stroke-5" stroke="#0C1831" stroke-width="2.3" stroke-linecap="round"></path>
                    <path d="M34.77864,64.93764 C34.77864,64.93764 36.74784,64.43124 36.74784,63.64804" id="Stroke-7" stroke="#0C1831" stroke-width="2.3" stroke-linecap="round"></path>
                    <path d="M33.47808,86.75916 L33.47808,81.56996 C33.47808,79.87796 32.89408,79.28436 32.02128,78.22156 C29.48168,75.13356 24.48088,68.56596 24.22328,64.43396 C23.87568,58.88076 27.46088,54.36596 32.08888,54.13596 C36.71768,53.90516 46.20528,54.13596 46.20528,54.13596 C46.20528,54.13596 47.48408,61.54076 37.18928,61.54076 C36.34208,61.54076 36.39968,63.96956 37.18048,63.96956 C39.36288,63.96956 45.04648,64.44436 45.04648,70.39516 L44.73008,74.03716" id="Stroke-9" stroke="#0C1831" stroke-width="2.3" stroke-linejoin="round"></path>
                    <path d="M28.76164,55.11696 L25.81404,23.04696 C25.81404,23.04696 25.81404,19.57616 29.45884,19.22896 C33.10364,18.88296 33.79804,22.09296 33.79804,22.09296 L37.44204,47.86136 C37.44204,47.86136 37.18044,48.55616 37.96204,48.55616 C38.74324,48.55616 38.83004,47.16816 38.83004,47.16816 C38.83004,47.16816 42.60444,22.84856 42.73444,22.00216 C42.86404,21.15616 44.03564,18.81936 47.33204,19.25296 C50.62924,19.68736 51.14244,22.32056 50.96644,23.27656 C50.85164,23.90216 47.94044,43.95656 47.94044,43.95656 C47.94044,43.95656 49.00724,42.95936 51.32724,42.95936 C55.01764,42.95936 55.46164,46.67656 55.46164,46.67656 C55.46164,46.67656 56.24844,45.34576 58.82924,45.34576 C61.32244,45.34576 62.42964,47.36736 62.42964,49.85656 L62.42964,59.57416 C62.42964,59.57416 63.18964,73.47936 56.79004,79.53296 C55.38644,80.86216 56.09804,87.01776 56.09804,87.01776" id="Stroke-11" stroke="#0C1831" stroke-width="2.3" stroke-linejoin="round"></path>
                    <path d="M59.3772,94.78196 L59.3768,88.15036 C59.3756,87.38116 58.7544,86.75996 57.9848,86.75916 L31.2976,86.75916 C30.5288,86.75996 29.9036,87.38276 29.9043992,88.15116 L29.9056,94.78076" id="Stroke-13" stroke="#0C1831" stroke-width="2.3" stroke-linejoin="round"></path>
                    <path d="M17.8539,19.7233259 C18.0929,19.9646873 18.4089,20.0858687 18.7229,20.0858687 C19.0369,20.0858687 19.3529,19.9646873 19.5919,19.7233259 C20.0729,19.2396018 20.0729,18.4564294 19.5919,17.9737067 L12.9909,11.3277577 C12.5109,10.8440336 11.7319,10.8440336 11.2529,11.3277577 C10.7729,11.8114819 10.7729,12.5946543 11.2529,13.0783784 L17.8539,19.7233259 Z" id="Fill-10" fill="#3C76A6"></path>
                    <path d="M58.1146,20.0861691 C58.4286,20.0861691 58.7446,19.9649877 58.9836,19.7236264 L65.5846,13.0776774 C66.0656,12.5949547 66.0656,11.8107808 65.5846,11.3280582 C65.1056,10.844334 64.3266,10.844334 63.8466,11.3280582 L57.2456,17.9740072 C56.7656,18.4567298 56.7656,19.2399022 57.2456,19.7236264 C57.4846,19.9649877 57.8006,20.0861691 58.1146,20.0861691" id="Fill-12" fill="#3C76A6"></path>
                    <path d="M75.6085,37.4382453 L66.2725,37.4382453 C65.5935,37.4382453 65.0435,37.9920744 65.0435,38.6760984 C65.0435,39.3591208 65.5935,39.9139514 66.2725,39.9139514 L75.6085,39.9139514 C76.2875,39.9139514 76.8375,39.3591208 76.8375,38.6760984 C76.8375,37.9920744 76.2875,37.4382453 75.6085,37.4382453" id="Fill-14" fill="#3C76A6"></path>
                    <path d="M1.229,39.9135508 L10.565,39.9135508 C11.244,39.9135508 11.794,39.3597217 11.794,38.6756978 C11.794,37.9926753 11.244,37.4378447 10.565,37.4378447 L1.229,37.4378447 C0.55,37.4378447 0,37.9926753 0,38.6756978 C0,39.3597217 0.55,39.9135508 1.229,39.9135508" id="Fill-16" fill="#3C76A6"></path>
                    <path d="M37.1893,10.635922 L37.1893,1.23785307 C37.1893,0.553829085 37.7403,0 38.4183,0 C39.0973,0 39.6483,0.553829085 39.6483,1.23785307 L39.6483,10.635922 C39.6483,11.3189445 39.0973,11.8737751 38.4183,11.8737751 C37.7403,11.8737751 37.1893,11.3189445 37.1893,10.635922" id="Fill-18" fill="#3C76A6"></path>
                </g>
            </g>
        </g>
    </g>
</svg>