<?xml version="1.0" encoding="UTF-8"?>
<svg width="58px" height="80px" viewBox="0 0 58 80" version="1.1" xmlns="http://www.w3.org/2000/svg" xmlns:xlink="http://www.w3.org/1999/xlink">
    <!-- Generator: sketchtool 55.2 (78181) - https://sketchapp.com -->
    <title>4A83AAF8-33D9-49A3-8CC3-31AF0170E5C2</title>
    <desc>Created with sketchtool.</desc>
    <defs>
        <polygon id="path-1" points="0 0.154362934 57.5536568 0.154362934 57.5536568 79.9065637 0 79.9065637"></polygon>
    </defs>
    <g id="Symbols" stroke="none" stroke-width="1" fill="none" fill-rule="evenodd">
        <g id="Rocket">
            <g id="Group-13">
                <g id="Group-31">
                    <mask id="mask-2" fill="white">
                        <use xlink:href="#path-1"></use>
                    </mask>
                    <g id="Clip-2"></g>
                    <path d="M19.7960671,79.9065637 C19.4540284,79.9065637 19.1767123,79.6299614 19.1767123,79.2888031 L19.1767123,70.8985328 C19.1767123,70.5573745 19.4540284,70.2807722 19.7960671,70.2807722 C20.1381058,70.2807722 20.4154219,70.5573745 20.4154219,70.8985328 L20.4154219,79.2888031 C20.4154219,79.6299614 20.1381058,79.9065637 19.7960671,79.9065637" id="Fill-3" stroke="#A5D6FE" stroke-width="0.5" fill="#A5D6FE" mask="url(#mask-2)"></path>
                    <path d="M22.0410735,79.9065637 C21.6990348,79.9065637 21.4217187,79.6299614 21.4217187,79.2888031 L21.4217187,70.8985328 C21.4217187,70.5573745 21.6990348,70.2807722 22.0410735,70.2807722 C22.3831123,70.2807722 22.6604284,70.5573745 22.6604284,70.8985328 L22.6604284,79.2888031 C22.6604284,79.6299614 22.3831123,79.9065637 22.0410735,79.9065637" id="Fill-4" stroke="#A5D6FE" stroke-width="0.5" fill="#A5D6FE" mask="url(#mask-2)"></path>
                    <path d="M24.2863123,79.9065637 C23.9442735,79.9065637 23.6669574,79.6299614 23.6669574,79.2888031 L23.6669574,70.8985328 C23.6669574,70.5573745 23.9442735,70.2807722 24.2863123,70.2807722 C24.628351,70.2807722 24.9056671,70.5573745 24.9056671,70.8985328 L24.9056671,79.2888031 C24.9056671,79.6299614 24.628351,79.9065637 24.2863123,79.9065637" id="Fill-5" stroke="#A5D6FE" stroke-width="0.5" fill="#A5D6FE" mask="url(#mask-2)"></path>
                    <path d="M26.5318452,79.9065637 C26.1898065,79.9065637 25.9124903,79.6299614 25.9124903,79.2888031 L25.9124903,70.8985328 C25.9124903,70.5573745 26.1898065,70.2807722 26.5318452,70.2807722 C26.8738839,70.2807722 27.1512,70.5573745 27.1512,70.8985328 L27.1512,79.2888031 C27.1512,79.6299614 26.8738839,79.9065637 26.5318452,79.9065637" id="Fill-6" stroke="#A5D6FE" stroke-width="0.5" fill="#A5D6FE" mask="url(#mask-2)"></path>
                    <path d="M28.7767897,79.9065637 C28.434751,79.9065637 28.1574348,79.6299614 28.1574348,79.2888031 L28.1574348,70.8985328 C28.1574348,70.5573745 28.434751,70.2807722 28.7767897,70.2807722 C29.1188284,70.2807722 29.3961445,70.5573745 29.3961445,70.8985328 L29.3961445,79.2888031 C29.3961445,79.6299614 29.1188284,79.9065637 28.7767897,79.9065637" id="Fill-7" stroke="#A5D6FE" stroke-width="0.5" fill="#A5D6FE" mask="url(#mask-2)"></path>
                    <path d="M31.0222452,79.9065637 C30.6802065,79.9065637 30.4028903,79.6299614 30.4028903,79.2888031 L30.4028903,70.8985328 C30.4028903,70.5573745 30.6802065,70.2807722 31.0222452,70.2807722 C31.3642839,70.2807722 31.6416,70.5573745 31.6416,70.8985328 L31.6416,79.2888031 C31.6416,79.6299614 31.3642839,79.9065637 31.0222452,79.9065637" id="Fill-8" stroke="#A5D6FE" stroke-width="0.5" fill="#A5D6FE" mask="url(#mask-2)"></path>
                    <path d="M33.2674065,79.9065637 C32.9253677,79.9065637 32.6480516,79.6299614 32.6480516,79.2888031 L32.6480516,70.8985328 C32.6480516,70.5573745 32.9253677,70.2807722 33.2674065,70.2807722 C33.6094452,70.2807722 33.8867613,70.5573745 33.8867613,70.8985328 L33.8867613,79.2888031 C33.8867613,79.6299614 33.6094452,79.9065637 33.2674065,79.9065637" id="Fill-9" stroke="#A5D6FE" stroke-width="0.5" fill="#A5D6FE" mask="url(#mask-2)"></path>
                    <path d="M35.5122735,79.9065637 C35.1702348,79.9065637 34.8929187,79.6299614 34.8929187,79.2888031 L34.8929187,70.8985328 C34.8929187,70.5573745 35.1702348,70.2807722 35.5122735,70.2807722 C35.8543123,70.2807722 36.1316284,70.5573745 36.1316284,70.8985328 L36.1316284,79.2888031 C36.1316284,79.6299614 35.8543123,79.9065637 35.5122735,79.9065637" id="Fill-10" stroke="#A5D6FE" stroke-width="0.5" fill="#A5D6FE" mask="url(#mask-2)"></path>
                    <path d="M37.7575742,79.9065637 C37.4155355,79.9065637 37.1382194,79.6299614 37.1382194,79.2888031 L37.1382194,70.8985328 C37.1382194,70.5573745 37.4155355,70.2807722 37.7575742,70.2807722 C38.0996129,70.2807722 38.376929,70.5573745 38.376929,70.8985328 L38.376929,79.2888031 C38.376929,79.6299614 38.0996129,79.9065637 37.7575742,79.9065637" id="Fill-11" stroke="#A5D6FE" stroke-width="0.5" fill="#A5D6FE" mask="url(#mask-2)"></path>
                    <path d="M11.4455071,70.2828571 L46.10832,70.2828571 L46.10832,41.5315058 C46.10832,29.2283398 41.3276748,21.0121236 37.3170426,16.2859459 C33.5886813,11.8921236 29.8140232,9.61057915 28.7767587,9.03081081 C27.7399587,9.61027027 23.9651458,11.8918147 20.2364748,16.2859459 C16.2261523,21.0121236 11.4455071,29.2283398 11.4455071,41.5315058 L11.4455071,70.2828571 Z M46.7276748,71.5183784 L10.8261523,71.5183784 C10.4841135,71.5183784 10.2067974,71.2417761 10.2067974,70.9006178 L10.2067974,41.5315058 C10.2067974,35.9259459 11.1649394,30.6643243 13.0549006,25.8930502 C14.5687587,22.0711197 16.6798297,18.5551351 19.3294297,15.4427027 C23.846849,10.136139 28.3114684,7.87019305 28.4994426,7.77629344 C28.6739458,7.68903475 28.8794168,7.68903475 29.0542297,7.77629344 C29.242049,7.87019305 33.7068232,10.136139 38.2243974,15.4427027 C40.8738426,18.5551351 42.9849135,22.0711197 44.4987716,25.8930502 C46.3887329,30.6643243 47.3470297,35.9259459 47.3470297,41.5315058 L47.3470297,70.9006178 C47.3470297,71.2417761 47.0697135,71.5183784 46.7276748,71.5183784 L46.7276748,71.5183784 Z" id="Fill-12" stroke="#FFFFFF" stroke-width="0.5" fill="#FFFFFF" mask="url(#mask-2)"></path>
                    <path d="M13.2718916,43.1396293 C12.9298529,43.1396293 12.6525368,42.863027 12.6525368,42.5218687 C12.6525368,35.2004788 14.2736981,28.5258842 17.4709626,22.6834131 C17.6349368,22.3839537 18.0113497,22.2739923 18.3114271,22.4372355 C18.6116594,22.6006332 18.7222142,22.9759228 18.5583948,23.2753822 C15.4614658,28.9342239 13.8912465,35.4097452 13.8912465,42.5218687 C13.8912465,42.863027 13.6139303,43.1396293 13.2718916,43.1396293" id="Fill-13" stroke="#FFFFFF" stroke-width="0.5" fill="#FFFFFF" mask="url(#mask-2)"></path>
                    <path d="M20.3666477,19.2382085 C19.8542865,19.9534208 19.3502865,20.7112587 18.8622348,21.5128031 L20.3666477,19.2382085 Z" id="Fill-14" stroke="#FFFFFF" stroke-width="0.5" fill="#FFFFFF" mask="url(#mask-2)"></path>
                    <path d="M18.8615845,22.1306409 C18.7521135,22.1306409 18.6410942,22.1017606 18.5406039,22.0407568 C18.2482684,21.8636139 18.1553652,21.4836911 18.3328103,21.1921081 C18.8107974,20.4072432 19.3254813,19.6290193 19.8626168,18.8790579 C20.0614297,18.601529 20.4482168,18.536973 20.7266168,18.735583 C21.0050168,18.9338842 21.0694297,19.3196757 20.8706168,19.5973591 C20.3512877,20.3224556 19.8536361,21.0747336 19.3915974,21.8334981 C19.2750039,22.0248494 19.0707716,22.1306409 18.8615845,22.1306409" id="Fill-15" stroke="#FFFFFF" stroke-width="0.5" fill="#FFFFFF" mask="url(#mask-2)"></path>
                    <path d="M24.9554942,13.9785637 C23.8178942,15.0548571 22.6160361,16.3314595 21.4333781,17.8233514 L24.9554942,13.9785637 Z" id="Fill-16" stroke="#FFFFFF" stroke-width="0.5" fill="#FFFFFF" mask="url(#mask-2)"></path>
                    <path d="M21.4330529,18.4410502 C21.2984981,18.4410502 21.1630142,18.3974981 21.0492077,18.3079228 C20.7810271,18.0961853 20.7355045,17.7077683 20.9476335,17.4401236 C22.044511,16.0564942 23.2494658,14.740973 24.5292077,13.5303166 C24.7774142,13.295722 25.1694658,13.3059151 25.4048206,13.5534826 C25.6401755,13.8010502 25.6298013,14.1919382 25.3817497,14.4268417 C24.1447432,15.5970347 22.9797368,16.868695 21.9192465,18.2064556 C21.7970787,18.3605869 21.6159174,18.4410502 21.4330529,18.4410502" id="Fill-17" stroke="#FFFFFF" stroke-width="0.5" fill="#FFFFFF" mask="url(#mask-2)"></path>
                    <polygon id="Fill-18" stroke="#FFFFFF" stroke-width="0.5" fill="#1A171B" mask="url(#mask-2)" points="28.7763252 3.93340541 27.2316542 9.31919691 30.3216155 9.31919691"></polygon>
                    <path d="M28.0530116,8.70143629 L29.5001342,8.70143629 L28.7764181,6.17896525 L28.0530116,8.70143629 Z M30.3217084,9.93695753 L27.2315923,9.93695753 C27.0372697,9.93695753 26.8540955,9.84599228 26.7370374,9.6910888 C26.6201342,9.53633977 26.5826632,9.33572201 26.6362374,9.14931274 L28.1809084,3.76352124 C28.2569342,3.49834749 28.4998761,3.31564479 28.7762632,3.31564479 C29.0528052,3.31564479 29.2957471,3.49834749 29.3717729,3.7633668 L30.9172181,9.1491583 C30.9706374,9.33556757 30.9333213,9.53633977 30.8162632,9.6910888 C30.6992052,9.84599228 30.5161858,9.93695753 30.3217084,9.93695753 L30.3217084,9.93695753 Z" id="Fill-19" stroke="#FFFFFF" stroke-width="0.5" fill="#FFFFFF" mask="url(#mask-2)"></path>
                    <path d="M46.7276439,53.0028417 L10.8261213,53.0028417 C10.4840826,53.0028417 10.2067665,52.7262394 10.2067665,52.3850811 C10.2067665,52.0439228 10.4840826,51.7673205 10.8261213,51.7673205 L46.7276439,51.7673205 C47.0696826,51.7673205 47.3469987,52.0439228 47.3469987,52.3850811 C47.3469987,52.7262394 47.0696826,53.0028417 46.7276439,53.0028417" id="Fill-20" stroke="#FFFFFF" stroke-width="0.5" fill="#FFFFFF" mask="url(#mask-2)"></path>
                    <path d="M28.7767897,26.8043398 C24.159809,26.8043398 20.4034219,30.5510579 20.4034219,35.1564633 C20.4034219,39.7617143 24.159809,43.5084324 28.7767897,43.5084324 C33.3939252,43.5084324 37.1503123,39.7617143 37.1503123,35.1564633 C37.1503123,30.5510579 33.3939252,26.8043398 28.7767897,26.8043398 M28.7767897,44.7439537 C23.4766606,44.7439537 19.1647123,40.4431042 19.1647123,35.1564633 C19.1647123,29.8698224 23.4766606,25.5688185 28.7767897,25.5688185 C34.0769187,25.5688185 38.3890219,29.8698224 38.3890219,35.1564633 C38.3890219,40.4431042 34.0769187,44.7439537 28.7767897,44.7439537" id="Fill-21" stroke="#FFFFFF" stroke-width="0.5" fill="#FFFFFF" mask="url(#mask-2)"></path>
                    <path d="M28.7767897,29.922332 C25.8833187,29.922332 23.5293058,32.2702857 23.5293058,35.1564633 C23.5293058,38.0424865 25.8833187,40.3904402 28.7767897,40.3904402 C31.669951,40.3904402 34.0239639,38.0424865 34.0239639,35.1564633 C34.0239639,32.2702857 31.669951,29.922332 28.7767897,29.922332 M28.7767897,41.4715212 C25.2856413,41.4715212 22.4454348,38.6386255 22.4454348,35.1564633 C22.4454348,31.6741467 25.2856413,28.841251 28.7767897,28.841251 C32.2677832,28.841251 35.1078348,31.6741467 35.1078348,35.1564633 C35.1078348,38.6386255 32.2677832,41.4715212 28.7767897,41.4715212" id="Fill-22" stroke="#FFFFFF" stroke-width="0.5" fill="#FFFFFF" mask="url(#mask-2)"></path>
                    <path d="M28.7767897,1.38988417 C28.2444542,1.38988417 27.8115252,1.82169884 27.8115252,2.35266409 C27.8115252,2.88362934 28.2444542,3.31559846 28.7767897,3.31559846 C29.3089703,3.31559846 29.7418994,2.88362934 29.7418994,2.35266409 C29.7418994,1.82169884 29.3089703,1.38988417 28.7767897,1.38988417 M28.7767897,4.55111969 C27.5614606,4.55111969 26.5728155,3.56486486 26.5728155,2.35266409 C26.5728155,1.14046332 27.5614606,0.154362934 28.7767897,0.154362934 C29.9921187,0.154362934 30.980609,1.14046332 30.980609,2.35266409 C30.980609,3.56486486 29.9921187,4.55111969 28.7767897,4.55111969" id="Fill-23" stroke="#FFFFFF" stroke-width="0.5" fill="#FFFFFF" mask="url(#mask-2)"></path>
                    <path d="M47.3469987,70.4882008 L56.3149471,74.2021776 L56.3149471,72.556 C56.3149471,68.300556 49.9125213,61.4072741 47.3469987,58.8160772 L47.3469987,70.4882008 Z M56.9343019,75.7454981 C56.8537858,75.7454981 56.7732697,75.7297452 56.6967794,75.6982394 L46.4901213,71.4712124 C46.2589471,71.3754595 46.108289,71.1502857 46.108289,70.900556 L46.108289,57.3387027 C46.108289,57.0922162 46.255231,56.8692046 46.4822245,56.7715985 C46.7089084,56.6741467 46.9725987,56.7201699 47.1523665,56.8891274 C47.577089,57.2885097 57.5536568,66.7336062 57.5536568,72.556 L57.5536568,75.1277375 C57.5536568,75.3340695 57.4502245,75.5269653 57.2781987,75.6414054 C57.1749213,75.7102857 57.0549213,75.7454981 56.9343019,75.7454981 L56.9343019,75.7454981 Z" id="Fill-24" stroke="#FFFFFF" stroke-width="0.5" fill="#FFFFFF" mask="url(#mask-2)"></path>
                    <path d="M10.2067974,58.8163552 C7.64127484,61.4081699 1.23869419,68.3029961 1.23869419,72.5559691 L1.23869419,74.2023012 L10.2067974,70.4881699 L10.2067974,58.8163552 Z M0.619339355,75.7454672 C0.49872,75.7454672 0.37872,75.7102548 0.275442581,75.6413745 C0.103261935,75.5269344 -1.5483871e-05,75.3340386 -1.5483871e-05,75.1277066 L-1.5483871e-05,72.5559691 C-1.5483871e-05,66.7337297 9.9767071,57.2884788 10.4012748,56.8890965 C10.5811974,56.720139 10.8444232,56.6739614 11.0715716,56.7715676 C11.2985652,56.8693282 11.4455071,57.0923398 11.4455071,57.3388263 L11.4455071,70.9006795 C11.4455071,71.1502548 11.294849,71.3754286 11.0636748,71.4711815 L0.856861935,75.6982085 C0.780526452,75.7298687 0.699700645,75.7454672 0.619339355,75.7454672 L0.619339355,75.7454672 Z" id="Fill-25" stroke="#FFFFFF" stroke-width="0.5" fill="#FFFFFF" mask="url(#mask-2)"></path>
                    <path d="M28.500062,58 C28.0515183,58 27,60.0413312 27,63.9998321 C27,67.9585569 28.0515183,70 28.500062,70 C28.9486057,70 30,67.9585569 30,63.9998321 C30,60.0413312 28.9486057,58 28.500062,58 M28.5000622,71 C26.7823654,71 26,67.3713175 26,63.9998295 C26,60.6284552 26.7823654,57 28.5000622,57 C30.2176346,57 31,60.6284552 31,63.9998295 C31,67.3713175 30.2176346,71 28.5000622,71" id="Fill-26" stroke="#FFFFFF" stroke-width="0.5" fill="#FFFFFF" mask="url(#mask-2)"></path>
                    <path d="M46.7276439,55.2932664 L10.8261213,55.2932664 C10.4840826,55.2932664 10.2067665,55.0166641 10.2067665,54.6755058 C10.2067665,54.3343475 10.4840826,54.0577452 10.8261213,54.0577452 L46.7276439,54.0577452 C47.0696826,54.0577452 47.3469987,54.3343475 47.3469987,54.6755058 C47.3469987,55.0166641 47.0696826,55.2932664 46.7276439,55.2932664" id="Fill-27" stroke="#FFFFFF" stroke-width="0.5" fill="#FFFFFF" mask="url(#mask-2)"></path>
                    <path d="M43.8334916,68.6677992 C43.4914529,68.6677992 43.2141368,68.3911969 43.2141368,68.0500386 L43.2141368,57.0699614 C43.2141368,56.7288031 43.4914529,56.4522008 43.8334916,56.4522008 C44.1755303,56.4522008 44.4528465,56.7288031 44.4528465,57.0699614 L44.4528465,68.0500386 C44.4528465,68.3911969 44.1755303,68.6677992 43.8334916,68.6677992" id="Fill-28" stroke="#FFFFFF" stroke-width="0.5" fill="#FFFFFF" mask="url(#mask-2)"></path>
                    <path d="M43.8334916,50.5752278 C43.4914529,50.5752278 43.2141368,50.2986255 43.2141368,49.9574672 L43.2141368,45.3678147 C43.2141368,45.0266564 43.4914529,44.7500541 43.8334916,44.7500541 C44.1755303,44.7500541 44.4528465,45.0266564 44.4528465,45.3678147 L44.4528465,49.9574672 C44.4528465,50.2986255 44.1755303,50.5752278 43.8334916,50.5752278" id="Fill-29" stroke="#FFFFFF" stroke-width="0.5" fill="#FFFFFF" mask="url(#mask-2)"></path>
                    <path d="M43.8334916,44.366332 C43.4914529,44.366332 43.2141368,44.0897297 43.2141368,43.7485714 L43.2141368,42.1030116 C43.2141368,41.7618533 43.4914529,41.485251 43.8334916,41.485251 C44.1755303,41.485251 44.4528465,41.7618533 44.4528465,42.1030116 L44.4528465,43.7485714 C44.4528465,44.0897297 44.1755303,44.366332 43.8334916,44.366332" id="Fill-30" stroke="#FFFFFF" stroke-width="0.5" fill="#FFFFFF" mask="url(#mask-2)"></path>
                </g>
            </g>
        </g>
    </g>
</svg>