<?xml version="1.0" encoding="UTF-8"?>
<svg width="138px" height="180px" viewBox="0 0 138 180" version="1.1" xmlns="http://www.w3.org/2000/svg" xmlns:xlink="http://www.w3.org/1999/xlink">
    <!-- Generator: Sketch 55.2 (78181) - https://sketchapp.com -->
    <title>Group 11</title>
    <desc>Created with Sketch.</desc>
    <defs>
        <polygon id="path-1" points="0 0 137.7963 0 137.7963 179.99982 0 179.99982"></polygon>
        <polygon id="path-3" points="0 180 137.7963 180 137.7963 0 0 0"></polygon>
    </defs>
    <g id="Page-1" stroke="none" stroke-width="1" fill="none" fill-rule="evenodd">
        <g id="Shop-page" transform="translate(-290.000000, -678.000000)">
            <g id="Group-11" transform="translate(290.000000, 678.000000)">
                <g id="Group-3">
                    <mask id="mask-2" fill="white">
                        <use xlink:href="#path-1"></use>
                    </mask>
                    <g id="Clip-2"></g>
                    <path d="M107.10144,66.54492 C111.21804,66.54492 111.22164,72.77742 107.10144,72.77742 C102.98484,72.77742 102.97764,66.54492 107.10144,66.54492 L107.10144,66.54492 Z M59.30154,66.54492 C63.41814,66.54492 63.42354,72.77742 59.30154,72.77742 C55.18404,72.77742 55.17864,66.54492 59.30154,66.54492 L59.30154,66.54492 Z M43.87464,34.73982 L38.60784,34.73982 L38.60784,26.53272 C38.60784,11.90322 50.51124,-0.00018 65.14074,-0.00018 L65.14074,5.26662 C53.41464,5.26662 43.87464,14.80482 43.87464,26.53272 L43.87464,34.73982 Z M132.53004,174.73302 L30.14784,174.73302 L30.14784,44.15202 L56.66814,44.15202 L56.66814,61.79382 L61.93494,61.79382 L61.93494,44.15202 L104.46804,44.15202 L104.46804,61.79382 L109.73484,61.79382 L109.73484,44.15202 L132.53004,44.15202 L132.53004,174.73302 Z M5.26644,170.59302 L5.26644,44.15202 L12.15414,44.15202 L12.21534,160.09992 L17.48214,160.09632 L17.42094,44.15202 L24.88104,44.15202 L24.88104,170.59302 C19.21914,166.64472 10.92834,166.64472 5.26644,170.59302 L5.26644,170.59302 Z M61.93494,26.53272 C61.93494,14.80482 71.47494,5.26662 83.20014,5.26662 C94.92804,5.26662 104.46804,14.80482 104.46804,26.53272 L104.46804,38.88522 L61.93494,38.88522 L61.93494,26.53272 Z M109.73484,26.53272 C109.73484,11.90322 97.83144,-0.00018 83.20014,-0.00018 C68.57064,-0.00018 56.66814,11.90322 56.66814,26.53272 L56.66814,38.88522 L-0.00036,38.88522 L-0.00036,178.51662 L0.09684,178.51662 C0.03654,178.95852 -0.00036,179.40672 -0.00036,179.86122 L5.26644,179.86122 C5.26644,176.08662 9.75744,172.90062 15.07374,172.90062 C19.77894,172.90062 24.88104,175.61772 24.88104,179.99982 L137.79684,179.99982 L137.79684,38.88522 L109.73484,38.88522 L109.73484,26.53272 Z" id="Fill-1" fill="#000000" mask="url(#mask-2)"></path>
                </g>
                <path d="M82.34379,118.8027 L70.92909,124.461 L73.38159,111.9573 L64.47339,102.8511 L77.12109,101.3184 L83.03229,90.0333 L88.39539,101.5893 L100.95669,103.7223 L91.62189,112.3929 L93.47589,125.0001 L82.34379,118.8027 Z M112.35969,100.3158 L92.00889,96.8589 L83.31669,78.1335 L73.73979,96.4224 L53.24589,98.9028 L67.68099,113.6619 L63.70659,133.9182 L82.20159,124.7526 L100.23849,134.793 L97.23699,114.3684 L112.35969,100.3158 Z" id="Fill-4" fill="#3C76A6"></path>
                <mask id="mask-4" fill="white">
                    <use xlink:href="#path-3"></use>
                </mask>
                <g id="Clip-7"></g>
                <polygon id="Fill-6" fill="#3C76A6" mask="url(#mask-4)" points="70.2297 154.5453 77.2524 154.5453 77.2524 149.2785 70.2297 149.2785"></polygon>
                <polygon id="Fill-8" fill="#3C76A6" mask="url(#mask-4)" points="98.3196 154.5453 105.3423 154.5453 105.3423 149.2785 98.3196 149.2785"></polygon>
                <polygon id="Fill-9" fill="#3C76A6" mask="url(#mask-4)" points="84.2751 154.5453 91.2978 154.5453 91.2978 149.2785 84.2751 149.2785"></polygon>
                <polygon id="Fill-10" fill="#3C76A6" mask="url(#mask-4)" points="56.1852 154.5453 63.2079 154.5453 63.2079 149.2785 56.1852 149.2785"></polygon>
            </g>
        </g>
    </g>
</svg>